<svg width="217" height="163" viewBox="0 0 217 163" fill="none" xmlns="http://www.w3.org/2000/svg">
<path d="M60.4132 56.4194C47.8778 53.6264 38.4873 42.4326 38.4873 29.0396C38.4873 13.5573 51.0446 1 66.5269 1C77.5448 1 87.0672 7.35563 91.6635 16.5922" stroke="#D6591C" stroke-miterlimit="10"/>
<path d="M104.815 71.8352H101.934L102.022 77.3992L96.9196 71.8352H73.8062V59.7617H104.815V71.8352Z" fill="#ACD4FC"/>
<path d="M73.8062 46.655H76.6871L76.5771 52.241L81.6792 46.655H104.815V34.6035H73.8062V46.655Z" fill="#F1EBE4"/>
<path d="M170.35 158.549C186.65 158.549 199.863 145.336 199.863 129.036C199.863 112.737 186.65 99.5234 170.35 99.5234C154.05 99.5234 140.837 112.737 140.837 129.036C140.837 145.336 154.05 158.549 170.35 158.549Z" stroke="#3187E8" stroke-miterlimit="10"/>
<path d="M44.5347 102.91H64.7671C95.4897 102.91 120.406 127.827 120.406 158.549H44.5347V102.91Z" fill="#F1EBE4"/>
<path d="M195.861 147.159C195.861 147.159 201.293 149.578 210.596 147.159C210.596 147.159 207.671 144.146 203.273 144.08C198.852 143.992 195.861 147.159 195.861 147.159Z" fill="#171C23"/>
<path d="M170.57 147.156C170.57 147.156 176.728 150.235 185.304 147.156C185.304 147.156 175.958 141.549 170.57 147.156Z" fill="#171C23"/>
<path d="M169.25 95.1475C169.25 95.1475 176.728 99.6558 188.713 98.5562C200.699 97.4566 202.238 91.8927 202.238 91.8927C202.238 91.8927 179.257 86.6806 169.25 95.1475Z" fill="#171C23"/>
<path d="M182.424 143.969L183.655 151.996L173.759 152.259L172.33 143.595L182.424 143.969Z" fill="#FFB64D"/>
<path d="M183.656 151.864L184.359 155.976C184.557 157.538 183.612 158.549 181.566 158.549H172.99C172.99 158.549 155.55 158.835 164.721 154.635C170.571 151.974 173.473 150.654 173.473 150.654L183.656 151.864Z" fill="#171C23"/>
<path d="M208.264 143.969L209.496 151.996L199.599 152.259L198.17 143.595L208.264 143.969Z" fill="#FFB64D"/>
<path d="M209.496 151.864L210.199 155.976C210.397 157.538 209.452 158.549 207.406 158.549H198.83C198.83 158.549 181.39 158.835 190.561 154.635C196.41 151.974 199.313 150.654 199.313 150.654L209.496 151.864Z" fill="#171C23"/>
<path d="M172.022 92.6172L164.743 112.388C163.511 115.687 163.335 119.293 164.215 122.702L170.548 147.135C170.548 147.135 174.023 146.321 177.63 146.365C181.412 146.409 185.283 147.135 185.283 147.135L180.005 118.985C180.005 118.985 189.176 106.186 188.648 92.7491L172.022 92.6172Z" fill="#FE8244"/>
<path d="M171.934 146.608L165.996 120.834C165.468 118.503 165.578 116.062 166.37 113.775L173.363 93.3223" stroke="white" stroke-miterlimit="10"/>
<path d="M210.595 147.157C210.595 147.157 206.945 146.013 202.942 146.233C198.874 146.453 195.861 147.157 195.861 147.157L189.527 122.702C187.372 113.729 184.139 92.6172 184.139 92.6172L194.409 91.3636L202.041 90.418L202.59 95.1022L205.339 119.007L210.595 147.157Z" fill="#FE8244"/>
<path d="M215.785 146.278L210.287 119.448L207.143 92.1777" stroke="white" stroke-miterlimit="10"/>
<path d="M161.201 55.8701C161.201 55.8701 158.474 62.7096 163.467 67.9876C163.467 67.9876 166.128 63.9631 165.204 60.4664C164.28 56.9697 161.201 55.8701 161.201 55.8701Z" fill="#171C23"/>
<path d="M167.997 56.5076C167.997 56.5076 162.499 56.0018 156.716 57.7392L156.144 41.0254C156.144 41.0254 153.747 37.4627 151.262 42.103C148.205 47.8209 148.073 60.2243 149.964 64.7986C151.855 69.3729 168.877 66.6019 168.877 66.6019C168.877 66.6019 171.428 61.9176 167.997 56.5076Z" fill="#FFB64D"/>
<path d="M149.546 38.1232C148.028 37.5734 145.983 36.7157 146.423 39.8165C146.885 42.9834 149.172 45.0726 153.394 43.6871C158.452 42.0157 154.978 38.607 154.978 38.607C154.978 38.607 151.151 38.695 149.546 38.1232Z" fill="#FFB64D"/>
<path d="M148.622 19.9131H65.2734V83.0296H148.622V19.9131Z" stroke="#171C23" stroke-miterlimit="10"/>
<path d="M148.622 19.9131H65.2734V28.27H148.622V19.9131Z" stroke="#171C23" stroke-miterlimit="10"/>
<path d="M146.335 39.3749C146.335 39.3749 146.511 38.6052 147.962 39.155C148.886 39.5069 149.546 39.7928 150.711 39.9247" stroke="#171C23" stroke-width="0.5" stroke-miterlimit="10"/>
<path d="M146.555 40.6279C146.555 40.6279 146.731 39.8582 148.183 40.4079C149.106 40.7598 149.766 41.0457 150.932 41.1777" stroke="#171C23" stroke-width="0.5" stroke-miterlimit="10"/>
<path d="M147.017 41.9042C147.017 41.9042 147.193 41.1345 148.644 41.6843C149.568 42.0362 150.228 42.3221 151.393 42.454" stroke="#171C23" stroke-width="0.5" stroke-miterlimit="10"/>
<path d="M156.716 57.7393C156.716 57.7393 156.32 58.2011 156.276 58.9048" stroke="#171C23" stroke-width="0.5" stroke-miterlimit="10"/>
<path d="M150.404 44.0817C150.404 44.0817 151.305 44.1697 152.031 43.8838" stroke="#171C23" stroke-width="0.5" stroke-miterlimit="10"/>
<path d="M202.238 91.8699C202.238 91.8699 200.303 95.2786 194.387 96.2462C194.321 96.2682 194.233 96.2682 194.167 96.2902C192.869 96.4882 191.396 96.5541 189.703 96.4662C185.986 96.2462 182.687 95.3226 179.432 94.7508C179.344 94.7288 179.234 94.7068 179.146 94.7068C177.959 94.5089 176.793 94.355 175.606 94.289C175.518 94.289 175.408 94.289 175.32 94.289C173.363 94.223 171.361 94.4429 169.25 95.1466L169.646 90.6603L169.668 90.4184L170.79 77.2893L170.812 76.9814L171.625 67.437C171.163 67.4809 170.68 67.5469 170.196 67.5909C170.108 67.5909 170.042 67.6129 169.954 67.6129C167.843 67.8108 165.643 67.9648 163.488 67.9648C163.488 67.9648 164.5 63.3685 162.763 58.7722C162.741 58.7062 162.697 58.6182 162.675 58.5523C162.301 57.6286 161.839 56.7269 161.223 55.8473C161.223 55.8473 166.325 53.4062 173.78 53.0543C173.846 53.0543 173.934 53.0543 174 53.0543C175.892 52.9663 177.915 53.0323 180.048 53.2962L180.07 53.3842H180.114L189.944 53.1423L200.676 56.9249L202.04 87.0757L202.062 87.2956L202.238 91.8699Z" fill="#3187E8"/>
<path d="M173.979 53.0547C173.935 53.6265 173.781 54.1763 173.495 54.7041C172.99 55.6277 172.154 56.3095 171.12 56.5954C170.746 56.7053 170.373 56.7493 169.999 56.7493C169.339 56.7493 168.701 56.5734 168.107 56.2655L168.217 56.0676C169.097 56.5514 170.109 56.6613 171.054 56.3754C172.022 56.0896 172.814 55.4518 173.275 54.5941C173.539 54.1103 173.693 53.5825 173.737 53.0547C173.825 53.0547 173.913 53.0547 173.979 53.0547Z" fill="#64B2FF"/>
<path d="M186.251 66.25C186.537 67.2176 186.427 68.2292 185.943 69.0869L186.141 69.1969C186.647 68.2732 186.757 67.1956 186.471 66.184C186.185 65.1724 185.504 64.3367 184.58 63.8309C182.667 62.7753 180.247 63.479 179.214 65.3923L179.412 65.5022C180.401 63.6989 182.689 63.0392 184.492 64.0288C185.35 64.4906 185.965 65.2823 186.251 66.25Z" fill="#64B2FF"/>
<path d="M177.828 73.4842C176.421 74.4298 176.047 76.3431 176.992 77.7506L177.168 77.6187C176.289 76.2991 176.641 74.5178 177.96 73.6601C179.28 72.7804 181.061 73.1323 181.919 74.4518L182.095 74.3199C181.149 72.9124 179.236 72.5385 177.828 73.4842Z" fill="#64B2FF"/>
<path d="M170.175 67.5913C170.087 67.5913 170.021 67.6133 169.933 67.6133C169.845 67.4593 169.757 67.3054 169.647 67.1514C168.437 65.4801 166.084 65.1282 164.413 66.3377L164.281 66.1618C166.04 64.8643 168.525 65.2601 169.801 67.0195C169.977 67.2174 170.087 67.4153 170.175 67.5913Z" fill="#64B2FF"/>
<path d="M165.293 61.7191L165.073 61.6971C165.161 61.0153 164.985 60.3336 164.567 59.7838C164.149 59.234 163.555 58.8821 162.852 58.7941C162.808 58.7941 162.786 58.7941 162.742 58.7941C162.72 58.7282 162.676 58.6402 162.654 58.5742C162.72 58.5742 162.808 58.5742 162.874 58.5962C163.621 58.7062 164.259 59.08 164.721 59.6738C165.183 60.2676 165.381 60.9933 165.293 61.7191Z" fill="#64B2FF"/>
<path d="M172.968 61.8305C172.792 61.2367 173.144 60.6209 173.716 60.467L173.65 60.2471C172.946 60.445 172.55 61.1927 172.748 61.8965C172.924 62.4682 173.452 62.8421 174.024 62.8421C174.156 62.8421 174.266 62.8201 174.398 62.7981L174.332 62.5782C173.76 62.7321 173.144 62.4023 172.968 61.8305Z" fill="#64B2FF"/>
<path d="M174.001 68.625L173.869 68.8009C174.353 69.1748 174.441 69.8785 174.067 70.3404C173.694 70.8242 172.99 70.9122 172.528 70.5383L172.396 70.7142C172.638 70.8902 172.924 71.0001 173.21 71.0001C173.276 71.0001 173.32 71.0001 173.386 71.0001C173.737 70.9561 174.045 70.7802 174.265 70.4943C174.683 69.9005 174.573 69.0648 174.001 68.625Z" fill="#64B2FF"/>
<path d="M170.549 90.749C170.439 90.7709 170.329 90.7929 170.219 90.7929C170.021 90.7929 169.823 90.749 169.625 90.661L169.647 90.4191C169.911 90.573 170.197 90.617 170.483 90.529C171.076 90.3751 171.428 89.7813 171.274 89.1875L171.494 89.1436C171.692 89.8473 171.252 90.551 170.549 90.749Z" fill="#64B2FF"/>
<path d="M193.926 85.7568C193.618 85.6028 193.244 85.5808 192.915 85.6908L192.981 85.8887C193.266 85.8008 193.552 85.8227 193.816 85.9547C194.08 86.0866 194.278 86.3066 194.366 86.5925C194.564 87.1643 194.234 87.802 193.662 87.9779L193.728 88.1759C194.058 88.0659 194.344 87.824 194.498 87.5161C194.652 87.2082 194.674 86.8344 194.564 86.5045C194.476 86.1966 194.234 85.9107 193.926 85.7568Z" fill="#64B2FF"/>
<path d="M183.942 54.5504C184.623 54.6383 185.239 54.9902 185.657 55.518C186.075 56.0458 186.273 56.7276 186.185 57.4093C186.097 58.0911 185.745 58.7068 185.217 59.1247L185.349 59.3006C185.943 58.8388 186.317 58.179 186.405 57.4313C186.493 56.6836 186.295 55.9579 185.833 55.3641C185.371 54.7703 184.711 54.3964 183.964 54.3085C183.216 54.2205 182.49 54.4184 181.896 54.8803L182.028 55.0562C182.578 54.6603 183.26 54.4844 183.942 54.5504Z" fill="#64B2FF"/>
<path d="M175.189 93.6074C175.277 93.8493 175.431 94.0912 175.585 94.2892C175.497 94.2892 175.387 94.2892 175.299 94.2892C175.167 94.1132 175.057 93.9153 174.969 93.6954L175.189 93.6074Z" fill="#64B2FF"/>
<path d="M179.434 94.7508C179.346 94.7288 179.236 94.7068 179.148 94.7068C180.05 94.025 180.401 92.7935 179.984 91.7159L180.182 91.6279C180.643 92.7275 180.292 93.9811 179.434 94.7508Z" fill="#64B2FF"/>
<path d="M194.366 96.2465C194.3 96.2685 194.212 96.2685 194.146 96.2905C194.212 95.015 193.575 93.7174 192.365 93.0577C191.551 92.5959 190.606 92.4859 189.704 92.7278C188.802 92.9697 188.055 93.5635 187.593 94.3772L187.395 94.2672C187.879 93.4096 188.671 92.7718 189.638 92.5079C190.606 92.244 191.595 92.354 192.453 92.8598C193.751 93.5635 194.432 94.905 194.366 96.2465Z" fill="#64B2FF"/>
<path d="M188.538 79.9283C189.066 80.698 189.264 81.6217 189.088 82.5453C188.912 83.469 188.406 84.2607 187.614 84.7885L187.746 84.9644C188.56 84.3926 189.11 83.557 189.308 82.5893C189.484 81.6217 189.286 80.632 188.714 79.7964C188.142 78.9607 187.306 78.4329 186.339 78.2349C185.371 78.059 184.382 78.2569 183.546 78.8287L183.678 79.0047C184.448 78.4769 185.371 78.2789 186.295 78.4549C187.219 78.6528 188.01 79.1586 188.538 79.9283Z" fill="#64B2FF"/>
<path d="M202.018 87.3189C201.82 87.2749 201.601 87.253 201.381 87.2749C200.127 87.3409 199.181 88.4185 199.247 89.6721H199.027C198.984 89.0123 199.203 88.3745 199.643 87.8687C200.083 87.3629 200.699 87.077 201.359 87.033C201.579 87.011 201.798 87.033 201.996 87.077L202.018 87.3189Z" fill="#64B2FF"/>
<path d="M183.48 87.3403C183.326 86.6806 183.744 86.0208 184.404 85.8889L184.36 85.6689C183.59 85.8449 183.084 86.6146 183.26 87.3843C183.414 88.0661 184.008 88.5059 184.668 88.5059C184.778 88.5059 184.866 88.4839 184.975 88.4619L184.931 88.242C184.294 88.4179 183.634 88.0001 183.48 87.3403Z" fill="#64B2FF"/>
<path d="M171.802 75.2002C171.824 75.8599 171.582 76.4977 171.12 76.9815C171.01 77.0915 170.901 77.2015 170.769 77.2894L170.791 76.9815C170.857 76.9376 170.901 76.8716 170.966 76.8276C171.384 76.3878 171.604 75.816 171.582 75.2002H171.802Z" fill="#64B2FF"/>
<path d="M174.704 40.7615C174.704 40.7615 173.407 37.7706 175.166 35.9453C175.188 35.9453 178.267 38.4084 174.704 40.7615Z" fill="#171C23"/>
<path d="M203.536 72.0553C203.536 72.0553 197.884 74.2545 191.198 72.0993C191.198 72.0993 193.222 69.7022 196.432 69.0645C199.665 68.4267 203.536 72.0553 203.536 72.0553Z" fill="#171C23"/>
<path d="M192.979 77.949L177.783 81.9515C177.783 81.9515 171.691 85.5582 176.727 87.0316C182.951 88.8569 195.113 86.4598 199.203 83.6888C203.293 80.9179 199.291 76.9374 192.979 77.949Z" fill="#FFB64D"/>
<path d="M177.981 81.886C177.981 81.886 177.036 80.3026 175.65 79.7088C174.265 79.1151 172.681 80.0387 172.681 80.0387C172.681 80.0387 172.593 81.2483 174.023 81.3582C175.452 81.4682 175.474 82.3479 175.474 82.3479L177.981 81.886Z" fill="#FFB64D"/>
<path d="M175.43 82.1281C175.43 82.1281 174.287 82.7658 172.593 82.5459C170.988 82.326 168.811 81.9081 169.866 84.833C170.944 87.8459 173.627 89.4074 177.476 87.1862C182.094 84.5252 177.981 81.9081 177.981 81.9081C177.981 81.9081 175.826 81.5343 175.43 82.1281Z" fill="#FFB64D"/>
<path d="M192.628 69.5037C192.628 69.5037 192.254 71.6809 192.694 80.5436L200.655 82.149C200.655 82.149 203.096 76.4312 201.887 68.2282C200.457 58.3979 192.628 69.5037 192.628 69.5037Z" fill="#FFB64D"/>
<path d="M188.137 43.1402C188.544 39.2995 185.76 35.8566 181.919 35.4503C178.078 35.044 174.635 37.8281 174.229 41.6688C173.823 45.5095 176.607 48.9524 180.447 49.3588C184.288 49.7651 187.731 46.981 188.137 43.1402Z" fill="#FFB64D"/>
<path d="M188.45 41.8389L189.923 53.1427L180.093 53.3846L180.269 47.0509L188.45 41.8389Z" fill="#FFB64D"/>
<path d="M177.189 48.1504C178.113 48.8101 179.235 49.228 180.444 49.3599C181.566 49.4699 182.643 49.338 183.611 48.9641" stroke="#171C23" stroke-miterlimit="10"/>
<path d="M186.757 44.1263L186.163 41.6192C186.163 41.6192 176.157 38.2105 175.673 38.0785C175.673 38.0785 179.389 32.1187 186.691 36.1652C186.691 36.1652 191.089 39.0681 189.286 43.6424L186.757 44.1263Z" fill="#171C23"/>
<path d="M189.957 43.8323C190.062 42.8419 189.344 41.9541 188.353 41.8493C187.363 41.7446 186.475 42.4625 186.37 43.4528C186.266 44.4432 186.984 45.331 187.974 45.4358C188.964 45.5406 189.852 44.8226 189.957 43.8323Z" fill="#FFB64D"/>
<path d="M188.669 44.6979C189.263 44.434 189.527 43.7303 189.263 43.1365C188.999 42.5427 188.295 42.2788 187.702 42.5427" stroke="#171C23" stroke-miterlimit="10"/>
<path d="M204.24 67.2397C204.24 67.3276 204.24 67.4156 204.218 67.4816C203.998 70.3185 203.558 72.0559 203.558 72.0559C201.975 71.3301 200.347 71.0002 198.83 70.9123C198.764 70.9123 198.676 70.9123 198.61 70.9123C197.246 70.8463 195.971 70.9563 194.893 71.1322C194.827 71.1542 194.739 71.1542 194.673 71.1762C192.606 71.55 191.243 72.1218 191.243 72.1218C189.593 63.2811 190.011 53.1649 190.011 53.1649H191.902H192.122L196.873 53.1429C199.204 53.1209 201.315 54.2425 202.634 55.9798C202.678 56.0458 202.722 56.0898 202.766 56.1558C203.404 57.0354 203.822 58.0911 203.998 59.2346C204.372 62.3135 204.372 65.0625 204.24 67.2397Z" fill="#3187E8"/>
<path d="M179.983 46.1501L177.124 45.4023C177.124 45.4023 177.058 46.436 178.245 46.8758C179.543 47.3156 179.983 46.1501 179.983 46.1501Z" stroke="#171C23" stroke-miterlimit="10"/>
<path d="M187.614 40.2123L186.184 41.6198C186.184 41.6198 176.728 41.6418 174.705 37.4633C172.681 33.2849 177.96 31.4156 180.027 33.1089C182.094 34.8023 179.631 37.3314 179.631 37.3314C179.631 37.3314 181.346 41.048 187.614 40.2123Z" fill="#171C23"/>
<path d="M189.923 53.1431C189.923 53.1431 190.253 57.1456 183.59 57.5855C177.784 57.9593 179.213 55.1224 180.093 53.385C180.973 51.6477 186.734 47.3813 189.923 53.1431Z" fill="#FFB64D"/>
<path d="M191.133 68.2949L191.331 72.0995" stroke="#171C23" stroke-miterlimit="10"/>
<path d="M172.022 65.3047L171.846 67.4379" stroke="#171C23" stroke-miterlimit="10"/>
<path d="M193.508 78.8508C193.508 78.8508 193.2 78.323 192.562 78.0371" stroke="#171C23" stroke-miterlimit="10"/>
<path d="M169.537 83.7119C169.537 83.7119 171.077 84.3717 173.738 84.0858" stroke="#171C23" stroke-miterlimit="10"/>
<path d="M169.889 85.1846C169.889 85.1846 171.45 85.7784 174.111 85.3385" stroke="#171C23" stroke-miterlimit="10"/>
<path d="M170.834 86.7906C170.834 86.7906 171.912 87.0545 174.441 86.7246" stroke="#171C23" stroke-miterlimit="10"/>
<path d="M186.338 106.517L185.745 103.328" stroke="white" stroke-miterlimit="10"/>
<path d="M156.1 40.6733C156.1 40.6733 156.166 38.826 155.33 37.5724C154.472 36.3189 152.647 36.2529 152.647 36.2529C152.647 36.2529 151.921 37.2206 153.065 38.0783C154.208 38.9359 153.747 39.7056 153.747 39.7056L156.1 40.6733Z" fill="#FFB64D"/>
<path d="M192.738 61.4761C192.342 60.1126 193.134 58.6832 194.497 58.2873L194.432 58.0674C192.958 58.5072 192.1 60.0466 192.54 61.5201C192.892 62.7297 194.014 63.5433 195.223 63.5433C195.487 63.5433 195.751 63.4994 195.993 63.4334L195.927 63.2135C194.563 63.6093 193.134 62.8396 192.738 61.4761Z" fill="#64B2FF"/>
<path d="M192.079 53.1416C192.079 53.1856 192.101 53.2076 192.101 53.2516C192.277 53.8233 192.893 54.1752 193.464 53.9993L193.53 54.2192C193.398 54.2632 193.288 54.2632 193.156 54.2632C192.585 54.2632 192.057 53.8893 191.881 53.3175C191.859 53.2735 191.859 53.2076 191.837 53.1636L192.079 53.1416Z" fill="#64B2FF"/>
<path d="M202.701 56.132C202.327 56.4399 201.865 56.6378 201.381 56.7038C201.249 56.7258 201.095 56.7258 200.963 56.7258C200.37 56.7258 199.798 56.5278 199.292 56.176L199.424 56C199.974 56.4179 200.655 56.5718 201.337 56.4839C201.799 56.4179 202.217 56.2419 202.569 55.9561C202.635 56.022 202.679 56.088 202.701 56.132Z" fill="#64B2FF"/>
<path d="M204.24 67.2394C204.24 67.3273 204.24 67.4153 204.218 67.4813C203.184 66.7995 201.821 66.6896 200.655 67.2834C199.291 67.9871 198.588 69.4605 198.808 70.912C198.742 70.912 198.654 70.912 198.588 70.912C198.39 69.3946 199.116 67.8551 200.545 67.1074C201.755 66.4697 203.162 66.5796 204.24 67.2394Z" fill="#64B2FF"/>
<path d="M194.872 71.1305C194.806 71.1525 194.718 71.1525 194.652 71.1745C194.652 70.7347 194.542 70.3168 194.3 69.9429C193.97 69.4371 193.464 69.0633 192.871 68.9533L192.915 68.7334C193.574 68.8873 194.124 69.2612 194.476 69.833C194.74 70.2069 194.872 70.6687 194.872 71.1305Z" fill="#64B2FF"/>
<path d="M50.8912 32.6465H30.0649V52.2852H50.8912V32.6465Z" fill="#F1EBE4"/>
<path d="M50.8912 32.6465H30.0649V36.737H50.8912V32.6465Z" fill="#3187E8"/>
<path d="M34.1118 40.1904H40.0716" stroke="#171C23" stroke-miterlimit="10"/>
<path d="M34.1118 42.6094H46.4272" stroke="#171C23" stroke-miterlimit="10"/>
<path d="M34.1118 45.0283H43.8102" stroke="#171C23" stroke-miterlimit="10"/>
<path d="M34.1118 47.4482H46.4272" stroke="#171C23" stroke-miterlimit="10"/>
<path d="M23.6864 115.314L35.474 125.694C35.474 125.694 39.3006 131.654 34.1325 130.708C27.7549 129.542 17.9466 121.955 15.5275 117.645C13.1303 113.334 18.4963 111.597 23.6864 115.314Z" fill="#846B6B"/>
<path d="M28.7889 107.375C28.7889 107.375 27.9532 109.42 22.8291 116.655L15.022 115.094C15.022 115.094 16.2315 107.616 21.6415 101.327C28.0851 93.8056 28.7889 107.375 28.7889 107.375Z" fill="#846B6B"/>
<path d="M23.6864 115.446C23.6864 115.446 23.0266 115.974 22.1909 116.084" stroke="#171C23" stroke-miterlimit="10"/>
<path d="M21.0253 129.763C21.0253 129.763 18.5622 136.734 27.8867 131.676C37.2113 126.618 41.1258 122.109 41.1258 122.109C41.1258 122.109 24.9398 122.351 21.0253 129.763Z" fill="black"/>
<path d="M76.6426 150.589C76.6426 150.589 86.6269 149.841 88.914 143.617C88.892 143.617 79.6994 140.912 76.6426 150.589Z" fill="black"/>
<path d="M76.1367 144.233L80.3591 152.172L90.2115 150.874L86.3849 143.661L76.1367 144.233Z" fill="#775E5D"/>
<path d="M80.3376 152.04L79.6558 156.043C79.4799 157.538 80.3815 158.55 82.3608 158.55H90.6957C90.6957 158.55 107.629 158.814 98.7227 154.767C93.0488 152.172 90.2339 150.896 90.2339 150.896L80.3376 152.04Z" fill="black"/>
<path d="M36.4194 125.804L64.393 112.543C71.2105 109.42 73.5856 111.883 76.3126 116.391L88.8919 143.617C88.8919 143.617 79.9193 146.3 76.6205 150.589L64.7009 128.531C64.7009 128.531 53.859 140.89 43.8747 139.483C40.1361 138.955 36.4194 125.804 36.4194 125.804Z" fill="#3187E8"/>
<path d="M21.2675 146.63C21.2675 146.63 17.7048 152.59 21.2675 158.527C21.2675 158.505 27.0733 151.314 21.2675 146.63Z" fill="black"/>
<path d="M22.8066 158.506H10.5352L14.7796 150.501L18.3423 150.699H24.1701L22.8066 158.506Z" fill="#775E5D"/>
<path d="M18.3426 150.699L15.9895 147.379C15.0438 146.191 13.7023 146.125 12.3169 147.511L6.42305 153.404C6.42305 153.404 -5.76042 165.192 3.43216 161.761C9.26 159.584 12.1629 158.484 12.1629 158.484L18.3426 150.699Z" fill="black"/>
<path d="M65.3827 145.838C70.2869 150.346 67.098 158.527 60.4565 158.527H21.2671C21.2671 158.527 22.0368 156.02 22.0368 153.095C22.0368 149.291 21.2671 146.652 21.2671 146.652H39.1244L65.3827 145.838Z" fill="#3187E8"/>
<path d="M65.3831 145.839L45.5245 129.323L37.1676 122.374L24.6982 125.387V132.798C24.6982 139.198 28.7667 144.894 34.8145 146.983L45.7444 150.743L65.3831 145.839Z" fill="#3187E8"/>
<path d="M23.7744 153.119H53.3094C55.1787 153.119 55.8605 150.678 54.2771 149.688L35.9139 138.34C34.4844 137.46 33.5168 135.987 33.2749 134.316L32.5272 129.016" stroke="white" stroke-miterlimit="10"/>
<path d="M51.42 71.6641C51.4462 70.4376 50.4732 69.4222 49.2467 69.396C48.0202 69.3698 47.0047 70.3428 46.9786 71.5693C46.9524 72.7958 47.9254 73.8113 49.1519 73.8374C50.3784 73.8636 51.3938 72.8906 51.42 71.6641Z" fill="#171C23"/>
<path d="M52.1662 77.6197C52.1442 78.3675 52.0122 79.0932 51.7923 79.7749C51.6603 80.1708 51.5064 80.5666 51.3085 80.9185C50.0329 83.3596 47.4599 84.987 44.513 84.943C40.3785 84.855 37.1018 81.4243 37.1897 77.2899C37.2777 73.1554 40.7084 69.8786 44.8429 69.9666C48.9773 70.0765 52.2541 73.4853 52.1662 77.6197Z" fill="#846B6B"/>
<path d="M37.1894 77.3123C37.2774 73.1778 40.7081 69.9011 44.8426 69.989C46.6459 70.033 48.2953 70.6928 49.5708 71.7924C49.5708 71.7924 37.1015 81.4468 37.1894 77.3123Z" fill="#171C23"/>
<path d="M39.1693 75.1123L37.5859 89.5609L48.098 89.8248L47.9221 80.6982L39.1693 75.1123Z" fill="#846B6B"/>
<path d="M65.9544 96.2684C65.9544 96.2684 66.1303 90.2207 61.8419 84.6348C61.8419 84.6348 60.2585 87.3618 60.7423 90.5946C61.2261 93.8274 65.9544 96.2684 65.9544 96.2684Z" fill="#171C23"/>
<path d="M68.858 83.4922L71.2331 67.966C71.2331 67.966 74.18 61.5224 76.1813 66.3826C78.6443 72.3864 77.5667 84.7238 75.2356 89.1001C72.9045 93.4765 68.5281 89.8698 68.858 83.4922Z" fill="#846B6B"/>
<path d="M59.8633 86.8333C59.8633 86.8333 61.7765 85.7557 70.2654 83.1826L74.4438 90.154C74.4438 90.154 69.8915 94.3765 61.7546 96.0038C52.0562 97.9611 59.8633 86.8333 59.8633 86.8333Z" fill="#846B6B"/>
<path d="M65.9548 96.2689C65.9548 96.2689 64.4813 97.2366 61.9083 98.3362C61.7103 98.4241 61.5124 98.5121 61.3145 98.5781C59.6431 99.2598 57.5759 99.9856 55.2008 100.535C55.1128 100.557 55.0468 100.579 54.9589 100.579C52.4078 101.151 49.5269 101.547 46.404 101.525L44.7547 97.4785L44.6667 97.2586L41.8077 90.2212L41.6758 89.9133L41.6538 89.8693C41.6538 89.8693 42.6214 89.5394 44.2268 89.0336C44.4028 88.9896 44.5787 88.9237 44.7547 88.8577C46.9318 88.176 50.0547 87.2523 53.4194 86.3946C53.4854 86.3726 53.5734 86.3506 53.6393 86.3506C56.3443 85.6689 59.1813 85.0311 61.8203 84.6133C61.8203 84.6133 61.7103 86.5266 62.2382 89.0116C62.2601 89.0996 62.2821 89.1876 62.3041 89.2536C62.766 91.2768 63.6896 93.6739 65.449 95.6972C65.4929 95.7631 65.5589 95.8291 65.6249 95.8731C65.7568 96.049 65.8448 96.159 65.9548 96.2689Z" fill="#FE8244"/>
<path d="M44.2488 89.0568C44.4247 89.0128 44.6007 88.9468 44.7766 88.8809C43.743 89.8045 42.7754 90.4203 42.0056 90.2883C41.9397 90.2883 41.8957 90.2663 41.8297 90.2444L41.6978 89.9365C41.8077 90.0025 41.9177 90.0464 42.0496 90.0904C42.6434 90.1784 43.4131 89.7605 44.2488 89.0568Z" fill="#FF6622"/>
<path d="M62.3481 89.298C62.2161 89.4299 62.0842 89.5399 61.9522 89.6718C60.3908 91.1673 59.0273 92.4428 57.8617 92.3768C57.4659 92.3548 57.092 92.1789 56.8061 91.827C55.6846 90.5735 54.7389 88.7921 53.9032 87.2307C53.7493 86.9668 53.6173 86.6809 53.4634 86.417C53.5294 86.395 53.6173 86.373 53.6833 86.373C53.8152 86.615 53.9472 86.8789 54.1011 87.1208C54.9368 88.6822 55.8825 90.4415 56.9821 91.6731C57.246 91.981 57.5539 92.1349 57.8837 92.1349C58.9613 92.1789 60.3468 90.8594 61.7983 89.4739C61.9522 89.3199 62.1282 89.166 62.2821 89.0121C62.3041 89.122 62.3261 89.21 62.3481 89.298Z" fill="#FF6622"/>
<path d="M52.9794 96.8188C53.6391 98.0503 54.3869 99.4358 55.2226 100.557C55.1346 100.579 55.0686 100.601 54.9807 100.601C54.167 99.4798 53.4412 98.1383 52.7815 96.9068C51.7259 94.9275 50.7142 93.0582 49.7026 92.8603C49.3947 92.8163 49.0868 92.9042 48.757 93.1901C48.1852 93.696 47.4155 94.5536 46.6238 95.4553C46.03 96.137 45.3922 96.8408 44.7764 97.4785L44.6885 97.2586C45.3042 96.6209 45.898 95.9391 46.4698 95.3014C47.2835 94.3997 48.0312 93.542 48.625 93.0142C48.9989 92.6843 49.3727 92.5744 49.7466 92.6403C50.8682 92.8603 51.8358 94.6856 52.9794 96.8188Z" fill="#FF6622"/>
<path d="M65.6464 95.9401C64.3928 96.248 63.1173 97.2596 61.9077 98.3372C61.7098 98.4252 61.5119 98.5132 61.314 98.5791C62.6335 97.3476 64.0629 96.138 65.4704 95.7422C65.5364 95.8082 65.6024 95.8741 65.6464 95.9401Z" fill="#FF6622"/>
<path d="M54.893 97.5881V121.999C54.893 121.999 53.1336 124.066 49.307 125.144C49.2411 125.166 49.1531 125.188 49.0871 125.21C47.2838 125.694 45.0406 125.936 42.3136 125.672C42.2257 125.672 42.1377 125.65 42.0497 125.65C41.7858 125.628 41.5219 125.584 41.258 125.54C39.1468 125.232 37.2555 125.078 35.5402 125.034C35.4522 125.034 35.3642 125.034 35.2983 125.034C24.3463 124.88 21.1355 129.63 21.0475 129.784L22.2351 125.914L22.3011 125.672L25.4019 115.621L25.4899 115.335L25.9297 113.884C25.6878 113.378 22.8289 107.484 16.9131 105.527C16.9131 105.527 17.3529 104.735 18.2546 103.482C18.2986 103.416 18.3426 103.35 18.3865 103.284C19.5961 101.635 21.5314 99.2814 24.2584 96.9063C24.3463 96.8403 24.4123 96.7744 24.5003 96.6864C26.5015 94.949 28.9426 93.2337 31.7796 91.7822L32.0215 91.9802L32.1974 92.1341L36.1119 95.4329L38.4431 95.6968L38.707 95.7188L45.4365 96.4885L45.7004 96.5105L53.0457 97.3462L53.3095 97.3682L54.893 97.5881Z" fill="#FE8244"/>
<path d="M54.8919 100.072V100.468C54.2102 99.5003 53.5944 98.4007 53.0446 97.3671C52.9566 97.2132 52.8687 97.0592 52.8027 96.9053C51.7471 94.926 50.7355 93.0567 49.7238 92.8588C49.4159 92.8148 49.1081 92.9028 48.7782 93.1887C48.2064 93.6945 47.4367 94.5522 46.645 95.4538C46.3371 95.8057 46.0292 96.1576 45.6993 96.5094C43.984 98.4227 42.1806 100.182 40.9271 99.9402C40.4653 99.8522 40.0914 99.4783 39.8495 98.8186C39.5196 97.9169 39.0358 96.7733 38.42 95.6737C37.2985 93.6065 35.781 91.6272 34.1756 91.4073C33.4939 91.3194 32.8341 91.5393 32.1964 92.1111C31.9324 92.331 31.6685 92.6389 31.4266 92.9688C29.5573 95.5418 26.9623 96.9933 24.4772 96.8833C24.4112 96.8833 24.3453 96.8833 24.2793 96.8833C24.3673 96.8173 24.4332 96.7513 24.5212 96.6634C26.9403 96.7513 29.4474 95.3219 31.2727 92.8368C31.5146 92.4849 31.7785 92.199 32.0424 91.9571C32.7242 91.3414 33.4719 91.0775 34.2196 91.1874C35.3632 91.3414 36.5507 92.331 37.7383 94.0683C38.0902 94.6181 38.42 95.1679 38.7059 95.6957C39.3877 96.9933 39.8495 98.1808 40.0694 98.7306C40.2893 99.3024 40.5752 99.6323 40.9711 99.6982C42.0707 99.9182 43.83 98.2028 45.4354 96.4435C45.7873 96.0476 46.1392 95.6518 46.491 95.2779C47.3047 94.3762 48.0525 93.5185 48.6462 92.9907C49.0201 92.6609 49.394 92.5509 49.7678 92.6169C50.8894 92.8148 51.857 94.6401 53.0006 96.7733C53.1106 96.9713 53.2205 97.1692 53.3085 97.3671C53.7923 98.2908 54.3201 99.2364 54.8919 100.072Z" fill="#FF6622"/>
<path d="M54.8923 111.156V111.442C54.7823 111.376 54.6943 111.288 54.6064 111.178C53.4848 109.925 52.5391 108.143 51.7034 106.582C50.6478 104.603 49.6362 102.733 48.6246 102.536C48.3167 102.47 48.0088 102.58 47.6789 102.865C47.1072 103.371 46.3374 104.229 45.5457 105.131C43.5665 107.374 41.3013 109.903 39.8279 109.617C39.366 109.529 38.9922 109.155 38.7503 108.495C37.8046 105.9 35.5615 101.414 33.0764 101.062C32.1087 100.93 31.1851 101.458 30.3274 102.623C28.4581 105.197 25.8631 106.648 23.378 106.538C21.3547 106.45 19.5514 105.35 18.2759 103.415C18.3199 103.349 18.3638 103.283 18.4078 103.217C19.6614 105.131 21.3987 106.23 23.378 106.296C25.7971 106.406 28.3261 104.977 30.1515 102.47C31.0531 101.216 32.0428 100.666 33.0984 100.82C34.2419 100.974 35.4295 101.964 36.6171 103.701C37.8486 105.548 38.6623 107.594 38.9482 108.363C39.1681 108.935 39.454 109.265 39.8499 109.331C41.2134 109.595 43.5005 107 45.3698 104.911C46.1835 104.009 46.9312 103.151 47.525 102.623C47.8989 102.294 48.2727 102.184 48.6466 102.25C49.7682 102.448 50.7358 104.273 51.8794 106.406C52.7151 107.968 53.6607 109.727 54.7603 110.958C54.8043 111.09 54.8483 111.134 54.8923 111.156Z" fill="#FF6622"/>
<path d="M54.8924 121.161V121.381C54.7824 121.403 54.6725 121.403 54.5625 121.403C54.1667 121.381 53.7928 121.205 53.5069 120.854C52.3853 119.6 51.4397 117.819 50.604 116.257C49.5484 114.278 48.5368 112.409 47.5251 112.211C47.2172 112.145 46.9094 112.255 46.5795 112.541C46.0077 113.047 45.238 113.904 44.4463 114.806C42.467 117.049 40.2019 119.578 38.7284 119.292C38.2666 119.204 37.8927 118.83 37.6508 118.171C36.7052 115.576 34.462 111.089 31.9769 110.737C31.0093 110.605 30.0856 111.133 29.2279 112.299C28.1503 113.794 26.8088 114.916 25.4014 115.554L25.4893 115.268C26.8088 114.63 28.0404 113.552 29.052 112.167C29.9537 110.913 30.9433 110.364 31.9989 110.517C33.1425 110.671 34.33 111.661 35.5176 113.398C36.7491 115.246 37.5628 117.291 37.8487 118.061C38.0686 118.632 38.3545 118.962 38.7504 119.028C40.1139 119.292 42.401 116.697 44.2703 114.608C45.084 113.706 45.8318 112.849 46.4255 112.321C46.7994 111.991 47.1733 111.881 47.5471 111.947C48.6687 112.145 49.6363 113.97 50.7799 116.103C51.6156 117.665 52.5613 119.424 53.6609 120.656C53.9248 120.964 54.2326 121.118 54.5625 121.118C54.6725 121.183 54.7824 121.183 54.8924 121.161Z" fill="#FF6622"/>
<path d="M34.4174 123.119C34.8352 123.735 35.2091 124.395 35.517 125.01C35.429 125.01 35.341 125.01 35.2751 125.01C34.1315 122.833 32.5701 120.7 30.8767 120.458C29.9091 120.326 28.9854 120.854 28.1277 122.019C26.5223 124.219 24.3671 125.626 22.2119 125.89L22.2779 125.648C24.3451 125.34 26.3904 123.999 27.9298 121.888C28.8315 120.634 29.8211 120.084 30.8767 120.238C32.0423 120.392 33.2298 121.36 34.4174 123.119Z" fill="#FF6622"/>
<path d="M49.3066 125.12C49.2406 125.142 49.1527 125.164 49.0867 125.186C48.163 123.515 47.2833 122.063 46.4257 121.91C46.1178 121.844 45.8099 121.954 45.48 122.239C44.9082 122.745 44.1385 123.603 43.3468 124.505C43.0169 124.878 42.6651 125.274 42.3352 125.648C42.2472 125.648 42.1593 125.626 42.0713 125.626C42.4671 125.208 42.841 124.768 43.1929 124.373C44.0066 123.471 44.7543 122.613 45.3481 122.085C45.7219 121.756 46.0958 121.646 46.4697 121.712C47.4373 121.866 48.317 123.317 49.3066 125.12Z" fill="#FF6622"/>
<path d="M49.5705 71.792C49.5705 71.792 49.9444 77.5319 42.929 76.7402L41.3456 78.7854C41.3456 78.7854 46.1398 80.7647 42.7311 87.802C40.0041 93.4319 55.0685 105.483 42.2473 106.715C29.426 107.947 27.1829 102.317 31.7572 90.3751C36.1995 78.7414 37.607 75.0468 37.607 75.0468L49.5705 71.792Z" fill="#171C23"/>
<path d="M43.8027 76.9514C43.8255 75.8828 42.9777 74.998 41.9091 74.9752C40.8405 74.9524 39.9557 75.8002 39.9329 76.8688C39.9101 77.9374 40.7579 78.8222 41.8265 78.845C42.8951 78.8678 43.7799 78.02 43.8027 76.9514Z" fill="#846B6B"/>
<path d="M41.2138 77.9936C40.62 77.6418 40.4221 76.8501 40.796 76.2563C41.1698 75.6625 41.9395 75.4646 42.5333 75.8384" stroke="#171C23" stroke-miterlimit="10"/>
<path d="M44.6892 149.269C44.6892 149.269 40.4448 148.676 33.7593 146.521" stroke="white" stroke-miterlimit="10"/>
<path d="M45.1064 129.41L54.5629 136.777" stroke="white" stroke-miterlimit="10"/>
<path d="M64.7012 128.597C64.7012 128.597 65.5369 128.047 65.6468 125.65" stroke="white" stroke-miterlimit="10"/>
<path d="M49.1749 83.4473C47.8774 84.4149 46.272 84.9867 44.5347 84.9427" stroke="#171C23" stroke-miterlimit="10"/>
<path d="M51.6824 79.7959C51.5505 80.1918 51.3965 80.5876 51.1986 80.9395C51.1986 80.9395 49.7691 81.0494 49.6592 79.8619L51.6824 79.7959Z" stroke="#171C23" stroke-miterlimit="10"/>
<path d="M73.0367 62.2694C73.0367 62.2694 77.1272 58.6628 78.0069 57.7611C79.0405 56.6835 80.7998 57.2993 79.3044 59.0586C77.8089 60.818 76.6654 61.9615 76.6654 61.9615C76.6654 61.9615 78.0288 65.5242 76.4894 67.1736C74.95 68.823 71.2554 67.9653 71.2554 67.9653C71.2554 67.9653 71.7832 63.435 73.0367 62.2694Z" fill="#846B6B"/>
<path d="M68.8574 83.623C68.8574 83.623 69.6931 83.623 70.4408 84.0409" stroke="#171C23" stroke-miterlimit="10"/>
<path d="M76.4669 67.1514C76.4669 67.1514 76.0711 67.5252 75.7632 67.6132" stroke="#171C23" stroke-miterlimit="10"/>
<path d="M81.2827 145.245L70.1549 121.89C69.1652 119.823 66.6802 118.965 64.6349 119.976L49.3066 127.586" stroke="white" stroke-miterlimit="10"/>
<path d="M51.0005 100.887C51.0005 100.887 52.4959 101.261 54.915 100.623" stroke="#171C23" stroke-miterlimit="10"/>
<path d="M25.9517 113.906L27.4251 109.64" stroke="#171C23" stroke-miterlimit="10"/>
<path d="M70.1769 25.2572C70.9057 25.2572 71.4964 24.6664 71.4964 23.9377C71.4964 23.2089 70.9057 22.6182 70.1769 22.6182C69.4482 22.6182 68.8574 23.2089 68.8574 23.9377C68.8574 24.6664 69.4482 25.2572 70.1769 25.2572Z" fill="#FE8244"/>
<path d="M74.84 25.2572C75.5688 25.2572 76.1595 24.6664 76.1595 23.9377C76.1595 23.2089 75.5688 22.6182 74.84 22.6182C74.1113 22.6182 73.5205 23.2089 73.5205 23.9377C73.5205 24.6664 74.1113 25.2572 74.84 25.2572Z" fill="#3187E8"/>
<path d="M79.5231 25.2572C80.2519 25.2572 80.8426 24.6664 80.8426 23.9377C80.8426 23.2089 80.2519 22.6182 79.5231 22.6182C78.7944 22.6182 78.2036 23.2089 78.2036 23.9377C78.2036 24.6664 78.7944 25.2572 79.5231 25.2572Z" fill="#FFB64D"/>
<path d="M133.514 121.866C133.514 121.866 118.009 122.966 124.167 130.003C130.391 137.129 133.514 121.866 133.514 121.866Z" fill="#FFB64D"/>
<path d="M113.436 109.374C113.436 109.374 107.806 126.176 117.9 122.767C128.148 119.314 113.436 109.374 113.436 109.374Z" fill="#FFB64D"/>
<path d="M113.567 158.548H120.428C120.428 152.149 119.351 145.991 117.35 140.251H109.586L113.567 158.548Z" fill="#DBCCBD"/>
<path d="M127.818 140.251H109.565L113.567 158.592H123.816L127.818 140.251Z" stroke="#171C23" stroke-miterlimit="10"/>
<path d="M121.528 140.229C121.528 140.229 121.814 128.903 130.435 124.285" stroke="#171C23" stroke-miterlimit="10"/>
<path d="M103.715 124.065C103.715 124.065 119.219 125.165 113.061 132.202C106.816 139.328 103.715 124.065 103.715 124.065Z" fill="#FFB64D"/>
<path d="M115.701 140.227C115.701 140.227 116.91 131.035 106.794 126.482" stroke="#171C23" stroke-miterlimit="10"/>
<path d="M115.217 114.608C115.217 114.608 118.736 122.525 118.714 140.273" stroke="#171C23" stroke-miterlimit="10"/>
<path d="M112.775 34.4277H127.29" stroke="#171C23" stroke-miterlimit="10"/>
<path d="M112.775 37.7256H144.883" stroke="#171C23" stroke-miterlimit="10"/>
<path d="M112.775 41.2451H144.883" stroke="#171C23" stroke-miterlimit="10"/>
<path d="M115.634 48.7217H126.19" stroke="#171C23" stroke-miterlimit="10"/>
<path d="M115.634 52.2412H138.726" stroke="#171C23" stroke-miterlimit="10"/>
<path d="M115.634 55.54H138.726" stroke="#171C23" stroke-miterlimit="10"/>
<path d="M128.874 64.3369H136.153" stroke="#171C23" stroke-miterlimit="10"/>
<path d="M113.875 64.3369H121.154" stroke="#171C23" stroke-miterlimit="10"/>
<path d="M128.874 67.7451H144.95" stroke="#171C23" stroke-miterlimit="10"/>
<path d="M113.875 67.7227H125.751" stroke="#171C23" stroke-miterlimit="10"/>
<path d="M128.874 71.1533H144.95" stroke="#171C23" stroke-miterlimit="10"/>
<path d="M113.875 71.2422H125.751" stroke="#171C23" stroke-miterlimit="10"/>
<path d="M81.613 66.9984C82.3417 66.9984 82.9325 66.4076 82.9325 65.6789C82.9325 64.9501 82.3417 64.3594 81.613 64.3594C80.8842 64.3594 80.2935 64.9501 80.2935 65.6789C80.2935 66.4076 80.8842 66.9984 81.613 66.9984Z" fill="white"/>
<path d="M86.6266 66.9984C87.3554 66.9984 87.9461 66.4076 87.9461 65.6789C87.9461 64.9501 87.3554 64.3594 86.6266 64.3594C85.8979 64.3594 85.3071 64.9501 85.3071 65.6789C85.3071 66.4076 85.8979 66.9984 86.6266 66.9984Z" fill="white"/>
<path d="M91.6413 66.9984C92.37 66.9984 92.9608 66.4076 92.9608 65.6789C92.9608 64.9501 92.37 64.3594 91.6413 64.3594C90.9125 64.3594 90.3218 64.9501 90.3218 65.6789C90.3218 66.4076 90.9125 66.9984 91.6413 66.9984Z" fill="white"/>
<path d="M96.6554 66.9984C97.3842 66.9984 97.975 66.4076 97.975 65.6789C97.975 64.9501 97.3842 64.3594 96.6554 64.3594C95.9267 64.3594 95.3359 64.9501 95.3359 65.6789C95.3359 66.4076 95.9267 66.9984 96.6554 66.9984Z" fill="white"/>
<path d="M81.613 41.7074C82.3417 41.7074 82.9325 41.1166 82.9325 40.3879C82.9325 39.6591 82.3417 39.0684 81.613 39.0684C80.8842 39.0684 80.2935 39.6591 80.2935 40.3879C80.2935 41.1166 80.8842 41.7074 81.613 41.7074Z" fill="white"/>
<path d="M86.6266 41.7074C87.3554 41.7074 87.9461 41.1166 87.9461 40.3879C87.9461 39.6591 87.3554 39.0684 86.6266 39.0684C85.8979 39.0684 85.3071 39.6591 85.3071 40.3879C85.3071 41.1166 85.8979 41.7074 86.6266 41.7074Z" fill="white"/>
<path d="M91.6413 41.7074C92.37 41.7074 92.9608 41.1166 92.9608 40.3879C92.9608 39.6591 92.37 39.0684 91.6413 39.0684C90.9125 39.0684 90.3218 39.6591 90.3218 40.3879C90.3218 41.1166 90.9125 41.7074 91.6413 41.7074Z" fill="white"/>
<path d="M96.6554 41.7074C97.3842 41.7074 97.975 41.1166 97.975 40.3879C97.975 39.6591 97.3842 39.0684 96.6554 39.0684C95.9267 39.0684 95.3359 39.6591 95.3359 40.3879C95.3359 41.1166 95.9267 41.7074 96.6554 41.7074Z" fill="white"/>
<path d="M151.789 99.0178C151.129 99.0178 150.513 99.1497 149.942 99.3696C148.754 97.1704 146.423 95.697 143.74 95.719C140.331 95.741 137.494 98.2041 136.878 101.437C134.811 101.701 133.206 103.482 133.228 105.615C133.25 107.924 135.119 109.794 137.428 109.772L151.833 109.684C154.78 109.662 157.155 107.265 157.133 104.318C157.133 101.371 154.736 98.9958 151.789 99.0178Z" fill="#ACD4FC"/>
<path d="M148.073 109.706L151.833 109.684C154.78 109.662 157.155 107.265 157.133 104.318C157.133 103.79 157.045 103.262 156.891 102.778C153.549 104.516 150.536 106.869 148.073 109.706Z" fill="#3187E8"/>
<path d="M184.271 9.81934C184.315 18.2862 177.476 25.1696 169.031 25.2136" stroke="#634B47" stroke-width="4" stroke-miterlimit="10"/>
<path d="M92.7633 96.0705C93.7471 96.0705 94.5446 95.273 94.5446 94.2892C94.5446 93.3054 93.7471 92.5078 92.7633 92.5078C91.7795 92.5078 90.9819 93.3054 90.9819 94.2892C90.9819 95.273 91.7795 96.0705 92.7633 96.0705Z" fill="#FE8244"/>
<path d="M171.274 13.1613C172.257 13.1613 173.055 12.3638 173.055 11.38C173.055 10.3962 172.257 9.59863 171.274 9.59863C170.29 9.59863 169.492 10.3962 169.492 11.38C169.492 12.3638 170.29 13.1613 171.274 13.1613Z" fill="#3187E8"/>
</svg>
