<svg width="37" height="34" viewBox="0 0 37 34" fill="none" xmlns="http://www.w3.org/2000/svg">
<path d="M18.3438 1.86857V1.48843H19.1238V1.4336V1.30566V0.991309H18.8029V1.30566H18.3438V0.483958H18.4198V0H18.085V0.483958H18.161V1.30639H17.7019V0.99204H17.381V1.30639V1.43433V1.48916H18.161V1.86931C16.7245 1.91755 15.5548 3.1428 15.5906 4.60857C17.3627 4.60857 19.1348 4.60857 20.9076 4.60857C20.9427 3.14207 19.773 1.92121 18.3438 1.86857Z" fill="white"/>
<path d="M14.886 5.52896H21.5891C21.6468 5.52896 21.6929 5.48217 21.6929 5.42515V5.02672C21.6929 4.96897 21.6461 4.92291 21.5891 4.92291H14.886C14.8283 4.92291 14.7822 4.9697 14.7822 5.02672V5.42515C14.7815 5.48217 14.8283 5.52896 14.886 5.52896Z" fill="white"/>
<path d="M14.886 10.6068H21.5891C21.6468 10.6068 21.6929 10.56 21.6929 10.503V10.1045C21.6929 10.0468 21.6461 10.0007 21.5891 10.0007H14.886C14.8283 10.0007 14.7822 10.0475 14.7822 10.1045V10.503C14.7815 10.5607 14.8283 10.6068 14.886 10.6068Z" fill="white"/>
<path d="M16.0985 5.82526C15.991 5.82526 15.9033 5.91225 15.9033 6.02045V9.50904C15.9033 9.6165 15.9903 9.70423 16.0985 9.70423H16.9071C17.0145 9.70423 17.1022 9.61723 17.1022 9.50904V6.02045C17.1022 5.91298 17.0153 5.82526 16.9071 5.82526H16.0985Z" fill="white"/>
<path d="M17.8329 5.82526C17.7254 5.82526 17.6377 5.91225 17.6377 6.02045V9.50904C17.6377 9.6165 17.7247 9.70423 17.8329 9.70423H18.6414C18.7489 9.70423 18.8366 9.61723 18.8366 9.50904V6.02045C18.8366 5.91298 18.7496 5.82526 18.6414 5.82526H17.8329Z" fill="white"/>
<path d="M19.5419 5.82526C19.4344 5.82526 19.3467 5.91225 19.3467 6.02045V9.50904C19.3467 9.6165 19.4337 9.70423 19.5419 9.70423H20.3504C20.4579 9.70423 20.5456 9.61723 20.5456 9.50904V6.02045C20.5456 5.91298 20.4586 5.82526 20.3504 5.82526H19.5419Z" fill="white"/>
<path d="M4.38888 23.3724C4.84214 21.5697 5.60536 18.6506 7.8263 15.6774C8.72477 14.4748 10.2892 12.6903 12.7777 11.1046C11.1913 11.6953 7.83361 13.1954 5.05122 16.6548C1.40472 21.1895 1.13131 26.127 1.10938 27.7237C1.97129 27.7237 2.8332 27.7237 3.69511 27.7237C3.77187 26.6264 3.95025 25.1182 4.38888 23.3724Z" fill="white"/>
<path d="M28.7024 15.6774C30.9233 18.6499 31.6866 21.5697 32.1398 23.3725C32.5785 25.1183 32.7568 26.6264 32.8336 27.7245C33.6955 27.7245 34.5574 27.7245 35.4193 27.7245C35.3974 26.1278 35.1233 21.1896 31.4775 16.6556C28.6958 13.1962 25.3374 11.6961 23.751 11.1054C26.2395 12.6903 27.8039 14.4748 28.7024 15.6774Z" fill="white"/>
<path d="M15.1424 11.7358C13.8806 12.3579 12.4675 13.2418 11.1055 14.5109C6.08173 19.1933 5.49762 25.6382 5.39746 27.7247C6.89027 27.7247 8.38309 27.7247 9.8759 27.7247C9.80645 25.2135 10.0506 21.0479 12.1466 16.5607C13.0713 14.581 14.1504 12.9793 15.1424 11.7358Z" fill="white"/>
<path d="M31.036 27.7247C30.9358 25.6382 30.3517 19.194 25.3279 14.5109C23.9659 13.2418 22.5528 12.3579 21.291 11.7358C22.2831 12.98 23.3621 14.581 24.2869 16.5607C26.3828 21.0479 26.627 25.2135 26.5575 27.7247C28.0511 27.7247 29.5432 27.7247 31.036 27.7247Z" fill="white"/>
<path d="M17.4125 27.7247V11.7358C16.2216 13.0232 14.7017 14.9714 13.5072 17.6325C11.6284 21.8148 11.5129 25.62 11.6101 27.7247C13.5437 27.7247 15.4781 27.7247 17.4125 27.7247Z" fill="white"/>
<path d="M19.1035 11.7358V27.7247C21.0379 27.7247 22.9723 27.7247 24.9059 27.7247C25.0031 25.62 24.8876 21.8148 23.0088 17.6325C21.8135 14.9714 20.2937 13.0232 19.1035 11.7358Z" fill="white"/>
<path d="M32.8697 29.0126V28.4709C32.8697 28.3569 32.7768 28.264 32.6628 28.264H31.1912C31.0771 28.264 30.9843 28.3569 30.9843 28.4709V29.0126H26.6776V28.4709C26.6776 28.3569 26.5848 28.264 26.4708 28.264H24.9991C24.8851 28.264 24.7922 28.3569 24.7922 28.4709V29.0126H19.1544V28.4709C19.1544 28.3569 19.0615 28.264 18.9475 28.264H17.4759C17.3618 28.264 17.269 28.3569 17.269 28.4709V29.0126H11.6932V28.4709C11.6932 28.3569 11.6004 28.264 11.4863 28.264H10.0147C9.90067 28.264 9.80783 28.3569 9.80783 28.4709V29.0126H5.48657V28.4709C5.48657 28.3569 5.39372 28.264 5.27968 28.264H3.80807C3.69402 28.264 3.60118 28.3569 3.60118 28.4709V29.0126H0.00292969V29.6604H36.4233V29.0126H32.8697Z" fill="white"/>
<path d="M5.25837 32.0305C5.38338 32.0305 5.485 31.9289 5.485 31.8038V30.0778H3.59961V31.8038C3.59961 31.9289 3.70122 32.0305 3.82623 32.0305H5.25837Z" fill="white"/>
<path d="M11.4654 32.0305C11.5904 32.0305 11.692 31.9289 11.692 31.8038V30.0778H9.80664V31.8038C9.80664 31.9289 9.90826 32.0305 10.0333 32.0305H11.4654Z" fill="white"/>
<path d="M18.9273 32.0305C19.0523 32.0305 19.1539 31.9289 19.1539 31.8038V30.0778H17.2686V31.8038C17.2686 31.9289 17.3702 32.0305 17.4952 32.0305H18.9273Z" fill="white"/>
<path d="M26.4498 32.0305C26.5748 32.0305 26.6764 31.9289 26.6764 31.8038V30.0778H24.791V31.8038C24.791 31.9289 24.8926 32.0305 25.0176 32.0305H26.4498Z" fill="white"/>
<path d="M32.6431 32.0305C32.7681 32.0305 32.8698 31.9289 32.8698 31.8038V30.0778H30.9844V31.8038C30.9844 31.9289 31.086 32.0305 31.211 32.0305H32.6431Z" fill="white"/>
<path d="M36.1755 32.5766H0.244904C0.109659 32.5766 0 32.6863 0 32.8215V33.7551C0 33.8903 0.109659 34 0.244904 34H36.1748C36.31 34 36.4197 33.8903 36.4197 33.7551V32.8215C36.4204 32.6863 36.3107 32.5766 36.1755 32.5766Z" fill="white"/>
</svg>
