<svg width="240" height="99" viewBox="0 0 240 99" fill="none" xmlns="http://www.w3.org/2000/svg">
<path d="M11.763 85.761C11.2052 85.9717 10.5946 85.998 10.0208 85.836C9.44694 85.674 8.94023 85.3322 8.57502 84.8609L6.237 81.8599C5.94048 81.4972 5.55621 81.2162 5.12061 81.0436C4.685 80.871 4.2125 80.8126 3.74799 80.8739V83.8219C3.74799 84.8849 4.476 85.0669 5.448 85.1889C5.554 85.2039 5.47802 85.7049 5.35602 85.7049H0.755985C0.633985 85.7049 0.543005 85.2049 0.664005 85.1889C1.43901 85.0819 1.92401 84.7779 1.92401 83.8219V77.0529C1.92401 76.0529 1.39301 75.7619 0.664005 75.5649C0.543005 75.5349 0.618985 75.0339 0.755985 75.0489C1.33528 75.1145 1.91801 75.1448 2.50098 75.1399C3.62398 75.1399 4.671 75.0489 5.401 75.0489C7.693 75.0489 9.22602 75.9899 9.22602 77.8569C9.22312 78.5721 8.93773 79.2572 8.43201 79.7629C7.92629 80.2686 7.2412 80.554 6.526 80.5569V80.6339C7.133 80.6339 7.57401 80.892 8.24201 81.727L10.503 84.5649C10.6409 84.7795 10.8262 84.9595 11.0446 85.0911C11.2631 85.2227 11.5089 85.3024 11.763 85.3239C11.884 85.3219 11.854 85.731 11.763 85.761ZM7.31598 78.261C7.34596 77.9384 7.30523 77.6132 7.19666 77.308C7.08808 77.0028 6.91427 76.7249 6.68732 76.4938C6.46037 76.2627 6.18573 76.0838 5.88257 75.9696C5.57941 75.8555 5.25505 75.8088 4.93201 75.8329C4.03201 75.8329 3.74903 76.1969 3.74903 77.0469V80.1729H4.18903C6.45003 80.1749 7.31598 79.7809 7.31598 78.2629V78.261Z" fill="white"/>
<path d="M14.211 85.185C15.092 84.957 15.775 84.82 15.775 83.696V76.958C15.775 75.986 15.153 75.728 14.5 75.558C14.378 75.528 14.454 75.027 14.576 75.042C15.684 75.163 17.596 75.133 18.522 75.133C19.903 75.133 20.905 75.072 22.15 75.042C22.514 75.042 22.514 75.285 22.438 75.634L22.074 77.076C22.028 77.289 21.649 77.289 21.588 77.076C21.36 76.333 20.905 75.907 19.008 75.907C17.945 75.907 17.596 76.18 17.596 76.97V79.444C17.596 79.844 17.796 79.914 18.096 79.914H18.43C19.451 80.0312 20.4811 79.7901 21.344 79.232C21.496 79.094 21.83 79.125 21.693 79.432L20.828 81.345C20.707 81.618 20.479 81.588 20.312 81.36C20.0506 81.1044 19.7353 80.9103 19.3893 80.7921C19.0433 80.674 18.6752 80.6346 18.312 80.677H18.099C17.799 80.677 17.599 80.753 17.599 81.147V83.697C17.599 84.563 17.963 84.882 19.223 84.882C21.515 84.882 22.423 83.834 22.79 83.258C22.896 83.09 23.306 83.167 23.306 83.424C23.306 84.198 22.653 85.732 21.697 85.732C20.847 85.686 20.013 85.64 18.738 85.64C17.338 85.64 15.687 85.595 14.306 85.732C14.151 85.746 14.09 85.215 14.211 85.185Z" fill="white"/>
<path d="M29.364 81.6319V83.8219C29.364 84.8849 30.092 85.0669 31.064 85.1889C31.17 85.2039 31.094 85.7049 30.973 85.7049H26.373C26.252 85.7049 26.161 85.2049 26.282 85.1889C27.057 85.0819 27.542 84.7779 27.542 83.8219V77.0529C27.542 76.0529 27.011 75.7619 26.282 75.5649C26.161 75.5349 26.237 75.0339 26.373 75.0489C26.9526 75.1144 27.5357 75.1448 28.119 75.1399C29.242 75.1399 30.1829 75.0489 30.9569 75.0489C33.3099 75.0489 35.257 75.9139 35.257 78.2969C35.253 80.9949 32.718 82.1329 29.364 81.6319ZM29.364 77.0489V80.8889C31.944 81.2529 33.295 80.6309 33.295 78.6429C33.328 78.2737 33.2811 77.9017 33.1576 77.5521C33.034 77.2026 32.8366 76.8838 32.5788 76.6174C32.3211 76.351 32.0089 76.1432 31.6637 76.0082C31.3184 75.8732 30.9481 75.8141 30.578 75.8349C29.622 75.8349 29.364 76.1679 29.364 77.0489Z" fill="white"/>
<path d="M39.537 81.7219V76.9558C39.5613 76.7824 39.5474 76.6058 39.4962 76.4384C39.4451 76.2709 39.3579 76.1167 39.2408 75.9865C39.1236 75.8563 38.9795 75.7534 38.8183 75.6849C38.6572 75.6163 38.483 75.5839 38.308 75.5898C38.186 75.5738 38.277 75.0728 38.398 75.0728H42.542C42.663 75.0728 42.755 75.5728 42.633 75.5898C42.4593 75.5861 42.2868 75.6202 42.1275 75.6897C41.9682 75.7592 41.8259 75.8625 41.7105 75.9924C41.595 76.1223 41.5092 76.2757 41.4589 76.4421C41.4086 76.6084 41.395 76.7837 41.419 76.9558V81.7979C41.419 83.9219 42.6481 84.9088 44.2571 84.9088C44.6666 84.9359 45.0771 84.873 45.4597 84.7245C45.8424 84.576 46.1878 84.3454 46.4718 84.0491C46.7559 83.7528 46.9715 83.3979 47.1037 83.0093C47.2359 82.6207 47.2814 82.2079 47.237 81.7999V76.9578C47.237 75.9708 46.675 75.6969 45.937 75.5919C45.831 75.5759 45.907 75.0748 46.028 75.0748H49.437C49.544 75.0748 49.637 75.5749 49.513 75.5919C49.3393 75.5882 49.1668 75.6222 49.0075 75.6917C48.8483 75.7612 48.7059 75.8645 48.5905 75.9944C48.475 76.1243 48.3892 76.2777 48.3388 76.4441C48.2885 76.6104 48.275 76.7857 48.299 76.9578V81.7078C48.3459 82.2745 48.269 82.8447 48.0737 83.3787C47.8784 83.9128 47.5694 84.398 47.168 84.8008C46.7666 85.2036 46.2825 85.5144 45.7491 85.7115C45.2158 85.9087 44.6459 85.9876 44.079 85.9428C41.937 85.9428 39.537 84.8039 39.537 81.7219ZM43.9991 71.2938C44.2731 70.8938 45.548 72.0678 45.183 72.3408L43.195 73.8408C42.995 73.9918 42.466 73.5069 42.618 73.2949L43.9991 71.2938Z" fill="white"/>
<path d="M61.6729 82.6349C61.6729 84.5159 59.9569 85.7349 57.4229 85.7349C56.6939 85.7349 55.844 85.6428 54.723 85.6428C53.9275 85.6298 53.132 85.6605 52.34 85.7349C52.204 85.7499 52.127 85.2189 52.249 85.1889C53.129 84.9609 53.8119 84.8239 53.8119 83.6999V76.9619C53.8119 75.9899 53.1899 75.7319 52.5369 75.5619C52.4159 75.5319 52.4919 75.0309 52.6129 75.0459C53.223 75.1108 53.8364 75.1412 54.4499 75.1369C55.6639 75.1369 56.5589 75.0459 57.2269 75.0459C59.1849 75.0459 60.794 75.8659 60.809 77.5359C60.8181 78.0836 60.6301 78.6164 60.279 79.037C59.928 79.4575 59.4375 79.7379 58.8969 79.8269V79.9179C59.2593 79.9077 59.62 79.9705 59.9575 80.1027C60.295 80.2349 60.6025 80.4337 60.8616 80.6872C61.1206 80.9408 61.326 81.2439 61.4654 81.5785C61.6048 81.9131 61.6753 82.2724 61.6729 82.6349ZM55.632 76.9578V79.6579H57.1949C57.4283 79.6895 57.6657 79.667 57.889 79.5922C58.1122 79.5175 58.3153 79.3923 58.4825 79.2266C58.6497 79.0608 58.7765 78.8588 58.8533 78.6363C58.93 78.4137 58.9545 78.1764 58.9249 77.9428C58.9425 77.6521 58.8965 77.361 58.7899 77.0899C58.6832 76.8188 58.5187 76.5743 58.3077 76.3734C58.0968 76.1726 57.8445 76.0202 57.5685 75.927C57.2925 75.8338 56.9995 75.802 56.71 75.8339C55.905 75.8349 55.637 76.1078 55.637 76.9578H55.632ZM59.715 82.9679C59.7409 82.629 59.6937 82.2884 59.5766 81.9693C59.4595 81.6502 59.2753 81.36 59.0364 81.1182C58.7975 80.8765 58.5095 80.6888 58.1918 80.568C57.8741 80.4472 57.5341 80.396 57.1949 80.4179H55.637V83.6959C55.637 84.5309 56.062 84.9419 57.382 84.9419C58.713 84.9419 59.715 84.5459 59.715 82.9679Z" fill="white"/>
<path d="M64.5759 85.1848C65.4569 84.9568 66.1399 84.8199 66.1399 83.6959V76.9578C66.1399 75.8948 65.5179 75.6819 64.8649 75.5919C64.7439 75.5759 64.8349 75.0748 64.9409 75.0748H69.1299C69.2359 75.0748 69.3119 75.5749 69.2059 75.5919C69.0296 75.5835 68.8536 75.6142 68.6905 75.6816C68.5274 75.7491 68.3812 75.8517 68.2623 75.9822C68.1434 76.1126 68.0547 76.2677 68.0026 76.4363C67.9506 76.605 67.9363 76.783 67.9609 76.9578V83.6959C67.9609 84.5619 68.3259 84.8809 69.5859 84.8809C71.8779 84.8809 72.7859 83.8328 73.1519 83.2568C73.2589 83.0888 73.6679 83.1659 73.6679 83.4229C73.6679 84.1969 73.0159 85.7308 72.0589 85.7308C71.2089 85.6848 70.3749 85.6389 69.0999 85.6389C67.6999 85.6389 66.0489 85.5938 64.6679 85.7308C64.5159 85.7458 64.4549 85.2148 64.5759 85.1848Z" fill="white"/>
<path d="M76.3439 85.1848C77.1179 85.0778 77.6039 84.7738 77.6039 83.8178V76.9578C77.6039 76.0008 77.1179 75.6969 76.3439 75.5919C76.2219 75.5759 76.3129 75.0748 76.4339 75.0748H80.5939C80.7149 75.0748 80.8059 75.5749 80.6839 75.5919C80.0319 75.6819 79.4249 75.8918 79.4249 76.9578V83.8178C79.4249 84.8808 80.0319 85.0928 80.6839 85.1848C80.8059 85.1998 80.7149 85.7009 80.5939 85.7009H76.4369C76.3129 85.7009 76.2219 85.1998 76.3439 85.1848Z" fill="white"/>
<path d="M83.8899 80.5847C83.8535 79.8104 83.9809 79.0372 84.2639 78.3156C84.5469 77.594 84.9791 76.9403 85.5321 76.3972C86.0852 75.8542 86.7467 75.434 87.4734 75.1642C88.2 74.8945 88.9754 74.7811 89.7489 74.8317C91.5089 74.8317 93.0269 75.3787 92.8489 75.9097L92.6488 76.5016C92.1018 78.1256 91.5099 76.0466 88.8089 76.0466C86.6379 76.0466 85.5749 77.4577 85.5749 79.6467C85.5415 80.2773 85.6384 80.9079 85.8594 81.4995C86.0804 82.091 86.4209 82.6307 86.8595 83.0849C87.2982 83.5391 87.8256 83.8981 88.4091 84.1397C88.9925 84.3812 89.6195 84.5 90.2508 84.4886C91.1056 84.4202 91.9374 84.1775 92.6949 83.7756C92.8159 83.6986 93.1349 84.0486 93.0439 84.1846C92.2026 85.0886 91.098 85.7047 89.8869 85.9457C87.3369 85.9427 83.8899 84.4557 83.8899 80.5847Z" fill="white"/>
<path d="M106.905 85.7007H102.898C102.698 85.7007 102.685 85.2147 102.853 85.1847C103.414 85.0777 104.021 84.8847 103.46 83.5747L103.293 83.1957C103.141 82.8307 102.883 82.7957 102.428 82.7957H99.328C98.873 82.7957 98.615 82.8257 98.463 83.1957L98.311 83.5747C97.78 84.8807 98.357 85.0747 99.085 85.1847C99.285 85.2147 99.237 85.7007 99.04 85.7007H95.761C95.579 85.7007 95.533 85.2147 95.715 85.1847C96.338 85.0777 96.702 84.8657 97.264 83.5747L99.829 77.6857C100.26 76.9037 100.524 76.0403 100.603 75.1507C100.945 74.9768 101.328 74.8984 101.711 74.9237L105.411 83.5597C105.957 84.8507 106.321 85.0927 106.928 85.1847C107.148 85.2147 107.087 85.7007 106.905 85.7007ZM102.67 81.7077L100.894 77.4577L99.103 81.7077C99.012 81.9207 99.24 81.9507 99.453 81.9507H102.321C102.537 81.9507 102.761 81.9217 102.67 81.7077Z" fill="white"/>
<path d="M114.258 85.185C115.138 84.957 115.821 84.82 115.821 83.696V76.958C115.821 75.986 115.199 75.728 114.546 75.558C114.425 75.528 114.501 75.027 114.622 75.042C115.253 75.1106 115.887 75.141 116.522 75.133C117.705 75.133 118.768 75.042 119.542 75.042C123.215 75.042 125.203 77.228 125.203 80.157C125.23 80.9048 125.101 81.65 124.823 82.345C124.546 83.04 124.127 83.6697 123.593 84.1939C123.059 84.718 122.422 85.1251 121.722 85.3892C121.022 85.6534 120.274 85.7688 119.527 85.728C118.798 85.728 117.857 85.636 116.734 85.636C115.939 85.6233 115.143 85.654 114.351 85.728C114.197 85.746 114.137 85.215 114.258 85.185ZM123.38 81.025C123.38 78.125 121.801 75.85 119.07 75.85C117.992 75.85 117.643 76.183 117.643 76.958V83.696C117.643 84.516 118.204 84.926 119.677 84.926C122.151 84.922 123.38 83.59 123.38 81.022V81.025Z" fill="white"/>
<path d="M128.5 80.449C128.472 79.7129 128.595 78.9788 128.86 78.2917C129.126 77.6046 129.529 76.979 130.045 76.4531C130.56 75.9273 131.178 75.5122 131.86 75.2335C132.542 74.9547 133.274 74.8181 134.01 74.832C134.736 74.8086 135.459 74.9344 136.134 75.2015C136.81 75.4687 137.423 75.8715 137.937 76.3851C138.45 76.8987 138.853 77.5122 139.12 78.1876C139.387 78.863 139.513 79.586 139.489 80.312C139.52 81.0494 139.399 81.7854 139.135 82.4745C138.871 83.1637 138.468 83.7913 137.952 84.3189C137.435 84.8465 136.817 85.2627 136.133 85.5421C135.45 85.8214 134.717 85.9578 133.979 85.9429C133.253 85.9633 132.53 85.8351 131.855 85.566C131.18 85.2969 130.567 84.8927 130.054 84.3782C129.541 83.8637 129.138 83.2498 128.871 82.5741C128.604 81.8984 128.478 81.1752 128.5 80.449ZM137.683 81.162C137.683 78.096 135.604 75.8619 133.418 75.8619C132.082 75.8619 130.318 76.7419 130.318 79.5959C130.318 82.6959 132.397 84.908 134.567 84.908C135.907 84.911 137.683 84.031 137.683 81.162Z" fill="white"/>
<path d="M156.009 85.701H152.047C151.941 85.701 151.865 85.2009 151.956 85.1849C152.121 85.1781 152.282 85.1355 152.429 85.0601C152.575 84.9846 152.703 84.8781 152.805 84.748C152.906 84.6179 152.977 84.4672 153.014 84.3066C153.052 84.146 153.053 83.9792 153.019 83.8179L152.731 78.7179L150.271 83.7279C150.018 84.2273 149.814 84.7506 149.664 85.2899C149.634 85.4729 149.315 85.5639 149.072 85.5639C148.975 85.5716 148.878 85.5495 148.794 85.5005C148.71 85.4515 148.643 85.3781 148.602 85.2899L145.096 78.6429L144.868 83.8179C144.822 84.8809 145.445 85.1229 145.931 85.1849C146.052 85.1999 145.961 85.701 145.854 85.701H142.712C142.591 85.701 142.5 85.2009 142.621 85.1849C143.274 85.1079 143.821 84.8849 143.881 83.8179L144.367 75.1059C144.382 74.8469 144.959 74.8319 145.111 75.1059L149.511 83.3319L153.595 75.1059C153.731 74.8319 154.338 74.8469 154.353 75.1059L154.839 83.8179C154.9 84.8809 155.446 85.1079 156.084 85.1849C156.206 85.1999 156.115 85.701 156.009 85.701Z" fill="white"/>
<path d="M159.126 85.1848C159.9 85.0778 160.386 84.7738 160.386 83.8178V76.9578C160.386 76.0008 159.9 75.6969 159.126 75.5919C159.005 75.5759 159.096 75.0748 159.217 75.0748H163.376C163.498 75.0748 163.588 75.5749 163.467 75.5919C162.815 75.6819 162.208 75.8918 162.208 76.9578V83.8178C162.208 84.8808 162.815 85.0928 163.467 85.1848C163.588 85.1998 163.498 85.7009 163.376 85.7009H159.217C159.096 85.7009 159.005 85.1998 159.126 85.1848Z" fill="white"/>
<path d="M175.947 85.5638L168.721 78.0038V83.7728C168.721 84.8038 169.329 84.9728 170.194 85.1848C170.315 85.2148 170.255 85.7008 170.103 85.7008H166.503C166.381 85.7008 166.29 85.2298 166.427 85.1848C167.064 84.9718 167.671 84.8508 167.671 83.7728V77.8828C167.747 77.1299 167.548 76.375 167.11 75.7578C166.973 75.5758 166.837 75.4578 166.837 75.4088C166.833 75.3248 166.862 75.2426 166.918 75.1801C166.974 75.1175 167.053 75.0797 167.137 75.0748H168.26C168.327 75.0659 168.396 75.0737 168.46 75.0976C168.523 75.1215 168.58 75.1607 168.625 75.2118L175.698 82.6948V76.9878C175.698 75.9098 175.015 75.7878 174.225 75.5878C174.104 75.5568 174.165 75.0708 174.317 75.0708H177.917C178.038 75.0708 178.117 75.5568 177.993 75.5878C177.325 75.7878 176.748 75.9058 176.748 76.9878V82.8878C176.717 83.782 176.778 84.6771 176.93 85.5588C176.991 85.7868 176.748 85.8468 176.505 85.8468C176.396 85.8471 176.289 85.8216 176.192 85.7724C176.095 85.7232 176.011 85.6517 175.947 85.5638Z" fill="white"/>
<path d="M181.037 85.1848C181.812 85.0778 182.297 84.7738 182.297 83.8178V76.9578C182.297 76.0008 181.812 75.6969 181.037 75.5919C180.916 75.5759 181.007 75.0748 181.129 75.0748H185.287C185.409 75.0748 185.5 75.5749 185.379 75.5919C184.726 75.6819 184.119 75.8918 184.119 76.9578V83.8178C184.119 84.8808 184.726 85.0928 185.379 85.1848C185.5 85.1998 185.409 85.7009 185.287 85.7009H181.129C181.006 85.7009 180.915 85.1998 181.037 85.1848Z" fill="white"/>
<path d="M188.583 80.585C188.546 79.8106 188.672 79.0371 188.955 78.3151C189.238 77.5932 189.67 76.9391 190.223 76.3958C190.776 75.8526 191.438 75.4324 192.165 75.1629C192.892 74.8934 193.667 74.7807 194.441 74.832C196.202 74.832 197.72 75.379 197.541 75.91L197.341 76.502C196.794 78.126 196.202 76.047 193.501 76.047C191.33 76.047 190.268 77.458 190.268 79.647C190.235 80.2774 190.332 80.908 190.552 81.4993C190.773 82.0907 191.114 82.6303 191.552 83.0845C191.99 83.5387 192.518 83.8978 193.101 84.1394C193.684 84.381 194.311 84.5001 194.942 84.489C195.797 84.4208 196.629 84.1781 197.386 83.776C197.508 83.699 197.826 84.049 197.735 84.185C196.894 85.0893 195.789 85.7056 194.578 85.946C192.028 85.943 188.583 84.456 188.583 80.585Z" fill="white"/>
<path d="M211.598 85.7007H207.59C207.39 85.7007 207.378 85.2147 207.545 85.1847C208.107 85.0777 208.714 84.8847 208.152 83.5747L207.985 83.1957C207.833 82.8307 207.575 82.7957 207.12 82.7957H204.02C203.564 82.7957 203.306 82.8257 203.155 83.1957L203.003 83.5747C202.471 84.8807 203.048 85.0747 203.777 85.1847C203.977 85.2147 203.929 85.7007 203.731 85.7007H200.457C200.275 85.7007 200.229 85.2147 200.411 85.1847C201.033 85.0777 201.398 84.8657 201.96 83.5747L204.525 77.6857C204.956 76.9037 205.22 76.0403 205.299 75.1507C205.641 74.9768 206.024 74.8984 206.407 74.9237L210.107 83.5597C210.654 84.8507 211.018 85.0927 211.625 85.1847C211.837 85.2147 211.78 85.7007 211.598 85.7007ZM207.363 81.7077L205.587 77.4577L203.796 81.7077C203.705 81.9207 203.933 81.9507 204.145 81.9507H207.014C207.226 81.9507 207.454 81.9217 207.363 81.7077Z" fill="white"/>
<path d="M223.958 85.5638L216.733 78.0038V83.7728C216.733 84.8038 217.34 84.9728 218.205 85.1848C218.327 85.2148 218.266 85.7008 218.114 85.7008H214.514C214.393 85.7008 214.302 85.2298 214.438 85.1848C215.075 84.9718 215.683 84.8508 215.683 83.7728V77.8828C215.759 77.1297 215.559 76.3747 215.121 75.7578C214.985 75.5758 214.848 75.4578 214.848 75.4088C214.844 75.3248 214.873 75.2426 214.929 75.1801C214.985 75.1175 215.064 75.0797 215.148 75.0748H216.271C216.338 75.0659 216.407 75.0737 216.47 75.0976C216.534 75.1215 216.59 75.1607 216.635 75.2118L223.708 82.6948V76.9878C223.708 75.9098 223.025 75.7878 222.236 75.5878C222.114 75.5568 222.175 75.0708 222.327 75.0708H225.927C226.049 75.0708 226.127 75.5568 226.003 75.5878C225.335 75.7878 224.759 75.9058 224.759 76.9878V82.8878C224.728 83.782 224.789 84.6771 224.941 85.5588C225.001 85.7868 224.759 85.8468 224.516 85.8468C224.407 85.8469 224.3 85.8212 224.203 85.772C224.106 85.7229 224.022 85.6515 223.958 85.5638Z" fill="white"/>
<path d="M239.627 85.7007H235.62C235.42 85.7007 235.407 85.2147 235.574 85.1847C236.136 85.0777 236.743 84.8847 236.181 83.5747L236.014 83.1957C235.862 82.8307 235.604 82.7957 235.149 82.7957H232.049C231.593 82.7957 231.335 82.8257 231.184 83.1957L231.032 83.5747C230.501 84.8807 231.078 85.0747 231.806 85.1847C232.006 85.2147 231.958 85.7007 231.76 85.7007H228.482C228.3 85.7007 228.254 85.2147 228.436 85.1847C229.058 85.0777 229.423 84.8657 229.985 83.5747L232.55 77.6857C232.981 76.9037 233.245 76.0403 233.324 75.1507C233.666 74.9768 234.049 74.8984 234.432 74.9237L238.132 83.5597C238.679 84.8507 239.043 85.0927 239.65 85.1847C239.87 85.2147 239.809 85.7007 239.627 85.7007ZM235.392 81.7077L233.616 77.4577L231.825 81.7077C231.734 81.9207 231.962 81.9507 232.174 81.9507H235.043C235.255 81.9507 235.483 81.9217 235.392 81.7077Z" fill="white"/>
<path d="M0.738 64.8428V64.8219C0.722473 64.3144 0.808993 63.809 0.992394 63.3356C1.1758 62.8622 1.45234 62.4305 1.80569 62.0659C2.15903 61.7014 2.58195 61.4115 3.0494 61.2135C3.51685 61.0154 4.01932 60.9132 4.527 60.9129C5.55945 60.8715 6.56748 61.2334 7.33798 61.9218L6.78701 62.5689C6.16469 61.9883 5.33766 61.6779 4.48702 61.7058C4.09345 61.7161 3.70588 61.8051 3.34719 61.9674C2.9885 62.1297 2.66592 62.3622 2.3984 62.651C2.13088 62.9399 1.92382 63.2793 1.78945 63.6494C1.65509 64.0194 1.59612 64.4127 1.61599 64.8059V64.8278C1.58492 65.2355 1.63979 65.6451 1.777 66.0302C1.91421 66.4153 2.13073 66.7674 2.41256 67.0635C2.69439 67.3597 3.03521 67.5934 3.41305 67.7495C3.79089 67.9056 4.1973 67.9807 4.60598 67.9699C5.3969 67.9669 6.16432 67.7005 6.78701 67.2128V65.3349H4.48702V64.5678H7.60702V67.5798C6.77143 68.3232 5.69236 68.7344 4.574 68.7359C4.06035 68.7546 3.54843 68.6662 3.07076 68.4764C2.59309 68.2866 2.1601 67.9996 1.79934 67.6334C1.43858 67.2673 1.15796 66.8302 0.975243 66.3497C0.792524 65.8693 0.711724 65.3562 0.738 64.8428Z" fill="white"/>
<path d="M10.229 64.843V64.822C10.2276 64.3159 10.3258 63.8145 10.5181 63.3463C10.7105 62.8782 10.9932 62.4525 11.3501 62.0936C11.7069 61.7347 12.1309 61.4496 12.598 61.2546C13.065 61.0596 13.5659 60.9585 14.072 60.957C14.5781 60.9556 15.0795 61.0538 15.5477 61.2462C16.0158 61.4385 16.4415 61.7212 16.8004 62.0781C17.1593 62.4349 17.4444 62.859 17.6394 63.326C17.8344 63.793 17.9355 64.294 17.937 64.8001C17.948 64.8101 17.948 64.81 17.937 64.822C17.9398 65.8442 17.5364 66.8256 16.8156 67.5503C16.0948 68.275 15.1157 68.6838 14.0935 68.6865C13.0714 68.6893 12.09 68.2859 11.3653 67.5651C10.6405 66.8443 10.2318 65.8652 10.229 64.843ZM17.052 64.843V64.822C17.0681 64.4198 17.0031 64.0184 16.8608 63.6417C16.7185 63.2651 16.5019 62.921 16.2238 62.6299C15.9458 62.3388 15.612 62.1066 15.2423 61.9472C14.8726 61.7878 14.4746 61.7044 14.072 61.702C13.6717 61.7031 13.2758 61.7851 12.9081 61.9431C12.5404 62.1011 12.2084 62.3318 11.9321 62.6214C11.6558 62.911 11.4409 63.2534 11.3003 63.6281C11.1597 64.0029 11.0963 64.4022 11.114 64.802V64.8241C11.098 65.2262 11.1632 65.6275 11.3055 66.004C11.4478 66.3805 11.6645 66.7245 11.9425 67.0155C12.2206 67.3065 12.5543 67.5387 12.924 67.698C13.2936 67.8574 13.6915 67.9406 14.094 67.943C14.4943 67.9419 14.8901 67.8599 15.2579 67.7019C15.6256 67.5439 15.9576 67.3133 16.2339 67.0237C16.5102 66.7341 16.7251 66.3917 16.8657 66.0169C17.0063 65.6422 17.0697 65.2429 17.052 64.843Z" fill="white"/>
<path d="M20.7711 61.0427H23.988C24.7082 61.001 25.4164 61.2409 25.963 61.7117C26.1206 61.8709 26.2448 62.0599 26.3282 62.2677C26.4117 62.4754 26.4528 62.6978 26.449 62.9217V62.9427C26.4562 63.3229 26.3444 63.6959 26.1292 64.0095C25.9141 64.323 25.6063 64.5616 25.249 64.6917C26.149 64.9617 26.868 65.4797 26.868 66.5157V66.5377C26.868 67.8377 25.778 68.5997 24.126 68.5997H20.769L20.7711 61.0427ZM23.847 64.4107C24.873 64.4107 25.5861 63.9467 25.5861 63.0607V63.0407C25.5861 62.2947 24.992 61.8087 23.912 61.8087H21.6121V64.4087L23.847 64.4107ZM24.147 67.8338C25.291 67.8338 26.004 67.3247 26.004 66.4837V66.4617C26.004 65.6417 25.3131 65.1618 23.9951 65.1618H21.61V67.8287L24.147 67.8338Z" fill="white"/>
<path d="M29.6699 61.043H30.5229V68.6H29.6699V61.043Z" fill="white"/>
<path d="M33.764 61.043H39.226V61.821H34.617V64.4H38.738V65.1769H34.614V67.822H39.277V68.6H33.761L33.764 61.043Z" fill="white"/>
<path d="M42.0269 61.0429H45.2769C46.0645 61.0006 46.8368 61.2721 47.4249 61.7979C47.6153 61.9958 47.7649 62.2294 47.8649 62.4852C47.965 62.7411 48.0136 63.0142 48.0079 63.2888V63.3098C48.0063 63.8676 47.7941 64.4041 47.4138 64.8121C47.0335 65.22 46.5131 65.4692 45.9568 65.5098L48.2778 68.5978H47.2308L45.0389 65.6608H42.8799V68.5978H42.0269V61.0429ZM45.2009 64.8969C46.3349 64.8969 47.1439 64.3139 47.1439 63.3419V63.3218C47.1439 62.3938 46.4319 61.8319 45.2119 61.8319H42.8799V64.8978L45.2009 64.8969Z" fill="white"/>
<path d="M50.8621 61.043H51.662L56.423 67.0989V61.043H57.254V68.6H56.574L51.694 62.4V68.6H50.863L50.8621 61.043Z" fill="white"/>
<path d="M60.086 64.843V64.822C60.0845 64.3159 60.1827 63.8145 60.3751 63.3463C60.5674 62.8782 60.8501 62.4525 61.207 62.0936C61.5638 61.7347 61.9879 61.4496 62.4549 61.2546C62.9219 61.0596 63.4228 60.9585 63.9289 60.957C64.435 60.9556 64.9365 61.0538 65.4046 61.2462C65.8728 61.4385 66.2985 61.7212 66.6574 62.0781C67.0163 62.4349 67.3013 62.859 67.4964 63.326C67.6914 63.793 67.7925 64.294 67.794 64.8001C67.805 64.8101 67.805 64.81 67.794 64.822C67.7953 65.3282 67.697 65.8296 67.5046 66.2977C67.3122 66.7658 67.0295 67.1915 66.6726 67.5503C66.3157 67.9092 65.8916 68.1942 65.4245 68.3892C64.9575 68.5841 64.4566 68.6852 63.9505 68.6865C63.4443 68.6879 62.9429 68.5896 62.4747 68.3972C62.0066 68.2048 61.581 67.922 61.2222 67.5651C60.8633 67.2082 60.5783 66.7842 60.3833 66.3171C60.1884 65.85 60.0873 65.3491 60.086 64.843ZM66.909 64.843V64.822C66.9251 64.4199 66.8601 64.0185 66.7179 63.642C66.5756 63.2654 66.3591 62.9214 66.0811 62.6303C65.8032 62.3391 65.4694 62.1069 65.0999 61.9475C64.7303 61.788 64.3324 61.7045 63.9299 61.702C63.5297 61.7031 63.1338 61.7851 62.7661 61.9431C62.3983 62.1011 62.0663 62.3318 61.79 62.6214C61.5137 62.911 61.2988 63.2534 61.1582 63.6281C61.0176 64.0029 60.9543 64.4022 60.9719 64.802V64.8241C60.956 65.2262 61.0211 65.6274 61.1633 66.0038C61.3056 66.3802 61.5222 66.7241 61.8001 67.0152C62.0781 67.3062 62.4117 67.5383 62.7812 67.6977C63.1507 67.8571 63.5485 67.9405 63.9509 67.943C64.3512 67.9419 64.7471 67.8599 65.1148 67.7019C65.4826 67.5439 65.8145 67.3133 66.0908 67.0237C66.3671 66.7341 66.582 66.3917 66.7226 66.0169C66.8632 65.6422 66.9266 65.2429 66.909 64.843Z" fill="white"/>
<path d="M74.895 61.0429H77.5181C78.0325 61.0088 78.5483 61.0807 79.0338 61.254C79.5193 61.4274 79.9641 61.6986 80.3405 62.0508C80.717 62.403 81.0172 62.8286 81.2225 63.3015C81.4278 63.7744 81.5338 64.2844 81.5341 64.7999V64.8219C81.5344 65.3385 81.4288 65.8497 81.224 66.324C81.0192 66.7982 80.7194 67.2255 80.3431 67.5795C79.9669 67.9334 79.5221 68.2066 79.0362 68.3821C78.5503 68.5576 78.0337 68.6317 77.5181 68.5999H74.895V61.0429ZM77.5181 67.8119C77.9228 67.8404 78.329 67.7844 78.7109 67.6474C79.0929 67.5104 79.4421 67.2955 79.7365 67.0163C80.0308 66.7371 80.2639 66.3996 80.4208 66.0255C80.5778 65.6513 80.6551 65.2486 80.648 64.8429V64.8219C80.6558 64.4151 80.5791 64.011 80.4227 63.6354C80.2663 63.2597 80.0336 62.9206 79.7394 62.6395C79.4453 62.3584 79.0959 62.1414 78.7136 62.0022C78.3312 61.863 77.9241 61.8046 77.5181 61.8309H75.747V67.8119H77.5181Z" fill="white"/>
<path d="M84.3669 61.043H89.8299V61.821H85.2199V64.4H89.3439V65.1769H85.2199V67.822H89.8839V68.6H84.3669V61.043Z" fill="white"/>
<path d="M96.896 61.043H97.749V67.812H102.003V68.6H96.896V61.043Z" fill="white"/>
<path d="M107.405 60.9888H108.205L111.649 68.5998H110.731L109.847 66.5998H105.733L104.833 68.5998H103.959L107.405 60.9888ZM109.505 65.8358L107.789 61.9828L106.062 65.8358H109.505Z" fill="white"/>
<path d="M28.2371 9.42786H27.2331C27.0619 9.42786 26.9231 9.56665 26.9231 9.73786V15.1049C26.9231 15.2761 27.0619 15.4149 27.2331 15.4149H28.2371C28.4083 15.4149 28.5471 15.2761 28.5471 15.1049V9.73786C28.5471 9.56665 28.4083 9.42786 28.2371 9.42786Z" fill="white"/>
<path d="M30.8489 9.42786H29.8449C29.6737 9.42786 29.5349 9.56665 29.5349 9.73786V15.1049C29.5349 15.2761 29.6737 15.4149 29.8449 15.4149H30.8489C31.0201 15.4149 31.1589 15.2761 31.1589 15.1049V9.73786C31.1589 9.56665 31.0201 9.42786 30.8489 9.42786Z" fill="white"/>
<path d="M25.6099 9.42786H24.6059C24.4347 9.42786 24.2959 9.56665 24.2959 9.73786V15.1049C24.2959 15.2761 24.4347 15.4149 24.6059 15.4149H25.6099C25.7811 15.4149 25.9199 15.2761 25.9199 15.1049V9.73786C25.9199 9.56665 25.7811 9.42786 25.6099 9.42786Z" fill="white"/>
<path d="M32.8859 8.25H22.5609C22.4659 8.25 22.3889 8.32701 22.3889 8.422V8.818C22.3889 8.91299 22.4659 8.99 22.5609 8.99H32.8859C32.9809 8.99 33.0579 8.91299 33.0579 8.818V8.422C33.0579 8.32701 32.9809 8.25 32.8859 8.25Z" fill="white"/>
<path d="M37.571 18.5327C37.908 18.7817 38.294 19.0787 38.72 19.4327C39.6251 20.1928 40.4817 21.0087 41.285 21.8757C43.3836 24.1527 45.119 26.7394 46.43 29.5447C47.0694 30.8429 47.618 32.1837 48.072 33.5577C48.5619 34.934 48.9565 36.3423 49.253 37.7727C49.753 40.2627 50.003 43.0547 50.003 43.0547H53.825L53.818 42.9928L53.967 43.0487V43.0218C53.7643 37.5181 51.9738 32.1905 48.8113 27.6815C45.6489 23.1725 41.2496 19.6747 36.144 17.6097L36.105 17.5938C36.3951 17.751 36.6768 17.9232 36.949 18.1097C37.138 18.2327 37.35 18.3797 37.571 18.5327Z" fill="white"/>
<path d="M47.4231 42.9756C47.3981 42.6896 47.3561 42.4106 47.3231 42.1266C47.0598 38.9014 46.3236 35.7325 45.1381 32.7216C44.7612 31.7822 44.327 30.8668 43.8381 29.9806C43.7001 29.7336 43.5551 29.4996 43.4131 29.2616C41.0238 24.5322 37.1269 20.7335 32.3381 18.4656L32.3201 18.4546L32.3521 18.4966C33.2714 19.423 34.0906 20.4436 34.7961 21.5416C37.86 26.372 39.7258 31.8644 40.2381 37.5616C40.4008 38.966 40.4813 40.3788 40.4791 41.7926C40.4921 42.1686 40.5061 42.7816 40.5111 42.9926L40.4961 43.0696H41.2911L47.4001 43.0516V43.0466H47.4331L47.4231 42.9756Z" fill="white"/>
<path d="M31.73 7.70581C31.7425 6.64167 31.339 5.61468 30.6055 4.84363C29.872 4.07258 28.8664 3.61841 27.803 3.57782V2.9028H28.888V2.7858V2.3858C28.8878 2.37616 28.8837 2.36701 28.8768 2.36029C28.8699 2.35357 28.8606 2.34982 28.851 2.34982H28.69C28.6804 2.34982 28.6711 2.35357 28.6642 2.36029C28.6573 2.36701 28.6532 2.37616 28.653 2.3858V2.77982H27.8V1.23581H27.823C27.8352 1.23581 27.8469 1.23095 27.8556 1.22232C27.8642 1.21369 27.869 1.20202 27.869 1.18982V0.762817C27.869 0.750524 27.8642 0.738705 27.8556 0.729919C27.847 0.721133 27.8353 0.716082 27.823 0.71582H27.638C27.6319 0.715819 27.6258 0.717017 27.6201 0.719391C27.6145 0.721765 27.6094 0.725267 27.6051 0.729645C27.6008 0.734023 27.5975 0.739207 27.5952 0.744904C27.593 0.7506 27.5919 0.756693 27.592 0.762817V1.18982C27.5919 1.1959 27.593 1.20194 27.5952 1.20758C27.5975 1.21322 27.6009 1.21833 27.6052 1.22263C27.6095 1.22692 27.6146 1.23031 27.6203 1.23257C27.6259 1.23484 27.632 1.23595 27.638 1.23581H27.665V2.77982H26.801V2.3858C26.8007 2.37616 26.7967 2.36701 26.7898 2.36029C26.7829 2.35357 26.7736 2.34982 26.764 2.34982H26.603C26.5982 2.34969 26.5934 2.35052 26.5889 2.35226C26.5844 2.35401 26.5803 2.35663 26.5769 2.35999C26.5734 2.36334 26.5707 2.36736 26.5688 2.3718C26.5669 2.37623 26.566 2.38099 26.566 2.3858V2.7858V2.90381H27.666V3.5798C26.6 3.62043 25.5922 4.07654 24.8582 4.85059C24.1241 5.62463 23.7221 6.65516 23.738 7.7218V7.74081H31.728L31.73 7.70581Z" fill="white"/>
<path d="M32.8859 16.0458H22.5609C22.4659 16.0458 22.3889 16.1228 22.3889 16.2178V16.6138C22.3889 16.7088 22.4659 16.7858 22.5609 16.7858H32.8859C32.9809 16.7858 33.0579 16.7088 33.0579 16.6138V16.2178C33.0579 16.1228 32.9809 16.0458 32.8859 16.0458Z" fill="white"/>
<path d="M29.1949 19.0339L29.085 18.9399V43.05L37.929 43.0809C37.929 43.0809 37.929 42.8309 37.929 42.7059C37.929 32.4219 34.3869 23.5019 29.1949 19.0339Z" fill="white"/>
<path d="M49.813 46.7446H47.476C47.3048 46.7446 47.166 46.8834 47.166 47.0546V49.3896C47.166 49.5608 47.3048 49.6996 47.476 49.6996H49.813C49.9842 49.6996 50.123 49.5608 50.123 49.3896V47.0546C50.123 46.8834 49.9842 46.7446 49.813 46.7446Z" fill="white"/>
<path d="M17.4571 46.7417H15.1191C14.9479 46.7417 14.8091 46.8805 14.8091 47.0517V49.3897C14.8091 49.5609 14.9479 49.6997 15.1191 49.6997H17.4571C17.6283 49.6997 17.7671 49.5609 17.7671 49.3897V47.0517C17.7671 46.8805 17.6283 46.7417 17.4571 46.7417Z" fill="white"/>
<path d="M40.366 46.7446H38.029C37.8578 46.7446 37.719 46.8834 37.719 47.0546V49.3896C37.719 49.5608 37.8578 49.6996 38.029 49.6996H40.366C40.5372 49.6996 40.676 49.5608 40.676 49.3896V47.0546C40.676 46.8834 40.5372 46.7446 40.366 46.7446Z" fill="white"/>
<path d="M28.9109 46.7417H26.5729C26.4017 46.7417 26.2629 46.8805 26.2629 47.0517V49.3897C26.2629 49.5609 26.4017 49.6997 26.5729 49.6997H28.9109C29.0821 49.6997 29.2209 49.5609 29.2209 49.3897V47.0517C29.2209 46.8805 29.0821 46.7417 28.9109 46.7417Z" fill="white"/>
<path d="M55.3261 45.0218H55.1921H50.1271V44.1418C50.1271 44.0731 50.0998 44.0072 50.0512 43.9586C50.0026 43.91 49.9368 43.8828 49.8681 43.8828H47.4301C47.3614 43.8828 47.2955 43.91 47.2469 43.9586C47.1984 44.0072 47.1711 44.0731 47.1711 44.1418V45.0218H40.6811V44.1418C40.6811 44.1077 40.6744 44.0739 40.6613 44.0424C40.6482 44.0109 40.629 43.9823 40.6049 43.9583C40.5807 43.9342 40.552 43.9152 40.5205 43.9022C40.489 43.8893 40.4552 43.8826 40.4211 43.8828H37.9831C37.9144 43.8828 37.8486 43.91 37.8 43.9586C37.7514 44.0072 37.7241 44.0731 37.7241 44.1418V45.0218H29.2241V44.1368C29.2241 44.0681 29.1968 44.0022 29.1483 43.9536C29.0997 43.905 29.0338 43.8778 28.9651 43.8778H26.5261C26.4574 43.8778 26.3915 43.905 26.343 43.9536C26.2944 44.0022 26.2671 44.0681 26.2671 44.1368V45.0218H17.7671V44.1368C17.7671 44.0681 17.7398 44.0022 17.6912 43.9536C17.6427 43.905 17.5768 43.8778 17.5081 43.8778H15.0691C15.0004 43.8778 14.9346 43.905 14.886 43.9536C14.8374 44.0022 14.8101 44.0681 14.8101 44.1368V45.0218H8.31812V44.1368C8.31812 44.1027 8.31136 44.0689 8.29828 44.0374C8.2852 44.0059 8.26604 43.9774 8.24188 43.9533C8.21773 43.9292 8.18907 43.9102 8.15753 43.8972C8.12599 43.8843 8.0922 43.8777 8.05811 43.8778H5.62012C5.55133 43.8778 5.48532 43.905 5.43658 43.9536C5.38785 44.0021 5.36037 44.068 5.36011 44.1368V45.0218H0.318115H0.178101C0.155513 45.0218 0.133173 45.0262 0.112305 45.0349C0.0914367 45.0435 0.0724292 45.0562 0.0564575 45.0721C0.0404858 45.0881 0.0278088 45.1071 0.019165 45.1279C0.0105212 45.1488 0.00610352 45.1712 0.00610352 45.1938V45.6578C0.00610352 45.7034 0.0242013 45.7472 0.0564575 45.7794C0.0887138 45.8117 0.132483 45.8298 0.178101 45.8298H55.3321C55.3778 45.8298 55.4217 45.8117 55.4541 45.7795C55.4865 45.7473 55.5049 45.7035 55.5051 45.6578V45.1938C55.505 45.1706 55.5002 45.1477 55.4911 45.1265C55.482 45.1052 55.4687 45.086 55.452 45.0699C55.4353 45.0539 55.4155 45.0414 55.3939 45.0331C55.3723 45.0248 55.3492 45.021 55.3261 45.0218Z" fill="white"/>
<path d="M8.00689 46.7417H5.66889C5.49768 46.7417 5.35889 46.8805 5.35889 47.0517V49.3897C5.35889 49.5609 5.49768 49.6997 5.66889 49.6997H8.00689C8.1781 49.6997 8.31689 49.5609 8.31689 49.3897V47.0517C8.31689 46.8805 8.1781 46.7417 8.00689 46.7417Z" fill="white"/>
<path d="M26.416 43.0638V18.9468L26.306 19.0398C21.114 23.5088 17.573 32.4397 17.573 42.7188C17.573 42.8447 17.573 43.0938 17.573 43.0938L26.416 43.0638Z" fill="white"/>
<path d="M1.67511 43.0648H3.11011L4.45709 43.0698V43.0648H5.49609C5.49609 43.0648 5.74809 40.2718 6.24609 37.7798C6.86718 34.9371 7.81412 32.1755 9.06812 29.5498C10.3791 26.7439 12.1148 24.1569 14.2141 21.8799C15.0167 21.0122 15.873 20.196 16.7781 19.4359C17.2031 19.0849 17.5891 18.7888 17.9261 18.5358C18.1481 18.3818 18.3621 18.2358 18.5501 18.1058C18.8223 17.9193 19.104 17.7471 19.3941 17.5898L19.3551 17.6058C14.2493 19.6733 9.85049 23.1736 6.68915 27.6846C3.52781 32.1957 1.73888 37.525 1.53809 43.0298V43.0588H1.68011L1.67511 43.0648Z" fill="white"/>
<path d="M20.7031 21.5529C21.4079 20.4543 22.2268 19.4334 23.1461 18.5069L23.1781 18.4639L23.1611 18.4749C18.3711 20.7438 14.4735 24.5438 12.0841 29.2749C11.9421 29.5129 11.7971 29.7469 11.6591 29.9939C11.1723 30.8804 10.7398 31.7958 10.3641 32.7349C9.17583 35.747 8.4376 38.9177 8.1731 42.1449C8.1411 42.4289 8.09912 42.7088 8.07312 42.9948L8.06812 43.0609H8.1001L14.0181 43.0789H15.0031L14.9881 43.0009C14.9931 42.7939 15.0071 42.1799 15.0201 41.8009C15.0187 40.3867 15.0992 38.9737 15.2611 37.5689C15.7741 31.8731 17.6399 26.3821 20.7031 21.5529Z" fill="white"/>
<path d="M55.188 50.396H0.31C0.138792 50.396 0 50.5348 0 50.706V52.003C0 52.1742 0.138792 52.313 0.31 52.313H55.188C55.3592 52.313 55.498 52.1742 55.498 52.003V50.706C55.498 50.5348 55.3592 50.396 55.188 50.396Z" fill="white"/>
<path d="M55.2381 98.0319H0.0380859V95.0319H55.2381" fill="white"/>
</svg>
