<svg width="448" height="381" viewBox="0 0 448 381" fill="none" xmlns="http://www.w3.org/2000/svg">
<g id="Illustration">
<g id="Shape">
<path id="Oval" opacity="0.0528274" fill-rule="evenodd" clip-rule="evenodd" d="M447.122 119.07C447.122 53.3096 393.578 0 327.528 0C261.477 0 207.933 53.3096 207.933 119.07C207.933 184.831 261.477 238.141 327.528 238.141C393.578 238.141 447.122 184.831 447.122 119.07ZM252.644 119.071C252.644 77.8936 286.171 44.5129 327.53 44.5129C368.889 44.5129 402.417 77.8936 402.417 119.071C402.417 160.248 368.889 193.629 327.53 193.629C286.171 193.629 252.644 160.248 252.644 119.071Z" fill="#7367F0"/>
<g id="Oval_2" opacity="0.14102" filter="url(#filter0_f)">
<path fill-rule="evenodd" clip-rule="evenodd" d="M73.8076 188.806C73.8076 170.163 58.6283 155.051 39.9038 155.051C21.1792 155.051 6 170.163 6 188.806C6 207.448 21.1792 222.561 39.9038 222.561C58.6283 222.561 73.8076 207.448 73.8076 188.806ZM28.3475 188.806C28.3475 182.456 33.5185 177.307 39.8972 177.307C46.2759 177.307 51.4469 182.456 51.4469 188.806C51.4469 195.157 46.2759 200.305 39.8972 200.305C33.5185 200.305 28.3475 195.157 28.3475 188.806Z" fill="#8BF78F"/>
</g>
<ellipse id="Oval_3" cx="144.599" cy="296.748" rx="67.0625" ry="66.7685" fill="#7367F0" fill-opacity="0.0612161"/>
<ellipse id="Oval_4" opacity="0.14102" cx="122.241" cy="63.0587" rx="23.8444" ry="23.7399" fill="#CEF5FF"/>
<g id="Oval_5" filter="url(#filter1_f)">
<ellipse cx="403.164" cy="296.749" rx="23.8444" ry="23.7399" fill="#7367F0" fill-opacity="0.135927"/>
</g>
</g>
<g id="File Organizer">
<g id="Phone3">
<path id="Rectangle" fill-rule="evenodd" clip-rule="evenodd" d="M143.963 94.9558C143.963 81.073 155.217 69.8188 169.1 69.8188H269.825C283.708 69.8188 294.962 81.073 294.962 94.9558V354.92C294.962 368.803 283.708 380.057 269.825 380.057H169.1C155.217 380.057 143.963 368.803 143.963 354.92V94.9558Z" fill="#C4E3E7"/>
<g id="Group 48">
<path id="Rectangle_2" fill-rule="evenodd" clip-rule="evenodd" d="M149.402 94.5918C149.402 84.3624 157.695 76.0698 167.924 76.0698H183.307C183.863 76.0698 184.318 76.5119 184.334 77.0677C184.451 81.051 187.713 84.2197 191.698 84.2197H246.718C250.703 84.2197 253.965 81.051 254.082 77.0677C254.098 76.5119 254.553 76.0698 255.109 76.0698H270.492C280.721 76.0698 289.014 84.3623 289.014 94.5918V353.43C289.014 363.659 280.721 371.952 270.492 371.952H167.924C157.695 371.952 149.402 363.659 149.402 353.43V94.5918Z" fill="white"/>
<mask id="mask0" mask-type="alpha" maskUnits="userSpaceOnUse" x="149" y="76" width="141" height="296">
<path id="Rectangle_3" fill-rule="evenodd" clip-rule="evenodd" d="M149.402 94.5918C149.402 84.3624 157.695 76.0698 167.924 76.0698H183.307C183.863 76.0698 184.318 76.5119 184.334 77.0677C184.451 81.051 187.713 84.2197 191.698 84.2197H246.718C250.703 84.2197 253.965 81.051 254.082 77.0677C254.098 76.5119 254.553 76.0698 255.109 76.0698H270.492C280.721 76.0698 289.014 84.3623 289.014 94.5918V353.43C289.014 363.659 280.721 371.952 270.492 371.952H167.924C157.695 371.952 149.402 363.659 149.402 353.43V94.5918Z" fill="white"/>
</mask>
<g mask="url(#mask0)">
<ellipse id="Oval_6" opacity="0.0987723" cx="202.337" cy="256.155" rx="11.9746" ry="11.8544" fill="#7367F0"/>
<path id="Oval_7" opacity="0.14102" fill-rule="evenodd" clip-rule="evenodd" d="M273.994 244.301C305.925 244.301 331.809 269.926 331.809 301.535C331.809 333.145 305.925 358.77 273.994 358.77C242.064 358.77 216.179 333.145 216.179 301.535C216.179 269.926 242.064 244.301 273.994 244.301ZM274.002 269.306C256.022 269.306 241.446 283.736 241.446 301.535C241.446 319.335 256.022 333.764 274.002 333.764C291.982 333.764 306.558 319.335 306.558 301.535C306.558 283.736 291.982 269.306 274.002 269.306Z" fill="#C8F5D0"/>
<path id="Rectangle_4" fill-rule="evenodd" clip-rule="evenodd" d="M166.413 130.758C166.413 128.609 168.154 126.868 170.303 126.868H269.172C271.321 126.868 273.062 128.609 273.062 130.758C273.062 132.906 271.321 134.647 269.172 134.647H170.303C168.154 134.647 166.413 132.906 166.413 130.758Z" fill="#68DE9E" fill-opacity="0.642073"/>
</g>
</g>
<path id="Path" d="M227.643 75.2491C228.935 75.2491 229.982 76.2443 229.982 77.4719C229.982 78.6721 228.981 79.6502 227.729 79.6931L227.643 79.6946H201.197C199.906 79.6946 198.858 78.6994 198.858 77.4719C198.858 76.2716 199.859 75.2935 201.111 75.2506L201.197 75.2491H227.643Z" fill="#56CDD9"/>
<path id="Path_2" d="M237.128 74.8796C238.419 74.8796 239.467 75.9162 239.467 77.1949C239.467 78.4452 238.465 79.464 237.213 79.5087L237.128 79.5102H237.005C235.713 79.5102 234.666 78.4736 234.666 77.1949C234.666 75.9446 235.667 74.9258 236.919 74.8811L237.005 74.8796H237.128Z" fill="#56CDD9"/>
</g>
<g id="Icon54">
<g id="Group 37">
<path id="Rectangle_5" fill-rule="evenodd" clip-rule="evenodd" d="M153.698 178.809C153.698 176.6 155.488 174.809 157.698 174.809H160.396C162.606 174.809 164.396 176.6 164.396 178.809V179.556C164.396 180.23 164.942 180.776 165.616 180.776H198.289C200.499 180.776 202.289 182.566 202.289 184.776V211.46C202.289 213.669 200.499 215.46 198.289 215.46H157.698C155.488 215.46 153.698 213.669 153.698 211.46V178.809Z" fill="url(#paint0_linear)"/>
<path id="Rectangle_6" fill-rule="evenodd" clip-rule="evenodd" d="M165.177 178.657C165.272 178.066 165.782 177.631 166.38 177.631H202.876C203.627 177.631 204.199 178.303 204.08 179.045L198.605 213.023C198.51 213.614 198 214.048 197.401 214.048H160.906C160.155 214.048 159.583 213.376 159.702 212.635L165.177 178.657Z" fill="url(#paint1_linear)"/>
<path id="Rectangle_7" fill-rule="evenodd" clip-rule="evenodd" d="M203.877 186.88C206.396 186.88 208.288 189.179 207.803 191.651L204.305 209.46C203.568 213.212 200.278 215.918 196.455 215.918H158.558C156.039 215.918 154.147 213.619 154.633 211.147L158.131 193.338C158.868 189.586 162.157 186.88 165.981 186.88L203.877 186.88Z" fill="#FFCC7B"/>
</g>
</g>
<g id="Group 28">
<path id="Rectangle_8" fill-rule="evenodd" clip-rule="evenodd" d="M98.3108 142.499C98.3108 139.185 100.997 136.499 104.311 136.499H125.526L134.235 145.39V172.73C134.235 176.044 131.549 178.73 128.235 178.73H104.311C100.997 178.73 98.3108 176.044 98.3108 172.73V142.499Z" fill="#B7B1FB"/>
<g id="Icon">
<path id="Mask" fill-rule="evenodd" clip-rule="evenodd" d="M121.705 164.575V152.913C121.705 151.674 120.755 150.726 119.512 150.726H115.856C115.417 150.726 115.125 151.018 115.125 151.455C115.125 151.892 115.417 152.184 115.856 152.184H119.512C119.95 152.184 120.243 152.475 120.243 152.913V164.575C120.243 165.012 119.95 165.304 119.512 165.304H115.856C115.417 165.304 115.125 165.595 115.125 166.033C115.125 166.47 115.417 166.762 115.856 166.762H119.512C120.755 166.762 121.705 165.814 121.705 164.575ZM117.245 158.452C117.318 158.671 117.318 158.89 117.245 159.035C117.245 159.108 117.172 159.181 117.099 159.254L114.174 162.17C114.028 162.315 113.809 162.388 113.663 162.388C113.516 162.388 113.297 162.315 113.151 162.17C112.858 161.878 112.858 161.441 113.151 161.149L114.833 159.473H107.814C107.375 159.473 107.083 159.181 107.083 158.744C107.083 158.306 107.375 158.015 107.814 158.015H114.833L113.151 156.338C112.858 156.047 112.858 155.61 113.151 155.318C113.443 155.026 113.882 155.026 114.174 155.318L117.099 158.234C117.136 158.27 117.154 158.306 117.172 158.343C117.19 158.379 117.209 158.416 117.245 158.452Z" fill="black"/>
<mask id="mask1" mask-type="alpha" maskUnits="userSpaceOnUse" x="107" y="150" width="15" height="17">
<path id="Mask_2" fill-rule="evenodd" clip-rule="evenodd" d="M121.705 164.575V152.913C121.705 151.674 120.755 150.726 119.512 150.726H115.856C115.417 150.726 115.125 151.018 115.125 151.455C115.125 151.892 115.417 152.184 115.856 152.184H119.512C119.95 152.184 120.243 152.475 120.243 152.913V164.575C120.243 165.012 119.95 165.304 119.512 165.304H115.856C115.417 165.304 115.125 165.595 115.125 166.033C115.125 166.47 115.417 166.762 115.856 166.762H119.512C120.755 166.762 121.705 165.814 121.705 164.575ZM117.245 158.452C117.318 158.671 117.318 158.89 117.245 159.035C117.245 159.108 117.172 159.181 117.099 159.254L114.174 162.17C114.028 162.315 113.809 162.388 113.663 162.388C113.516 162.388 113.297 162.315 113.151 162.17C112.858 161.878 112.858 161.441 113.151 161.149L114.833 159.473H107.814C107.375 159.473 107.083 159.181 107.083 158.744C107.083 158.306 107.375 158.015 107.814 158.015H114.833L113.151 156.338C112.858 156.047 112.858 155.61 113.151 155.318C113.443 155.026 113.882 155.026 114.174 155.318L117.099 158.234C117.136 158.27 117.154 158.306 117.172 158.343C117.19 158.379 117.209 158.416 117.245 158.452Z" fill="white"/>
</mask>
<g mask="url(#mask1)">
<g id="Icon Color">
<rect id="&#240;&#159;&#142;&#168; Icon Color" x="105.62" y="149.997" width="17.5471" height="17.4934" fill="white"/>
</g>
</g>
</g>
<path id="Path_3" opacity="0.33996" d="M134.231 145.391H128.522C126.865 145.391 125.522 144.048 125.522 142.391V136.5L134.231 145.391Z" fill="#7367F0"/>
</g>
<g id="Group">
<path id="Rectangle_9" fill-rule="evenodd" clip-rule="evenodd" d="M114.026 252.153C114.026 248.839 116.713 246.153 120.026 246.153H158.919C162.232 246.153 164.919 248.839 164.919 252.153V282.384C164.919 285.698 162.232 288.384 158.919 288.384H120.026C116.713 288.384 114.026 285.698 114.026 282.384V252.153Z" fill="#6FD9E6"/>
<g id="Icon_2">
<path id="Mask_3" fill-rule="evenodd" clip-rule="evenodd" d="M144.853 265.591H144V263.039C144 260.233 141.697 257.937 138.882 257.937C136.067 257.937 133.764 260.233 133.764 263.039V265.591H132.911C131.461 265.591 130.352 266.696 130.352 268.142V274.094C130.352 275.54 131.461 276.645 132.911 276.645H144.853C146.303 276.645 147.412 275.54 147.412 274.094V268.142C147.412 266.696 146.303 265.591 144.853 265.591ZM135.47 263.039C135.47 261.169 137.005 259.638 138.882 259.638C140.758 259.638 142.294 261.169 142.294 263.039V265.591H135.47V263.039ZM144.853 274.945C145.364 274.945 145.706 274.604 145.706 274.094V268.142C145.706 267.631 145.364 267.291 144.853 267.291H132.911C132.399 267.291 132.058 267.631 132.058 268.142V274.094C132.058 274.604 132.399 274.945 132.911 274.945H144.853Z" fill="black"/>
<mask id="mask2" mask-type="alpha" maskUnits="userSpaceOnUse" x="130" y="257" width="18" height="20">
<path id="Mask_4" fill-rule="evenodd" clip-rule="evenodd" d="M144.853 265.591H144V263.039C144 260.233 141.697 257.937 138.882 257.937C136.067 257.937 133.764 260.233 133.764 263.039V265.591H132.911C131.461 265.591 130.352 266.696 130.352 268.142V274.094C130.352 275.54 131.461 276.645 132.911 276.645H144.853C146.303 276.645 147.412 275.54 147.412 274.094V268.142C147.412 266.696 146.303 265.591 144.853 265.591ZM135.47 263.039C135.47 261.169 137.005 259.638 138.882 259.638C140.758 259.638 142.294 261.169 142.294 263.039V265.591H135.47V263.039ZM144.853 274.945C145.364 274.945 145.706 274.604 145.706 274.094V268.142C145.706 267.631 145.364 267.291 144.853 267.291H132.911C132.399 267.291 132.058 267.631 132.058 268.142V274.094C132.058 274.604 132.399 274.945 132.911 274.945H144.853Z" fill="white"/>
</mask>
<g mask="url(#mask2)">
<g id="Icon Color_2">
<rect id="&#240;&#159;&#142;&#168; Icon Color_2" x="128.646" y="257.087" width="20.4716" height="20.409" fill="white"/>
</g>
</g>
</g>
</g>
<g id="Group 34">
<path id="Rectangle_10" d="M158.183 117.309C158.183 113.996 160.87 111.309 164.183 111.309H203.076C206.389 111.309 209.076 113.996 209.076 117.309V147.541C209.076 150.854 206.389 153.541 203.076 153.541H164.183C160.87 153.541 158.183 150.854 158.183 147.541V117.309Z" fill="#BAF3C4"/>
<mask id="mask3" mask-type="alpha" maskUnits="userSpaceOnUse" x="158" y="111" width="52" height="43">
<path id="Rectangle_11" d="M158.183 117.309C158.183 113.996 160.87 111.309 164.183 111.309H203.076C206.389 111.309 209.076 113.996 209.076 117.309V147.541C209.076 150.854 206.389 153.541 203.076 153.541H164.183C160.87 153.541 158.183 150.854 158.183 147.541V117.309Z" fill="white"/>
</mask>
<g mask="url(#mask3)">
<ellipse id="Oval_8" cx="180.635" cy="126.867" rx="6.73574" ry="6.66812" fill="white"/>
<ellipse id="Oval_9" cx="165.296" cy="161.321" rx="24.3235" ry="24.0793" fill="#28C76F"/>
<ellipse id="Oval_10" cx="209.443" cy="155.763" rx="28.814" ry="28.1543" fill="#69E09E"/>
</g>
</g>
<g id="Group 23">
<g id="Rectangle_12" filter="url(#filter2_dd)">
<path fill-rule="evenodd" clip-rule="evenodd" d="M225.581 104.309C225.559 98.7704 230.043 94.2689 235.581 94.2689L304.942 94.2689C310.449 94.2689 314.92 98.7217 314.942 104.229L315.311 196.846C315.333 202.385 310.85 206.886 305.311 206.886H235.951C230.443 206.886 225.973 202.433 225.951 196.926L225.581 104.309Z" fill="white"/>
</g>
<path id="Rectangle_13" opacity="0.33996" d="M253.973 166.136C253.973 164.908 254.968 163.913 256.196 163.913H284.681C285.908 163.913 286.904 164.908 286.904 166.136C286.904 167.363 285.908 168.358 284.681 168.358H256.196C254.968 168.358 253.973 167.363 253.973 166.136Z" fill="#7367F0"/>
<path id="Rectangle_14" opacity="0.33996" d="M246.497 177.991C246.497 176.763 247.492 175.768 248.719 175.768H292.172C293.4 175.768 294.395 176.763 294.395 177.991C294.395 179.218 293.4 180.213 292.172 180.213H248.719C247.492 180.213 246.497 179.218 246.497 177.991Z" fill="#7367F0"/>
<g id="Icon8">
<g id="Oval_11" filter="url(#filter3_dd)">
<ellipse cx="270.495" cy="130.267" rx="17.2696" ry="17.4762" fill="white"/>
</g>
<g id="Group 70">
<path id="Combined Shape" fill-rule="evenodd" clip-rule="evenodd" d="M270.826 129.687C273.266 129.687 275.244 127.729 275.244 125.314C275.244 122.898 273.266 120.94 270.826 120.94C268.387 120.94 266.409 122.898 266.409 125.314C266.409 127.729 268.387 129.687 270.826 129.687ZM270.249 130.926C266.637 130.926 263.708 133.855 263.708 137.468C263.708 137.881 264.043 138.215 264.456 138.215H277.195C277.608 138.215 277.943 137.881 277.943 137.468C277.943 133.855 275.014 130.926 271.402 130.926H270.249Z" fill="#7367F0"/>
</g>
</g>
</g>
<g id="Wom3.5">
<g id="RArm">
<path id="Path_4" fill-rule="evenodd" clip-rule="evenodd" d="M355.975 221.062C355.975 221.062 347.605 229.258 348.119 230.06C348.632 230.867 352.85 228.992 352.85 228.992C352.85 228.992 347.588 237.602 348.67 238.263C349.753 238.925 355.289 237.585 356.986 235.811C358.684 234.036 361.304 225.081 361.304 225.081L374.033 201.481L364.801 198.318L355.975 221.062Z" fill="url(#paint2_linear)"/>
<path id="Path_5" fill-rule="evenodd" clip-rule="evenodd" d="M347.439 177.438C350.953 182.844 362.784 198.252 362.784 198.252L361.922 201.326L372.795 208.705C372.795 208.705 375.884 200.257 376.152 199.069C377.036 195.149 359.173 170.132 355.174 166.517C348.876 160.825 342.067 169.176 347.439 177.438Z" fill="#005EFF"/>
<path id="Path_6" fill-rule="evenodd" clip-rule="evenodd" d="M365.612 202.342C365.814 201.95 362.801 198.196 362.801 198.196L362.291 200.022C362.291 200.022 365.409 202.733 365.612 202.342Z" fill="black" fill-opacity="0.159856"/>
<path id="Path 70" fill-rule="evenodd" clip-rule="evenodd" d="M361.847 200.294L373.398 209.027L370.824 214.674L360.724 203.553L361.847 200.294Z" fill="#FFEDC2"/>
</g>
<g id="RLeg">
<path id="Path_7" fill-rule="evenodd" clip-rule="evenodd" d="M354.555 359.226L353.913 370.048L362.138 370.26L360.592 359.226H354.555Z" fill="url(#paint3_linear)"/>
<path id="Path_8" fill-rule="evenodd" clip-rule="evenodd" d="M362.526 363.489C362.526 363.489 362.296 370.006 363.659 372.281C365.031 374.557 365.447 376.321 365.507 377.681C365.572 379.14 365.433 380.462 365.433 380.462H351.82C351.82 380.462 351.479 373.605 352.381 372.312C353.283 371.019 353.874 370.997 353.874 369.854C353.881 368.712 354.076 363.532 354.076 363.532L362.526 363.489Z" fill="#391B0B"/>
<path id="Path_9" fill-rule="evenodd" clip-rule="evenodd" d="M325.584 214.747L346.92 212.451L347.233 212.74C348.754 214.174 355.362 220.835 357.261 229.94C360.846 247.129 356.048 278.876 356.154 285.838C356.255 292.799 359.578 297 360.959 306.843C362.34 316.686 362.471 360.675 362.471 360.675C358.809 362.823 355.588 362.977 351.222 360.546L325.584 214.747Z" fill="#4E3319"/>
<path id="Path_10" fill-rule="evenodd" clip-rule="evenodd" d="M344.637 323.125L325.578 214.747L337.441 213.471C337.97 251.121 345.347 302.013 344.637 323.125Z" fill="white" fill-opacity="0.192499"/>
</g>
<g id="LLeg">
<path id="Path_11" fill-rule="evenodd" clip-rule="evenodd" d="M329.952 358.088L322.938 358.201C322.938 358.201 323.399 365.408 320.702 367.849L320.555 367.977C317.299 370.678 329.86 369.703 329.86 369.703L329.952 358.088Z" fill="url(#paint4_linear)"/>
<path id="Path_12" fill-rule="evenodd" clip-rule="evenodd" d="M330.327 363.706L330.125 380.456L325.131 380.459L325.088 376.332C325.088 376.332 323.512 380.18 321.105 380.403C318.69 380.625 307.93 380.489 307.93 380.489C307.93 380.489 307.037 376.624 312.392 374.87C316.847 373.412 321.773 363.706 321.773 363.706H330.327Z" fill="#391B0B"/>
<path id="Path_13" fill-rule="evenodd" clip-rule="evenodd" d="M315 216.237L338.958 215.433L339.137 215.761C340.299 217.944 346.669 230.724 344.702 245.251C341.941 265.641 334.923 289.544 334.579 293.196C333.967 299.706 335.192 304.42 335.694 311.144C336.197 317.869 333.779 360.16 333.779 360.16C330.224 362.277 325.993 362.693 320.615 360.224C320.615 360.224 315.759 302.779 315.723 293.688C315.687 284.597 315 216.237 315 216.237Z" fill="#604021"/>
<path id="Path_14" fill-rule="evenodd" clip-rule="evenodd" d="M319.93 238.291L319.771 239.802C318.174 255.732 318.186 289.562 318.804 294.78L318.889 295.452C319.575 301.339 319.597 316.286 318.956 340.292L318.121 329.933C316.539 310 315.74 297.919 315.723 293.689L315.694 289.311C315.557 271.609 315 216.237 315 216.237L320.052 216.068C320.592 224.809 320.552 232.216 319.93 238.291Z" fill="white" fill-opacity="0.192499"/>
</g>
<g id="Head">
<path id="Path_15" fill-rule="evenodd" clip-rule="evenodd" d="M324.135 140.732C321.187 141.051 321.396 146.182 324.985 146.45C325.718 151.396 328.334 153.752 331.523 154.025L331.346 161.506L345.452 161.497C345.452 161.497 341.48 156.213 341.678 148.978C341.876 141.742 341.545 134.946 341.545 134.946L323.274 135.27L324.135 140.732Z" fill="url(#paint5_linear)"/>
<path id="Path_16" fill-rule="evenodd" clip-rule="evenodd" d="M323.487 141.117C326.92 139.773 329.457 145.56 332.084 149.582C334.711 153.605 341.517 152.921 342.455 149.582C346.007 142.269 349.067 132.327 344.923 131.511C344.339 120.942 316.395 123.437 323.487 141.117Z" fill="#8B5030"/>
<path id="Combined Shape_2" fill-rule="evenodd" clip-rule="evenodd" d="M342.592 127.289H336.611H336.5L336.426 127.371C331.06 133.301 329.838 142.013 332.301 149.892C332.547 150.22 332.823 150.512 333.122 150.771C330.27 142.804 331.329 133.819 336.723 127.789H343.181C342.996 127.613 342.8 127.447 342.592 127.289Z" fill="black" fill-opacity="0.199355"/>
<ellipse id="Oval_12" cx="338.934" cy="127.512" rx="3.36787" ry="3.33406" fill="#FB9934"/>
</g>
<g id="Body">
<path id="Path_17" fill-rule="evenodd" clip-rule="evenodd" d="M320.432 162.954C317.285 167.53 312.04 183.063 311.742 186.558C311.407 190.589 315.772 197.01 315.844 202.845C315.908 208.681 312.588 226.252 313.586 227.894C314.575 229.535 342.948 236.802 344.8 236.763C346.643 236.724 358.281 226.833 356.821 223.415C355.353 219.997 348.538 211.503 349.232 206.845C349.918 202.189 353.904 185 355.883 179.15C357.854 173.299 357.197 167.157 353.518 164.64C351.698 163.394 346.84 159.855 338.19 159.872C329.54 159.888 320.676 162.599 320.432 162.954Z" fill="#005EFF"/>
<path id="Path 68" fill-rule="evenodd" clip-rule="evenodd" d="M330.195 159.537C330.195 159.537 329.831 161.505 331.425 161.505C333.018 161.505 343.707 161.854 345.155 161.231C346.602 160.609 346.168 159.537 346.168 159.537H330.195Z" fill="#FFF6E1"/>
<path id="Path_18" fill-rule="evenodd" clip-rule="evenodd" d="M315.862 172.853L315.959 172.805C321.787 169.925 325.288 169.798 326.462 172.423C327.979 175.818 324.045 183.974 314.661 196.891C313.372 192.974 311.518 189.238 311.741 186.559C311.913 184.537 313.742 178.483 315.862 172.853Z" fill="black" fill-opacity="0.159856"/>
</g>
<g id="LArm">
<path id="Path_19" fill-rule="evenodd" clip-rule="evenodd" d="M276.982 163.312C276.982 163.312 275.932 161.056 274.281 160.445C272.632 159.835 270.107 155.791 270.498 154.617C270.888 153.443 274.302 150.186 274.302 150.186C274.302 150.186 271.284 142.168 272.62 141.263C273.801 140.464 278.271 150.563 278.271 150.563C278.271 150.563 280.898 150.955 281.504 151.988C283.032 154.591 281.877 160.445 281.877 160.445L297.389 182.884L290.271 191.918L276.982 163.312Z" fill="url(#paint6_linear)"/>
<path id="Path_20" fill-rule="evenodd" clip-rule="evenodd" d="M316.587 165.053C311.341 169.666 298.51 181.906 298.51 181.906L296.603 179.014L287.008 188.742C287.008 188.742 294.246 199.371 296.603 199.445C302.745 199.638 313.75 188.159 324.096 179.195C333.372 171.158 326.366 156.453 316.587 165.053Z" fill="#005EFF"/>
<path id="Path_21" fill-rule="evenodd" clip-rule="evenodd" d="M298.544 181.919C298.544 181.919 294.945 186.041 294.648 185.591C294.35 185.142 297.363 180.132 297.363 180.132L298.544 181.919Z" fill="black" fill-opacity="0.159856"/>
<path id="Path 69" fill-rule="evenodd" clip-rule="evenodd" d="M297.746 179.668L286.617 191.918L283.188 184.927L295.629 177.199L297.746 179.668Z" fill="#FFEDC2"/>
</g>
<path id="Path_22" fill-rule="evenodd" clip-rule="evenodd" d="M338.345 124.858C338.345 124.858 341.497 120.794 345.136 121.86C348.775 122.926 352.067 129.462 350.504 135.605C348.949 141.749 350.231 145.253 352.118 149.394C357.186 160.532 339.639 167.604 339.639 167.604C339.639 167.604 341.008 159.351 338.345 154.367C335.603 149.235 334.045 142.653 334.045 138.625C334.045 131.621 338.345 124.858 338.345 124.858Z" fill="#8B5030"/>
</g>
<g id="Group 39">
<path id="Rectangle_15" fill-rule="evenodd" clip-rule="evenodd" d="M298.878 80.2707C311.557 73.038 324.41 73.4662 337.406 80.2707L336.587 89.3084C335.469 101.635 328.643 112.727 318.142 119.279C307.187 112.772 300.163 101.264 299.385 88.5457L298.878 80.2707Z" fill="#28C76F"/>
<ellipse id="Oval_13" cx="318.147" cy="94.9421" rx="10.5077" ry="10.4023" fill="#1CA258"/>
<g id="Group 40">
<path id="Path_23" fill-rule="evenodd" clip-rule="evenodd" d="M318.001 87.5526C321.342 87.5526 324.235 89.7827 325.075 92.9272C325.14 93.1702 324.993 93.4192 324.748 93.4834C324.502 93.5476 324.251 93.4027 324.186 93.1597C323.452 90.4127 320.923 88.4627 318.001 88.4627C314.468 88.4627 311.605 91.2872 311.605 94.7704C311.605 96.7365 312.256 98.504 313.567 100.089C313.728 100.284 313.699 100.571 313.502 100.73C313.306 100.889 313.016 100.86 312.855 100.666C311.412 98.9195 310.686 96.9489 310.686 94.7704C310.686 90.7838 313.961 87.5526 318.001 87.5526Z" fill="white"/>
<path id="Path_24" fill-rule="evenodd" clip-rule="evenodd" d="M316.37 90.1129C318.971 89.226 321.78 90.5094 322.74 93.0197L322.792 93.1631C323.286 94.5812 323.957 95.2229 324.815 95.2122C325.069 95.209 325.277 95.4102 325.28 95.6615C325.284 95.9128 325.08 96.1192 324.827 96.1223C323.547 96.1383 322.597 95.2708 321.985 93.6317L321.923 93.4594C321.184 91.3341 318.844 90.2323 316.669 90.9735C314.712 91.6407 313.665 93.9991 314.125 96.0784C314.215 96.4833 314.328 96.8467 314.474 97.1969L314.605 97.4994C315.042 98.4545 315.609 99.1707 318.172 102.22C318.334 102.413 318.308 102.7 318.113 102.861C317.917 103.022 317.628 102.995 317.465 102.802L316.091 101.158C314.441 99.1658 314.068 98.5978 313.653 97.613L313.624 97.5436C313.457 97.1431 313.328 96.7289 313.227 96.2733C312.674 93.7752 313.931 90.9443 316.37 90.1129Z" fill="white"/>
<path id="Path_25" fill-rule="evenodd" clip-rule="evenodd" d="M317.44 92.5698C318.788 92.1104 320.278 92.8277 320.698 94.1693C321.301 96.1022 322.413 97.3029 324.055 97.8186C324.297 97.8946 324.43 98.1505 324.354 98.3901C324.277 98.6296 324.018 98.7622 323.776 98.6861C321.834 98.0759 320.508 96.6442 319.819 94.4383C319.556 93.5945 318.603 93.1361 317.74 93.4304C316.82 93.7437 316.365 94.6215 316.616 95.8232C316.743 96.4339 317.247 97.2657 318.106 98.3497L318.252 98.5327C318.373 98.6824 318.499 98.836 318.636 98.9997L320.114 100.73C320.275 100.924 320.248 101.21 320.052 101.371C319.857 101.531 319.567 101.504 319.405 101.31L318.223 99.9292L317.927 99.5795C317.787 99.4122 317.658 99.2548 317.534 99.1008L317.236 98.7249C316.381 97.6234 315.872 96.755 315.716 96.0073C315.375 94.373 316.067 93.038 317.44 92.5698Z" fill="white"/>
<path id="Path_26" fill-rule="evenodd" clip-rule="evenodd" d="M318.258 95.0479C318.501 94.9743 318.758 95.1095 318.832 95.3498C319.328 96.9514 320.298 98.0874 322.123 99.4441C322.326 99.595 322.367 99.8803 322.215 100.081C322.062 100.282 321.774 100.323 321.571 100.172C319.605 98.7103 318.516 97.4355 317.953 95.6164C317.879 95.376 318.015 95.1216 318.258 95.0479Z" fill="white"/>
</g>
</g>
</g>
</g>
<defs>
<filter id="filter0_f" x="0.563437" y="149.614" width="78.6807" height="78.3833" filterUnits="userSpaceOnUse" color-interpolation-filters="sRGB">
<feFlood flood-opacity="0" result="BackgroundImageFix"/>
<feBlend mode="normal" in="SourceGraphic" in2="BackgroundImageFix" result="shape"/>
<feGaussianBlur stdDeviation="2.71828" result="effect1_foregroundBlur"/>
</filter>
<filter id="filter1_f" x="371.165" y="264.854" width="63.9985" height="63.7894" filterUnits="userSpaceOnUse" color-interpolation-filters="sRGB">
<feFlood flood-opacity="0" result="BackgroundImageFix"/>
<feBlend mode="normal" in="SourceGraphic" in2="BackgroundImageFix" result="shape"/>
<feGaussianBlur stdDeviation="4.07742" result="effect1_foregroundBlur"/>
</filter>
<filter id="filter2_dd" x="205.581" y="75.2689" width="145.73" height="168.617" filterUnits="userSpaceOnUse" color-interpolation-filters="sRGB">
<feFlood flood-opacity="0" result="BackgroundImageFix"/>
<feColorMatrix in="SourceAlpha" type="matrix" values="0 0 0 0 0 0 0 0 0 0 0 0 0 0 0 0 0 0 127 0" result="hardAlpha"/>
<feOffset dx="8" dy="9"/>
<feGaussianBlur stdDeviation="14"/>
<feColorMatrix type="matrix" values="0 0 0 0 0.0755213 0 0 0 0 0.582569 0 0 0 0 0.878793 0 0 0 0.229458 0"/>
<feBlend mode="normal" in2="BackgroundImageFix" result="effect1_dropShadow"/>
<feColorMatrix in="SourceAlpha" type="matrix" values="0 0 0 0 0 0 0 0 0 0 0 0 0 0 0 0 0 0 127 0" result="hardAlpha"/>
<feOffset dy="2"/>
<feGaussianBlur stdDeviation="7.5"/>
<feColorMatrix type="matrix" values="0 0 0 0 0.503982 0 0 0 0 0.700178 0 0 0 0 1 0 0 0 0.233829 0"/>
<feBlend mode="normal" in2="effect1_dropShadow" result="effect2_dropShadow"/>
<feBlend mode="normal" in="SourceGraphic" in2="effect2_dropShadow" result="shape"/>
</filter>
<filter id="filter3_dd" x="233.226" y="93.7913" width="90.5392" height="90.9524" filterUnits="userSpaceOnUse" color-interpolation-filters="sRGB">
<feFlood flood-opacity="0" result="BackgroundImageFix"/>
<feColorMatrix in="SourceAlpha" type="matrix" values="0 0 0 0 0 0 0 0 0 0 0 0 0 0 0 0 0 0 127 0" result="hardAlpha"/>
<feOffset dx="8" dy="9"/>
<feGaussianBlur stdDeviation="14"/>
<feColorMatrix type="matrix" values="0 0 0 0 0.0755213 0 0 0 0 0.582569 0 0 0 0 0.878793 0 0 0 0.229458 0"/>
<feBlend mode="normal" in2="BackgroundImageFix" result="effect1_dropShadow"/>
<feColorMatrix in="SourceAlpha" type="matrix" values="0 0 0 0 0 0 0 0 0 0 0 0 0 0 0 0 0 0 127 0" result="hardAlpha"/>
<feOffset dy="2"/>
<feGaussianBlur stdDeviation="7.5"/>
<feColorMatrix type="matrix" values="0 0 0 0 0.503982 0 0 0 0 0.700178 0 0 0 0 1 0 0 0 0.233829 0"/>
<feBlend mode="normal" in2="effect1_dropShadow" result="effect2_dropShadow"/>
<feBlend mode="normal" in="SourceGraphic" in2="effect2_dropShadow" result="shape"/>
</filter>
<linearGradient id="paint0_linear" x1="206.101" y1="207.808" x2="206.101" y2="160.779" gradientUnits="userSpaceOnUse">
<stop stop-color="#FF8C19"/>
<stop offset="1" stop-color="#FFC967"/>
</linearGradient>
<linearGradient id="paint1_linear" x1="200.514" y1="189.059" x2="200.514" y2="167.625" gradientUnits="userSpaceOnUse">
<stop stop-color="#F8FDFF"/>
<stop offset="1" stop-color="#AAD4FF"/>
</linearGradient>
<linearGradient id="paint2_linear" x1="345.985" y1="187.424" x2="348.757" y2="235.953" gradientUnits="userSpaceOnUse">
<stop stop-color="#FDC6C6"/>
<stop offset="1" stop-color="#FFCCA1"/>
</linearGradient>
<linearGradient id="paint3_linear" x1="352.49" y1="356.54" x2="353.624" y2="369.653" gradientUnits="userSpaceOnUse">
<stop stop-color="#FDC6C6"/>
<stop offset="1" stop-color="#FAB2B2"/>
</linearGradient>
<linearGradient id="paint4_linear" x1="318.297" y1="355.219" x2="319.37" y2="369.249" gradientUnits="userSpaceOnUse">
<stop stop-color="#FDC6C6"/>
<stop offset="1" stop-color="#FAB2B2"/>
</linearGradient>
<linearGradient id="paint5_linear" x1="318.05" y1="128.48" x2="320.369" y2="160.111" gradientUnits="userSpaceOnUse">
<stop stop-color="#FDC6C6"/>
<stop offset="1" stop-color="#FFCCA1"/>
</linearGradient>
<linearGradient id="paint6_linear" x1="265.797" y1="128.876" x2="273.056" y2="188.7" gradientUnits="userSpaceOnUse">
<stop stop-color="#FDC6C6"/>
<stop offset="1" stop-color="#FFCCA1"/>
</linearGradient>
</defs>
</svg>
