<svg width="448" height="381" viewBox="0 0 448 381" fill="none" xmlns="http://www.w3.org/2000/svg">
<g id="Illustration">
<g id="Shape">
<path id="Oval" opacity="0.0528274" fill-rule="evenodd" clip-rule="evenodd" d="M447.122 119.07C447.122 53.3096 393.578 0 327.528 0C261.477 0 207.933 53.3096 207.933 119.07C207.933 184.831 261.477 238.141 327.528 238.141C393.578 238.141 447.122 184.831 447.122 119.07ZM252.644 119.071C252.644 77.8936 286.171 44.5129 327.53 44.5129C368.889 44.5129 402.417 77.8936 402.417 119.071C402.417 160.248 368.889 193.629 327.53 193.629C286.171 193.629 252.644 160.248 252.644 119.071Z" fill="#7367F0"/>
<g id="Oval_2" opacity="0.14102" filter="url(#filter0_f)">
<path fill-rule="evenodd" clip-rule="evenodd" d="M73.8076 188.806C73.8076 170.163 58.6283 155.051 39.9038 155.051C21.1792 155.051 6 170.163 6 188.806C6 207.448 21.1792 222.561 39.9038 222.561C58.6283 222.561 73.8076 207.448 73.8076 188.806ZM28.3475 188.806C28.3475 182.456 33.5185 177.307 39.8972 177.307C46.2759 177.307 51.4469 182.456 51.4469 188.806C51.4469 195.157 46.2759 200.305 39.8972 200.305C33.5185 200.305 28.3475 195.157 28.3475 188.806Z" fill="#8BF78F"/>
</g>
<ellipse id="Oval_3" cx="144.599" cy="296.748" rx="67.0625" ry="66.7685" fill="#7367F0" fill-opacity="0.0612161"/>
<ellipse id="Oval_4" opacity="0.14102" cx="122.241" cy="63.0587" rx="23.8444" ry="23.7399" fill="#CEF5FF"/>
<g id="Oval_5" filter="url(#filter1_f)">
<ellipse cx="403.164" cy="296.749" rx="23.8444" ry="23.7399" fill="#7367F0" fill-opacity="0.135927"/>
</g>
</g>
<g id="File Organizer">
<g id="WebSnippetCode">
<g id="Group-2">
<g id="Group-52">
<g id="Group-46-Copy">
<g id="Group-40-Copy">
<path id="Fill-1" fill-rule="evenodd" clip-rule="evenodd" d="M77.1265 62.8486C68.243 62.8486 61 70.0463 61 78.9751C61 88.4746 61 236.619 61 243.969C61 252.854 68.1982 260.096 77.1265 260.096C85.1055 260.096 122.664 260.096 130.662 260.096C150.559 260.096 243.349 260.096 263.611 260.096C269.121 260.096 274.054 257.323 276.983 252.986C281.057 246.956 279.327 241.545 279.737 235.541V231.326C279.737 170.695 279.737 134.177 279.737 78.9751C279.737 70.0895 272.538 62.8486 263.611 62.8486C228.042 62.8486 112.905 62.8486 77.1265 62.8486Z" fill="#E6E9F2"/>
<path id="Fill-3" fill-rule="evenodd" clip-rule="evenodd" d="M90.4442 141.194H82.2273C79.9506 141.194 78.1047 139.349 78.1047 137.072C78.1047 134.795 79.9506 132.949 82.2273 132.949H90.4436C92.7204 132.949 94.5662 134.795 94.5662 137.072C94.5667 139.349 92.7209 141.194 90.4442 141.194Z" fill="#D6DEE8"/>
<path id="Fill-4" fill-rule="evenodd" clip-rule="evenodd" d="M90.4442 121.406H82.2273C79.9506 121.406 78.1047 119.561 78.1047 117.283C78.1047 115.006 79.9506 113.161 82.2273 113.161H90.4436C92.7204 113.161 94.5662 115.007 94.5662 117.283C94.5667 119.56 92.7209 121.406 90.4442 121.406Z" fill="white"/>
<path id="Fill-5" fill-rule="evenodd" clip-rule="evenodd" d="M90.4442 160.983H82.2273C79.9506 160.983 78.1047 159.138 78.1047 156.861C78.1047 154.583 79.9506 152.738 82.2273 152.738H90.4436C92.7204 152.738 94.5662 154.584 94.5662 156.861C94.5667 159.138 92.7209 160.983 90.4442 160.983Z" fill="white"/>
<path id="Fill-6" fill-rule="evenodd" clip-rule="evenodd" d="M90.4442 180.772H82.2273C79.9506 180.772 78.1047 178.927 78.1047 176.649C78.1047 174.372 79.9506 172.527 82.2273 172.527H90.4436C92.7204 172.527 94.5662 174.373 94.5662 176.649C94.5667 178.926 92.7209 180.772 90.4442 180.772Z" fill="#D6DEE8"/>
<path id="Fill-7" fill-rule="evenodd" clip-rule="evenodd" d="M90.4442 200.56H82.2273C79.9506 200.56 78.1047 198.715 78.1047 196.438C78.1047 194.16 79.9506 192.315 82.2273 192.315H90.4436C92.7204 192.315 94.5662 194.161 94.5662 196.438C94.5667 198.715 92.7209 200.56 90.4442 200.56Z" fill="white"/>
<path id="Fill-8" fill-rule="evenodd" clip-rule="evenodd" d="M90.4442 220.349H82.2273C79.9506 220.349 78.1047 218.504 78.1047 216.227C78.1047 213.949 79.9506 212.104 82.2273 212.104H90.4436C92.7204 212.104 94.5662 213.95 94.5662 216.227C94.5667 218.503 92.7209 220.349 90.4442 220.349Z" fill="#D6DEE8"/>
<g id="Group-13">
<path id="Fill-9" fill-rule="evenodd" clip-rule="evenodd" d="M90.4442 240.137H82.2273C79.9506 240.137 78.1047 238.292 78.1047 236.015C78.1047 233.738 79.9506 231.892 82.2273 231.892H90.4436C92.7204 231.892 94.5662 233.738 94.5662 236.015C94.5667 238.292 92.7209 240.137 90.4442 240.137Z" fill="white"/>
<path id="Fill-11" fill-rule="evenodd" clip-rule="evenodd" d="M263.611 62.8486H177.874C66.8302 62.8486 71.5208 61.1676 65.1892 68.1322C62.5866 70.9961 61 74.8003 61 78.9751V93.6387H279.737V78.9751C279.737 70.0687 272.517 62.8486 263.611 62.8486Z" fill="#5A6772"/>
</g>
<path id="Fill-14" fill-rule="evenodd" clip-rule="evenodd" d="M327.404 188.874H136.605C132.977 188.874 130.009 185.906 130.009 182.278V137.757C130.009 134.128 132.977 131.16 136.605 131.16H327.404C331.032 131.16 334 134.129 334 137.757V182.278C334 185.906 331.031 188.874 327.404 188.874Z" fill="#2079D4"/>
<path id="Fill-15" fill-rule="evenodd" clip-rule="evenodd" d="M327.404 269.674H136.605C132.977 269.674 130.009 266.705 130.009 263.078V218.556C130.009 214.928 132.977 211.96 136.605 211.96H327.404C331.032 211.96 334 214.928 334 218.556V263.078C334 266.706 331.031 269.674 327.404 269.674Z" fill="#8EBEED"/>
<path id="Fill-18" fill-rule="evenodd" clip-rule="evenodd" d="M293.367 174.034H239.28C237.004 174.034 235.158 172.189 235.158 169.911C235.158 167.634 237.004 165.789 239.28 165.789H293.367C295.644 165.789 297.489 167.634 297.489 169.911C297.489 172.189 295.644 174.034 293.367 174.034Z" fill="#004D99"/>
<path id="Fill-19" fill-rule="evenodd" clip-rule="evenodd" d="M270.309 154.246H254.643C252.366 154.246 250.521 152.4 250.521 150.123C250.521 147.846 252.366 146.001 254.643 146.001H270.309C272.586 146.001 274.431 147.846 274.431 150.123C274.431 152.4 272.586 154.246 270.309 154.246Z" fill="#F6F4F2"/>
<path id="Fill-20" fill-rule="evenodd" clip-rule="evenodd" d="M311.61 154.246H286.113C283.836 154.246 281.99 152.4 281.99 150.123C281.99 147.846 283.836 146.001 286.113 146.001H311.61C313.886 146.001 315.732 147.846 315.732 150.123C315.732 152.4 313.886 154.246 311.61 154.246Z" fill="#B4D4F4"/>
<path id="Fill-21" fill-rule="evenodd" clip-rule="evenodd" d="M236.915 154.246H184.833C182.556 154.246 180.71 152.4 180.71 150.123C180.71 147.846 182.556 146.001 184.833 146.001H236.915C239.192 146.001 241.038 147.846 241.038 150.123C241.038 152.4 239.192 154.246 236.915 154.246Z" fill="#F6F4F2"/>
<path id="Fill-22" fill-rule="evenodd" clip-rule="evenodd" d="M223.992 174.034H208.326C206.05 174.034 204.204 172.189 204.204 169.911C204.204 167.634 206.05 165.789 208.326 165.789H223.992C226.269 165.789 228.115 167.634 228.115 169.911C228.115 172.189 226.269 174.034 223.992 174.034Z" fill="#B4D4F4"/>
<path id="Fill-23" fill-rule="evenodd" clip-rule="evenodd" d="M192.3 174.034H184.083C181.807 174.034 179.961 172.189 179.961 169.911C179.961 167.634 181.807 165.789 184.083 165.789H192.3C194.577 165.789 196.422 167.634 196.422 169.911C196.422 172.189 194.577 174.034 192.3 174.034Z" fill="#F6F4F2"/>
<path id="Fill-24" fill-rule="evenodd" clip-rule="evenodd" d="M163.576 174.034H155.359C153.083 174.034 151.237 172.189 151.237 169.911C151.237 167.634 153.083 165.789 155.359 165.789H163.576C165.852 165.789 167.698 167.634 167.698 169.911C167.699 172.189 165.853 174.034 163.576 174.034Z" fill="#B4D4F4"/>
<path id="Fill-25" fill-rule="evenodd" clip-rule="evenodd" d="M163.576 154.246H155.359C153.083 154.246 151.237 152.4 151.237 150.123C151.237 147.846 153.083 146.001 155.359 146.001H163.576C165.852 146.001 167.698 147.846 167.698 150.123C167.699 152.4 165.853 154.246 163.576 154.246Z" fill="#004D99"/>
<path id="Fill-26" fill-rule="evenodd" clip-rule="evenodd" d="M311.61 174.034C311.341 174.034 311.072 174.006 310.802 173.951C310.538 173.901 310.28 173.819 310.033 173.72C309.785 173.615 309.543 173.489 309.318 173.34C309.093 173.187 308.884 173.016 308.691 172.824C308.505 172.637 308.334 172.428 308.18 172.197C308.032 171.977 307.905 171.735 307.801 171.487C307.702 171.241 307.619 170.982 307.57 170.718C307.406 169.914 307.488 169.133 307.801 168.333C307.905 168.085 308.032 167.849 308.18 167.624C308.334 167.398 308.505 167.184 308.691 166.996C308.884 166.804 309.093 166.634 309.318 166.48C309.543 166.331 309.785 166.205 310.033 166.1C310.28 166.002 310.538 165.919 310.802 165.869C311.336 165.76 311.886 165.76 312.413 165.869C312.677 165.919 312.935 166.002 313.188 166.1C313.435 166.205 313.677 166.331 313.897 166.48C314.122 166.634 314.337 166.804 314.524 166.996C314.716 167.183 314.887 167.398 315.035 167.624C315.184 167.849 315.315 168.085 315.415 168.333C315.519 168.586 315.601 168.844 315.651 169.107C315.706 169.371 315.733 169.641 315.733 169.91C315.733 170.179 315.706 170.449 315.651 170.718C315.601 170.982 315.519 171.241 315.415 171.487C315.315 171.735 315.184 171.977 315.035 172.197C314.887 172.428 314.716 172.637 314.524 172.824C314.337 173.016 314.123 173.187 313.897 173.34C313.677 173.489 313.435 173.615 313.188 173.72C312.935 173.819 312.676 173.901 312.413 173.951C312.149 174.006 311.88 174.034 311.61 174.034Z" fill="#F6F4F2"/>
<path id="Fill-27" fill-rule="evenodd" clip-rule="evenodd" d="M159.747 252.997L149.573 242.823C147.963 241.213 147.963 238.603 149.573 236.992L159.747 226.818C161.358 225.209 163.968 225.209 165.578 226.818C167.188 228.429 167.188 231.038 165.578 232.649L158.319 239.908L165.578 247.166C167.188 248.777 167.188 251.386 165.578 252.997C163.968 254.607 161.358 254.607 159.747 252.997Z" fill="#F6F4F2" stroke="#8EBEED" stroke-width="1.08197"/>
<path id="Fill-28" fill-rule="evenodd" clip-rule="evenodd" d="M196.66 254.205C195.605 254.205 194.549 253.802 193.745 252.997C192.135 251.387 192.135 248.777 193.745 247.167L201.004 239.908L193.745 232.65C192.135 231.039 192.135 228.429 193.745 226.819C195.355 225.209 197.965 225.209 199.575 226.819L209.749 236.993C211.359 238.604 211.359 241.213 209.749 242.824L199.575 252.998C198.77 253.802 197.715 254.205 196.66 254.205Z" fill="#F6F4F2" stroke="#8EBEED" stroke-width="1.08197"/>
<path id="Fill-29" fill-rule="evenodd" clip-rule="evenodd" d="M172.093 260.388C169.953 259.61 168.85 257.244 169.629 255.104L181.055 223.709C181.834 221.57 184.199 220.468 186.339 221.245C188.479 222.024 189.582 224.39 188.803 226.529L177.377 257.924C176.604 260.045 174.251 261.172 172.093 260.388Z" fill="#F6F4F2" stroke="#8EBEED" stroke-width="1.08197"/>
<g id="Group-39">
<path id="Fill-30" fill-rule="evenodd" clip-rule="evenodd" d="M82.9001 82.9004C81.8175 82.9004 80.7509 82.4604 79.9872 81.6908C79.2176 80.9266 78.7776 79.8605 78.7776 78.7778C78.7776 75.4302 82.5258 73.5475 85.187 75.3475C85.4126 75.5016 85.6265 75.6718 85.8137 75.8638C86.5833 76.628 87.0227 77.6941 87.0227 78.7773C87.0227 79.8599 86.5833 80.926 85.8137 81.6903C85.6265 81.8823 85.4126 82.0529 85.187 82.2012C84.9673 82.35 84.7252 82.4812 84.4777 82.5809C84.2302 82.6849 83.9721 82.7676 83.7081 82.8172C83.4388 82.8721 83.1695 82.9004 82.9001 82.9004Z" fill="#DD414C"/>
<path id="Fill-31" fill-rule="evenodd" clip-rule="evenodd" d="M96.8733 82.9003C96.604 82.9003 96.3341 82.8726 96.0706 82.8177C95.8067 82.7681 95.5485 82.6854 95.3011 82.5814C95.0483 82.4822 94.812 82.3505 94.5864 82.2017C94.3608 82.0534 94.1523 81.8828 93.9598 81.6908C93.1902 80.9265 92.7507 79.8604 92.7507 78.7778C92.7507 77.6946 93.1902 76.6285 93.9598 75.8643C94.1523 75.6723 94.3608 75.5021 94.5864 75.348C94.812 75.1992 95.0483 75.0733 95.3011 74.9683C95.5485 74.8696 95.8067 74.787 96.0706 74.732C96.5986 74.6275 97.1485 74.6275 97.6813 74.732C97.9453 74.787 98.2034 74.8696 98.4509 74.9683C98.7036 75.0728 98.9404 75.1992 99.1655 75.348C99.3906 75.5021 99.5996 75.6723 99.7922 75.8643C100.556 76.6285 101.002 77.6946 101.002 78.7778C101.002 79.8604 100.556 80.9265 99.7922 81.6908C99.6002 81.8828 99.3911 82.0534 99.1655 82.2017C98.9399 82.3505 98.7036 82.4817 98.4509 82.5814C98.2034 82.6854 97.9453 82.7681 97.6813 82.8177C97.4119 82.8721 97.1426 82.9003 96.8733 82.9003Z" fill="#EEA03A"/>
<path id="Fill-32" fill-rule="evenodd" clip-rule="evenodd" d="M110.852 82.9004C110.582 82.9004 110.313 82.8726 110.044 82.8177C109.78 82.7681 109.521 82.6854 109.274 82.5814C109.027 82.4822 108.785 82.3505 108.559 82.2017C108.334 82.0535 108.125 81.8828 107.933 81.6908C107.169 80.9265 106.729 79.8604 106.729 78.7778C106.729 78.5085 106.757 78.2386 106.806 77.9693C106.861 77.7112 106.938 77.4477 107.042 77.2002C107.147 76.9528 107.273 76.7107 107.421 76.4909C107.57 76.26 107.746 76.0515 107.932 75.8637C108.125 75.6717 108.333 75.5016 108.559 75.3475C108.784 75.1987 109.026 75.0728 109.273 74.9678C109.521 74.8691 109.78 74.7864 110.043 74.7315C110.576 74.627 111.126 74.627 111.653 74.7315C111.917 74.7864 112.175 74.8691 112.423 74.9678C112.676 75.0723 112.912 75.1987 113.137 75.3475C113.363 75.5016 113.571 75.6717 113.764 75.8637C113.956 76.0509 114.127 76.26 114.275 76.4909C114.423 76.7107 114.555 76.9528 114.654 77.2002C114.759 77.4477 114.835 77.7112 114.89 77.9693C114.945 78.2386 114.973 78.5085 114.973 78.7778C114.973 79.8658 114.533 80.9265 113.763 81.6908C113.571 81.8828 113.362 82.0535 113.137 82.2017C112.911 82.3505 112.675 82.4817 112.422 82.5814C112.175 82.6854 111.917 82.7681 111.653 82.8177C111.39 82.8721 111.121 82.9004 110.852 82.9004Z" fill="#6DAA43"/>
<path id="Fill-33" opacity="0.2" fill-rule="evenodd" clip-rule="evenodd" d="M226.317 82.8998H128.015C125.739 82.8998 123.893 81.0545 123.893 78.7773C123.893 76.5 125.739 74.6547 128.015 74.6547H226.317C228.594 74.6547 230.439 76.5005 230.439 78.7773C230.439 81.054 228.594 82.8998 226.317 82.8998Z" fill="white"/>
<path id="Fill-34" opacity="0.2" fill-rule="evenodd" clip-rule="evenodd" d="M257.671 82.8998H240.815C238.538 82.8998 236.692 81.0545 236.692 78.7773C236.692 76.5 238.538 74.6547 240.815 74.6547H257.671C259.948 74.6547 261.794 76.5005 261.794 78.7773C261.794 81.054 259.948 82.8998 257.671 82.8998Z" fill="white"/>
</g>
</g>
</g>
</g>
</g>
</g>
<g id="Icon54">
<g id="Group 37">
<path id="Rectangle" fill-rule="evenodd" clip-rule="evenodd" d="M96.0017 293C96.0017 290.791 97.7926 289 100.002 289L102.701 289C104.91 289 106.701 290.791 106.701 293V293.747C106.701 294.421 107.247 294.967 107.92 294.967H140.594C142.803 294.967 144.594 296.758 144.594 298.967V325.651C144.594 327.861 142.803 329.651 140.594 329.651H100.002C97.7926 329.651 96.0017 327.861 96.0017 325.651V293Z" fill="url(#paint0_linear)"/>
<path id="Rectangle_2" fill-rule="evenodd" clip-rule="evenodd" d="M107.481 292.848C107.576 292.257 108.086 291.823 108.685 291.823H145.18C145.931 291.823 146.503 292.495 146.384 293.236L140.909 327.214C140.814 327.805 140.304 328.24 139.705 328.24H103.21C102.459 328.24 101.887 327.567 102.006 326.826L107.481 292.848Z" fill="url(#paint1_linear)"/>
<path id="Rectangle_3" fill-rule="evenodd" clip-rule="evenodd" d="M146.182 301.071C148.7 301.071 150.592 303.37 150.107 305.842L146.609 323.651C145.872 327.403 142.583 330.109 138.759 330.109H100.862C98.3435 330.109 96.4516 327.81 96.937 325.339L100.435 307.529C101.172 303.777 104.461 301.071 108.285 301.071L146.182 301.071Z" fill="#FFCC7B"/>
</g>
</g>
<g id="Group 28">
<path id="Rectangle_4" fill-rule="evenodd" clip-rule="evenodd" d="M14 124C14 120.686 16.6863 118 20 118H41.2156L49.924 126.891V154.231C49.924 157.545 47.2378 160.231 43.924 160.231H20C16.6863 160.231 14 157.545 14 154.231V124Z" fill="#005EFF"/>
<g id="Icon">
<path id="Mask" fill-rule="evenodd" clip-rule="evenodd" d="M37.3944 146.076V134.414C37.3944 133.175 36.4439 132.227 35.201 132.227H31.5453C31.1066 132.227 30.8142 132.519 30.8142 132.956C30.8142 133.393 31.1066 133.685 31.5453 133.685H35.201C35.6396 133.685 35.9321 133.976 35.9321 134.414V146.076C35.9321 146.513 35.6396 146.805 35.201 146.805H31.5453C31.1066 146.805 30.8142 147.097 30.8142 147.534C30.8142 147.971 31.1066 148.263 31.5453 148.263H35.201C36.4439 148.263 37.3944 147.315 37.3944 146.076ZM32.9344 139.953C33.0076 140.172 33.0076 140.391 32.9344 140.536C32.9344 140.609 32.8613 140.682 32.7882 140.755L29.8637 143.671C29.7175 143.817 29.4981 143.889 29.3519 143.889C29.2057 143.889 28.9863 143.817 28.8401 143.671C28.5477 143.379 28.5477 142.942 28.8401 142.65L30.5217 140.974H23.5029C23.0642 140.974 22.7717 140.682 22.7717 140.245C22.7717 139.808 23.0642 139.516 23.5029 139.516H30.5217L28.8401 137.84C28.5477 137.548 28.5477 137.111 28.8401 136.819C29.1326 136.528 29.5712 136.528 29.8637 136.819L32.7882 139.735C32.8248 139.771 32.8431 139.808 32.8613 139.844C32.8796 139.88 32.8979 139.917 32.9344 139.953Z" fill="black"/>
<mask id="mask0" mask-type="alpha" maskUnits="userSpaceOnUse" x="22" y="132" width="16" height="17">
<path id="Mask_2" fill-rule="evenodd" clip-rule="evenodd" d="M37.3944 146.076V134.414C37.3944 133.175 36.4439 132.227 35.201 132.227H31.5453C31.1066 132.227 30.8142 132.519 30.8142 132.956C30.8142 133.393 31.1066 133.685 31.5453 133.685H35.201C35.6396 133.685 35.9321 133.976 35.9321 134.414V146.076C35.9321 146.513 35.6396 146.805 35.201 146.805H31.5453C31.1066 146.805 30.8142 147.097 30.8142 147.534C30.8142 147.971 31.1066 148.263 31.5453 148.263H35.201C36.4439 148.263 37.3944 147.315 37.3944 146.076ZM32.9344 139.953C33.0076 140.172 33.0076 140.391 32.9344 140.536C32.9344 140.609 32.8613 140.682 32.7882 140.755L29.8637 143.671C29.7175 143.817 29.4981 143.889 29.3519 143.889C29.2057 143.889 28.9863 143.817 28.8401 143.671C28.5477 143.379 28.5477 142.942 28.8401 142.65L30.5217 140.974H23.5029C23.0642 140.974 22.7717 140.682 22.7717 140.245C22.7717 139.808 23.0642 139.516 23.5029 139.516H30.5217L28.8401 137.84C28.5477 137.548 28.5477 137.111 28.8401 136.819C29.1326 136.528 29.5712 136.528 29.8637 136.819L32.7882 139.735C32.8248 139.771 32.8431 139.808 32.8613 139.844C32.8796 139.88 32.8979 139.917 32.9344 139.953Z" fill="white"/>
</mask>
<g mask="url(#mask0)">
<g id="Icon Color">
<rect id="&#240;&#159;&#142;&#168; Icon Color" x="21.3096" y="131.498" width="17.5471" height="17.4934" fill="white"/>
</g>
</g>
</g>
<path id="Path" opacity="0.33996" d="M49.9199 126.892H44.2114C42.5546 126.892 41.2114 125.549 41.2114 123.892V118.002L49.9199 126.892Z" fill="#7367F0"/>
</g>
<g id="Group">
<path id="Rectangle_5" fill-rule="evenodd" clip-rule="evenodd" d="M44 243C44 239.686 46.6863 237 50 237H88.8922C92.2059 237 94.8922 239.686 94.8922 243V273.231C94.8922 276.545 92.2059 279.231 88.8922 279.231H50C46.6863 279.231 44 276.545 44 273.231V243Z" fill="#6FD9E6"/>
<g id="Icon_2">
<path id="Mask_3" fill-rule="evenodd" clip-rule="evenodd" d="M74.8262 256.438H73.9732V253.886C73.9732 251.08 71.6701 248.784 68.8553 248.784C66.0404 248.784 63.7374 251.08 63.7374 253.886V256.438H62.8844C61.4343 256.438 60.3254 257.543 60.3254 258.989V264.941C60.3254 266.387 61.4343 267.492 62.8844 267.492H74.8262C76.2763 267.492 77.3852 266.387 77.3852 264.941V258.989C77.3852 257.543 76.2763 256.438 74.8262 256.438ZM65.4433 253.886C65.4433 252.016 66.9787 250.485 68.8553 250.485C70.7318 250.485 72.2672 252.016 72.2672 253.886V256.438H65.4433V253.886ZM74.8262 265.792C75.338 265.792 75.6792 265.451 75.6792 264.941V258.989C75.6792 258.478 75.338 258.138 74.8262 258.138H62.8844C62.3726 258.138 62.0314 258.478 62.0314 258.989V264.941C62.0314 265.451 62.3726 265.792 62.8844 265.792H74.8262Z" fill="black"/>
<mask id="mask1" mask-type="alpha" maskUnits="userSpaceOnUse" x="60" y="248" width="18" height="20">
<path id="Mask_4" fill-rule="evenodd" clip-rule="evenodd" d="M74.8262 256.438H73.9732V253.886C73.9732 251.08 71.6701 248.784 68.8553 248.784C66.0404 248.784 63.7374 251.08 63.7374 253.886V256.438H62.8844C61.4343 256.438 60.3254 257.543 60.3254 258.989V264.941C60.3254 266.387 61.4343 267.492 62.8844 267.492H74.8262C76.2763 267.492 77.3852 266.387 77.3852 264.941V258.989C77.3852 257.543 76.2763 256.438 74.8262 256.438ZM65.4433 253.886C65.4433 252.016 66.9787 250.485 68.8553 250.485C70.7318 250.485 72.2672 252.016 72.2672 253.886V256.438H65.4433V253.886ZM74.8262 265.792C75.338 265.792 75.6792 265.451 75.6792 264.941V258.989C75.6792 258.478 75.338 258.138 74.8262 258.138H62.8844C62.3726 258.138 62.0314 258.478 62.0314 258.989V264.941C62.0314 265.451 62.3726 265.792 62.8844 265.792H74.8262Z" fill="white"/>
</mask>
<g mask="url(#mask1)">
<g id="Icon Color_2">
<rect id="&#240;&#159;&#142;&#168; Icon Color_2" x="58.6194" y="247.934" width="20.4716" height="20.409" fill="white"/>
</g>
</g>
</g>
</g>
<g id="Wom3.5">
<g id="RArm">
<path id="Path_2" fill-rule="evenodd" clip-rule="evenodd" d="M355.975 221.062C355.975 221.062 347.605 229.258 348.119 230.06C348.632 230.867 352.85 228.992 352.85 228.992C352.85 228.992 347.588 237.602 348.67 238.263C349.753 238.924 355.289 237.585 356.986 235.81C358.684 234.036 361.304 225.08 361.304 225.08L374.033 201.481L364.801 198.318L355.975 221.062Z" fill="url(#paint2_linear)"/>
<path id="Path_3" fill-rule="evenodd" clip-rule="evenodd" d="M347.439 177.438C350.953 182.844 362.784 198.252 362.784 198.252L361.922 201.326L372.795 208.705C372.795 208.705 375.884 200.257 376.152 199.069C377.036 195.149 359.173 170.132 355.174 166.517C348.876 160.825 342.067 169.176 347.439 177.438Z" fill="#FD8715"/>
<path id="Path_4" fill-rule="evenodd" clip-rule="evenodd" d="M365.612 202.342C365.814 201.95 362.801 198.196 362.801 198.196L362.291 200.022C362.291 200.022 365.409 202.733 365.612 202.342Z" fill="black" fill-opacity="0.159856"/>
<path id="Path 70" fill-rule="evenodd" clip-rule="evenodd" d="M361.847 200.294L373.398 209.027L370.824 214.674L360.724 203.553L361.847 200.294Z" fill="#FFEDC2"/>
</g>
<g id="RLeg">
<path id="Path_5" fill-rule="evenodd" clip-rule="evenodd" d="M354.555 359.226L353.913 370.047L362.138 370.26L360.592 359.226H354.555Z" fill="url(#paint3_linear)"/>
<path id="Path_6" fill-rule="evenodd" clip-rule="evenodd" d="M362.526 363.489C362.526 363.489 362.296 370.006 363.659 372.281C365.031 374.557 365.447 376.321 365.507 377.681C365.572 379.14 365.433 380.462 365.433 380.462H351.82C351.82 380.462 351.479 373.605 352.381 372.312C353.283 371.019 353.874 370.997 353.874 369.854C353.881 368.712 354.076 363.532 354.076 363.532L362.526 363.489Z" fill="#391B0B"/>
<path id="Path_7" fill-rule="evenodd" clip-rule="evenodd" d="M325.584 214.747L346.92 212.451L347.233 212.74C348.754 214.174 355.362 220.835 357.261 229.94C360.846 247.129 356.048 278.876 356.154 285.838C356.255 292.799 359.578 297 360.959 306.842C362.34 316.685 362.471 360.675 362.471 360.675C358.809 362.823 355.588 362.977 351.222 360.546L325.584 214.747Z" fill="#4E3319"/>
<path id="Path_8" fill-rule="evenodd" clip-rule="evenodd" d="M344.637 323.125L325.578 214.747L337.441 213.471C337.97 251.121 345.347 302.013 344.637 323.125Z" fill="white" fill-opacity="0.192499"/>
</g>
<g id="LLeg">
<path id="Path_9" fill-rule="evenodd" clip-rule="evenodd" d="M329.952 358.088L322.938 358.201C322.938 358.201 323.399 365.408 320.702 367.849L320.555 367.977C317.299 370.678 329.86 369.703 329.86 369.703L329.952 358.088Z" fill="url(#paint4_linear)"/>
<path id="Path_10" fill-rule="evenodd" clip-rule="evenodd" d="M330.327 363.706L330.125 380.456L325.131 380.459L325.088 376.332C325.088 376.332 323.512 380.18 321.105 380.402C318.69 380.625 307.93 380.488 307.93 380.488C307.93 380.488 307.037 376.624 312.392 374.87C316.847 373.411 321.773 363.706 321.773 363.706H330.327Z" fill="#391B0B"/>
<path id="Path_11" fill-rule="evenodd" clip-rule="evenodd" d="M315 216.237L338.958 215.433L339.137 215.761C340.299 217.944 346.669 230.724 344.702 245.251C341.941 265.64 334.923 289.544 334.579 293.195C333.967 299.706 335.192 304.42 335.694 311.144C336.197 317.869 333.779 360.16 333.779 360.16C330.224 362.277 325.993 362.693 320.615 360.224C320.615 360.224 315.759 302.779 315.723 293.688C315.687 284.597 315 216.237 315 216.237Z" fill="#604021"/>
<path id="Path_12" fill-rule="evenodd" clip-rule="evenodd" d="M319.93 238.291L319.771 239.802C318.174 255.732 318.186 289.562 318.804 294.78L318.889 295.452C319.575 301.339 319.597 316.286 318.956 340.292L318.121 329.933C316.539 310 315.74 297.919 315.723 293.689L315.694 289.311C315.557 271.609 315 216.237 315 216.237L320.052 216.068C320.592 224.809 320.552 232.216 319.93 238.291Z" fill="white" fill-opacity="0.192499"/>
</g>
<g id="Head">
<path id="Path_13" fill-rule="evenodd" clip-rule="evenodd" d="M324.135 140.732C321.187 141.051 321.396 146.182 324.985 146.45C325.718 151.395 328.334 153.752 331.523 154.025L331.346 161.505L345.452 161.497C345.452 161.497 341.48 156.212 341.678 148.978C341.876 141.742 341.545 134.946 341.545 134.946L323.274 135.27L324.135 140.732Z" fill="url(#paint5_linear)"/>
<path id="Path_14" fill-rule="evenodd" clip-rule="evenodd" d="M323.487 141.117C326.92 139.773 329.457 145.56 332.084 149.582C334.711 153.604 341.517 152.921 342.455 149.582C346.007 142.269 349.067 132.327 344.923 131.511C344.339 120.942 316.395 123.437 323.487 141.117Z" fill="#8B5030"/>
<path id="Combined Shape" fill-rule="evenodd" clip-rule="evenodd" d="M342.592 127.289H336.611H336.5L336.426 127.371C331.06 133.3 329.838 142.013 332.301 149.892C332.547 150.219 332.823 150.512 333.122 150.771C330.27 142.804 331.329 133.819 336.723 127.789H343.181C342.996 127.613 342.8 127.447 342.592 127.289Z" fill="black" fill-opacity="0.199355"/>
<ellipse id="Oval_6" cx="338.934" cy="127.512" rx="3.36787" ry="3.33406" fill="#FB9934"/>
</g>
<g id="Body">
<path id="Path_15" fill-rule="evenodd" clip-rule="evenodd" d="M320.432 162.954C317.285 167.53 312.04 183.063 311.742 186.558C311.407 190.589 315.772 197.01 315.844 202.845C315.908 208.681 312.588 226.252 313.586 227.894C314.575 229.535 342.948 236.802 344.8 236.763C346.643 236.724 358.281 226.832 356.821 223.415C355.353 219.997 348.538 211.502 349.232 206.845C349.918 202.189 353.904 185 355.883 179.149C357.854 173.299 357.197 167.157 353.518 164.64C351.698 163.394 346.84 159.855 338.19 159.871C329.54 159.888 320.676 162.599 320.432 162.954Z" fill="#FD8715"/>
<path id="Path 68" fill-rule="evenodd" clip-rule="evenodd" d="M330.195 159.537C330.195 159.537 329.831 161.505 331.425 161.505C333.018 161.505 343.707 161.854 345.155 161.231C346.602 160.609 346.168 159.537 346.168 159.537H330.195Z" fill="#FFF6E1"/>
<path id="Path_16" fill-rule="evenodd" clip-rule="evenodd" d="M315.862 172.853L315.959 172.805C321.787 169.925 325.288 169.798 326.462 172.423C327.979 175.818 324.045 183.974 314.661 196.891C313.372 192.974 311.518 189.238 311.741 186.559C311.913 184.537 313.742 178.483 315.862 172.853Z" fill="black" fill-opacity="0.159856"/>
</g>
<g id="LArm">
<path id="Path_17" fill-rule="evenodd" clip-rule="evenodd" d="M276.982 163.312C276.982 163.312 275.932 161.056 274.281 160.445C272.632 159.835 270.107 155.791 270.498 154.617C270.888 153.443 274.302 150.186 274.302 150.186C274.302 150.186 271.284 142.168 272.62 141.263C273.801 140.464 278.271 150.563 278.271 150.563C278.271 150.563 280.898 150.955 281.504 151.988C283.032 154.591 281.877 160.445 281.877 160.445L297.389 182.884L290.271 191.918L276.982 163.312Z" fill="url(#paint6_linear)"/>
<path id="Path_18" fill-rule="evenodd" clip-rule="evenodd" d="M316.587 165.052C311.341 169.666 298.51 181.906 298.51 181.906L296.603 179.014L287.008 188.742C287.008 188.742 294.246 199.371 296.603 199.445C302.745 199.638 313.75 188.159 324.096 179.195C333.372 171.158 326.366 156.453 316.587 165.052Z" fill="#FD8715"/>
<path id="Path_19" fill-rule="evenodd" clip-rule="evenodd" d="M298.544 181.919C298.544 181.919 294.945 186.04 294.648 185.591C294.35 185.142 297.363 180.132 297.363 180.132L298.544 181.919Z" fill="black" fill-opacity="0.159856"/>
<path id="Path 69" fill-rule="evenodd" clip-rule="evenodd" d="M297.746 179.668L286.617 191.918L283.188 184.927L295.629 177.199L297.746 179.668Z" fill="#FFEDC2"/>
</g>
<path id="Path_20" fill-rule="evenodd" clip-rule="evenodd" d="M338.345 124.858C338.345 124.858 341.497 120.794 345.136 121.86C348.775 122.926 352.067 129.462 350.504 135.605C348.949 141.749 350.231 145.253 352.118 149.394C357.186 160.532 339.639 167.604 339.639 167.604C339.639 167.604 341.008 159.351 338.345 154.367C335.603 149.235 334.045 142.653 334.045 138.625C334.045 131.621 338.345 124.858 338.345 124.858Z" fill="#8B5030"/>
</g>
<g id="Group 39">
<path id="Rectangle_6" fill-rule="evenodd" clip-rule="evenodd" d="M263 102.265C275.679 95.0325 288.532 95.4607 301.528 102.265L300.709 111.303C299.591 123.629 292.765 134.721 282.264 141.274C271.309 134.767 264.285 123.258 263.507 110.54L263 102.265Z" fill="#28C76F"/>
<ellipse id="Oval_7" cx="282.269" cy="116.937" rx="10.5077" ry="10.4023" fill="#1CA258"/>
<g id="Group 40">
<path id="Path_21" fill-rule="evenodd" clip-rule="evenodd" d="M282.123 109.547C285.465 109.547 288.357 111.777 289.197 114.922C289.262 115.165 289.115 115.414 288.87 115.478C288.624 115.542 288.373 115.397 288.308 115.154C287.575 112.407 285.045 110.457 282.123 110.457C278.59 110.457 275.727 113.282 275.727 116.765C275.727 118.731 276.378 120.499 277.689 122.084C277.85 122.278 277.821 122.565 277.624 122.724C277.428 122.883 277.138 122.855 276.977 122.66C275.534 120.914 274.808 118.943 274.808 116.765C274.808 112.778 278.083 109.547 282.123 109.547Z" fill="white"/>
<path id="Path_22" fill-rule="evenodd" clip-rule="evenodd" d="M280.492 112.107C283.094 111.221 285.903 112.504 286.862 115.014L286.914 115.158C287.408 116.576 288.079 117.217 288.937 117.207C289.191 117.204 289.399 117.405 289.403 117.656C289.406 117.907 289.203 118.114 288.949 118.117C287.669 118.133 286.719 117.265 286.107 115.626L286.045 115.454C285.306 113.329 282.966 112.227 280.791 112.968C278.834 113.635 277.787 115.994 278.247 118.073C278.337 118.478 278.45 118.841 278.596 119.191L278.727 119.494C279.164 120.449 279.731 121.165 282.294 124.214C282.456 124.408 282.43 124.695 282.235 124.855C282.039 125.016 281.75 124.99 281.587 124.796L280.213 123.152C278.563 121.16 278.19 120.592 277.775 119.607L277.746 119.538C277.579 119.138 277.45 118.723 277.349 118.268C276.796 115.77 278.053 112.939 280.492 112.107Z" fill="white"/>
<path id="Path_23" fill-rule="evenodd" clip-rule="evenodd" d="M281.562 114.564C282.91 114.105 284.401 114.822 284.82 116.164C285.423 118.097 286.536 119.297 288.177 119.813C288.419 119.889 288.553 120.145 288.476 120.385C288.399 120.624 288.14 120.757 287.898 120.681C285.956 120.07 284.63 118.639 283.941 116.433C283.678 115.589 282.725 115.131 281.862 115.425C280.942 115.738 280.487 116.616 280.738 117.818C280.865 118.428 281.369 119.26 282.228 120.344L282.374 120.527C282.495 120.677 282.621 120.83 282.758 120.994L284.236 122.724C284.397 122.918 284.37 123.205 284.174 123.365C283.979 123.525 283.689 123.498 283.527 123.304L282.345 121.924L282.049 121.574C281.909 121.407 281.78 121.249 281.656 121.095L281.358 120.719C280.503 119.618 279.994 118.749 279.838 118.002C279.497 116.368 280.189 115.032 281.562 114.564Z" fill="white"/>
<path id="Path_24" fill-rule="evenodd" clip-rule="evenodd" d="M282.38 117.042C282.623 116.969 282.88 117.104 282.954 117.344C283.45 118.946 284.42 120.082 286.245 121.439C286.448 121.589 286.489 121.875 286.337 122.076C286.185 122.277 285.896 122.317 285.693 122.166C283.727 120.705 282.638 119.43 282.075 117.611C282.001 117.371 282.137 117.116 282.38 117.042Z" fill="white"/>
</g>
</g>
</g>
</g>
<defs>
<filter id="filter0_f" x="0.563437" y="149.614" width="78.6807" height="78.3833" filterUnits="userSpaceOnUse" color-interpolation-filters="sRGB">
<feFlood flood-opacity="0" result="BackgroundImageFix"/>
<feBlend mode="normal" in="SourceGraphic" in2="BackgroundImageFix" result="shape"/>
<feGaussianBlur stdDeviation="2.71828" result="effect1_foregroundBlur"/>
</filter>
<filter id="filter1_f" x="371.165" y="264.854" width="63.9985" height="63.7894" filterUnits="userSpaceOnUse" color-interpolation-filters="sRGB">
<feFlood flood-opacity="0" result="BackgroundImageFix"/>
<feBlend mode="normal" in="SourceGraphic" in2="BackgroundImageFix" result="shape"/>
<feGaussianBlur stdDeviation="4.07742" result="effect1_foregroundBlur"/>
</filter>
<linearGradient id="paint0_linear" x1="148.406" y1="321.999" x2="148.406" y2="274.97" gradientUnits="userSpaceOnUse">
<stop stop-color="#FF8C19"/>
<stop offset="1" stop-color="#FFC967"/>
</linearGradient>
<linearGradient id="paint1_linear" x1="142.818" y1="303.251" x2="142.818" y2="281.816" gradientUnits="userSpaceOnUse">
<stop stop-color="#F8FDFF"/>
<stop offset="1" stop-color="#AAD4FF"/>
</linearGradient>
<linearGradient id="paint2_linear" x1="345.985" y1="187.424" x2="348.757" y2="235.953" gradientUnits="userSpaceOnUse">
<stop stop-color="#FDC6C6"/>
<stop offset="1" stop-color="#FFCCA1"/>
</linearGradient>
<linearGradient id="paint3_linear" x1="352.49" y1="356.54" x2="353.624" y2="369.653" gradientUnits="userSpaceOnUse">
<stop stop-color="#FDC6C6"/>
<stop offset="1" stop-color="#FAB2B2"/>
</linearGradient>
<linearGradient id="paint4_linear" x1="318.297" y1="355.219" x2="319.37" y2="369.249" gradientUnits="userSpaceOnUse">
<stop stop-color="#FDC6C6"/>
<stop offset="1" stop-color="#FAB2B2"/>
</linearGradient>
<linearGradient id="paint5_linear" x1="318.05" y1="128.48" x2="320.369" y2="160.111" gradientUnits="userSpaceOnUse">
<stop stop-color="#FDC6C6"/>
<stop offset="1" stop-color="#FFCCA1"/>
</linearGradient>
<linearGradient id="paint6_linear" x1="265.797" y1="128.876" x2="273.056" y2="188.7" gradientUnits="userSpaceOnUse">
<stop stop-color="#FDC6C6"/>
<stop offset="1" stop-color="#FFCCA1"/>
</linearGradient>
</defs>
</svg>
