<svg width="528" height="465" viewBox="0 0 528 465" fill="none" xmlns="http://www.w3.org/2000/svg">
<g id="Illustration">
<g id="Shape">
<path id="Oval" opacity="0.0528274" d="M388.802 5.5C462.652 5.5 522.5 65.1015 522.5 138.601H527.5C527.5 62.3194 465.393 0.5 388.802 0.5V5.5ZM255.105 138.601C255.105 65.1015 314.953 5.5 388.802 5.5V0.5C312.212 0.5 250.105 62.3194 250.105 138.601H255.105ZM388.802 271.701C314.953 271.701 255.105 212.1 255.105 138.601H250.105C250.105 214.882 312.212 276.701 388.802 276.701V271.701ZM522.5 138.601C522.5 212.1 462.652 271.701 388.802 271.701V276.701C465.393 276.701 527.5 214.882 527.5 138.601H522.5ZM388.805 51.1923C340.334 51.1923 301.022 90.3162 301.022 138.601H306.022C306.022 93.0983 343.075 56.1923 388.805 56.1923V51.1923ZM476.588 138.601C476.588 90.3162 437.276 51.1923 388.805 51.1923V56.1923C434.535 56.1923 471.588 93.0983 471.588 138.601H476.588ZM388.805 226.01C437.276 226.01 476.588 186.886 476.588 138.601H471.588C471.588 184.104 434.535 221.01 388.805 221.01V226.01ZM301.022 138.601C301.022 186.886 340.334 226.01 388.805 226.01V221.01C343.075 221.01 306.022 184.104 306.022 138.601H301.022Z" fill="#61AFFE"/>
<g id="Oval_2" opacity="0.14102" filter="url(#filter0_f_990_5254)">
<path fill-rule="evenodd" clip-rule="evenodd" d="M99.8588 218.017C99.8588 196.787 82.5723 179.576 61.2483 179.576C39.9242 179.576 22.6377 196.787 22.6377 218.017C22.6377 239.248 39.9242 256.459 61.2483 256.459C82.5723 256.459 99.8588 239.248 99.8588 218.017ZM48.0878 218.018C48.0878 210.786 53.9767 204.923 61.2409 204.923C68.5051 204.923 74.394 210.786 74.394 218.018C74.394 225.251 68.5051 231.114 61.2409 231.114C53.9767 231.114 48.0878 225.251 48.0878 218.018Z" fill="#8BF78F"/>
</g>
<circle id="Oval_3" cx="43.1366" cy="337.815" r="42.1366" stroke="#61AFFE"/>
<ellipse id="Oval_4" opacity="0.14102" cx="155.016" cy="74.813" rx="27.1547" ry="27.0356" fill="#CEF5FF"/>
<ellipse id="Oval_5" cx="474.939" cy="340.946" rx="27.1547" ry="27.0356" stroke="#61AFFE"/>
</g>
<g id="File Organizer">
<g id="WebSnippetCode">
<g id="Group-2">
<g id="Group-52">
<g id="Group-46-Copy">
<g id="Group-40-Copy">
<path id="Fill-1" d="M333.878 121.604V121.235V121.604ZM333.878 121.604V121.971M333.878 121.604V121.971M333.878 121.971V122.338M333.878 121.971V122.338M333.878 122.338V122.705M333.878 122.338V122.705M333.878 122.705V123.071M333.878 122.705V123.071M333.878 123.071V123.437M333.878 123.071V123.437M333.878 123.437V123.802M333.878 123.437V123.802M333.878 123.802V124.167M333.878 123.802V124.167M333.878 124.167V124.531M333.878 124.167V124.531M333.878 124.531V124.895M333.878 124.531V124.895M333.878 124.895V125.258M333.878 124.895V125.258M333.878 125.258V125.621M333.878 125.258V125.621M333.878 125.621V125.984M333.878 125.621V125.984M333.878 125.984V126.346M333.878 125.984V126.346M333.878 126.346V126.707M333.878 126.346V126.707M333.878 126.707V127.068M333.878 126.707V127.068M333.878 127.068V127.429M333.878 127.068V127.429M333.878 127.429V127.789M333.878 127.429V127.789M333.878 127.789V128.149M333.878 127.789V128.149M333.878 128.149V128.508M333.878 128.149V128.508M333.878 128.508V128.867M333.878 128.508V128.867M333.878 128.867V129.225M333.878 128.867V129.225M333.878 129.225V129.583M333.878 129.225V129.583M333.878 129.583V129.941M333.878 129.583V129.941M333.878 129.941V130.298M333.878 129.941V130.298M333.878 130.298V130.654M333.878 130.298V130.654M333.878 130.654V131.011M333.878 130.654V131.011M333.878 131.011V131.366M333.878 131.011V131.366M333.878 131.366V131.722M333.878 131.366V131.722M333.878 131.722V132.077M333.878 131.722V132.077M333.878 132.077V132.431M333.878 132.077V132.431M333.878 132.431V132.785M333.878 132.431V132.785M333.878 132.785V133.139M333.878 132.785V133.139M333.878 133.139V133.492M333.878 133.139V133.492M333.878 133.492V133.845M333.878 133.492V133.845M333.878 133.845V134.197M333.878 133.845V134.197M333.878 134.197V134.549M333.878 134.197V134.549M333.878 134.549V134.901M333.878 134.549V134.901M333.878 134.901V135.252M333.878 134.901V135.252M333.878 135.252V135.603M333.878 135.252V135.603M333.878 135.603V135.954M333.878 135.603V135.954M333.878 135.954V136.304M333.878 135.954V136.304M333.878 136.304V136.653M333.878 136.304V136.653M333.878 136.653V137.002M333.878 136.653V137.002M333.878 137.002V137.351M333.878 137.002V137.351M333.878 137.351V137.7M333.878 137.351V137.7M333.878 137.7V138.048M333.878 137.7V138.048M333.878 138.048V138.395M333.878 138.048V138.395M333.878 138.395V138.743M333.878 138.395V138.743M333.878 138.743V139.09M333.878 138.743V139.09M333.878 139.09V139.436M333.878 139.09V139.436M333.878 139.436V139.782M333.878 139.436V139.782M333.878 139.782V140.128M333.878 139.782V140.128M333.878 140.128V140.474M333.878 140.128V140.474M333.878 140.474V140.819M333.878 140.474V140.819M333.878 140.819V141.163M333.878 140.819V141.163M333.878 141.163V141.508M333.878 141.163V141.508M333.878 141.508V141.852M333.878 141.508V141.852M333.878 141.852V142.195M333.878 141.852V142.195M333.878 142.195V142.538M333.878 142.195V142.538M333.878 142.538V142.881M333.878 142.538V142.881M333.878 142.881V143.224M333.878 142.881V143.224M333.878 143.224V143.566M333.878 143.224V143.566M333.878 143.566V143.908M333.878 143.566V143.908M333.878 143.908V144.249M333.878 143.908V144.249M333.878 144.249V144.59M333.878 144.249V144.59M333.878 144.59V144.931M333.878 144.59V144.931M333.878 144.931V145.272M333.878 144.931V145.272M333.878 145.272V145.612M333.878 145.272V145.612M333.878 145.612V145.951M333.878 145.612V145.951M333.878 145.951V146.291M333.878 145.951V146.291M333.878 146.291V146.63M333.878 146.291V146.63M333.878 146.63V146.969M333.878 146.63V146.969M333.878 146.969V147.307M333.878 146.969V147.307M333.878 147.307V147.645M333.878 147.307V147.645M333.878 147.645V147.983M333.878 147.645V147.983M333.878 147.983V148.321M333.878 147.983V148.321M333.878 148.321V148.658M333.878 148.321V148.658M333.878 148.658V148.995M333.878 148.658V148.995M333.878 148.995V149.331M333.878 148.995V149.331M333.878 149.331V149.667M333.878 149.331V149.667M333.878 149.667V150.003M333.878 149.667V150.003M333.878 150.003V150.339M333.878 150.003V150.339M333.878 150.339V150.674M333.878 150.339V150.674M333.878 150.674V151.009M333.878 150.674V151.009M333.878 151.009V151.344M333.878 151.009V151.344M333.878 151.344V151.678M333.878 151.344V151.678M333.878 151.678V152.012M333.878 151.678V152.012M333.878 152.012V152.346M333.878 152.012V152.346M333.878 152.346V152.679M333.878 152.346V152.679M333.878 152.679V153.013M333.878 152.679V153.013M333.878 153.013V153.346M333.878 153.013V153.346M333.878 153.346V153.678M333.878 153.346V153.678M333.878 153.678V154.011M333.878 153.678V154.011M333.878 154.011V154.343M333.878 154.011V154.343M333.878 154.343V154.674M333.878 154.343V154.674M333.878 154.674V155.006M333.878 154.674V155.006M333.878 155.006V155.337M333.878 155.006V155.337M333.878 155.337V155.668M333.878 155.337V155.668M333.878 155.668V155.999M333.878 155.668V155.999M333.878 155.999V156.329M333.878 155.999V156.329M333.878 156.329V156.659M333.878 156.329V156.659M333.878 156.659V156.989M333.878 156.659V156.989M333.878 156.989V157.319M333.878 156.989V157.319M333.878 157.319V157.648M333.878 157.319V157.648M333.878 157.648V157.977M333.878 157.648V157.977M333.878 157.977V158.306M333.878 157.977V158.306M333.878 158.306V158.635M333.878 158.306V158.635M333.878 158.635V158.963M333.878 158.635V158.963M333.878 158.963V159.291M333.878 158.963V159.291M333.878 159.291V159.619M333.878 159.291V159.619M333.878 159.619V159.946M333.878 159.619V159.946M333.878 159.946V160.274M333.878 159.946V160.274M333.878 160.274V160.601M333.878 160.274V160.601M333.878 160.601V160.928M333.878 160.601V160.928M333.878 160.928V161.254M333.878 160.928V161.254M333.878 161.254V161.581M333.878 161.254V161.581M333.878 161.581V161.907M333.878 161.581V161.907M333.878 161.907V162.233M333.878 161.907V162.233M333.878 162.233V162.559M333.878 162.233V162.559M333.878 162.559V162.884M333.878 162.559V162.884M333.878 162.884V163.209M333.878 162.884V163.209M333.878 163.209V163.534M333.878 163.209V163.534M333.878 163.534V163.859M333.878 163.534V163.859M333.878 163.859V164.184M333.878 163.859V164.184M333.878 164.184V164.508M333.878 164.184V164.508M333.878 164.508V164.832M333.878 164.508V164.832M333.878 164.832V165.156M333.878 164.832V165.156M333.878 165.156V165.48M333.878 165.156V165.48M333.878 165.48V165.804M333.878 165.48V165.804M333.878 165.804V166.127M333.878 165.804V166.127M333.878 166.127V166.45M333.878 166.127V166.45M333.878 166.45V166.773M333.878 166.45V166.773M333.878 166.773V167.096M333.878 166.773V167.096M333.878 167.096V167.419M333.878 167.096V167.419M333.878 167.419V167.741M333.878 167.419V167.741M333.878 167.741V168.063M333.878 167.741V168.063M333.878 168.063V168.385M333.878 168.063V168.385M333.878 168.385V168.707M333.878 168.385V168.707M333.878 168.707V169.028M333.878 168.707V169.028M333.878 169.028V169.35M333.878 169.028V169.35M333.878 169.35V169.671M333.878 169.35V169.671M333.878 169.671V169.992M333.878 169.671V169.992M333.878 169.992V170.313M333.878 169.992V170.313M333.878 170.313V170.634M333.878 170.313V170.634M333.878 170.634V170.954M333.878 170.634V170.954M333.878 170.954V171.275M333.878 170.954V171.275M333.878 171.275V171.595M333.878 171.275V171.595M333.878 171.595V171.915M333.878 171.595V171.915M333.878 171.915V172.235M333.878 171.915V172.235M333.878 172.235V172.555M333.878 172.235V172.555M333.878 172.555V172.874M333.878 172.555V172.874M333.878 172.874V173.194M333.878 172.874V173.194M333.878 173.194V173.513M333.878 173.194V173.513M333.878 173.513V173.832M333.878 173.513V173.832M333.878 173.832V174.151M333.878 173.832V174.151M333.878 174.151V174.47M333.878 174.151V174.47M333.878 174.47V174.788M333.878 174.47V174.788M333.878 174.788V175.107M333.878 174.788V175.107M333.878 175.107V175.425M333.878 175.107V175.425M333.878 175.425V175.744M333.878 175.425V175.744M333.878 175.744V176.062M333.878 175.744V176.062M333.878 176.062V176.38M333.878 176.062V176.38M333.878 176.38V176.698M333.878 176.38V176.698M333.878 176.698V177.015M333.878 176.698V177.015M333.878 177.015V177.333M333.878 177.015V177.333M333.878 177.333V177.65M333.878 177.333V177.65M333.878 177.65V177.968M333.878 177.65V177.968M333.878 177.968V178.285M333.878 177.968V178.285M333.878 178.285V178.602M333.878 178.285V178.602M333.878 178.602V178.919M333.878 178.602V178.919M333.878 178.919V179.236M333.878 178.919V179.236M333.878 179.236V179.553M333.878 179.236V179.553M333.878 179.553V179.869M333.878 179.553V179.869M333.878 179.869V180.186M333.878 179.869V180.186M333.878 180.186V180.502M333.878 180.186V180.502M333.878 180.502V180.819M333.878 180.502V180.819M333.878 180.819V181.135M333.878 180.819V181.135M333.878 181.135V181.451M333.878 181.135V181.451M333.878 181.451V181.767M333.878 181.451V181.767M333.878 181.767V182.083M333.878 181.767V182.083M333.878 182.083V182.399M333.878 182.083V182.399M333.878 182.399V182.715M333.878 182.399V182.715M333.878 182.715V183.03M333.878 182.715V183.03M333.878 183.03V183.346M333.878 183.03V183.346M333.878 183.346V183.661M333.878 183.346V183.661M333.878 183.661V183.977M333.878 183.661V183.977M333.878 183.977V184.292M333.878 183.977V184.292M333.878 184.292V184.607M333.878 184.292V184.607M333.878 184.607V184.923M333.878 184.607V184.923M333.878 184.923V185.238M333.878 184.923V185.238M333.878 185.238V185.553M333.878 185.238V185.553M333.878 185.553V185.868M333.878 185.553V185.868M333.878 185.868V186.183M333.878 185.868V186.183M333.878 186.183V186.497M333.878 186.183V186.497M333.878 186.497V186.812M333.878 186.497V186.812M333.878 186.812V187.127M333.878 186.812V187.127M333.878 187.127V187.442M333.878 187.127V187.442M333.878 187.442V187.756M333.878 187.442V187.756M333.878 187.756V188.071M333.878 187.756V188.071M333.878 188.071V188.385M333.878 188.071V188.385M333.878 188.385V188.7M333.878 188.385V188.7M333.878 188.7V189.014M333.878 188.7V189.014M333.878 189.014V189.328M333.878 189.014V189.328M333.878 189.328V189.643M333.878 189.328V189.643M333.878 189.643V189.957M333.878 189.643V189.957M333.878 189.957V190.271M333.878 189.957V190.271M333.878 190.271V190.585M333.878 190.271V190.585M333.878 190.585V190.9M333.878 190.585V190.9M333.878 190.9V191.214M333.878 190.9V191.214M333.878 191.214V191.528M333.878 191.214V191.528M333.878 191.528V191.842M333.878 191.528V191.842M333.878 191.842V192.156M333.878 191.842V192.156M333.878 192.156V192.47M333.878 192.156V192.47M333.878 192.47V192.784M333.878 192.47V192.784M333.878 192.784V193.098M333.878 192.784V193.098M333.878 193.098V193.412M333.878 193.098V193.412M333.878 193.412V193.726M333.878 193.412V193.726M333.878 193.726V194.04M333.878 193.726V194.04M333.878 194.04V194.354M333.878 194.04V194.354M333.878 194.354V194.668M333.878 194.354V194.668M333.878 194.668V194.982M333.878 194.668V194.982M333.878 194.982V195.296M333.878 194.982V195.296M333.878 195.296V195.61M333.878 195.296V195.61M333.878 195.61V195.924M333.878 195.61V195.924M333.878 195.924V196.237M333.878 195.924V196.237M333.878 196.237V196.551M333.878 196.237V196.551M333.878 196.551V196.865M333.878 196.551V196.865M333.878 196.865V197.179M333.878 196.865V197.179M333.878 197.179V197.493M333.878 197.179V197.493M333.878 197.493V197.807M333.878 197.493V197.807M333.878 197.807V198.121M333.878 197.807V198.121M333.878 198.121V198.435M333.878 198.121V198.435M333.878 198.435V198.749M333.878 198.435V198.749M333.878 198.749V199.063M333.878 198.749V199.063M333.878 199.063V199.377M333.878 199.063V199.377M333.878 199.377V199.691M333.878 199.377V199.691M333.878 199.691V200.006M333.878 199.691V200.006M333.878 200.006V200.32M333.878 200.006V200.32M333.878 200.32V200.634M333.878 200.32V200.634M333.878 200.634V200.948M333.878 200.634V200.948M333.878 200.948V201.263M333.878 200.948V201.263M333.878 201.263V201.577M333.878 201.263V201.577M333.878 201.577V201.891M333.878 201.577V201.891M333.878 201.891V202.206M333.878 201.891V202.206M333.878 202.206V202.52M333.878 202.206V202.52M333.878 202.52V202.835M333.878 202.52V202.835M333.878 202.835V203.149M333.878 202.835V203.149M333.878 203.149V203.464M333.878 203.149V203.464M333.878 203.464V203.778M333.878 203.464V203.778M333.878 203.778V204.093M333.878 203.778V204.093M333.878 204.093V204.408M333.878 204.093V204.408M333.878 204.408V204.723M333.878 204.408V204.723M333.878 204.723V205.038M333.878 204.723V205.038M333.878 205.038V205.353M333.878 205.038V205.353M333.878 205.353V205.668M333.878 205.353V205.668M333.878 205.668V205.983M333.878 205.668V205.983M333.878 205.983V206.298M333.878 205.983V206.298M333.878 206.298V206.613M333.878 206.298V206.613M333.878 206.613V206.928M333.878 206.613V206.928M333.878 206.928V207.244M333.878 206.928V207.244M333.878 207.244V207.559M333.878 207.244V207.559M333.878 207.559V207.875M333.878 207.559V207.875M333.878 207.875V208.191M333.878 207.875V208.191M333.878 208.191V208.506M333.878 208.191V208.506M333.878 208.506V208.822M333.878 208.506V208.822M333.878 208.822V209.138M333.878 208.822V209.138M333.878 209.138V209.454M333.878 209.138V209.454M333.878 209.454V209.77M333.878 209.454V209.77M333.878 209.77V210.087M333.878 209.77V210.087M333.878 210.087V210.403M333.878 210.087V210.403M333.878 210.403V210.719M333.878 210.403V210.719M333.878 210.719V211.036M333.878 210.719V211.036M333.878 211.036V211.352M333.878 211.036V211.352M333.878 211.352V211.669M333.878 211.352V211.669M333.878 211.669V211.986M333.878 211.669V211.986M333.878 211.986V212.303M333.878 211.986V212.303M333.878 212.303V212.62M333.878 212.303V212.62M333.878 212.62V212.937M333.878 212.62V212.937M333.878 212.937V213.255M333.878 212.937V213.255M333.878 213.255V213.572M333.878 213.255V213.572M333.878 213.572V213.89M333.878 213.572V213.89M333.878 213.89V214.207M333.878 213.89V214.207M333.878 214.207V214.525M333.878 214.207V214.525M333.878 214.525V214.843M333.878 214.525V214.843M333.878 214.843V215.161M333.878 214.843V215.161M333.878 215.161V215.48M333.878 215.161V215.48M333.878 215.48V215.798M333.878 215.48V215.798M333.878 215.798V216.117M333.878 215.798V216.117M333.878 216.117V216.435M333.878 216.117V216.435M333.878 216.435V216.754M333.878 216.435V216.754M333.878 216.754V217.073M333.878 216.754V217.073M333.878 217.073V217.392M333.878 217.073V217.392M333.878 217.392V217.711M333.878 217.392V217.711M333.878 217.711V218.031M333.878 217.711V218.031M333.878 218.031V218.35M333.878 218.031V218.35M333.878 218.35V218.67M333.878 218.35V218.67M333.878 218.67V218.99M333.878 218.67V218.99M333.878 218.99V219.31M333.878 218.99V219.31M333.878 219.31V219.63M333.878 219.31V219.63M333.878 219.63V219.951M333.878 219.63V219.951M333.878 219.951V220.271M333.878 219.951V220.271M333.878 220.271V220.592M333.878 220.271V220.592M333.878 220.592V220.913M333.878 220.592V220.913M333.878 220.913V221.234M333.878 220.913V221.234M333.878 221.234V221.555M333.878 221.234V221.555M333.878 221.555V221.876M333.878 221.555V221.876M333.878 221.876V222.198M333.878 221.876V222.198M333.878 222.198V222.52M333.878 222.198V222.52M333.878 222.52V222.842M333.878 222.52V222.842M333.878 222.842V223.164M333.878 222.842V223.164M333.878 223.164V223.486M333.878 223.164V223.486M333.878 223.486V223.809M333.878 223.486V223.809M333.878 223.809V224.132M333.878 223.809V224.132M333.878 224.132V224.455M333.878 224.132V224.455M333.878 224.455V224.778M333.878 224.455V224.778M333.878 224.778V225.101M333.878 224.778V225.101M333.878 225.101V225.425M333.878 225.101V225.425M333.878 225.425V225.748M333.878 225.425V225.748M333.878 225.748V226.072M333.878 225.748V226.072M333.878 226.072V226.397M333.878 226.072V226.397M333.878 226.397V226.721M333.878 226.397V226.721M333.878 226.721V227.046M333.878 226.721V227.046M333.878 227.046V227.37M333.878 227.046V227.37M333.878 227.37V227.695M333.878 227.37V227.695M333.878 227.695V228.021M333.878 227.695V228.021M333.878 228.021V228.346M333.878 228.021V228.346M333.878 228.346V228.672M333.878 228.346V228.672M333.878 228.672V228.998M333.878 228.672V228.998M333.878 228.998V229.324M333.878 228.998V229.324M333.878 229.324V229.65M333.878 229.324V229.65M333.878 229.65V229.977M333.878 229.65V229.977M333.878 229.977V230.304M333.878 229.977V230.304M333.878 230.304V230.631M333.878 230.304V230.631M333.878 230.631V230.958M333.878 230.631V230.958M333.878 230.958V231.286M333.878 230.958V231.286M333.878 231.286V231.614M333.878 231.286V231.614M333.878 231.614V231.942M333.878 231.614V231.942M333.878 231.942V232.27M333.878 231.942V232.27M333.878 232.27V232.599M333.878 232.27V232.599M333.878 232.599V232.927M333.878 232.599V232.927M333.878 232.927V233.257M333.878 232.927V233.257M333.878 233.257V233.586M333.878 233.257V233.586M333.878 233.586V233.915M333.878 233.586V233.915M333.878 233.915V234.245M333.878 233.915V234.245M333.878 234.245V234.575M333.878 234.245V234.575M333.878 234.575V234.906M333.878 234.575V234.906M333.878 234.906V235.237M333.878 234.906V235.237M333.878 235.237V235.567M333.878 235.237V235.567M333.878 235.567V235.899M333.878 235.567V235.899M333.878 235.899V236.23M333.878 235.899V236.23M333.878 236.23V236.562M333.878 236.23V236.562M333.878 236.562V236.894M333.878 236.562V236.894M333.878 236.894V237.226M333.878 236.894V237.226M333.878 237.226V237.559M333.878 237.226V237.559M333.878 237.559V237.892M333.878 237.559V237.892M333.878 237.892V238.225M333.878 237.892V238.225M333.878 238.225V238.558M333.878 238.225V238.558M333.878 238.558V238.892M333.878 238.558V238.892M333.878 238.892V239.226M333.878 238.892V239.226M333.878 239.226V239.561M333.878 239.226V239.561M333.878 239.561V239.895M333.878 239.561V239.895M333.878 239.895V240.23M333.878 239.895V240.23M333.878 240.23V240.566M333.878 240.23V240.566M333.878 240.566V240.901M333.878 240.566V240.901M333.878 240.901V241.237M333.878 240.901V241.237M333.878 241.237V241.573M333.878 241.237V241.573M333.878 241.573V241.91M333.878 241.573V241.91M333.878 241.91V242.247M333.878 241.91V242.247M333.878 242.247V242.584M333.878 242.247V242.584M333.878 242.584V242.921M333.878 242.584V242.921M333.878 242.921V243.259M333.878 242.921V243.259M333.878 243.259V243.597M333.878 243.259V243.597M333.878 243.597V243.935M333.878 243.597V243.935M333.878 243.935V244.274M333.878 243.935V244.274M333.878 244.274V244.613M333.878 244.274V244.613M333.878 244.613V244.953M333.878 244.613V244.953M333.878 244.953V245.292M333.878 244.953V245.292M333.878 245.292V245.633M333.878 245.292V245.633M333.878 245.633V245.973M333.878 245.633V245.973M333.878 245.973V246.314M333.878 245.973V246.314M333.878 246.314V246.655M333.878 246.314V246.655M333.878 246.655V246.996M333.878 246.655V246.996M333.878 246.996V247.338M333.878 246.996V247.338M333.878 247.338V247.68M333.878 247.338V247.68M333.878 247.68V248.023M333.878 247.68V248.023M333.878 248.023V248.366M333.878 248.023V248.366M333.878 248.366V248.709M333.878 248.366V248.709M333.878 248.709V249.052M333.878 248.709V249.052M333.878 249.052V249.396M333.878 249.052V249.396M333.878 249.396V249.741M333.878 249.396V249.741M333.878 249.741V250.085M333.878 249.741V250.085M333.878 250.085V250.43M333.878 250.085V250.43M333.878 250.43V250.776M333.878 250.43V250.776M333.878 250.776V251.122M333.878 250.776V251.122M333.878 251.122V251.468M333.878 251.122V251.468M333.878 251.468V251.814M333.878 251.468V251.814M333.878 251.814V252.161M333.878 251.814V252.161M333.878 252.161V252.508M333.878 252.161V252.508M333.878 252.508V252.856M333.878 252.508V252.856M333.878 252.856V253.204M333.878 252.856V253.204M333.878 253.204V253.553M333.878 253.204V253.553M333.878 253.553V253.901M333.878 253.553V253.901M333.878 253.901V254.251M333.878 253.901V254.251M333.878 254.251V254.6M333.878 254.251V254.6M333.878 254.6V254.95M333.878 254.6V254.95M333.878 254.95V255.301M333.878 254.95V255.301M333.878 255.301V255.651M333.878 255.301V255.651M333.878 255.651V256.003M333.878 255.651V256.003M333.878 256.003V256.354M333.878 256.003V256.354M333.878 256.354V256.706M333.878 256.354V256.706M333.878 256.706V257.059M333.878 256.706V257.059M333.878 257.059V257.411M333.878 257.059V257.411M333.878 257.411V257.765M333.878 257.411V257.765M333.878 257.765V258.118M333.878 257.765V258.118M333.878 258.118V258.472M333.878 258.118V258.472M333.878 258.472V258.827M333.878 258.472V258.827M333.878 258.827V259.182M333.878 258.827V259.182M333.878 259.182V259.537M333.878 259.182V259.537M333.878 259.537V259.893M333.878 259.537V259.893M333.878 259.893V260.249M333.878 259.893V260.249M333.878 260.249V260.606M333.878 260.249V260.606M333.878 260.606V260.963M333.878 260.606V260.963M333.878 260.963V261.32M333.878 260.963V261.32M333.878 261.32V261.678M333.878 261.32V261.678M333.878 261.678V262.037M333.878 261.678V262.037M333.878 262.037V262.395M333.878 262.037V262.395M333.878 262.395V262.755M333.878 262.395V262.755M333.878 262.755V263.114M333.878 262.755V263.114M333.878 263.114V263.474M333.878 263.114V263.474M333.878 263.474V263.835M333.878 263.474V263.835M333.878 263.835V264.196M333.878 263.835V264.196M333.878 264.196V264.558M333.878 264.196V264.558M333.878 264.558V264.92M333.878 264.558V264.92M333.878 264.92V265.282M333.878 264.92V265.282M333.878 265.282V265.645M333.878 265.282V265.645M333.878 265.645V266.008M333.878 265.645V266.008M333.878 266.008V266.372M333.878 266.008V266.372M333.878 266.372V266.736M333.878 266.372V266.736M333.878 266.736V267.101M333.878 266.736V267.101M333.878 267.101V267.466M333.878 267.101V267.466M333.878 267.466V267.832M333.878 267.466V267.832M333.878 267.832V268.198M333.878 267.832V268.198M333.878 268.198V268.565M333.878 268.198V268.565M333.878 268.565V268.932M333.878 268.565V268.932M333.878 268.932V269.299M333.878 268.932V269.299M333.878 269.299V269.668M333.878 269.299V269.668M333.878 269.668V270.036M333.878 269.668V270.036M333.878 270.036V270.405M333.878 270.036V270.405M333.878 270.405V270.775M333.878 270.405V270.775M333.878 270.775V271.145M333.878 270.775V271.145M333.878 271.145V271.515M333.878 271.145V271.515M333.878 271.515V271.886M333.878 271.515V271.886M333.878 271.886V272.258M333.878 271.886V272.258M333.878 272.258V272.63M333.878 272.258V272.63M333.878 272.63V273.002M333.878 272.63V273.002M333.878 273.002V273.376M333.878 273.002V273.376M333.878 273.376V273.749M333.878 273.376V273.749M333.878 273.749V274.123M333.878 273.749V274.123M333.878 274.123V274.498M333.878 274.123V274.498M333.878 274.498V274.873M333.878 274.498V274.873M333.878 274.873V275.248M333.878 274.873V275.248M333.878 275.248V275.625M333.878 275.248V275.625M333.878 275.625V276.001M333.878 275.625V276.001M333.878 276.001V276.378M333.878 276.001V276.378M333.878 276.378V276.756M333.878 276.378V276.756M333.878 276.756V277.134M333.878 276.756V277.134M333.878 277.134V277.513M333.878 277.134V277.513M333.878 277.513V277.893M333.878 277.513V277.893M333.878 277.893V278.272M333.878 277.893V278.272M333.878 278.272V278.653M333.878 278.272V278.653M333.878 278.653V279.034M333.878 278.653V279.034M333.878 279.034V279.415M333.878 279.034V279.415M333.878 279.415V279.797V279.415ZM103.639 103.37V102.87L333.878 294.737V299.52C333.76 301.25 333.797 302.934 333.843 304.575C333.847 304.708 333.851 304.84 333.854 304.973C333.898 306.486 333.941 307.962 333.874 309.437C333.731 312.627 333.081 315.787 330.827 319.124C327.581 323.929 322.116 327.001 316.012 327.001H315.876H315.738H315.598H315.456H315.313H315.167H315.02H314.871H314.72H314.567H314.412H314.256H314.098H313.938H313.776H313.612H313.447H313.28H313.111H312.94H312.768H312.593H312.418H312.24H312.061H311.88H311.697H311.513H311.327H311.139H310.949H310.758H310.566H310.371H310.175H309.978H309.778H309.577H309.375H309.171H308.965H308.758H308.549H308.338H308.126H307.913H307.698H307.481H307.263H307.043H306.822H306.599H306.375H306.149H305.922H305.693H305.463H305.231H304.998H304.764H304.528H304.29H304.051H303.811H303.569H303.326H303.082H302.836H302.588H302.34H302.089H301.838H301.585H301.331H301.076H300.819H300.561H300.301H300.04H299.778H299.515H299.25H298.984H298.717H298.448H298.179H297.908H297.635H297.362H297.087H296.811H296.534H296.255H295.976H295.695H295.413H295.13H294.846H294.56H294.273H293.986H293.697H293.407H293.115H292.823H292.53H292.235H291.939H291.643H291.345H291.046H290.746H290.445H290.143H289.84H289.535H289.23H288.924H288.617H288.308H287.999H287.689H287.378H287.066H286.752H286.438H286.123H285.807H285.49H285.172H284.853H284.533H284.213H283.891H283.569H283.245H282.921H282.596H282.27H281.943H281.615H281.286H280.957H280.627H280.296H279.964H279.631H279.298H278.963H278.628H278.292H277.956H277.618H277.28H276.941H276.601H276.261H275.92H275.578H275.235H274.892H274.548H274.204H273.858H273.512H273.165H272.818H272.47H272.121H271.772H271.422H271.072H270.721H270.369H270.016H269.663H269.31H268.956H268.601H268.246H267.89H267.533H267.177H266.819H266.461H266.103H265.744H265.384H265.024H264.663H264.302H263.941H263.579H263.217H262.854H262.49H262.127H261.762H261.398H261.033H260.667H260.302H259.935H259.569H259.202H258.834H258.467H258.098H257.73H257.361H256.992H256.623H256.253H255.883H255.512H255.142H254.771H254.399H254.028H253.656H253.284H252.912H252.539H252.166H251.793H251.42H251.046H250.673H250.299H249.925H249.55H249.176H248.801H248.426H248.051H247.676H247.301H246.926H246.55H246.174H245.799H245.423H245.047H244.671H244.295H243.918H243.542H243.166H242.789H242.413H242.036H241.66H241.283H240.907H240.53H240.154H239.777H239.401H239.024H238.647H238.271H237.895H237.518H237.142H236.766H236.389H236.013H235.637H235.261H234.885H234.51H234.134H233.759H233.383H233.008H232.633H232.258H231.883H231.509H231.134H230.76H230.386H230.012H229.638H229.265H228.892H228.519H228.146H227.773H227.401H227.029H226.657H226.286H225.915H225.544H225.173H224.803H224.433H224.063H223.694H223.325H222.956H222.588H222.22H221.852H221.485H221.118H220.751H220.385H220.02H219.654H219.289H218.925H218.561H218.197H217.834H217.471H217.109H216.747H216.386H216.025H215.665H215.305H214.945H214.586H214.228H213.87H213.513H213.156H212.8H212.444H212.089H211.734H211.381H211.027H210.674H210.322H209.97H209.619H209.269H208.919H208.57H208.222H207.874H207.527H207.18H206.834H206.489H206.145H205.801H205.458H205.116H204.774H204.433H204.093H203.753H203.415H203.077H202.74H202.403H202.067H201.733H201.398H201.065H200.733H200.401H200.07H199.74H199.411H199.083H198.755H198.428H198.103H197.778H197.454H197.131H196.808H196.487H196.166H195.847H195.528H195.211H194.894H194.578H194.263H193.949H193.636H193.325H193.014H192.704H192.395H192.087H191.78H191.474H191.169H190.865H190.562H190.26H189.96H189.66H189.361H189.064H188.767H188.472H188.178H187.885H187.593H187.302H187.012H186.723H186.436H186.149H185.864H185.58H185.297H185.016H184.735H184.456H184.178H183.901H183.626H183.351H183.078H182.806H182.535H182.266H181.998H181.731H181.465H181.201H180.938H180.676H180.416H180.157H179.899H179.642H179.387H179.133H178.881H178.63H178.38H178.132H177.885H177.639H177.395H177.153H176.911H176.671H176.433H176.196H175.96H175.726H175.493H175.262H175.032H174.804H174.577H174.352H174.128H173.906H173.685H173.466H173.248H173.032H172.817H172.604H172.392H172.182H171.974H171.767H171.562H171.358H171.156H170.956H170.757H170.56H170.364H170.17H169.978H169.787H169.598H169.411H169.225H169.041H168.859H168.679H168.5H168.323H168.147H167.974H167.802H167.632H167.463H167.297H167.132H166.969H166.807H166.648H166.49H166.334H166.18H166.028H165.877H165.728H165.582H165.437H165.294H165.152H165.013H164.875H164.74H164.606H164.552H164.498H164.443H164.387H164.33H164.272H164.214H164.155H164.095H164.034H163.973H163.911H163.848H163.785H163.721H163.656H163.59H163.524H163.456H163.389H163.32H163.251H163.181H163.11H163.039H162.967H162.894H162.821H162.747H162.672H162.596H162.52H162.443H162.366H162.288H162.209H162.129H162.049H161.968H161.887H161.805H161.722H161.639H161.555H161.47H161.385H161.299H161.212H161.125H161.037H160.949H160.86H160.77H160.68H160.589H160.497H160.405H160.313H160.219H160.125H160.031H159.936H159.84H159.744H159.647H159.55H159.452H159.353H159.254H159.155H159.054H158.954H158.852H158.75H158.648H158.545H158.442H158.337H158.233H158.128H158.022H157.916H157.809H157.702H157.594H157.486H157.377H157.268H157.158H157.048H156.937H156.826H156.714H156.602H156.489H156.376H156.262H156.148H156.034H155.918H155.803H155.687H155.57H155.453H155.336H155.218H155.099H154.981H154.861H154.742H154.622H154.501H154.38H154.259H154.137H154.014H153.892H153.769H153.645H153.521H153.397H153.272H153.147H153.021H152.895H152.769H152.642H152.515H152.388H152.26H152.131H152.003H151.874H151.744H151.615H151.484H151.354H151.223H151.092H150.96H150.828H150.696H150.564H150.431H150.297H150.164H150.03H149.895H149.761H149.626H149.491H149.355H149.219H149.083H148.947H148.81H148.673H148.535H148.398H148.26H148.122H147.983H147.844H147.705H147.566H147.426H147.286H147.146H147.005H146.865H146.724H146.583H146.441H146.299H146.157H146.015H145.873H145.73H145.587H145.444H145.3H145.157H145.013H144.869H144.725H144.58H144.435H144.29H144.145H144H143.854H143.709H143.563H143.417H143.27H143.124H142.977H142.831H142.684H142.536H142.389H142.242H142.094H141.946H141.798H141.65H141.502H141.353H141.205H141.056H140.907H140.758H140.609H140.46H140.31H140.161H140.011H139.861H139.712H139.562H139.412H139.261H139.111H138.961H138.81H138.66H138.509H138.358H138.207H138.057H137.906H137.754H137.603H137.452H137.301H137.15H136.998H136.847H136.695H136.544H136.392H136.24H136.089H135.937H135.785H135.633H135.482H135.33H135.178H135.026H134.874H134.722H134.57H134.418H134.266H134.114H133.962H133.81H133.658H133.506H133.354H133.203H133.051H132.899H132.747H132.595H132.443H132.292H132.14H131.988H131.837H131.685H131.533H131.382H131.23H131.079H130.928H130.776H130.625H130.474H130.323H130.172H130.021H129.87H129.72H129.569H129.418H129.268H129.118H128.967H128.817H128.667H128.517H128.367H128.218H128.068H127.919H127.769H127.62H127.471H127.322H127.173H127.024H126.876H126.727H126.579H126.431H126.283H126.135H125.988H125.84H125.693H125.546H125.399H125.252H125.105H124.959H124.813H124.667H124.521H124.375H124.23H124.084H123.939H123.794H123.65H123.505H123.361H123.217H123.073H122.929H122.786H122.643H122.5H122.357H122.215H122.073H121.931H121.789H121.648H121.507H121.366H121.225H121.085H120.944H120.804H120.665H120.526H120.386H120.248H120.109H119.971H119.833H119.695H119.558H119.421H119.284H119.148H119.012H118.876H118.74H118.605H118.47H118.336H118.202H118.068H117.934H117.801H117.668H117.536H117.403H117.272H117.14H117.009H116.878H116.748H116.618H116.488H116.359H116.23H116.101H115.973H115.845H115.717H115.59H115.464H115.337H115.212H115.086H114.961H114.836H114.712H114.588H114.465H114.342H114.219H114.097H113.975H113.854H113.733H113.612H113.492H113.372H113.253H113.135H113.016H112.898H112.781H112.664H112.548H112.432H112.316H112.201H112.087H111.972H111.859H111.746H111.633H111.521H111.409H111.298H111.187H111.077H110.967H110.858H110.75H110.641H110.534H110.427H110.32H110.214H110.108H110.003H109.899H109.795H109.692H109.589H109.486H109.385H109.283H109.183H109.083H108.983H108.884H108.786H108.688H108.59H108.494H108.398H108.302H108.207H108.113H108.019H107.926H107.833H107.741H107.65H107.559H107.469H107.379H107.29H107.202H107.114H107.027H106.941H106.855H106.77H106.685H106.601H106.518H106.435H106.353H106.272H106.191H106.111H106.032H105.953H105.875H105.798H105.721H105.645H105.569H105.495H105.421H105.347H105.275H105.203H105.132H105.061H104.991H104.922H104.854H104.786H104.719H104.653H104.587H104.522H104.458H104.395H104.332H104.27H104.209H104.149H104.089H104.03H103.972H103.915H103.858H103.802H103.747H103.692H103.639C93.748 327.001 85.7734 318.978 85.7734 309.135V309.085V309.03V308.972V308.91V308.845V308.776V308.703V308.627V308.547V308.464V308.377V308.287V308.193V308.096V307.995V307.891V307.783V307.672V307.557V307.439V307.318V307.194V307.066V306.934V306.799V306.661V306.52V306.376V306.228V306.077V305.922V305.765V305.604V305.44V305.273V305.102V304.929V304.752V304.572V304.389V304.203V304.014V303.822V303.627V303.429V303.227V303.023V302.816V302.605V302.392V302.176V301.957V301.735V301.51V301.282V301.051V300.817V300.581V300.341V300.099V299.854V299.606V299.355V299.102V298.846V298.587V298.325V298.061V297.794V297.524V297.252V296.977V296.699V296.419V296.136V295.85V295.562V295.271V294.978V294.682V294.384V294.083V293.779V293.473V293.165V292.854V292.541V292.225V291.907V291.587V291.264V290.938V290.611V290.281V289.948V289.614V289.277V288.938V288.596V288.252V287.906V287.558V287.208V286.855V286.5V286.143V285.784V285.422V285.059V284.693V284.326V283.956V283.584V283.21V282.834V282.456V282.076V281.694V281.31V280.924V280.536V280.146V279.754V279.36V278.964V278.567V278.167V277.766V277.363V276.958V276.551V276.142V275.732V275.32V274.906V274.49V274.073V273.653V273.233V272.81V272.386V271.96V271.532V271.103V270.672V270.24V269.806V269.37V268.933V268.494V268.054V267.612V267.169V266.724V266.278V265.83V265.381V264.93V264.478V264.025V263.57V263.114V262.656V262.197V261.737V261.276V260.813V260.348V259.883V259.416V258.948V258.479V258.009V257.537V257.064V256.59V256.115V255.639V255.161V254.682V254.203V253.722V253.24V252.757V252.273V251.788V251.302V250.815V250.327V249.838V249.348V248.857V248.365V247.872V247.378V246.884V246.388V245.892V245.394V244.896V244.397V243.898V243.397V242.896V242.394V241.891V241.387V240.883V240.378V239.872V239.366V238.859V238.351V237.843V237.334V236.824V236.314V235.803V235.292V234.78V234.268V233.755V233.241V232.727V232.213V231.698V231.183V230.667V230.151V229.634V229.117V228.6V228.082V227.564V227.045V226.526V226.007V225.488V224.968V224.448V223.928V223.407V222.887V222.366V221.845V221.323V220.802V220.28V219.758V219.237V218.715V218.192V217.67V217.148V216.626V216.103V215.581V215.059V214.536V214.014V213.491V212.969V212.447V211.925V211.402V210.88V210.359V209.837V209.315V208.794V208.272V207.751V207.23V206.71V206.189V205.669V205.149V204.629V204.11V203.591V203.072V202.554V202.036V201.518V201V200.483V199.967V199.451V198.935V198.419V197.905V197.39V196.876V196.363V195.85V195.337V194.826V194.314V193.804V193.293V192.784V192.275V191.767V191.259V190.752V190.246V189.74V189.235V188.731V188.227V187.725V187.223V186.721V186.221V185.721V185.222V184.724V184.227V183.731V183.235V182.741V182.247V181.754V181.262V180.771V180.281V179.792V179.304V178.817V178.331V177.846V177.362V176.88V176.398V175.917V175.437V174.959V174.481V174.005V173.53V173.056V172.583V172.112V171.641V171.172V170.704V170.238V169.772V169.308V168.845V168.384V167.924V167.465V167.007V166.551V166.096V165.643V165.191V164.741V164.291V163.844V163.398V162.953V162.51V162.068V161.628V161.189V160.752V160.317V159.883V159.45V159.02V158.591V158.163V157.737V157.313V156.891V156.47V156.051V155.634V155.218V154.804V154.392V153.982V153.573V153.166V152.762V152.358V151.957V151.558V151.16V150.765V150.371V149.979V149.59V149.202V148.816V148.432V148.05V147.67V147.292V146.916V146.542V146.171V145.801V145.433V145.068V144.705V144.343V143.984V143.627V143.273V142.92V142.57V142.222V141.876V141.532V141.191V140.852V140.515V140.18V139.848V139.518V139.191V138.866V138.543V138.222V137.905V137.589V137.276V136.965V136.657V136.351V136.048V135.747V135.449V135.153V134.86V134.57V134.282V133.996V133.713V133.433V133.156V132.881V132.608V132.339V132.072V131.808V131.546V131.288V131.032V130.778V130.528V130.28V130.035V129.793V129.554V129.318V129.084V128.854V128.626V128.401V128.179V127.96V127.744V127.531V127.321V127.114V126.91V126.708V126.51V126.315V126.123V125.934V125.749V125.566V125.386V125.21V125.036V124.866V124.699V124.536V124.375V124.218V124.063V123.912V123.765V123.62V123.479V123.342V123.207V123.076V122.948V122.824V122.703V122.585V122.471V122.36V122.252V122.148V122.048V121.951V121.857V121.767V121.68V121.597V121.518V121.442V121.369V121.301V121.235C85.7734 111.344 93.7972 103.37 103.639 103.37Z" stroke="#005EFF"/>
<path id="Fill-3" fill-rule="evenodd" clip-rule="evenodd" d="M118.805 192.093H109.448C106.855 192.093 104.753 189.991 104.753 187.398C104.753 184.805 106.855 182.703 109.448 182.703H118.805C121.397 182.703 123.499 184.805 123.499 187.398C123.5 189.991 121.398 192.093 118.805 192.093Z" fill="#D6DEE8"/>
<path id="Fill-4" fill-rule="evenodd" clip-rule="evenodd" d="M118.805 169.557H109.448C106.855 169.557 104.753 167.455 104.753 164.862C104.753 162.268 106.855 160.167 109.448 160.167H118.805C121.397 160.167 123.499 162.269 123.499 164.862C123.5 167.455 121.398 169.557 118.805 169.557Z" fill="white"/>
<path id="Fill-5" fill-rule="evenodd" clip-rule="evenodd" d="M118.805 214.629H109.448C106.855 214.629 104.753 212.528 104.753 209.934C104.753 207.341 106.855 205.239 109.448 205.239H118.805C121.397 205.239 123.499 207.341 123.499 209.934C123.5 212.528 121.398 214.629 118.805 214.629Z" fill="white"/>
<path id="Fill-6" fill-rule="evenodd" clip-rule="evenodd" d="M118.805 237.165H109.448C106.855 237.165 104.753 235.064 104.753 232.47C104.753 229.877 106.855 227.775 109.448 227.775H118.805C121.397 227.775 123.499 229.877 123.499 232.47C123.5 235.063 121.398 237.165 118.805 237.165Z" fill="#D6DEE8"/>
<path id="Fill-7" fill-rule="evenodd" clip-rule="evenodd" d="M118.805 259.7H109.448C106.855 259.7 104.753 257.599 104.753 255.005C104.753 252.412 106.855 250.311 109.448 250.311H118.805C121.397 250.311 123.499 252.413 123.499 255.005C123.5 257.599 121.398 259.7 118.805 259.7Z" fill="white"/>
<path id="Fill-8" fill-rule="evenodd" clip-rule="evenodd" d="M118.805 282.236H109.448C106.855 282.236 104.753 280.135 104.753 277.542C104.753 274.948 106.855 272.847 109.448 272.847H118.805C121.397 272.847 123.499 274.949 123.499 277.542C123.5 280.134 121.398 282.236 118.805 282.236Z" fill="#D6DEE8"/>
<g id="Group-13">
<path id="Fill-9" fill-rule="evenodd" clip-rule="evenodd" d="M118.805 304.773H109.448C106.855 304.773 104.753 302.671 104.753 300.078C104.753 297.484 106.855 295.383 109.448 295.383H118.805C121.397 295.383 123.499 297.485 123.499 300.078C123.5 302.671 121.398 304.773 118.805 304.773Z" fill="white"/>
<path id="Fill-11" fill-rule="evenodd" clip-rule="evenodd" d="M316.012 102.871H218.373C91.9131 102.871 97.2548 100.956 90.0442 108.888C87.0803 112.15 85.2734 116.482 85.2734 121.236V137.936H334.378V121.236C334.378 111.093 326.155 102.871 316.012 102.871Z" fill="#5A6772"/>
</g>
<path id="Fill-14" fill-rule="evenodd" clip-rule="evenodd" d="M388.661 246.392H171.374C167.243 246.392 163.863 243.011 163.863 238.88V188.178C163.863 184.046 167.243 180.666 171.374 180.666H388.661C392.793 180.666 396.173 184.047 396.173 188.178V238.88C396.173 243.012 392.793 246.392 388.661 246.392Z" fill="#2079D4"/>
<path id="Fill-15" fill-rule="evenodd" clip-rule="evenodd" d="M388.661 338.41H171.374C167.243 338.41 163.863 335.029 163.863 330.898V280.195C163.863 276.064 167.243 272.684 171.374 272.684H388.661C392.793 272.684 396.173 276.064 396.173 280.195V330.898C396.173 335.03 392.793 338.41 388.661 338.41Z" fill="#8EBEED"/>
<path id="Fill-18" fill-rule="evenodd" clip-rule="evenodd" d="M349.899 229.491H288.304C285.711 229.491 283.609 227.39 283.609 224.796C283.609 222.203 285.711 220.102 288.304 220.102H349.899C352.492 220.102 354.594 222.203 354.594 224.796C354.594 227.39 352.492 229.491 349.899 229.491Z" fill="#004D99"/>
<path id="Fill-19" fill-rule="evenodd" clip-rule="evenodd" d="M323.64 206.956H305.8C303.207 206.956 301.105 204.855 301.105 202.261C301.105 199.668 303.207 197.566 305.8 197.566H323.64C326.233 197.566 328.335 199.668 328.335 202.261C328.335 204.854 326.233 206.956 323.64 206.956Z" fill="#F6F4F2"/>
<path id="Fill-20" fill-rule="evenodd" clip-rule="evenodd" d="M370.675 206.956H341.638C339.045 206.956 336.943 204.855 336.943 202.261C336.943 199.668 339.045 197.566 341.638 197.566H370.675C373.268 197.566 375.37 199.668 375.37 202.261C375.37 204.854 373.268 206.956 370.675 206.956Z" fill="#B4D4F4"/>
<path id="Fill-21" fill-rule="evenodd" clip-rule="evenodd" d="M285.611 206.956H226.298C223.705 206.956 221.603 204.855 221.603 202.261C221.603 199.668 223.705 197.566 226.298 197.566H285.611C288.204 197.566 290.306 199.668 290.306 202.261C290.306 204.854 288.204 206.956 285.611 206.956Z" fill="#F6F4F2"/>
<path id="Fill-22" fill-rule="evenodd" clip-rule="evenodd" d="M270.893 229.491H253.053C250.46 229.491 248.358 227.39 248.358 224.796C248.358 222.203 250.46 220.102 253.053 220.102H270.893C273.486 220.102 275.588 222.203 275.588 224.796C275.589 227.39 273.487 229.491 270.893 229.491Z" fill="#B4D4F4"/>
<path id="Fill-23" fill-rule="evenodd" clip-rule="evenodd" d="M234.801 229.491H225.444C222.852 229.491 220.75 227.39 220.75 224.796C220.75 222.203 222.852 220.102 225.444 220.102H234.801C237.394 220.102 239.496 222.203 239.496 224.796C239.496 227.39 237.394 229.491 234.801 229.491Z" fill="#F6F4F2"/>
<path id="Fill-24" fill-rule="evenodd" clip-rule="evenodd" d="M202.089 229.491H192.732C190.14 229.491 188.038 227.39 188.038 224.796C188.038 222.203 190.14 220.102 192.732 220.102H202.089C204.682 220.102 206.784 222.203 206.784 224.796C206.785 227.39 204.683 229.491 202.089 229.491Z" fill="#B4D4F4"/>
<path id="Fill-25" fill-rule="evenodd" clip-rule="evenodd" d="M202.089 206.956H192.732C190.14 206.956 188.038 204.855 188.038 202.261C188.038 199.668 190.14 197.566 192.732 197.566H202.089C204.682 197.566 206.784 199.668 206.784 202.261C206.785 204.854 204.683 206.956 202.089 206.956Z" fill="#004D99"/>
<path id="Fill-26" fill-rule="evenodd" clip-rule="evenodd" d="M370.675 229.491C370.369 229.491 370.062 229.459 369.755 229.397C369.455 229.34 369.161 229.246 368.879 229.134C368.597 229.015 368.321 228.871 368.065 228.701C367.808 228.526 367.571 228.332 367.351 228.113C367.139 227.901 366.944 227.662 366.769 227.399C366.6 227.149 366.456 226.873 366.337 226.591C366.225 226.31 366.131 226.016 366.074 225.716C365.887 224.8 365.981 223.91 366.337 222.999C366.456 222.717 366.6 222.448 366.769 222.191C366.944 221.934 367.139 221.69 367.351 221.477C367.571 221.258 367.808 221.064 368.065 220.889C368.321 220.719 368.597 220.576 368.879 220.456C369.161 220.344 369.455 220.25 369.755 220.193C370.363 220.068 370.989 220.068 371.589 220.193C371.89 220.25 372.184 220.344 372.472 220.456C372.754 220.575 373.029 220.719 373.28 220.889C373.536 221.064 373.78 221.258 373.993 221.477C374.213 221.689 374.406 221.934 374.576 222.191C374.745 222.448 374.895 222.717 375.008 222.999C375.127 223.287 375.22 223.581 375.277 223.881C375.339 224.181 375.371 224.488 375.371 224.795C375.371 225.102 375.34 225.409 375.277 225.716C375.22 226.016 375.126 226.31 375.008 226.591C374.895 226.873 374.745 227.149 374.576 227.399C374.407 227.662 374.213 227.9 373.993 228.113C373.781 228.332 373.537 228.526 373.28 228.701C373.029 228.871 372.754 229.014 372.472 229.134C372.184 229.246 371.89 229.34 371.589 229.397C371.289 229.459 370.982 229.491 370.675 229.491Z" fill="#F6F4F2"/>
<path id="Fill-27" fill-rule="evenodd" clip-rule="evenodd" d="M197.73 319.417L186.143 307.83C184.31 305.996 184.31 303.024 186.143 301.19L197.73 289.603C199.563 287.77 202.536 287.77 204.37 289.603C206.203 291.437 206.203 294.409 204.37 296.244L196.103 304.51L204.37 312.776C206.203 314.61 206.203 317.582 204.37 319.416C202.536 321.25 199.563 321.25 197.73 319.417Z" fill="#F6F4F2" stroke="#8EBEED" stroke-width="1.08197"/>
<path id="Fill-28" fill-rule="evenodd" clip-rule="evenodd" d="M239.767 320.792C238.565 320.792 237.363 320.334 236.447 319.417C234.613 317.583 234.613 314.611 236.447 312.777L244.714 304.511L236.447 296.245C234.613 294.41 234.613 291.438 236.447 289.604C238.28 287.771 241.253 287.771 243.086 289.604L254.673 301.191C256.507 303.025 256.507 305.997 254.673 307.831L243.086 319.418C242.17 320.334 240.969 320.792 239.767 320.792Z" fill="#F6F4F2" stroke="#8EBEED" stroke-width="1.08197"/>
<path id="Fill-29" fill-rule="evenodd" clip-rule="evenodd" d="M211.789 327.834C209.352 326.947 208.096 324.253 208.983 321.816L221.996 286.063C222.883 283.626 225.576 282.371 228.014 283.257C230.45 284.143 231.706 286.837 230.82 289.274L217.807 325.028C216.927 327.443 214.247 328.726 211.789 327.834Z" fill="#F6F4F2" stroke="#8EBEED" stroke-width="1.08197"/>
<g id="Group-39">
<path id="Fill-30" fill-rule="evenodd" clip-rule="evenodd" d="M110.214 125.706C108.981 125.706 107.766 125.205 106.897 124.329C106.02 123.458 105.519 122.244 105.519 121.011C105.519 117.199 109.788 115.055 112.818 117.105C113.075 117.28 113.319 117.474 113.532 117.693C114.408 118.563 114.909 119.777 114.909 121.011C114.909 122.243 114.408 123.458 113.532 124.328C113.319 124.547 113.075 124.741 112.818 124.91C112.568 125.079 112.292 125.229 112.011 125.342C111.729 125.461 111.435 125.555 111.134 125.611C110.827 125.674 110.521 125.706 110.214 125.706Z" fill="#DD414C"/>
<path id="Fill-31" fill-rule="evenodd" clip-rule="evenodd" d="M126.127 125.706C125.82 125.706 125.513 125.674 125.213 125.612C124.912 125.555 124.618 125.461 124.337 125.343C124.049 125.23 123.78 125.08 123.523 124.91C123.266 124.742 123.028 124.547 122.809 124.329C121.933 123.458 121.432 122.244 121.432 121.011C121.432 119.778 121.933 118.564 122.809 117.693C123.028 117.475 123.266 117.281 123.523 117.105C123.78 116.936 124.049 116.792 124.337 116.673C124.618 116.56 124.912 116.466 125.213 116.404C125.814 116.285 126.44 116.285 127.047 116.404C127.348 116.466 127.642 116.56 127.924 116.673C128.211 116.792 128.481 116.936 128.737 117.105C128.994 117.281 129.232 117.475 129.451 117.693C130.321 118.564 130.829 119.778 130.829 121.011C130.829 122.244 130.321 123.458 129.451 124.329C129.232 124.547 128.994 124.742 128.737 124.91C128.481 125.08 128.211 125.229 127.924 125.343C127.642 125.461 127.348 125.555 127.047 125.612C126.74 125.674 126.434 125.706 126.127 125.706Z" fill="#EEA03A"/>
<path id="Fill-32" fill-rule="evenodd" clip-rule="evenodd" d="M142.046 125.706C141.739 125.706 141.432 125.674 141.126 125.612C140.825 125.555 140.531 125.461 140.249 125.342C139.968 125.23 139.692 125.079 139.435 124.91C139.178 124.741 138.941 124.547 138.722 124.328C137.852 123.458 137.351 122.244 137.351 121.011C137.351 120.704 137.382 120.397 137.438 120.09C137.501 119.796 137.588 119.496 137.707 119.214C137.826 118.932 137.97 118.657 138.139 118.406C138.308 118.143 138.508 117.906 138.721 117.692C138.94 117.474 139.178 117.28 139.435 117.104C139.692 116.935 139.967 116.791 140.249 116.672C140.53 116.559 140.825 116.465 141.125 116.403C141.732 116.284 142.358 116.284 142.959 116.403C143.259 116.465 143.553 116.559 143.835 116.672C144.123 116.791 144.393 116.935 144.649 117.104C144.906 117.28 145.143 117.474 145.363 117.692C145.581 117.905 145.776 118.143 145.944 118.406C146.113 118.657 146.264 118.932 146.376 119.214C146.495 119.496 146.583 119.796 146.645 120.09C146.708 120.397 146.739 120.704 146.739 121.011C146.739 122.25 146.238 123.458 145.362 124.328C145.143 124.547 144.905 124.741 144.648 124.91C144.391 125.079 144.122 125.229 143.834 125.342C143.553 125.461 143.259 125.555 142.958 125.612C142.659 125.673 142.352 125.706 142.046 125.706Z" fill="#6DAA43"/>
<path id="Fill-33" opacity="0.2" fill-rule="evenodd" clip-rule="evenodd" d="M273.541 125.706H161.592C159 125.706 156.897 123.605 156.897 121.011C156.897 118.418 159 116.316 161.592 116.316H273.541C276.134 116.316 278.236 118.418 278.236 121.011C278.236 123.604 276.134 125.706 273.541 125.706Z" fill="white"/>
<path id="Fill-34" opacity="0.2" fill-rule="evenodd" clip-rule="evenodd" d="M309.248 125.706H290.051C287.459 125.706 285.356 123.605 285.356 121.011C285.356 118.418 287.459 116.316 290.051 116.316H309.248C311.841 116.316 313.943 118.418 313.943 121.011C313.943 123.604 311.841 125.706 309.248 125.706Z" fill="white"/>
</g>
</g>
</g>
</g>
</g>
</g>
<g id="Icon54">
<g id="Group 37">
<path id="Rectangle" fill-rule="evenodd" clip-rule="evenodd" d="M125.134 364.418C125.134 362.209 126.925 360.418 129.134 360.418L133.318 360.418C135.527 360.418 137.318 362.209 137.318 364.418V365.994C137.318 366.667 137.864 367.213 138.538 367.213H176.472C178.681 367.213 180.472 369.004 180.472 371.213V402.713C180.472 404.922 178.681 406.713 176.472 406.713H129.134C126.925 406.713 125.134 404.922 125.134 402.713V364.418Z" fill="#FF8C19"/>
<path id="Rectangle_2" fill-rule="evenodd" clip-rule="evenodd" d="M138.23 364.657C138.325 364.066 138.835 363.632 139.434 363.632H181.338C182.089 363.632 182.662 364.304 182.542 365.045L176.253 404.079C176.158 404.67 175.648 405.104 175.049 405.104H133.144C132.394 405.104 131.821 404.432 131.941 403.691L138.23 364.657Z" fill="#DCF3FF"/>
<path id="Rectangle_3" fill-rule="evenodd" clip-rule="evenodd" d="M182.955 374.165C185.474 374.165 187.366 376.465 186.88 378.936L182.591 400.777C181.854 404.529 178.565 407.235 174.741 407.235H129.994C127.476 407.235 125.584 404.935 126.069 402.464L130.359 380.623C131.096 376.871 134.385 374.165 138.209 374.165L182.955 374.165Z" fill="#FFCC7B"/>
</g>
</g>
<g id="Group 28">
<path id="Rectangle_4" fill-rule="evenodd" clip-rule="evenodd" d="M31.7483 171.678C31.7483 168.364 34.4346 165.678 37.7483 165.678H62.7422L72.6596 175.803V207.772C72.6596 211.086 69.9733 213.772 66.6596 213.772H37.7483C34.4346 213.772 31.7483 211.086 31.7483 207.772V171.678Z" fill="#005EFF"/>
<g id="Icon">
<path id="Mask" fill-rule="evenodd" clip-rule="evenodd" d="M58.3904 197.651V184.37C58.3904 182.959 57.308 181.88 55.8925 181.88H51.7294C51.2298 181.88 50.8968 182.212 50.8968 182.71C50.8968 183.208 51.2298 183.54 51.7294 183.54H55.8925C56.3921 183.54 56.7252 183.872 56.7252 184.37V197.651C56.7252 198.15 56.3921 198.482 55.8925 198.482H51.7294C51.2298 198.482 50.8968 198.814 50.8968 199.312C50.8968 199.81 51.2298 200.142 51.7294 200.142H55.8925C57.308 200.142 58.3904 199.063 58.3904 197.651ZM53.3114 190.678C53.3946 190.927 53.3946 191.176 53.3114 191.342C53.3114 191.425 53.2281 191.509 53.1449 191.592L49.8143 194.912C49.6478 195.078 49.398 195.161 49.2315 195.161C49.065 195.161 48.8152 195.078 48.6486 194.912C48.3156 194.58 48.3156 194.082 48.6486 193.75L50.5637 191.841H42.5704C42.0708 191.841 41.7378 191.509 41.7378 191.01C41.7378 190.512 42.0708 190.18 42.5704 190.18H50.5637L48.6486 188.271C48.3156 187.939 48.3156 187.441 48.6486 187.109C48.9817 186.777 49.4813 186.777 49.8143 187.109L53.1449 190.429C53.1865 190.471 53.2073 190.512 53.2281 190.554C53.2489 190.595 53.2697 190.637 53.3114 190.678Z" fill="black"/>
<mask id="mask0_990_5254" style="mask-type:alpha" maskUnits="userSpaceOnUse" x="41" y="181" width="18" height="20">
<path id="Mask_2" fill-rule="evenodd" clip-rule="evenodd" d="M58.3904 197.651V184.37C58.3904 182.959 57.308 181.88 55.8925 181.88H51.7294C51.2298 181.88 50.8968 182.212 50.8968 182.71C50.8968 183.208 51.2298 183.54 51.7294 183.54H55.8925C56.3921 183.54 56.7252 183.872 56.7252 184.37V197.651C56.7252 198.15 56.3921 198.482 55.8925 198.482H51.7294C51.2298 198.482 50.8968 198.814 50.8968 199.312C50.8968 199.81 51.2298 200.142 51.7294 200.142H55.8925C57.308 200.142 58.3904 199.063 58.3904 197.651ZM53.3114 190.678C53.3946 190.927 53.3946 191.176 53.3114 191.342C53.3114 191.425 53.2281 191.509 53.1449 191.592L49.8143 194.912C49.6478 195.078 49.398 195.161 49.2315 195.161C49.065 195.161 48.8152 195.078 48.6486 194.912C48.3156 194.58 48.3156 194.082 48.6486 193.75L50.5637 191.841H42.5704C42.0708 191.841 41.7378 191.509 41.7378 191.01C41.7378 190.512 42.0708 190.18 42.5704 190.18H50.5637L48.6486 188.271C48.3156 187.939 48.3156 187.441 48.6486 187.109C48.9817 186.777 49.4813 186.777 49.8143 187.109L53.1449 190.429C53.1865 190.471 53.2073 190.512 53.2281 190.554C53.2489 190.595 53.2697 190.637 53.3114 190.678Z" fill="white"/>
</mask>
<g mask="url(#mask0_990_5254)">
<g id="Icon Color">
<rect id="&#240;&#159;&#142;&#168; Icon Color" x="40.0728" y="181.05" width="19.9832" height="19.922" fill="white"/>
</g>
</g>
</g>
<path id="Path" opacity="0.33996" d="M72.6549 175.805H65.7376C64.0807 175.805 62.7375 174.462 62.7375 172.805V165.68L72.6549 175.805Z" fill="#7367F0"/>
</g>
<g id="Group">
<path id="Rectangle_5" fill-rule="evenodd" clip-rule="evenodd" d="M65.9131 307.198C65.9131 303.885 68.5994 301.198 71.9131 301.198H117.871C121.184 301.198 123.871 303.885 123.871 307.198V343.292C123.871 346.606 121.184 349.292 117.871 349.292H71.9131C68.5994 349.292 65.9131 346.606 65.9131 343.292V307.198Z" fill="#6FD9E6"/>
<g id="Icon_2">
<path id="Mask_3" fill-rule="evenodd" clip-rule="evenodd" d="M101.019 323.334H100.048V320.429C100.048 317.233 97.4248 314.618 94.2192 314.618C91.0135 314.618 88.3907 317.233 88.3907 320.429V323.334H87.4193C85.768 323.334 84.5051 324.593 84.5051 326.239V333.018C84.5051 334.665 85.768 335.924 87.4193 335.924H101.019C102.67 335.924 103.933 334.665 103.933 333.018V326.239C103.933 324.593 102.67 323.334 101.019 323.334ZM90.3336 320.429C90.3336 318.299 92.0821 316.556 94.2192 316.556C96.3563 316.556 98.1048 318.299 98.1048 320.429V323.335H90.3336V320.429ZM101.019 333.987C101.602 333.987 101.99 333.6 101.99 333.019V326.24C101.99 325.659 101.602 325.271 101.019 325.271H87.4194C86.8366 325.271 86.448 325.659 86.448 326.24V333.019C86.448 333.6 86.8366 333.987 87.4194 333.987H101.019Z" fill="black"/>
<mask id="mask1_990_5254" style="mask-type:alpha" maskUnits="userSpaceOnUse" x="84" y="314" width="20" height="22">
<path id="Mask_4" fill-rule="evenodd" clip-rule="evenodd" d="M101.019 323.334H100.048V320.429C100.048 317.233 97.4248 314.618 94.2192 314.618C91.0135 314.618 88.3907 317.233 88.3907 320.429V323.334H87.4193C85.768 323.334 84.5051 324.593 84.5051 326.239V333.018C84.5051 334.665 85.768 335.924 87.4193 335.924H101.019C102.67 335.924 103.933 334.665 103.933 333.018V326.239C103.933 324.593 102.67 323.334 101.019 323.334ZM90.3336 320.429C90.3336 318.299 92.0821 316.556 94.2192 316.556C96.3563 316.556 98.1048 318.299 98.1048 320.429V323.335H90.3336V320.429ZM101.019 333.987C101.602 333.987 101.99 333.6 101.99 333.019V326.24C101.99 325.659 101.602 325.271 101.019 325.271H87.4194C86.8366 325.271 86.448 325.659 86.448 326.24V333.019C86.448 333.6 86.8366 333.987 87.4194 333.987H101.019Z" fill="white"/>
</mask>
<g mask="url(#mask1_990_5254)">
<g id="Icon Color_2">
<rect id="&#240;&#159;&#142;&#168; Icon Color_2" x="82.5623" y="313.649" width="23.3137" height="23.2424" fill="white"/>
</g>
</g>
</g>
</g>
<g id="Wom3.5">
<g id="RArm">
<path id="Path_2" fill-rule="evenodd" clip-rule="evenodd" d="M421.198 283.049C421.198 283.049 411.667 292.382 412.252 293.295C412.837 294.214 417.64 292.079 417.64 292.079C417.64 292.079 411.647 301.884 412.88 302.637C414.113 303.391 420.417 301.865 422.35 299.844C424.284 297.823 427.268 287.625 427.268 287.625L441.764 260.749L431.251 257.147L421.198 283.049Z" fill="url(#paint0_linear_990_5254)"/>
<path id="Path_3" fill-rule="evenodd" clip-rule="evenodd" d="M411.477 233.368C415.48 239.525 428.954 257.072 428.954 257.072L427.972 260.572L440.354 268.976C440.354 268.976 443.871 259.356 444.177 258.002C445.183 253.538 424.841 225.048 420.286 220.931C413.115 214.449 405.36 223.96 411.477 233.368Z" fill="#FD8715"/>
<path id="Path_4" fill-rule="evenodd" clip-rule="evenodd" d="M432.173 261.729C432.404 261.283 428.973 257.008 428.973 257.008L428.392 259.087C428.392 259.087 431.942 262.175 432.173 261.729Z" fill="black" fill-opacity="0.159856"/>
<path id="Path 70" fill-rule="evenodd" clip-rule="evenodd" d="M427.886 259.398L441.041 269.343L438.109 275.775L426.607 263.11L427.886 259.398Z" fill="#FFEDC2"/>
</g>
<g id="RLeg">
<path id="Path_5" fill-rule="evenodd" clip-rule="evenodd" d="M419.581 440.393L418.851 452.717L428.217 452.958L426.456 440.393H419.581Z" fill="url(#paint1_linear_990_5254)"/>
<path id="Path_6" fill-rule="evenodd" clip-rule="evenodd" d="M428.66 445.249C428.66 445.249 428.397 452.671 429.949 455.262C431.512 457.853 431.985 459.862 432.054 461.412C432.128 463.073 431.97 464.578 431.97 464.578H416.467C416.467 464.578 416.079 456.77 417.106 455.297C418.133 453.825 418.806 453.799 418.806 452.498C418.814 451.197 419.036 445.298 419.036 445.298L428.66 445.249Z" fill="#391B0B"/>
<path id="Path_7" fill-rule="evenodd" clip-rule="evenodd" d="M386.589 275.857L410.886 273.242L411.243 273.571C412.975 275.204 420.501 282.79 422.663 293.159C426.746 312.734 421.282 348.889 421.403 356.817C421.518 364.745 425.302 369.528 426.875 380.738C428.448 391.947 428.596 442.044 428.596 442.044C424.427 444.49 420.758 444.665 415.786 441.897L386.589 275.857Z" fill="#3187E8"/>
<path id="Path_8" fill-rule="evenodd" clip-rule="evenodd" d="M408.286 399.281L386.582 275.857L400.092 274.403C400.694 317.28 409.095 375.238 408.286 399.281Z" fill="white" fill-opacity="0.192499"/>
</g>
<g id="LLeg">
<path id="Path_9" fill-rule="evenodd" clip-rule="evenodd" d="M391.563 439.098L383.575 439.226C383.575 439.226 384.101 447.434 381.029 450.214L380.862 450.359C377.154 453.436 391.458 452.325 391.458 452.325L391.563 439.098Z" fill="url(#paint2_linear_990_5254)"/>
<path id="Path_10" fill-rule="evenodd" clip-rule="evenodd" d="M391.99 445.494L391.76 464.57L386.073 464.574L386.023 459.873C386.023 459.873 384.229 464.256 381.488 464.509C378.738 464.762 366.484 464.607 366.484 464.607C366.484 464.607 365.466 460.206 371.566 458.208C376.639 456.547 382.249 445.494 382.249 445.494H391.99Z" fill="#391B0B"/>
<path id="Path_11" fill-rule="evenodd" clip-rule="evenodd" d="M374.535 277.553L401.819 276.638L402.023 277.011C403.347 279.497 410.601 294.051 408.361 310.595C405.217 333.815 397.224 361.037 396.833 365.196C396.135 372.61 397.53 377.978 398.103 385.636C398.675 393.294 395.921 441.457 395.921 441.457C391.872 443.868 387.054 444.341 380.929 441.53C380.929 441.53 375.4 376.11 375.359 365.757C375.318 355.404 374.535 277.553 374.535 277.553Z" fill="#3187E8"/>
<path id="Path_12" fill-rule="evenodd" clip-rule="evenodd" d="M380.149 302.669L379.968 304.389C378.15 322.531 378.164 361.058 378.868 367L378.964 367.765C379.745 374.47 379.771 391.492 379.04 418.831L378.09 407.034C376.288 384.333 375.378 370.574 375.359 365.757L375.326 360.772C375.169 340.612 374.535 277.553 374.535 277.553L380.289 277.36C380.904 287.315 380.857 295.751 380.149 302.669Z" fill="white" fill-opacity="0.192499"/>
</g>
<g id="Head">
<path id="Path_13" fill-rule="evenodd" clip-rule="evenodd" d="M384.939 191.566C381.581 191.93 381.819 197.772 385.906 198.077C386.741 203.71 389.72 206.394 393.352 206.704L393.151 215.223L409.215 215.214C409.215 215.214 404.691 209.196 404.917 200.956C405.142 192.717 404.765 184.977 404.765 184.977L383.958 185.346L384.939 191.566Z" fill="url(#paint3_linear_990_5254)"/>
<path id="Path_14" fill-rule="evenodd" clip-rule="evenodd" d="M384.2 192.005C388.111 190.474 390.999 197.065 393.991 201.646C396.982 206.226 404.734 205.448 405.802 201.646C409.846 193.317 413.332 181.995 408.612 181.066C407.948 169.029 376.125 171.871 384.2 192.005Z" fill="#8B5030"/>
<path id="Combined Shape" fill-rule="evenodd" clip-rule="evenodd" d="M406.004 176.292H399.147H399.036L398.962 176.374C392.84 183.139 391.46 193.092 394.299 202.079C394.549 202.4 394.824 202.691 395.12 202.952C391.893 193.879 393.11 183.656 399.258 176.792H406.591C406.406 176.617 406.21 176.451 406.004 176.292Z" fill="black" fill-opacity="0.199355"/>
<ellipse id="Oval_6" cx="401.791" cy="176.511" rx="3.83542" ry="3.79692" fill="#FB9934"/>
</g>
<g id="Body">
<path id="Path_15" fill-rule="evenodd" clip-rule="evenodd" d="M380.721 216.872C377.137 222.084 371.164 239.773 370.825 243.753C370.444 248.343 375.415 255.656 375.496 262.301C375.569 268.947 371.789 288.958 372.925 290.827C374.052 292.697 406.364 300.973 408.472 300.928C410.571 300.883 423.825 289.619 422.162 285.726C420.49 281.834 412.729 272.161 413.52 266.857C414.301 261.554 418.84 241.979 421.094 235.316C423.338 228.654 422.59 221.659 418.4 218.792C416.327 217.373 410.796 213.343 400.945 213.362C391.094 213.38 380.999 216.468 380.721 216.872Z" fill="#FD8715"/>
<path id="Path 68" fill-rule="evenodd" clip-rule="evenodd" d="M391.84 212.981C391.84 212.981 391.425 215.223 393.24 215.223C395.055 215.223 407.228 215.62 408.876 214.911C410.525 214.202 410.03 212.981 410.03 212.981H391.84Z" fill="#FFF6E1"/>
<path id="Path_16" fill-rule="evenodd" clip-rule="evenodd" d="M375.517 228.146L375.628 228.091C382.265 224.811 386.252 224.666 387.588 227.657C389.316 231.522 384.836 240.81 374.149 255.521C372.681 251.06 370.57 246.806 370.823 243.755C371.019 241.452 373.103 234.557 375.517 228.146Z" fill="black" fill-opacity="0.159856"/>
</g>
<g id="LArm">
<path id="Path_17" fill-rule="evenodd" clip-rule="evenodd" d="M331.239 217.28C331.239 217.28 330.044 214.711 328.164 214.015C326.285 213.32 323.41 208.715 323.855 207.378C324.299 206.041 328.187 202.332 328.187 202.332C328.187 202.332 324.75 193.201 326.272 192.171C327.617 191.26 332.707 202.761 332.707 202.761C332.707 202.761 335.699 203.208 336.39 204.384C338.13 207.348 336.814 214.015 336.814 214.015L354.479 239.569L346.374 249.858L331.239 217.28Z" fill="url(#paint4_linear_990_5254)"/>
<path id="Path_18" fill-rule="evenodd" clip-rule="evenodd" d="M376.343 219.263C370.369 224.517 355.756 238.456 355.756 238.456L353.585 235.163L342.657 246.241C342.657 246.241 350.9 258.345 353.585 258.43C360.579 258.65 373.111 245.577 384.894 235.369C395.458 226.216 387.479 209.469 376.343 219.263Z" fill="#FD8715"/>
<path id="Path_19" fill-rule="evenodd" clip-rule="evenodd" d="M355.795 238.47C355.795 238.47 351.696 243.164 351.357 242.652C351.019 242.14 354.449 236.435 354.449 236.435L355.795 238.47Z" fill="black" fill-opacity="0.159856"/>
<path id="Path 69" fill-rule="evenodd" clip-rule="evenodd" d="M354.886 235.907L342.212 249.857L338.307 241.896L352.475 233.095L354.886 235.907Z" fill="#FFEDC2"/>
</g>
<path id="Path_20" fill-rule="evenodd" clip-rule="evenodd" d="M401.122 173.488C401.122 173.488 404.711 168.86 408.855 170.074C412.999 171.288 416.748 178.731 414.968 185.727C413.197 192.724 414.657 196.715 416.806 201.43C422.578 214.115 402.595 222.169 402.595 222.169C402.595 222.169 404.154 212.77 401.122 207.094C397.998 201.249 396.225 193.753 396.225 189.166C396.225 181.19 401.122 173.488 401.122 173.488Z" fill="#8B5030"/>
</g>
<g id="Group 39">
<path id="Rectangle_6" fill-rule="evenodd" clip-rule="evenodd" d="M315.316 147.759C329.756 139.522 344.393 140.01 359.194 147.759L358.26 158.051C356.987 172.089 349.213 184.721 337.255 192.183C324.779 184.772 316.78 171.667 315.893 157.183L315.316 147.759Z" fill="#28C76F"/>
<ellipse id="Oval_7" cx="337.26" cy="164.466" rx="11.9665" ry="11.8464" fill="#1CA258"/>
<g id="Group 40">
<path id="Path_21" fill-rule="evenodd" clip-rule="evenodd" d="M337.094 156.052C340.9 156.052 344.194 158.591 345.15 162.173C345.224 162.449 345.057 162.733 344.778 162.806C344.498 162.879 344.211 162.714 344.138 162.437C343.303 159.309 340.422 157.088 337.094 157.088C333.071 157.088 329.81 160.305 329.81 164.272C329.81 166.511 330.552 168.524 332.044 170.329C332.227 170.551 332.195 170.877 331.971 171.058C331.747 171.24 331.417 171.207 331.234 170.986C329.59 168.997 328.763 166.753 328.763 164.272C328.763 159.732 332.493 156.052 337.094 156.052Z" fill="white"/>
<path id="Path_22" fill-rule="evenodd" clip-rule="evenodd" d="M335.237 158.967C338.199 157.957 341.398 159.419 342.491 162.278L342.551 162.441C343.112 164.056 343.877 164.787 344.854 164.775C345.143 164.771 345.381 165 345.384 165.286C345.388 165.572 345.156 165.807 344.867 165.811C343.41 165.829 342.328 164.841 341.631 162.975L341.561 162.778C340.719 160.358 338.054 159.103 335.577 159.947C333.348 160.707 332.156 163.393 332.68 165.761C332.782 166.222 332.911 166.636 333.077 167.035L333.227 167.379C333.724 168.467 334.37 169.283 337.289 172.755C337.474 172.975 337.444 173.302 337.221 173.485C336.999 173.668 336.669 173.638 336.484 173.418L334.919 171.546C333.04 169.277 332.616 168.63 332.142 167.509L332.109 167.43C331.919 166.973 331.772 166.502 331.658 165.983C331.028 163.138 332.459 159.914 335.237 158.967Z" fill="white"/>
<path id="Path_23" fill-rule="evenodd" clip-rule="evenodd" d="M336.456 161.766C337.99 161.242 339.688 162.059 340.165 163.587C340.853 165.789 342.119 167.156 343.988 167.743C344.264 167.83 344.416 168.121 344.329 168.394C344.241 168.667 343.947 168.818 343.671 168.731C341.46 168.036 339.95 166.406 339.165 163.894C338.865 162.933 337.78 162.411 336.797 162.746C335.75 163.103 335.232 164.102 335.517 165.471C335.662 166.166 336.236 167.114 337.213 168.348L337.38 168.556C337.518 168.727 337.662 168.902 337.818 169.088L339.5 171.059C339.684 171.279 339.653 171.606 339.43 171.788C339.207 171.971 338.877 171.94 338.693 171.719L337.347 170.147L337.01 169.748C336.851 169.558 336.703 169.379 336.562 169.203L336.223 168.775C335.249 167.521 334.669 166.532 334.492 165.68C334.103 163.819 334.891 162.299 336.456 161.766Z" fill="white"/>
<path id="Path_24" fill-rule="evenodd" clip-rule="evenodd" d="M337.387 164.588C337.663 164.504 337.956 164.658 338.041 164.932C338.605 166.756 339.71 168.05 341.789 169.595C342.02 169.767 342.067 170.091 341.893 170.32C341.72 170.549 341.391 170.596 341.16 170.424C338.921 168.759 337.681 167.307 337.04 165.236C336.955 164.962 337.11 164.672 337.387 164.588Z" fill="white"/>
</g>
</g>
</g>
</g>
<defs>
<filter id="filter0_f_990_5254" x="17.2011" y="174.14" width="88.0943" height="87.7559" filterUnits="userSpaceOnUse" color-interpolation-filters="sRGB">
<feFlood flood-opacity="0" result="BackgroundImageFix"/>
<feBlend mode="normal" in="SourceGraphic" in2="BackgroundImageFix" result="shape"/>
<feGaussianBlur stdDeviation="2.71828" result="effect1_foregroundBlur_990_5254"/>
</filter>
<linearGradient id="paint0_linear_990_5254" x1="409.821" y1="244.741" x2="412.979" y2="300.006" gradientUnits="userSpaceOnUse">
<stop stop-color="#FDC6C6"/>
<stop offset="1" stop-color="#FFCCA1"/>
</linearGradient>
<linearGradient id="paint1_linear_990_5254" x1="417.23" y1="437.334" x2="418.521" y2="452.267" gradientUnits="userSpaceOnUse">
<stop stop-color="#FDC6C6"/>
<stop offset="1" stop-color="#FAB2B2"/>
</linearGradient>
<linearGradient id="paint2_linear_990_5254" x1="378.29" y1="435.83" x2="379.512" y2="451.808" gradientUnits="userSpaceOnUse">
<stop stop-color="#FDC6C6"/>
<stop offset="1" stop-color="#FAB2B2"/>
</linearGradient>
<linearGradient id="paint3_linear_990_5254" x1="378.009" y1="177.614" x2="380.649" y2="213.635" gradientUnits="userSpaceOnUse">
<stop stop-color="#FDC6C6"/>
<stop offset="1" stop-color="#FFCCA1"/>
</linearGradient>
<linearGradient id="paint4_linear_990_5254" x1="318.502" y1="178.064" x2="326.769" y2="246.192" gradientUnits="userSpaceOnUse">
<stop stop-color="#FDC6C6"/>
<stop offset="1" stop-color="#FFCCA1"/>
</linearGradient>
</defs>
</svg>
