<svg xmlns="http://www.w3.org/2000/svg" viewBox="0 0 323.6 119.85"><defs><style>.cls-1{fill:#fff;}</style></defs><g id="Capa_2" data-name="Capa 2"><g id="Layer_1" data-name="Layer 1"><path class="cls-1" d="M13.87,89.73A25.84,25.84,0,0,1,3.7,79.56,30.42,30.42,0,0,1,0,64.38,29.86,29.86,0,0,1,3.79,49.19,26.47,26.47,0,0,1,14.16,39a30.09,30.09,0,0,1,14.68-3.6A30.15,30.15,0,0,1,43.51,39,26.43,26.43,0,0,1,53.89,49.18a29.86,29.86,0,0,1,3.8,15.18A29.26,29.26,0,0,1,53.8,79.54,27.07,27.07,0,0,1,43.28,89.72a30.59,30.59,0,0,1-14.83,3.6A29.61,29.61,0,0,1,13.87,89.73ZM35.68,79.09a13.56,13.56,0,0,0,5.42-5.62,19,19,0,0,0,2-9.1q0-8-4.21-12.3a13.79,13.79,0,0,0-10.27-4.3,13.5,13.5,0,0,0-10.17,4.3q-4.09,4.31-4.1,12.3t4,12.3A13.18,13.18,0,0,0,28.45,81,14.71,14.71,0,0,0,35.68,79.09Z"/><path class="cls-1" d="M101.28,37.67a20.39,20.39,0,0,1,7.49,6.43V35.44H123l0,55.24c0,5.2-1,11.78-3.14,15.86a23.23,23.23,0,0,1-9.41,9.72,30,30,0,0,1-15.18,3.6q-11.94,0-19.59-5.56a20.62,20.62,0,0,1-8.65-15.18H81.16A10.45,10.45,0,0,0,86,105.23a16.69,16.69,0,0,0,9,2.27,13.86,13.86,0,0,0,10-3.69c2.57-2.47,3.85-8.14,3.85-13.13v-6.8a21.54,21.54,0,0,1-7.54,6.58,22.51,22.51,0,0,1-11,2.63,24.05,24.05,0,0,1-13-3.64A25.34,25.34,0,0,1,68,79.18,33,33,0,0,1,64.65,64,32.46,32.46,0,0,1,68,48.87a24.9,24.9,0,0,1,9.21-10.13,24.53,24.53,0,0,1,13-3.54A23.57,23.57,0,0,1,101.28,37.67Zm5.47,17.61a14.21,14.21,0,0,0-5.47-5.66,14.53,14.53,0,0,0-7.39-2,14.23,14.23,0,0,0-12.7,7.54A17.63,17.63,0,0,0,79.12,64,18.09,18.09,0,0,0,81.2,72.8a14.86,14.86,0,0,0,5.47,5.82,13.86,13.86,0,0,0,7.23,2,14.63,14.63,0,0,0,7.39-2A14.37,14.37,0,0,0,106.76,73a18.32,18.32,0,0,0,2-8.86A18.21,18.21,0,0,0,106.75,55.28Z"/><path class="cls-1" d="M155.09,47.94V75.06a5.36,5.36,0,0,0,1.37,4.1c.91.84,2.44,1.26,4.6,1.26h6.58v12h-8.9q-17.92,0-17.92-17.41v-27H133.1V35.64h7.72V21.51h14.27V35.63h12.55v12.3Z"/><path class="cls-1" d="M194.81,35.62V92.36H180.65V35.62Zm0-7.09V14.34H180.63V28.53Z"/><path class="cls-1" d="M209.38,49.08A25.68,25.68,0,0,1,219.51,39a30,30,0,0,1,14.84-3.6q10.76,0,17.82,5.21a25.35,25.35,0,0,1,9.46,14.62H245.85a11.2,11.2,0,0,0-4.24-5.72,12.57,12.57,0,0,0-7.36-2.07,12.25,12.25,0,0,0-9.93,4.4q-3.66,4.41-3.65,12.5t3.66,12.4a12.22,12.22,0,0,0,9.93,4.4q8.88,0,11.59-7.69h15.78a25.81,25.81,0,0,1-9.5,14.48q-7.11,5.37-17.77,5.37a30.15,30.15,0,0,1-14.84-3.59,25.7,25.7,0,0,1-10.14-10.12,30.63,30.63,0,0,1-3.66-15.23A30.69,30.69,0,0,1,209.38,49.08Z"/><polygon class="cls-1" points="270.16 0 283.62 23.32 297.09 0 270.16 0"/><polygon class="cls-1" points="295.77 45.93 322.03 45.93 285.91 27.48 295.77 45.93"/><polygon class="cls-1" points="298.75 0.97 284.95 24.84 323.6 44.58 298.75 0.97"/><rect class="cls-1" x="282.58" y="34.71" width="43.39" transform="translate(44.99 197.69) rotate(-38.66)"/><polygon class="cls-1" points="297.09 93.78 283.62 70.46 270.16 93.78 297.09 93.78"/><polygon class="cls-1" points="285.91 66.3 322.03 47.85 295.77 47.85 285.91 66.3"/><polygon class="cls-1" points="323.6 49.21 284.95 68.94 298.75 92.82 323.6 49.21"/><rect class="cls-1" x="282.58" y="59.07" width="43.39" transform="translate(6.42 144.85) rotate(-27.05)"/></g></g></svg>