<svg xmlns="http://www.w3.org/2000/svg" viewBox="0 0 350 128.97"><defs><style>.cls-1{fill:#06c;}.cls-2{fill:#8adb19;}.cls-3{fill:#00b0cb;}.cls-4{fill:#f10000;}.cls-5{fill:#ffc000;}.cls-6{fill:#ff7300;}</style></defs><g id="Capa_2" data-name="Capa 2"><g id="Layer_1" data-name="Layer 1"><path d="M14.92,96.57A27.8,27.8,0,0,1,4,85.63,32.75,32.75,0,0,1,0,69.3,32.13,32.13,0,0,1,4.08,53,28.39,28.39,0,0,1,15.23,42,32.36,32.36,0,0,1,31,38.16,32.46,32.46,0,0,1,46.8,42,28.28,28.28,0,0,1,58,53a32,32,0,0,1,4.09,16.33,31.5,31.5,0,0,1-4.18,16.33A29.09,29.09,0,0,1,46.55,96.56a32.91,32.91,0,0,1-15.95,3.87A31.85,31.85,0,0,1,14.92,96.57ZM38.38,85.13a14.64,14.64,0,0,0,5.82-6,20.39,20.39,0,0,0,2.18-9.8c0-5.73-1.51-10.14-4.53-13.23a14.85,14.85,0,0,0-11-4.62,14.53,14.53,0,0,0-10.94,4.63q-4.41,4.63-4.4,13.23t4.3,13.22A14.16,14.16,0,0,0,30.6,87.15,15.79,15.79,0,0,0,38.38,85.13Z"/><path d="M108.93,40.58A21.89,21.89,0,0,1,117,47.49V38.17h15.35l0,59.41c0,5.59-1.13,12.67-3.37,17.07a25.09,25.09,0,0,1-10.13,10.45Q112.11,129,102.54,129q-12.86,0-21.07-6a22.18,22.18,0,0,1-9.31-16.33H87.29a11.27,11.27,0,0,0,5.17,6.58,18,18,0,0,0,9.64,2.45,14.91,14.91,0,0,0,10.77-4c2.76-2.65,4.14-8.75,4.14-14.12V90.28a23.1,23.1,0,0,1-8.1,7.07,24.2,24.2,0,0,1-11.82,2.84,25.92,25.92,0,0,1-13.93-3.92,27.35,27.35,0,0,1-10-11,35.54,35.54,0,0,1-3.65-16.39,34.94,34.94,0,0,1,3.64-16.22,26.74,26.74,0,0,1,9.91-10.89,26.35,26.35,0,0,1,14-3.81A25.38,25.38,0,0,1,108.93,40.58Zm5.89,18.94a15.4,15.4,0,0,0-5.88-6.09,15.68,15.68,0,0,0-8-2.12,15.3,15.3,0,0,0-13.66,8.11,18.91,18.91,0,0,0-2.23,9.42,19.5,19.5,0,0,0,2.23,9.52,16,16,0,0,0,5.89,6.26A14.93,14.93,0,0,0,101,86.8a15.69,15.69,0,0,0,8-2.13,15.34,15.34,0,0,0,5.87-6.1A19.52,19.52,0,0,0,117,69.05,19.59,19.59,0,0,0,114.82,59.52Z"/><path d="M166.81,51.62V80.79q0,3.06,1.47,4.41t5,1.36h7.08V99.41h-9.58q-19.26,0-19.27-18.72V51.62h-8.3V38.39h8.3V23.2H166.8V38.38h13.5V51.62Z"/><path d="M209.53,38.37l0,61H194.3v-61Zm0-7.62V15.49H194.28V30.75Z"/><path d="M225.2,52.85A27.56,27.56,0,0,1,236.1,42a32.29,32.29,0,0,1,16-3.87q11.56,0,19.16,5.6A27.2,27.2,0,0,1,281.4,59.42h-17a12.06,12.06,0,0,0-4.56-6.15A13.5,13.5,0,0,0,252,51.05a13.14,13.14,0,0,0-10.68,4.74q-3.93,4.74-3.93,13.44t3.94,13.34A13.13,13.13,0,0,0,252,87.3q9.55,0,12.47-8.28h17a27.76,27.76,0,0,1-10.22,15.57q-7.65,5.77-19.11,5.78a32.45,32.45,0,0,1-16-3.86,27.71,27.71,0,0,1-10.9-10.89,32.88,32.88,0,0,1-3.94-16.38A33,33,0,0,1,225.2,52.85Z"/><polygon class="cls-1" points="305.72 0 321.52 0 313.62 13.68 305.72 27.36 297.82 13.68 289.92 0 305.72 0"/><polygon class="cls-2" points="350 49.97 305.72 27.36 317.81 49.97 317.81 49.97 317.81 49.97 350 49.97"/><polygon class="cls-3" points="321.52 0 305.72 27.36 350 49.97 321.52 0"/><polygon class="cls-4" points="305.72 99.95 321.52 99.95 313.62 86.27 305.72 72.59 297.82 86.27 289.92 99.95 305.72 99.95"/><polygon class="cls-5" points="350 49.97 305.72 72.59 317.81 49.97 317.81 49.97 317.81 49.97 350 49.97"/><polygon class="cls-6" points="321.52 99.95 305.72 72.59 350 49.97 321.52 99.95"/></g></g></svg>