<svg width="350" height="129" viewBox="0 0 350 129" fill="none" xmlns="http://www.w3.org/2000/svg">
<g clip-path="url(#clip0_3_2)">
<path d="M14.92 96.57C10.319 94.029 6.53263 90.2356 4.00001 85.63C1.26838 80.6275 -0.11039 74.9987 1.1534e-05 69.3C-0.10994 63.6009 1.29821 57.9752 4.08001 53C6.69169 48.3603 10.5554 44.5486 15.23 42C20.0751 39.4011 25.5025 38.0795 31 38.16C36.5072 38.0788 41.9444 39.4003 46.8 42C51.4966 44.5362 55.3796 48.3498 58 53C60.7964 57.9807 62.2086 63.6192 62.09 69.33C62.206 75.052 60.761 80.6975 57.91 85.66C55.1972 90.2684 51.2666 94.0399 46.55 96.56C41.6455 99.1763 36.1582 100.508 30.6 100.43C25.1285 100.512 19.7283 99.1823 14.92 96.57V96.57ZM38.38 85.13C40.8619 83.7381 42.8843 81.6531 44.2 79.13C45.7321 76.0961 46.4815 72.7273 46.38 69.33C46.38 63.6 44.87 59.19 41.85 56.1C40.4356 54.6112 38.7277 53.4319 36.8344 52.6367C34.941 51.8415 32.9033 51.4476 30.85 51.48C28.8032 51.4375 26.7706 51.828 24.8852 52.6259C22.9999 53.4238 21.3044 54.6111 19.91 56.11C16.97 59.1967 15.5033 63.6067 15.51 69.34C15.5167 75.0733 16.95 79.48 19.81 82.56C21.1764 84.0513 22.8464 85.2326 24.7076 86.0244C26.5688 86.8161 28.578 87.1999 30.6 87.15C33.3242 87.1591 36.0043 86.4632 38.38 85.13V85.13Z" fill="white"/>
<path d="M108.93 40.58C112.147 42.1857 114.918 44.5589 117 47.49V38.17H132.35V97.58C132.35 103.17 131.22 110.25 128.98 114.65C126.71 119.058 123.185 122.694 118.85 125.1C114.357 127.7 108.92 129 102.54 129C93.9667 129 86.9434 127 81.47 123C78.8171 121.126 76.6083 118.692 74.9995 115.87C73.3908 113.048 72.4215 109.908 72.16 106.67H87.29C88.105 109.446 89.9561 111.801 92.46 113.25C95.3795 114.956 98.7204 115.805 102.1 115.7C104.071 115.779 106.037 115.466 107.886 114.779C109.734 114.092 111.429 113.046 112.87 111.7C115.63 109.05 117.01 102.95 117.01 97.58V90.28C114.904 93.2409 112.129 95.6632 108.91 97.35C105.276 99.287 101.207 100.264 97.09 100.19C92.1687 100.232 87.337 98.8726 83.16 96.27C78.875 93.597 75.4138 89.7896 73.16 85.27C70.6517 80.1766 69.4001 74.5564 69.51 68.88C69.4008 63.2592 70.6495 57.6951 73.15 52.66C75.3692 48.1741 78.8027 44.4011 83.06 41.77C87.2782 39.2149 92.1288 37.8949 97.06 37.96C101.17 37.8589 105.244 38.7581 108.93 40.58V40.58ZM114.82 59.52C113.467 56.9806 111.43 54.8709 108.94 53.43C106.511 52.0196 103.748 51.2875 100.94 51.31C98.1389 51.2818 95.3837 52.0231 92.975 53.4532C90.5662 54.8833 88.5963 56.9472 87.28 59.42C85.732 62.3133 84.9634 65.5597 85.05 68.84C84.9728 72.1512 85.7403 75.4276 87.28 78.36C88.6356 80.9448 90.6725 83.1096 93.17 84.62C95.5282 86.0568 98.2386 86.8114 101 86.8C103.809 86.819 106.572 86.0834 109 84.67C111.49 83.2275 113.524 81.1137 114.87 78.57C116.374 75.6281 117.107 72.3525 117 69.05C117.09 65.7402 116.34 62.4614 114.82 59.52V59.52Z" fill="white"/>
<path d="M166.81 51.62V80.79C166.81 82.83 167.3 84.3 168.28 85.2C169.26 86.1 170.927 86.5533 173.28 86.56H180.36V99.41H170.78C157.94 99.41 151.517 93.17 151.51 80.69V51.62H143.21V38.39H151.51V23.2H166.8V38.38H180.3V51.62H166.81Z" fill="white"/>
<path d="M209.53 38.37V99.37H194.3V38.37H209.53ZM209.53 30.75V15.49H194.28V30.75H209.53Z" fill="white"/>
<path d="M225.2 52.85C227.73 48.2723 231.511 44.5091 236.1 42C241.009 39.3494 246.522 38.016 252.1 38.13C259.807 38.13 266.193 39.9967 271.26 43.73C276.386 47.5989 279.978 53.1569 281.4 59.42H264.4C263.588 56.9291 261.988 54.7703 259.84 53.27C257.518 51.7402 254.78 50.9648 252 51.05C249.975 50.9628 247.957 51.3453 246.104 52.1676C244.251 52.9899 242.614 54.2297 241.32 55.79C238.7 58.95 237.39 63.43 237.39 69.23C237.39 75.03 238.703 79.4767 241.33 82.57C242.623 84.1277 244.26 85.3652 246.111 86.1857C247.962 87.0063 249.977 87.3876 252 87.3C258.367 87.3 262.523 84.54 264.47 79.02H281.47C279.958 85.232 276.348 90.7317 271.25 94.59C266.15 98.4367 259.78 100.363 252.14 100.37C246.564 100.48 241.053 99.1503 236.14 96.51C231.55 93.9834 227.771 90.2075 225.24 85.62C222.526 80.5948 221.169 74.9495 221.3 69.24C221.16 63.5312 222.504 57.8839 225.2 52.85V52.85Z" fill="white"/>
<path d="M305.72 0H321.52L313.62 13.68L305.72 27.36L297.82 13.68L289.92 0H305.72Z" fill="#0066CC"/>
<path d="M350 49.97L305.72 27.36L317.81 49.97H350Z" fill="#8ADB19"/>
<path d="M321.52 0L305.72 27.36L350 49.97L321.52 0Z" fill="#00B0CB"/>
<path d="M305.72 99.95H321.52L313.62 86.27L305.72 72.59L297.82 86.27L289.92 99.95H305.72Z" fill="#F10000"/>
<path d="M350 49.97L305.72 72.59L317.81 49.97H350Z" fill="#FFC000"/>
<path d="M321.52 99.95L305.72 72.59L350 49.97L321.52 99.95Z" fill="#FF7300"/>
</g>
<defs>
<clipPath id="clip0_3_2">
<rect width="350" height="128.97" fill="white"/>
</clipPath>
</defs>
</svg>
