<svg xmlns="http://www.w3.org/2000/svg" viewBox="0 0 350 131.43"><defs><style>.cls-1{fill:#06c;}.cls-2{fill:#8adb19;}.cls-3{fill:#00b0cb;}.cls-4{fill:#f10000;}.cls-5{fill:#ffc000;}.cls-6{fill:#ff7300;}</style></defs><g id="Capa_2" data-name="Capa 2"><g id="Layer_1" data-name="Layer 1"><path d="M14.92,96.57A27.8,27.8,0,0,1,4,85.63,32.75,32.75,0,0,1,0,69.3,32.13,32.13,0,0,1,4.08,53,28.39,28.39,0,0,1,15.23,42,32.36,32.36,0,0,1,31,38.16,32.46,32.46,0,0,1,46.8,42,28.28,28.28,0,0,1,58,53a32,32,0,0,1,4.09,16.33,31.5,31.5,0,0,1-4.18,16.33A29.09,29.09,0,0,1,46.55,96.56a32.91,32.91,0,0,1-15.95,3.87A31.85,31.85,0,0,1,14.92,96.57ZM38.38,85.13a14.64,14.64,0,0,0,5.82-6,20.39,20.39,0,0,0,2.18-9.8c0-5.73-1.51-10.14-4.53-13.23a14.85,14.85,0,0,0-11-4.62,14.53,14.53,0,0,0-10.94,4.63q-4.41,4.63-4.4,13.23t4.3,13.22A14.16,14.16,0,0,0,30.6,87.15,15.79,15.79,0,0,0,38.38,85.13Z"/><path d="M108.93,40.58A21.89,21.89,0,0,1,117,47.49V38.17h15.35l0,59.41c0,5.59-1.13,12.67-3.37,17.07a25.09,25.09,0,0,1-10.13,10.45Q112.11,129,102.54,129q-12.86,0-21.07-6a22.18,22.18,0,0,1-9.31-16.33H87.29a11.27,11.27,0,0,0,5.17,6.58,18,18,0,0,0,9.64,2.45,14.91,14.91,0,0,0,10.77-4c2.76-2.65,4.14-8.75,4.14-14.12V90.28a23.1,23.1,0,0,1-8.1,7.07,24.2,24.2,0,0,1-11.82,2.84,25.92,25.92,0,0,1-13.93-3.92,27.35,27.35,0,0,1-10-11,35.54,35.54,0,0,1-3.65-16.39,34.94,34.94,0,0,1,3.64-16.22,26.74,26.74,0,0,1,9.91-10.89,26.35,26.35,0,0,1,14-3.81A25.38,25.38,0,0,1,108.93,40.58Zm5.89,18.94a15.4,15.4,0,0,0-5.88-6.09,15.68,15.68,0,0,0-8-2.12,15.3,15.3,0,0,0-13.66,8.11,18.91,18.91,0,0,0-2.23,9.42,19.5,19.5,0,0,0,2.23,9.52,16,16,0,0,0,5.89,6.26A14.93,14.93,0,0,0,101,86.8a15.69,15.69,0,0,0,8-2.13,15.34,15.34,0,0,0,5.87-6.1A19.52,19.52,0,0,0,117,69.05,19.59,19.59,0,0,0,114.82,59.52Z"/><path d="M166.81,51.62V80.79q0,3.06,1.47,4.41t5,1.36h7.08V99.41h-9.58q-19.26,0-19.27-18.72V51.62h-8.3V38.39h8.3V23.2H166.8V38.38h13.5V51.62Z"/><path d="M209.53,38.37l0,61H194.3v-61Zm0-7.62V15.49H194.28V30.75Z"/><path d="M225.2,52.85A27.56,27.56,0,0,1,236.1,42a32.29,32.29,0,0,1,16-3.87q11.56,0,19.16,5.6A27.2,27.2,0,0,1,281.4,59.42h-17a12.06,12.06,0,0,0-4.56-6.15A13.5,13.5,0,0,0,252,51.05a13.14,13.14,0,0,0-10.68,4.74q-3.93,4.74-3.93,13.44t3.94,13.34A13.13,13.13,0,0,0,252,87.3q9.55,0,12.47-8.28h17a27.76,27.76,0,0,1-10.22,15.57q-7.65,5.77-19.11,5.78a32.45,32.45,0,0,1-16-3.86,27.71,27.71,0,0,1-10.9-10.89,32.88,32.88,0,0,1-3.94-16.38A33,33,0,0,1,225.2,52.85Z"/><path d="M144.84,116a3.52,3.52,0,0,1-1.35-1.33,3.77,3.77,0,0,1-.5-1.92,3.61,3.61,0,0,1,.5-1.91,3.47,3.47,0,0,1,1.34-1.32,3.75,3.75,0,0,1,1.87-.48,3.88,3.88,0,0,1,1.88.47,3.56,3.56,0,0,1,1.34,1.33,3.7,3.7,0,0,1,.49,1.91,3.76,3.76,0,0,1-.49,1.92,3.49,3.49,0,0,1-1.34,1.33,3.88,3.88,0,0,1-1.88.47A3.81,3.81,0,0,1,144.84,116Zm3.15-.89a2.35,2.35,0,0,0,.88-.94,3.06,3.06,0,0,0,.32-1.42,3,3,0,0,0-.32-1.41,2.2,2.2,0,0,0-.88-.93,2.43,2.43,0,0,0-1.29-.32,2.52,2.52,0,0,0-1.29.32,2.32,2.32,0,0,0-.88.93,3,3,0,0,0-.32,1.41,3.06,3.06,0,0,0,.32,1.42,2.25,2.25,0,0,0,.89.94,2.46,2.46,0,0,0,1.28.33A2.53,2.53,0,0,0,148,115.12Z"/><path d="M154,111.62h-1.07v4.79h-1.2v-4.79h-.68v-1h.68v-.41a1.8,1.8,0,0,1,.53-1.45,2.5,2.5,0,0,1,1.65-.45v1a1.15,1.15,0,0,0-.76.2.94.94,0,0,0-.22.71v.41H154Z"/><path d="M155.12,109.66a.76.76,0,1,1,.54.22A.7.7,0,0,1,155.12,109.66Zm1.12,1v5.76h-1.2v-5.76Z"/><path d="M157.78,112a2.51,2.51,0,0,1,1-1,2.81,2.81,0,0,1,1.46-.37,2.88,2.88,0,0,1,1.73.5,2.41,2.41,0,0,1,.92,1.41h-1.28a1.39,1.39,0,0,0-.5-.66,1.42,1.42,0,0,0-.87-.25,1.5,1.5,0,0,0-1.17.52,2.66,2.66,0,0,0,0,2.9,1.44,1.44,0,0,0,1.17.53,1.33,1.33,0,0,0,1.37-.91h1.29a2.59,2.59,0,0,1-1,1.39,2.74,2.74,0,0,1-1.71.52,2.81,2.81,0,0,1-1.46-.37,2.6,2.6,0,0,1-1-1,3.56,3.56,0,0,1,0-3.12Z"/><path d="M164.15,109.66a.72.72,0,0,1-.22-.54.74.74,0,0,1,.22-.55.76.76,0,0,1,.54-.22.75.75,0,0,1,.75.77.76.76,0,0,1-.21.54.73.73,0,0,1-.54.22A.72.72,0,0,1,164.15,109.66Zm1.13,1v5.76h-1.19v-5.76Z"/><path d="M171,110.83a2,2,0,0,1,.84.84,2.75,2.75,0,0,1,.31,1.33v3.4h-1.18v-3.22a1.64,1.64,0,0,0-.38-1.18,1.37,1.37,0,0,0-1.06-.42,1.39,1.39,0,0,0-1.06.42,1.65,1.65,0,0,0-.39,1.18v3.22h-1.19v-5.76H168v.66a1.83,1.83,0,0,1,.75-.55,2.23,2.23,0,0,1,1-.2A2.55,2.55,0,0,1,171,110.83Z"/><path d="M173.59,112a2.68,2.68,0,0,1,1-1,2.78,2.78,0,0,1,2.56-.11,2.35,2.35,0,0,1,.81.67v-.84h1.2v5.76H178v-.86a2.26,2.26,0,0,1-.83.68,2.61,2.61,0,0,1-2.55-.11,2.69,2.69,0,0,1-1-1.06,3.32,3.32,0,0,1-.37-1.55A3.21,3.21,0,0,1,173.59,112Zm4.11.52a1.66,1.66,0,0,0-.64-.67,1.72,1.72,0,0,0-2.36.66,2.06,2.06,0,0,0-.24,1,2.19,2.19,0,0,0,.24,1,1.81,1.81,0,0,0,.65.69,1.72,1.72,0,0,0,.85.23,1.7,1.7,0,0,0,.86-.23,1.66,1.66,0,0,0,.64-.67,2.08,2.08,0,0,0,.25-1A2,2,0,0,0,177.7,112.48Z"/><path d="M188.7,111.22a2,2,0,0,0-.79-.82,2.39,2.39,0,0,0-1.16-.27,2.46,2.46,0,0,0-1.28.32,2.25,2.25,0,0,0-.89.92,2.93,2.93,0,0,0-.32,1.38,3,3,0,0,0,.32,1.39,2.32,2.32,0,0,0,.89.92,2.46,2.46,0,0,0,1.28.32,2.28,2.28,0,0,0,1.58-.54,2.31,2.31,0,0,0,.74-1.47h-2.73v-1h4v.93a3.63,3.63,0,0,1-.6,1.56,3.67,3.67,0,0,1-1.27,1.14,3.57,3.57,0,0,1-1.73.42,3.85,3.85,0,0,1-1.87-.47,3.56,3.56,0,0,1-1.34-1.33,3.9,3.9,0,0,1,0-3.82,3.52,3.52,0,0,1,1.35-1.33,3.78,3.78,0,0,1,1.86-.47,3.83,3.83,0,0,1,2.07.57,3.26,3.26,0,0,1,1.31,1.61Z"/><path d="M196.74,110.63v5.77h-1.19v-.68a2.1,2.1,0,0,1-.74.56,2.44,2.44,0,0,1-1,.2,2.58,2.58,0,0,1-1.22-.28,2,2,0,0,1-.84-.84,2.66,2.66,0,0,1-.31-1.34v-3.38h1.18v3.21A1.65,1.65,0,0,0,193,115a1.31,1.31,0,0,0,1.05.41,1.36,1.36,0,0,0,1.06-.41,1.61,1.61,0,0,0,.39-1.19v-3.21Z"/><path d="M200.33,110.81a2.52,2.52,0,0,1,1.17-.27,2.68,2.68,0,0,1,1.38.36,2.73,2.73,0,0,1,1,1,3.61,3.61,0,0,1,0,3.1,2.74,2.74,0,0,1-1,1.07,2.75,2.75,0,0,1-2.56.12,2.3,2.3,0,0,1-.82-.67v.83h-1.19v-7.73h1.2v2.83A2.16,2.16,0,0,1,200.33,110.81Zm2.42,1.65a1.65,1.65,0,0,0-.65-.66,1.7,1.7,0,0,0-.86-.23,1.72,1.72,0,0,0-.85.23,1.82,1.82,0,0,0-.65.67,2.37,2.37,0,0,0,0,2.08,1.68,1.68,0,0,0,.65.67,1.62,1.62,0,0,0,.85.23,1.65,1.65,0,0,0,1.51-.92,2.08,2.08,0,0,0,.25-1A2,2,0,0,0,202.75,112.46Z"/><path d="M210.63,114h-4.4a1.57,1.57,0,0,0,.51,1.1,1.63,1.63,0,0,0,1.13.42,1.4,1.4,0,0,0,1.36-.8h1.29a2.62,2.62,0,0,1-1,1.3,2.77,2.77,0,0,1-1.7.51,3,3,0,0,1-1.48-.37,2.64,2.64,0,0,1-1-1.05,3.16,3.16,0,0,1-.37-1.56,3.31,3.31,0,0,1,.36-1.57,2.53,2.53,0,0,1,1-1,3.08,3.08,0,0,1,1.5-.36,3,3,0,0,1,1.45.35,2.53,2.53,0,0,1,1,1,3.08,3.08,0,0,1,.35,1.48A3.57,3.57,0,0,1,210.63,114Zm-1.2-1a1.37,1.37,0,0,0-.47-1,1.67,1.67,0,0,0-1.14-.4,1.54,1.54,0,0,0-1.06.39,1.7,1.7,0,0,0-.52,1.06Z"/><path d="M213.73,110.78a2.09,2.09,0,0,1,1-.24v1.23h-.3a1.47,1.47,0,0,0-1.06.35,1.72,1.72,0,0,0-.36,1.24v3h-1.2v-5.76H213v.84A1.93,1.93,0,0,1,213.73,110.78Z"/><path d="M220,110.82a1.92,1.92,0,0,1,.84.83,2.68,2.68,0,0,1,.31,1.34v3.4H220v-3.22a1.67,1.67,0,0,0-.39-1.19,1.4,1.4,0,0,0-1.06-.41,1.42,1.42,0,0,0-1.06.41,1.67,1.67,0,0,0-.39,1.19v3.22h-1.19v-5.76h1.19v.66a2,2,0,0,1,.75-.56,2.39,2.39,0,0,1,1-.2A2.56,2.56,0,0,1,220,110.82Z"/><path d="M222.61,111.94a2.62,2.62,0,0,1,2.35-1.41,2.49,2.49,0,0,1,1.19.27,2.44,2.44,0,0,1,.81.66v-.83h1.2v5.76H227v-.86a2.41,2.41,0,0,1-.82.68,2.59,2.59,0,0,1-1.2.27,2.55,2.55,0,0,1-1.35-.38,2.61,2.61,0,0,1-1-1.07,3.25,3.25,0,0,1-.36-1.55A3.21,3.21,0,0,1,222.61,111.94Zm4.1.53a1.68,1.68,0,0,0-1.5-.9,1.68,1.68,0,0,0-.85.22,1.72,1.72,0,0,0-.65.66,2.33,2.33,0,0,0,0,2.08,1.68,1.68,0,0,0,2.35.69,1.78,1.78,0,0,0,.65-.68,2.13,2.13,0,0,0,.24-1A2,2,0,0,0,226.71,112.47Z"/><path d="M237.92,110.81a2.08,2.08,0,0,1,.85.84,2.76,2.76,0,0,1,.31,1.34v3.39H237.9v-3.22a1.65,1.65,0,0,0-.39-1.18,1.37,1.37,0,0,0-1.06-.42,1.39,1.39,0,0,0-1.06.42,1.65,1.65,0,0,0-.39,1.18v3.22h-1.18v-3.22a1.65,1.65,0,0,0-.39-1.18,1.36,1.36,0,0,0-1.05-.41,1.4,1.4,0,0,0-1.07.41,1.66,1.66,0,0,0-.39,1.19v3.22h-1.19v-5.76h1.19v.66a2.05,2.05,0,0,1,.74-.55,2.4,2.4,0,0,1,1-.2,2.6,2.6,0,0,1,1.23.29,2.08,2.08,0,0,1,.84.85,1.85,1.85,0,0,1,.81-.83,2.38,2.38,0,0,1,1.19-.31A2.55,2.55,0,0,1,237.92,110.81Z"/><path d="M245.83,114h-4.4a1.61,1.61,0,0,0,.51,1.1,1.63,1.63,0,0,0,1.13.42,1.4,1.4,0,0,0,1.36-.8h1.29a2.62,2.62,0,0,1-.95,1.3,2.77,2.77,0,0,1-1.7.51,3,3,0,0,1-1.48-.37,2.71,2.71,0,0,1-1-1,3.16,3.16,0,0,1-.37-1.56,3.31,3.31,0,0,1,.36-1.57,2.53,2.53,0,0,1,1-1,3.08,3.08,0,0,1,1.5-.36,3,3,0,0,1,1.45.35,2.53,2.53,0,0,1,1,1,3.08,3.08,0,0,1,.35,1.48A3.57,3.57,0,0,1,245.83,114Zm-1.2-1a1.37,1.37,0,0,0-.47-1,1.67,1.67,0,0,0-1.14-.4,1.56,1.56,0,0,0-1.06.39,1.68,1.68,0,0,0-.52,1.06Z"/><path d="M251.17,110.81a2,2,0,0,1,.84.83,2.79,2.79,0,0,1,.3,1.34v3.4h-1.18v-3.22a1.67,1.67,0,0,0-.39-1.19,1.38,1.38,0,0,0-1.05-.41,1.4,1.4,0,0,0-1.06.41,1.67,1.67,0,0,0-.39,1.19v3.22H247v-5.76h1.19v.66a2,2,0,0,1,.74-.56,2.69,2.69,0,0,1,2.19.09Z"/><path d="M255.22,111.59v3.19a.61.61,0,0,0,.15.46.74.74,0,0,0,.52.14h.73v1h-.94a1.79,1.79,0,0,1-1.23-.38,1.53,1.53,0,0,1-.43-1.22v-3.19h-.68v-1H254v-1.43h1.2v1.43h1.4v1Z"/><path d="M257.68,111.93a2.62,2.62,0,0,1,2.36-1.41,2.45,2.45,0,0,1,1.18.27,2.59,2.59,0,0,1,.82.66v-.83h1.2v5.76H262v-.86a2.45,2.45,0,0,1-.83.68,2.68,2.68,0,0,1-2.55-.11,2.68,2.68,0,0,1-1-1.07,3.25,3.25,0,0,1-.36-1.55A3.21,3.21,0,0,1,257.68,111.93Zm4.11.53a1.66,1.66,0,0,0-.64-.67,1.63,1.63,0,0,0-.86-.23,1.72,1.72,0,0,0-.86.22,1.7,1.7,0,0,0-.64.66,2.09,2.09,0,0,0-.25,1,2.2,2.2,0,0,0,.25,1,1.71,1.71,0,0,0,.65.68,1.63,1.63,0,0,0,.85.24,1.73,1.73,0,0,0,.86-.23,1.75,1.75,0,0,0,.64-.68,2.16,2.16,0,0,0,.25-1A2.09,2.09,0,0,0,261.79,112.46Z"/><path d="M266,108.64v7.74h-1.19v-7.74Z"/><path d="M270.25,111.93a2.66,2.66,0,0,1,1-1,2.63,2.63,0,0,1,1.39-.37,2.78,2.78,0,0,1,1.11.24,2.36,2.36,0,0,1,.87.66v-2.78h1.2v7.73H274.6v-.86a2.32,2.32,0,0,1-.81.69,2.5,2.5,0,0,1-1.18.27,2.63,2.63,0,0,1-1.38-.38,2.74,2.74,0,0,1-1-1.07,3.28,3.28,0,0,1-.36-1.55A3.21,3.21,0,0,1,270.25,111.93Zm4.11.52a1.82,1.82,0,0,0-.65-.67,1.7,1.7,0,0,0-1.71,0,1.63,1.63,0,0,0-.64.66,2,2,0,0,0-.25,1,2.08,2.08,0,0,0,.25,1,1.73,1.73,0,0,0,.65.69,1.69,1.69,0,0,0,.85.23,1.6,1.6,0,0,0,.85-.23,1.75,1.75,0,0,0,.65-.67,2.19,2.19,0,0,0,.24-1A2.13,2.13,0,0,0,274.36,112.45Z"/><path d="M282.61,113.93h-4.4a1.57,1.57,0,0,0,.51,1.1,1.63,1.63,0,0,0,1.13.42,1.4,1.4,0,0,0,1.36-.8h1.29a2.62,2.62,0,0,1-.95,1.3,2.77,2.77,0,0,1-1.7.51,2.94,2.94,0,0,1-1.48-.38,2.55,2.55,0,0,1-1-1,3.16,3.16,0,0,1-.37-1.56,3.28,3.28,0,0,1,.36-1.57,2.53,2.53,0,0,1,1-1,3.05,3.05,0,0,1,1.5-.36,2.88,2.88,0,0,1,1.45.35,2.53,2.53,0,0,1,1,1,3.08,3.08,0,0,1,.35,1.48A3.37,3.37,0,0,1,282.61,113.93Zm-1.2-1a1.37,1.37,0,0,0-.47-1,1.67,1.67,0,0,0-1.14-.4,1.54,1.54,0,0,0-1.06.39,1.63,1.63,0,0,0-.52,1.06Z"/><path d="M291.23,109.1v1H289.3v6.3h-1.19v-6.29h-1.95v-1Z"/><path d="M297.68,113.93h-4.41a1.62,1.62,0,0,0,.52,1.11,1.6,1.6,0,0,0,1.13.42,1.4,1.4,0,0,0,1.36-.81h1.28a2.56,2.56,0,0,1-.94,1.3,2.79,2.79,0,0,1-1.7.51,2.9,2.9,0,0,1-1.48-.37,2.71,2.71,0,0,1-1-1,3.2,3.2,0,0,1-.37-1.57,3.27,3.27,0,0,1,.36-1.56,2.53,2.53,0,0,1,1-1,3,3,0,0,1,1.5-.37,2.93,2.93,0,0,1,1.46.36,2.51,2.51,0,0,1,1,1,2.94,2.94,0,0,1,.36,1.47A5,5,0,0,1,297.68,113.93Zm-1.21-1a1.34,1.34,0,0,0-.47-1.06,1.68,1.68,0,0,0-1.14-.39,1.52,1.52,0,0,0-1.05.39,1.62,1.62,0,0,0-.53,1.06Z"/><path d="M298.85,111.92a2.51,2.51,0,0,1,1-1,2.81,2.81,0,0,1,1.46-.37,2.86,2.86,0,0,1,1.73.5,2.42,2.42,0,0,1,.93,1.41h-1.29a1.36,1.36,0,0,0-.5-.67,1.49,1.49,0,0,0-.87-.24,1.46,1.46,0,0,0-1.16.52,2.61,2.61,0,0,0,0,2.9,1.44,1.44,0,0,0,1.16.53,1.33,1.33,0,0,0,1.37-.91H304a2.57,2.57,0,0,1-.94,1.39,2.75,2.75,0,0,1-1.72.52,2.83,2.83,0,0,1-1.46-.37,2.66,2.66,0,0,1-1-1,3.56,3.56,0,0,1,0-3.12Z"/><path d="M309.28,110.79a2.08,2.08,0,0,1,.85.84,2.75,2.75,0,0,1,.3,1.33v3.4h-1.18v-3.22a1.65,1.65,0,0,0-.39-1.18,1.36,1.36,0,0,0-1.05-.42,1.41,1.41,0,0,0-1.07.42,1.65,1.65,0,0,0-.39,1.18v3.22h-1.19V110.6h1.19v.66a2,2,0,0,1,.75-.55,2.28,2.28,0,0,1,1-.2A2.51,2.51,0,0,1,309.28,110.79Z"/><path d="M313,116.08a2.58,2.58,0,0,1-1-1,3.16,3.16,0,0,1-.38-1.56,3.06,3.06,0,0,1,.39-1.56,2.72,2.72,0,0,1,1.05-1,3.14,3.14,0,0,1,1.5-.36,3.07,3.07,0,0,1,1.49.36,2.68,2.68,0,0,1,1.06,1,3.15,3.15,0,0,1,.39,1.55A3.07,3.07,0,0,1,317,115a2.72,2.72,0,0,1-1.08,1,3.11,3.11,0,0,1-1.51.38A2.94,2.94,0,0,1,313,116.08Zm2.34-.88a1.72,1.72,0,0,0,.65-.66,2.08,2.08,0,0,0,.25-1.06,2.2,2.2,0,0,0-.24-1.07,1.67,1.67,0,0,0-.64-.65,1.68,1.68,0,0,0-.85-.22,1.8,1.8,0,0,0-.86.22,1.59,1.59,0,0,0-.62.66,2.25,2.25,0,0,0-.23,1.06,2,2,0,0,0,.48,1.43,1.56,1.56,0,0,0,1.2.51A1.75,1.75,0,0,0,315.31,115.2Z"/><path d="M319.81,108.62v7.74h-1.19v-7.74Z"/><path d="M322.4,116.08a2.64,2.64,0,0,1-1-1,3.17,3.17,0,0,1-.38-1.57,3.05,3.05,0,0,1,.39-1.55,2.59,2.59,0,0,1,1.05-1,3.14,3.14,0,0,1,1.5-.37,3.08,3.08,0,0,1,1.49.37,2.65,2.65,0,0,1,1.06,1,3.11,3.11,0,0,1,.38,1.56,3.06,3.06,0,0,1-.39,1.56,2.86,2.86,0,0,1-1.08,1,3.1,3.1,0,0,1-1.51.37A2.93,2.93,0,0,1,322.4,116.08Zm2.34-.88a1.72,1.72,0,0,0,.65-.66,2.09,2.09,0,0,0,.25-1.07,2.16,2.16,0,0,0-.24-1.06,1.54,1.54,0,0,0-.64-.65,1.77,1.77,0,0,0-1.71,0,1.5,1.5,0,0,0-.62.65,2.3,2.3,0,0,0-.23,1.06,2,2,0,0,0,.48,1.44,1.56,1.56,0,0,0,1.2.51A1.86,1.86,0,0,0,324.74,115.2Z"/><path d="M331.55,110.77a2.26,2.26,0,0,1,.81.66v-.83h1.21v5.85a2.9,2.9,0,0,1-.34,1.42,2.36,2.36,0,0,1-1,1,3,3,0,0,1-1.51.36,3.26,3.26,0,0,1-1.95-.55,2,2,0,0,1-.88-1.49h1.18a1.33,1.33,0,0,0,.58.73,2,2,0,0,0,1.07.28,1.59,1.59,0,0,0,1.16-.44,1.68,1.68,0,0,0,.44-1.28v-1a2.32,2.32,0,0,1-.82.68,2.36,2.36,0,0,1-1.17.28A2.6,2.6,0,0,1,328,115a3.25,3.25,0,0,1-.36-1.55,3.21,3.21,0,0,1,.36-1.54,2.62,2.62,0,0,1,2.36-1.41A2.5,2.5,0,0,1,331.55,110.77Zm.57,1.67a1.68,1.68,0,0,0-.65-.67,1.6,1.6,0,0,0-.85-.23,1.66,1.66,0,0,0-1.5.88,2,2,0,0,0-.25,1,2.09,2.09,0,0,0,.25,1,1.71,1.71,0,0,0,.65.68,1.61,1.61,0,0,0,.85.24,1.73,1.73,0,0,0,.86-.23,1.83,1.83,0,0,0,.64-.68,2.16,2.16,0,0,0,.24-1A2.09,2.09,0,0,0,332.12,112.44Z"/><path d="M336.81,109.05l-2.31,1.14v-.88l2.31-1.28Zm-.48,1.54v5.77h-1.19v-5.77Z"/><path d="M337.86,111.91a2.65,2.65,0,0,1,1-1,2.58,2.58,0,0,1,1.37-.37,2.49,2.49,0,0,1,1.19.27,2.22,2.22,0,0,1,.81.66v-.84h1.2v5.76h-1.21v-.85a2.43,2.43,0,0,1-.82.68,2.68,2.68,0,0,1-2.55-.11,2.67,2.67,0,0,1-1-1.07,3.28,3.28,0,0,1-.36-1.55A3.21,3.21,0,0,1,337.86,111.91Zm4.11.52a1.82,1.82,0,0,0-.65-.67,1.7,1.7,0,0,0-1.71,0,1.63,1.63,0,0,0-.64.66,2,2,0,0,0-.25,1,2.05,2.05,0,0,0,.25,1,1.78,1.78,0,0,0,.64.69,1.76,1.76,0,0,0,.86.23,1.6,1.6,0,0,0,.85-.23,1.75,1.75,0,0,0,.65-.67,2.37,2.37,0,0,0,0-2.08Z"/><path d="M345.86,116.2a2.15,2.15,0,0,1-.86-.67,1.63,1.63,0,0,1-.33-.94h1.23a.86.86,0,0,0,.35.61,1.56,1.56,0,0,0,1.58,0,.58.58,0,0,0,.28-.5.51.51,0,0,0-.31-.48,5.84,5.84,0,0,0-1-.34,9.83,9.83,0,0,1-1.05-.35,1.79,1.79,0,0,1-.71-.51,1.33,1.33,0,0,1-.3-.91,1.4,1.4,0,0,1,.27-.84,1.76,1.76,0,0,1,.78-.6,2.87,2.87,0,0,1,1.17-.22,2.41,2.41,0,0,1,1.58.49,1.81,1.81,0,0,1,.65,1.36H348a.83.83,0,0,0-.31-.62,1.44,1.44,0,0,0-1.48,0,.55.55,0,0,0-.26.47.54.54,0,0,0,.17.39,1.27,1.27,0,0,0,.41.24c.16.06.4.14.71.23a6.89,6.89,0,0,1,1,.34,1.92,1.92,0,0,1,.7.5,1.4,1.4,0,0,1,.3.89,1.5,1.5,0,0,1-.27.88,1.82,1.82,0,0,1-.77.61,3,3,0,0,1-1.17.22A2.94,2.94,0,0,1,345.86,116.2Z"/><path d="M143.36,124.3a2.62,2.62,0,0,1,2.37-1.41,2.6,2.6,0,0,1,1.11.25,2.28,2.28,0,0,1,.88.65V121h1.21v7.74h-1.2v-.87a2.29,2.29,0,0,1-.81.69,2.54,2.54,0,0,1-1.19.27,2.6,2.6,0,0,1-2.36-1.45,3.25,3.25,0,0,1-.36-1.55A3.21,3.21,0,0,1,143.36,124.3Zm4.11.53a1.66,1.66,0,0,0-.64-.67,1.63,1.63,0,0,0-.86-.23,1.72,1.72,0,0,0-.86.22,1.7,1.7,0,0,0-.64.66,2.09,2.09,0,0,0-.25,1,2.2,2.2,0,0,0,.25,1,1.71,1.71,0,0,0,.65.68,1.63,1.63,0,0,0,.85.24,1.73,1.73,0,0,0,.86-.23,1.75,1.75,0,0,0,.64-.68,2.16,2.16,0,0,0,.25-1A2.09,2.09,0,0,0,147.47,124.83Z"/><path d="M155.93,126.31h-4.4a1.65,1.65,0,0,0,.51,1.11,1.58,1.58,0,0,0,1.13.41,1.38,1.38,0,0,0,1.36-.8h1.29a2.62,2.62,0,0,1-.95,1.3,2.75,2.75,0,0,1-1.7.51,2.93,2.93,0,0,1-1.48-.37,2.71,2.71,0,0,1-1-1,3.16,3.16,0,0,1-.37-1.56,3.27,3.27,0,0,1,.36-1.56,2.53,2.53,0,0,1,1-1,3,3,0,0,1,1.5-.37,3,3,0,0,1,1.46.35,2.57,2.57,0,0,1,1,1,3,3,0,0,1,.35,1.48A3.57,3.57,0,0,1,155.93,126.31Zm-1.2-1a1.37,1.37,0,0,0-.47-1.06,1.72,1.72,0,0,0-1.14-.4,1.52,1.52,0,0,0-1.06.4,1.65,1.65,0,0,0-.52,1.06Z"/><path d="M161.47,121v7.73h-1.19V121Z"/><path d="M163.21,124.3a2.61,2.61,0,0,1,1-1,2.58,2.58,0,0,1,1.37-.37,2.51,2.51,0,0,1,1.19.26,2.35,2.35,0,0,1,.81.67V123h1.2v5.76h-1.2v-.86a2.26,2.26,0,0,1-.83.68,2.64,2.64,0,0,1-1.19.28,2.5,2.5,0,0,1-1.36-.39,2.69,2.69,0,0,1-1-1.06,3.45,3.45,0,0,1,0-3.09Zm4.11.52a1.68,1.68,0,0,0-1.5-.9,1.69,1.69,0,0,0-.85.23,1.76,1.76,0,0,0-.65.65,2.13,2.13,0,0,0-.24,1,2.19,2.19,0,0,0,.24,1,1.71,1.71,0,0,0,.65.68,1.63,1.63,0,0,0,.85.24,1.7,1.7,0,0,0,.86-.23,1.66,1.66,0,0,0,.64-.67,2.09,2.09,0,0,0,.25-1.05A2,2,0,0,0,167.32,124.82Z"/><path d="M174.67,121.47v7.27h-1.19v-7.27Z"/><path d="M180.57,123.16a2,2,0,0,1,.84.84,2.79,2.79,0,0,1,.3,1.34v3.4h-1.18v-3.22a1.72,1.72,0,0,0-.38-1.19,1.36,1.36,0,0,0-1.06-.41,1.4,1.4,0,0,0-1.06.41,1.67,1.67,0,0,0-.39,1.19v3.22h-1.19V123h1.2v.66a1.89,1.89,0,0,1,.74-.56,2.48,2.48,0,0,1,1-.2A2.71,2.71,0,0,1,180.57,123.16Z"/><path d="M185.85,124h-1.06v4.79h-1.2V124h-.67v-1h.67v-.4a1.82,1.82,0,0,1,.53-1.45,2.53,2.53,0,0,1,1.66-.46v1a1.14,1.14,0,0,0-.76.2.93.93,0,0,0-.22.71v.4h1.06Z"/><path d="M188.14,128.46a2.67,2.67,0,0,1-1-1.05,3.16,3.16,0,0,1-.38-1.56,3.06,3.06,0,0,1,.39-1.56,2.69,2.69,0,0,1,1-1,3,3,0,0,1,1.5-.37,3.07,3.07,0,0,1,1.49.36,2.74,2.74,0,0,1,1.06,1.05,3.06,3.06,0,0,1,.39,1.56,3,3,0,0,1-.4,1.56,2.73,2.73,0,0,1-1.08,1.05,3.21,3.21,0,0,1-1.51.37A3,3,0,0,1,188.14,128.46Zm2.34-.89a1.53,1.53,0,0,0,.65-.66,2.05,2.05,0,0,0,.25-1.06,2.16,2.16,0,0,0-.24-1.06,1.67,1.67,0,0,0-.63-.66,1.86,1.86,0,0,0-.86-.22,1.76,1.76,0,0,0-.85.22,1.61,1.61,0,0,0-.63.66,2.27,2.27,0,0,0-.23,1.06,2,2,0,0,0,.48,1.44,1.61,1.61,0,0,0,1.2.5A1.75,1.75,0,0,0,190.48,127.57Z"/><path d="M195.88,123.12a2.12,2.12,0,0,1,1-.24v1.23h-.3a1.43,1.43,0,0,0-1.06.36,1.69,1.69,0,0,0-.36,1.23v3H194V123h1.19v.84A1.9,1.9,0,0,1,195.88,123.12Z"/><path d="M206.41,123.16a2,2,0,0,1,.85.83,2.79,2.79,0,0,1,.31,1.34v3.4h-1.18v-3.22a1.67,1.67,0,0,0-.39-1.19,1.4,1.4,0,0,0-1.06-.41,1.42,1.42,0,0,0-1.06.41,1.67,1.67,0,0,0-.39,1.19v3.22h-1.18v-3.22a1.67,1.67,0,0,0-.39-1.19,1.39,1.39,0,0,0-1-.41,1.44,1.44,0,0,0-1.07.41,1.69,1.69,0,0,0-.39,1.19v3.22h-1.19V123h1.19v.66a2.08,2.08,0,0,1,.74-.56,2.4,2.4,0,0,1,1-.19,2.48,2.48,0,0,1,1.23.29,2,2,0,0,1,.84.85,1.93,1.93,0,0,1,.81-.84,2.48,2.48,0,0,1,1.19-.31A2.56,2.56,0,0,1,206.41,123.16Z"/><path d="M209.26,124.29a2.62,2.62,0,0,1,1-1.05,2.68,2.68,0,0,1,1.37-.37,2.49,2.49,0,0,1,1.19.27,2.44,2.44,0,0,1,.81.66V123h1.2v5.76h-1.2v-.86a2.41,2.41,0,0,1-.82.68,2.7,2.7,0,0,1-2.56-.11,2.65,2.65,0,0,1-1-1.07,3.25,3.25,0,0,1-.36-1.55A3.14,3.14,0,0,1,209.26,124.29Zm4.1.52a1.68,1.68,0,0,0-1.5-.9,1.68,1.68,0,0,0-.85.22,1.72,1.72,0,0,0-.65.66,2.09,2.09,0,0,0-.24,1,2.2,2.2,0,0,0,.24,1.05,1.78,1.78,0,0,0,.65.68,1.67,1.67,0,0,0,.86.24,1.69,1.69,0,0,0,.85-.23,1.78,1.78,0,0,0,.65-.68,2.13,2.13,0,0,0,.24-1A2,2,0,0,0,213.36,124.81Z"/><path d="M216.55,124.28a2.57,2.57,0,0,1,1-1,2.83,2.83,0,0,1,1.46-.37,2.86,2.86,0,0,1,1.73.5,2.42,2.42,0,0,1,.93,1.41h-1.29a1.4,1.4,0,0,0-.5-.67,1.61,1.61,0,0,0-2,.28,2.66,2.66,0,0,0,0,2.9,1.44,1.44,0,0,0,1.17.53,1.34,1.34,0,0,0,1.37-.91h1.28a2.57,2.57,0,0,1-.94,1.39,2.74,2.74,0,0,1-1.71.52,2.87,2.87,0,0,1-1.47-.37,2.66,2.66,0,0,1-1-1,3.56,3.56,0,0,1,0-3.12Z"/><path d="M223.13,122a.77.77,0,0,1,.55-1.31.75.75,0,0,1,.53.22.79.79,0,0,1,0,1.09.71.71,0,0,1-.53.22A.74.74,0,0,1,223.13,122Zm1.13,1v5.76h-1.19V123Z"/><path d="M227.07,128.45a2.69,2.69,0,0,1-1-1,3.16,3.16,0,0,1-.38-1.56,3.06,3.06,0,0,1,.39-1.56,2.74,2.74,0,0,1,1.06-1,3.07,3.07,0,0,1,1.49-.36,3.14,3.14,0,0,1,1.5.36,2.79,2.79,0,0,1,1,1,3.06,3.06,0,0,1,.39,1.56,3,3,0,0,1-.4,1.55,2.69,2.69,0,0,1-1.08,1.06,3.21,3.21,0,0,1-1.51.37A3,3,0,0,1,227.07,128.45Zm2.33-.89a1.61,1.61,0,0,0,.66-.66,2.19,2.19,0,0,0,.25-1.06,2.13,2.13,0,0,0-.24-1.06,1.7,1.7,0,0,0-.64-.66,1.83,1.83,0,0,0-.86-.22,1.76,1.76,0,0,0-.85.22,1.59,1.59,0,0,0-.62.66,2.16,2.16,0,0,0-.23,1.06,2.06,2.06,0,0,0,.47,1.44,1.61,1.61,0,0,0,1.2.5A1.72,1.72,0,0,0,229.4,127.56Zm.27-6.24-2.31,1.14v-.88l2.31-1.27Z"/><path d="M237,123.15a2.06,2.06,0,0,1,.85.83,2.79,2.79,0,0,1,.3,1.34v3.4H237V125.5a1.67,1.67,0,0,0-.39-1.19,1.4,1.4,0,0,0-1.06-.41,1.42,1.42,0,0,0-1.06.41,1.69,1.69,0,0,0-.39,1.19v3.22h-1.19V123h1.19v.66a2.11,2.11,0,0,1,.75-.56,2.4,2.4,0,0,1,1-.19A2.54,2.54,0,0,1,237,123.15Z"/><path d="M248,123l-3.54,8.47h-1.23l1.17-2.81L242.16,123h1.33l1.62,4.39,1.68-4.39Z"/><path d="M252.16,123.15a3.56,3.56,0,0,1,1.35-1.32,3.95,3.95,0,0,1,3.93.09,3.25,3.25,0,0,1,1.31,1.62h-1.43a2,2,0,0,0-.78-.86,2.34,2.34,0,0,0-1.16-.28,2.6,2.6,0,0,0-1.29.32,2.22,2.22,0,0,0-.88.94,2.88,2.88,0,0,0-.32,1.41,2.93,2.93,0,0,0,.32,1.41,2.26,2.26,0,0,0,.88.93,2.53,2.53,0,0,0,1.29.33,2.32,2.32,0,0,0,1.16-.28,1.93,1.93,0,0,0,.78-.86h1.43a3.18,3.18,0,0,1-1.31,1.61,3.78,3.78,0,0,1-2.06.57,3.69,3.69,0,0,1-1.87-.48,3.49,3.49,0,0,1-1.35-1.32,3.92,3.92,0,0,1,0-3.83Z"/><path d="M261.38,128.44a2.69,2.69,0,0,1-1-1,3.16,3.16,0,0,1-.37-1.56,3.06,3.06,0,0,1,.38-1.56,2.74,2.74,0,0,1,1.06-1,3.07,3.07,0,0,1,1.49-.36,3.14,3.14,0,0,1,1.5.36,2.72,2.72,0,0,1,1.05,1,3.3,3.3,0,0,1,0,3.11,2.78,2.78,0,0,1-1.09,1.06,3.18,3.18,0,0,1-1.51.37A3,3,0,0,1,261.38,128.44Zm2.33-.89a1.61,1.61,0,0,0,.66-.66,2.08,2.08,0,0,0,.25-1.06,2.13,2.13,0,0,0-.24-1.06,1.7,1.7,0,0,0-.64-.66,1.83,1.83,0,0,0-.86-.22,1.79,1.79,0,0,0-.85.22,1.59,1.59,0,0,0-.62.66,2.27,2.27,0,0,0-.23,1.06,2.06,2.06,0,0,0,.47,1.44,1.61,1.61,0,0,0,1.2.5A1.69,1.69,0,0,0,263.71,127.55Z"/><path d="M275.42,123.14a2,2,0,0,1,.85.83,2.79,2.79,0,0,1,.31,1.34v3.4H275.4v-3.22a1.67,1.67,0,0,0-.39-1.19,1.4,1.4,0,0,0-1.06-.41,1.42,1.42,0,0,0-1.06.41,1.67,1.67,0,0,0-.39,1.19v3.22h-1.18v-3.22a1.67,1.67,0,0,0-.39-1.19,1.56,1.56,0,0,0-2.11,0,1.65,1.65,0,0,0-.4,1.19v3.22h-1.19V123h1.19v.66a2.11,2.11,0,0,1,.75-.56,2.35,2.35,0,0,1,1-.19,2.48,2.48,0,0,1,1.23.29,2,2,0,0,1,.84.85,1.93,1.93,0,0,1,.81-.84,2.48,2.48,0,0,1,1.19-.31A2.56,2.56,0,0,1,275.42,123.14Z"/><path d="M283.52,123v5.76h-1.19V128a2,2,0,0,1-.74.56,2.39,2.39,0,0,1-1,.2,2.55,2.55,0,0,1-1.22-.28,2.08,2.08,0,0,1-.85-.84,2.64,2.64,0,0,1-.31-1.33V123h1.18v3.21a1.65,1.65,0,0,0,.39,1.18,1.37,1.37,0,0,0,1.06.42,1.39,1.39,0,0,0,1.06-.42,1.65,1.65,0,0,0,.39-1.18V123Z"/><path d="M289.42,123.13a2,2,0,0,1,.84.84,2.66,2.66,0,0,1,.31,1.34v3.39h-1.18v-3.22a1.66,1.66,0,0,0-.39-1.19,1.36,1.36,0,0,0-1.06-.41,1.38,1.38,0,0,0-1.06.41,1.66,1.66,0,0,0-.39,1.19v3.22H285.3V123h1.19v.65a1.93,1.93,0,0,1,.75-.55,2.39,2.39,0,0,1,1-.2A2.55,2.55,0,0,1,289.42,123.13Z"/><path d="M292.35,122a.77.77,0,0,1,.55-1.31.75.75,0,0,1,.53.22.79.79,0,0,1,0,1.09.71.71,0,0,1-.53.22A.74.74,0,0,1,292.35,122Zm1.13,1v5.76h-1.19v-5.76Z"/><path d="M295.22,124.25a2.7,2.7,0,0,1,1-1,2.94,2.94,0,0,1,1.47-.36,2.9,2.9,0,0,1,1.73.49,2.52,2.52,0,0,1,.92,1.42h-1.28a1.44,1.44,0,0,0-.51-.67,1.48,1.48,0,0,0-.86-.24,1.44,1.44,0,0,0-1.17.52,2.66,2.66,0,0,0,0,2.9,1.44,1.44,0,0,0,1.17.52,1.32,1.32,0,0,0,1.37-.91h1.28a2.55,2.55,0,0,1-.94,1.4,2.8,2.8,0,0,1-1.71.52,3,3,0,0,1-1.47-.37,2.73,2.73,0,0,1-1-1.05,3.27,3.27,0,0,1-.36-1.56A3.31,3.31,0,0,1,295.22,124.25Z"/><path d="M301.71,124.26a2.62,2.62,0,0,1,2.35-1.41,2.49,2.49,0,0,1,1.19.26,2.35,2.35,0,0,1,.81.67v-.84h1.2v5.76h-1.2v-.86a2.3,2.3,0,0,1-.82.68,2.59,2.59,0,0,1-1.2.27,2.44,2.44,0,0,1-1.36-.38,2.69,2.69,0,0,1-1-1.06,3.31,3.31,0,0,1-.36-1.55A3.18,3.18,0,0,1,301.71,124.26Zm4.1.52a1.66,1.66,0,0,0-.64-.67,1.72,1.72,0,0,0-2.36.66,2.05,2.05,0,0,0-.24,1,2.2,2.2,0,0,0,.24,1,1.71,1.71,0,0,0,.65.68,1.67,1.67,0,0,0,.86.24,1.69,1.69,0,0,0,.85-.23,1.75,1.75,0,0,0,.65-.67,2.2,2.2,0,0,0,.24-1A2,2,0,0,0,305.81,124.78Z"/><path d="M309,124.25a2.57,2.57,0,0,1,1-1,2.93,2.93,0,0,1,1.46-.37,2.86,2.86,0,0,1,1.73.5,2.42,2.42,0,0,1,.93,1.42h-1.29a1.31,1.31,0,0,0-.5-.67,1.48,1.48,0,0,0-.86-.24,1.44,1.44,0,0,0-1.17.52,2.15,2.15,0,0,0-.43,1.44,2.23,2.23,0,0,0,.43,1.46,1.44,1.44,0,0,0,1.17.52,1.32,1.32,0,0,0,1.37-.91h1.28a2.57,2.57,0,0,1-.94,1.39,2.74,2.74,0,0,1-1.71.52,2.87,2.87,0,0,1-1.47-.37,2.57,2.57,0,0,1-1-1,3.58,3.58,0,0,1,0-3.13Z"/><path d="M315.58,122a.76.76,0,0,1,.55-1.3.71.71,0,0,1,.53.22.77.77,0,0,1,0,1.08.71.71,0,0,1-.53.22A.74.74,0,0,1,315.58,122Zm1.13,1v5.76h-1.19v-5.76Z"/><path d="M319.52,128.42a2.69,2.69,0,0,1-1-1,3.16,3.16,0,0,1-.38-1.56,3.11,3.11,0,0,1,.39-1.56,2.65,2.65,0,0,1,1.06-1,3,3,0,0,1,1.49-.37,3,3,0,0,1,1.5.37,2.69,2.69,0,0,1,1,1,3.09,3.09,0,0,1,.39,1.56,3,3,0,0,1-.4,1.56,2.73,2.73,0,0,1-1.08,1,3.1,3.1,0,0,1-1.51.37A2.92,2.92,0,0,1,319.52,128.42Zm2.33-.88a1.74,1.74,0,0,0,.66-.66,2.23,2.23,0,0,0,.25-1.07,2.16,2.16,0,0,0-.24-1.06,1.6,1.6,0,0,0-.64-.65,1.72,1.72,0,0,0-.86-.22,1.66,1.66,0,0,0-.85.22,1.5,1.5,0,0,0-.62.65,2.16,2.16,0,0,0-.23,1.06,2.06,2.06,0,0,0,.47,1.44,1.58,1.58,0,0,0,1.2.51A2,2,0,0,0,321.85,127.54Zm.27-6.25-2.31,1.14v-.87l2.31-1.28Z"/><path d="M329.49,123.12a2.08,2.08,0,0,1,.85.84,2.76,2.76,0,0,1,.3,1.34v3.39h-1.18v-3.22a1.65,1.65,0,0,0-.39-1.18,1.37,1.37,0,0,0-1.06-.42,1.39,1.39,0,0,0-1.06.42,1.65,1.65,0,0,0-.39,1.18v3.22h-1.19v-5.76h1.19v.66a2.09,2.09,0,0,1,.75-.55,2.4,2.4,0,0,1,1-.2A2.54,2.54,0,0,1,329.49,123.12Z"/><polygon class="cls-1" points="305.72 0 321.52 0 313.62 13.68 305.72 27.36 297.82 13.68 289.92 0 305.72 0"/><polygon class="cls-2" points="350 49.97 305.72 27.36 317.81 49.97 317.81 49.97 317.81 49.97 350 49.97"/><polygon class="cls-3" points="321.52 0 305.72 27.36 350 49.97 321.52 0"/><polygon class="cls-4" points="305.72 99.95 321.52 99.95 313.62 86.27 305.72 72.59 297.82 86.27 289.92 99.95 305.72 99.95"/><polygon class="cls-5" points="350 49.97 305.72 72.59 317.81 49.97 317.81 49.97 317.81 49.97 350 49.97"/><polygon class="cls-6" points="321.52 99.95 305.72 72.59 350 49.97 321.52 99.95"/></g></g></svg>