<svg xmlns="http://www.w3.org/2000/svg" width="191.075" height="49" viewBox="0 0 191.075 49">
  <g id="Group_4225" data-name="Group 4225" transform="translate(-3901 233.5)">
    <g id="Group_4000" data-name="Group 4000" transform="translate(3852 -239)">
      <g id="gob-icon" transform="translate(49 11)">
        <path id="Path_1" data-name="Path 1" d="M18.02,1.649V1.313h.688V.875h-.283v.277H18.02V.427h.067V0h-.3V.427h.067v.726h-.405V.875H17.17v.439h.688v.335a2.369,2.369,0,0,0-2.268,2.417h4.691A2.371,2.371,0,0,0,18.02,1.649Z" transform="translate(-1.834)" fill="#fff"/>
        <path id="Path_2" data-name="Path 2" d="M14.874,5.458h5.915a.092.092,0,0,0,.092-.092V5.015a.092.092,0,0,0-.092-.092H14.874a.092.092,0,0,0-.092.092v.352A.091.091,0,0,0,14.874,5.458Z" transform="translate(-1.739 -0.579)" fill="#fff"/>
        <path id="Path_3" data-name="Path 3" d="M14.874,10.535h5.915a.092.092,0,0,0,.092-.092v-.352A.092.092,0,0,0,20.788,10H14.874a.092.092,0,0,0-.092.092v.352A.091.091,0,0,0,14.874,10.535Z" transform="translate(-1.739 -1.177)" fill="#fff"/>
        <path id="Path_4" data-name="Path 4" d="M16.076,5.825A.172.172,0,0,0,15.9,6V9.076a.172.172,0,0,0,.172.172h.713a.172.172,0,0,0,.172-.172V6a.172.172,0,0,0-.172-.172Z" transform="translate(-1.871 -0.685)" fill="#fff"/>
        <path id="Path_5" data-name="Path 5" d="M17.81,5.825A.172.172,0,0,0,17.638,6V9.076a.172.172,0,0,0,.172.172h.713a.172.172,0,0,0,.172-.172V6a.172.172,0,0,0-.172-.172Z" transform="translate(-2.075 -0.685)" fill="#fff"/>
        <path id="Path_6" data-name="Path 6" d="M19.519,5.825A.172.172,0,0,0,19.347,6V9.076a.172.172,0,0,0,.172.172h.713a.172.172,0,0,0,.172-.172V6a.172.172,0,0,0-.172-.172Z" transform="translate(-2.276 -0.685)" fill="#fff"/>
        <path id="Path_7" data-name="Path 7" d="M4,21.929a18.112,18.112,0,0,1,3.033-6.79A16.472,16.472,0,0,1,11.4,11.1,15.894,15.894,0,0,0,4.587,16a16.093,16.093,0,0,0-3.478,9.767H3.391A22.1,22.1,0,0,1,4,21.929Z" transform="translate(-0.131 -1.306)" fill="#fff"/>
        <path id="Path_8" data-name="Path 8" d="M28.12,15.14a18.107,18.107,0,0,1,3.033,6.79,22.093,22.093,0,0,1,.612,3.84h2.282A16.1,16.1,0,0,0,30.569,16a15.891,15.891,0,0,0-6.818-4.9A16.461,16.461,0,0,1,28.12,15.14Z" transform="translate(-2.794 -1.307)" fill="#fff"/>
        <path id="Path_9" data-name="Path 9" d="M14,11.736a14.825,14.825,0,0,0-3.562,2.449C6,18.316,5.486,24,5.4,25.844H9.349a21.852,21.852,0,0,1,2-9.851A21.239,21.239,0,0,1,14,11.736Z" transform="translate(-0.635 -1.381)" fill="#fff"/>
        <path id="Path_10" data-name="Path 10" d="M29.89,25.844c-.088-1.841-.6-7.527-5.037-11.659a14.825,14.825,0,0,0-3.562-2.449,21.257,21.257,0,0,1,2.643,4.257,21.853,21.853,0,0,1,2,9.851Z" transform="translate(-2.505 -1.381)" fill="#fff"/>
        <path id="Path_11" data-name="Path 11" d="M16.727,25.844V11.736a19.314,19.314,0,0,0-3.446,5.2,19.564,19.564,0,0,0-1.674,8.9Z" transform="translate(-1.363 -1.381)" fill="#fff"/>
        <path id="Path_12" data-name="Path 12" d="M19.1,11.736V25.844h5.12a19.564,19.564,0,0,0-1.674-8.9A19.345,19.345,0,0,0,19.1,11.736Z" transform="translate(-2.247 -1.381)" fill="#fff"/>
        <path id="Path_13" data-name="Path 13" d="M29,28.925v-.478a.183.183,0,0,0-.183-.183h-1.3a.183.183,0,0,0-.183.183v.478h-3.8v-.478a.183.183,0,0,0-.182-.183h-1.3a.183.183,0,0,0-.183.183v.478H16.9v-.478a.183.183,0,0,0-.183-.183h-1.3a.183.183,0,0,0-.183.183v.478h-4.92v-.478a.183.183,0,0,0-.183-.183h-1.3a.183.183,0,0,0-.183.183v.478H4.841v-.478a.183.183,0,0,0-.183-.183H3.36a.183.183,0,0,0-.183.183v.478H0V29.5H32.139v-.572Z" transform="translate(0 -3.325)" fill="#fff"/>
        <path id="Path_14" data-name="Path 14" d="M5.063,31.8a.2.2,0,0,0,.2-.2V30.078H3.6V31.6a.2.2,0,0,0,.2.2Z" transform="translate(-0.423 -3.539)" fill="#fff"/>
        <path id="Path_15" data-name="Path 15" d="M11.27,31.8a.2.2,0,0,0,.2-.2V30.078H9.807V31.6a.2.2,0,0,0,.2.2Z" transform="translate(-1.154 -3.539)" fill="#fff"/>
        <path id="Path_16" data-name="Path 16" d="M18.732,31.8a.2.2,0,0,0,.2-.2V30.078H17.269V31.6a.2.2,0,0,0,.2.2Z" transform="translate(-2.032 -3.539)" fill="#fff"/>
        <path id="Path_17" data-name="Path 17" d="M26.255,31.8a.2.2,0,0,0,.2-.2V30.078H24.791V31.6a.2.2,0,0,0,.2.2Z" transform="translate(-2.917 -3.539)" fill="#fff"/>
        <path id="Path_18" data-name="Path 18" d="M32.448,31.8a.2.2,0,0,0,.2-.2V30.078H30.984V31.6a.2.2,0,0,0,.2.2Z" transform="translate(-3.645 -3.539)" fill="#fff"/>
        <path id="Path_19" data-name="Path 19" d="M31.92,32.577H.216A.216.216,0,0,0,0,32.793v.824a.216.216,0,0,0,.216.216h31.7a.216.216,0,0,0,.216-.216v-.824A.215.215,0,0,0,31.92,32.577Z" transform="translate(0 -3.833)" fill="#fff"/>
      </g>
      <line id="Line_90" data-name="Line 90" y2="49" transform="translate(92.5 5.5)" fill="none" stroke="#fff" stroke-width="1" opacity="0.43"/>
    </g>
    <path id="Path_2970" data-name="Path 2970" d="M8.415-7.32a3.148,3.148,0,0,1-.375,1.5,2.81,2.81,0,0,1-1.2,1.148,4.454,4.454,0,0,1-2.115.443H2.835V0H1.125V-10.425h3.6a4.545,4.545,0,0,1,2.033.412A2.868,2.868,0,0,1,8-8.895,3.061,3.061,0,0,1,8.415-7.32Zm-3.69,1.7A2.085,2.085,0,0,0,6.18-6.068,1.618,1.618,0,0,0,6.66-7.32q0-1.71-1.935-1.71H2.835v3.4Zm8.91,5.76A4.233,4.233,0,0,1,11.52-.4a3.825,3.825,0,0,1-1.485-1.5,4.525,4.525,0,0,1-.54-2.242,4.438,4.438,0,0,1,.555-2.235,3.833,3.833,0,0,1,1.515-1.5A4.4,4.4,0,0,1,13.71-8.4a4.4,4.4,0,0,1,2.145.525,3.834,3.834,0,0,1,1.515,1.5,4.438,4.438,0,0,1,.555,2.235,4.346,4.346,0,0,1-.57,2.235A3.947,3.947,0,0,1,15.8-.4,4.475,4.475,0,0,1,13.635.135Zm0-1.485a2.545,2.545,0,0,0,1.237-.315,2.4,2.4,0,0,0,.938-.945,3.038,3.038,0,0,0,.36-1.53,3.1,3.1,0,0,0-.345-1.523A2.329,2.329,0,0,0,14.91-6.6a2.5,2.5,0,0,0-1.23-.315,2.46,2.46,0,0,0-1.222.315,2.248,2.248,0,0,0-.892.938,3.217,3.217,0,0,0-.33,1.523,2.9,2.9,0,0,0,.682,2.062A2.255,2.255,0,0,0,13.635-1.35Zm7.7-5.715a2.686,2.686,0,0,1,1-.983A2.95,2.95,0,0,1,23.805-8.4v1.77H23.37a2.083,2.083,0,0,0-1.523.51,2.439,2.439,0,0,0-.517,1.77V0H19.62V-8.265h1.71Zm6.045.195V-2.3a.878.878,0,0,0,.217.668,1.081,1.081,0,0,0,.743.2h1.05V0h-1.35a2.6,2.6,0,0,1-1.77-.54A2.226,2.226,0,0,1,25.65-2.3V-6.87h-.975v-1.4h.975V-10.32h1.725v2.055h2.01v1.4Zm3.015,2.7a4.574,4.574,0,0,1,.517-2.2,3.793,3.793,0,0,1,1.41-1.493A3.777,3.777,0,0,1,34.29-8.4a3.608,3.608,0,0,1,1.7.382,3.455,3.455,0,0,1,1.162.953v-1.2H38.88V0H37.155V-1.23a3.4,3.4,0,0,1-1.185.975,3.652,3.652,0,0,1-1.71.39,3.634,3.634,0,0,1-1.95-.547,3.883,3.883,0,0,1-1.4-1.53A4.707,4.707,0,0,1,30.39-4.17Zm6.765.03A2.993,2.993,0,0,0,36.8-5.625a2.474,2.474,0,0,0-.923-.96,2.413,2.413,0,0,0-1.23-.33,2.457,2.457,0,0,0-1.23.322,2.432,2.432,0,0,0-.923.945,2.95,2.95,0,0,0-.352,1.477,3.079,3.079,0,0,0,.352,1.5,2.487,2.487,0,0,0,.93.983,2.385,2.385,0,0,0,1.222.337,2.413,2.413,0,0,0,1.23-.33,2.462,2.462,0,0,0,.923-.967A3.036,3.036,0,0,0,37.155-4.14ZM42.84-11.1V0H41.13V-11.1Zm5.58,6.93a4.574,4.574,0,0,1,.517-2.2,3.793,3.793,0,0,1,1.41-1.493A3.805,3.805,0,0,1,52.335-8.4a3.876,3.876,0,0,1,1.6.352,3.269,3.269,0,0,1,1.252.937V-11.1H56.91V0H55.185V-1.245a3.2,3.2,0,0,1-1.162.99,3.607,3.607,0,0,1-1.7.39,3.7,3.7,0,0,1-1.972-.547,3.864,3.864,0,0,1-1.41-1.53A4.707,4.707,0,0,1,48.42-4.17Zm6.765.03a2.993,2.993,0,0,0-.353-1.485,2.474,2.474,0,0,0-.922-.96,2.413,2.413,0,0,0-1.23-.33,2.457,2.457,0,0,0-1.23.322,2.432,2.432,0,0,0-.923.945,2.95,2.95,0,0,0-.352,1.477,3.079,3.079,0,0,0,.352,1.5,2.487,2.487,0,0,0,.93.983,2.385,2.385,0,0,0,1.222.337,2.413,2.413,0,0,0,1.23-.33,2.462,2.462,0,0,0,.922-.967A3.036,3.036,0,0,0,55.185-4.14Zm11.55-.2a5.346,5.346,0,0,1-.06.84H60.36a2.293,2.293,0,0,0,.735,1.59,2.32,2.32,0,0,0,1.62.6,2,2,0,0,0,1.95-1.155H66.51A3.723,3.723,0,0,1,65.152-.593a3.983,3.983,0,0,1-2.437.728A4.221,4.221,0,0,1,60.592-.4a3.789,3.789,0,0,1-1.47-1.5A4.576,4.576,0,0,1,58.59-4.14a4.683,4.683,0,0,1,.517-2.243,3.639,3.639,0,0,1,1.455-1.492A4.33,4.33,0,0,1,62.715-8.4a4.209,4.209,0,0,1,2.085.51,3.6,3.6,0,0,1,1.425,1.433A4.314,4.314,0,0,1,66.735-4.335Zm-1.785-.54a1.946,1.946,0,0,0-.675-1.515,2.413,2.413,0,0,0-1.635-.57,2.2,2.2,0,0,0-1.515.563,2.351,2.351,0,0,0-.75,1.523ZM7.485,14.14H3.555L2.925,16H.24L4.05,5.47H7.02L10.83,16H8.115Zm-.66-1.98L5.52,8.305,4.23,12.16ZM20.01,8.86a3.391,3.391,0,0,1-.42,1.673,3.088,3.088,0,0,1-1.29,1.222,4.541,4.541,0,0,1-2.16.465H14.55V16H11.985V5.47H16.14a4.728,4.728,0,0,1,2.13.435,2.99,2.99,0,0,1,1.305,1.2A3.488,3.488,0,0,1,20.01,8.86Zm-4.065,1.32a1.53,1.53,0,0,0,1.1-.345,1.287,1.287,0,0,0,.36-.975,1.287,1.287,0,0,0-.36-.975,1.53,1.53,0,0,0-1.1-.345H14.55v2.64ZM23.91,5.47V16H21.345V5.47Zm2.445,0H28.98L27.3,9.49H25.575Zm7.53,10.65a4.811,4.811,0,0,1-1.95-.375,3.33,3.33,0,0,1-1.35-1.028,2.7,2.7,0,0,1-.555-1.462h2.535a.975.975,0,0,0,.405.7,1.433,1.433,0,0,0,.885.27,1.263,1.263,0,0,0,.743-.187.574.574,0,0,0,.263-.487.562.562,0,0,0-.375-.533,7.576,7.576,0,0,0-1.215-.383,11.407,11.407,0,0,1-1.5-.442,2.592,2.592,0,0,1-1.035-.735A2,2,0,0,1,30.3,10.1a2.305,2.305,0,0,1,.4-1.313,2.676,2.676,0,0,1,1.17-.937A4.48,4.48,0,0,1,33.7,7.51a3.684,3.684,0,0,1,2.483.78,3.035,3.035,0,0,1,1.042,2.07H34.86a1.021,1.021,0,0,0-.382-.69,1.327,1.327,0,0,0-.847-.255,1.172,1.172,0,0,0-.69.172.551.551,0,0,0-.24.472.577.577,0,0,0,.382.54,6.126,6.126,0,0,0,1.192.36,13.047,13.047,0,0,1,1.515.472,2.613,2.613,0,0,1,1.027.75,2.122,2.122,0,0,1,.458,1.387,2.2,2.2,0,0,1-.412,1.313,2.728,2.728,0,0,1-1.185.908A4.532,4.532,0,0,1,33.885,16.12ZM49.155,5.47a6.125,6.125,0,0,1,2.91.66,4.715,4.715,0,0,1,1.928,1.852,5.443,5.443,0,0,1,.682,2.752,5.454,5.454,0,0,1-.682,2.745,4.69,4.69,0,0,1-1.935,1.86,6.136,6.136,0,0,1-2.9.66H45.21V5.47Zm-.165,8.31a3.1,3.1,0,0,0,2.265-.8,3.01,3.01,0,0,0,.81-2.25,3.062,3.062,0,0,0-.81-2.265,3.062,3.062,0,0,0-2.265-.81H47.775v6.12Zm10.935,2.34a4.62,4.62,0,0,1-2.213-.525,3.844,3.844,0,0,1-1.545-1.5,4.482,4.482,0,0,1-.562-2.28,4.446,4.446,0,0,1,.57-2.273,3.868,3.868,0,0,1,1.56-1.507,4.956,4.956,0,0,1,4.44,0,3.868,3.868,0,0,1,1.56,1.507,4.446,4.446,0,0,1,.57,2.273,4.4,4.4,0,0,1-.577,2.273A3.905,3.905,0,0,1,62.153,15.6,4.708,4.708,0,0,1,59.925,16.12Zm0-2.22a1.671,1.671,0,0,0,1.252-.54,2.145,2.145,0,0,0,.517-1.545,2.185,2.185,0,0,0-.5-1.545,1.7,1.7,0,0,0-2.482-.007,2.2,2.2,0,0,0-.5,1.552A2.228,2.228,0,0,0,58.7,13.36,1.578,1.578,0,0,0,59.925,13.9ZM76.35,7.54a3.31,3.31,0,0,1,2.482.945,3.6,3.6,0,0,1,.923,2.625V16H77.2V11.455a1.729,1.729,0,0,0-.427-1.253,1.788,1.788,0,0,0-2.355,0,1.729,1.729,0,0,0-.428,1.253V16h-2.55V11.455a1.729,1.729,0,0,0-.427-1.253,1.788,1.788,0,0,0-2.355,0,1.729,1.729,0,0,0-.427,1.253V16H65.67V7.63h2.565V8.68a2.746,2.746,0,0,1,1.02-.833A3.207,3.207,0,0,1,70.68,7.54a3.466,3.466,0,0,1,1.688.4A2.9,2.9,0,0,1,73.53,9.1a3.372,3.372,0,0,1,1.185-1.125A3.2,3.2,0,0,1,76.35,7.54Zm6.5-.78a1.555,1.555,0,0,1-1.1-.4,1.288,1.288,0,0,1-.427-.983,1.3,1.3,0,0,1,.427-1,1.555,1.555,0,0,1,1.1-.4,1.534,1.534,0,0,1,1.088.4,1.3,1.3,0,0,1,.427,1,1.288,1.288,0,0,1-.427.983A1.534,1.534,0,0,1,82.845,6.76Zm1.275.87V16H81.555V7.63Zm6.96-.09a3.038,3.038,0,0,1,2.348.953,3.715,3.715,0,0,1,.877,2.618V16h-2.55V11.455a1.837,1.837,0,0,0-.435-1.305,1.7,1.7,0,0,0-2.34,0,1.837,1.837,0,0,0-.435,1.305V16H85.98V7.63h2.565V8.74a2.706,2.706,0,0,1,1.05-.878A3.338,3.338,0,0,1,91.08,7.54Zm6.3-.78a1.555,1.555,0,0,1-1.1-.4,1.288,1.288,0,0,1-.427-.983,1.3,1.3,0,0,1,.427-1,1.555,1.555,0,0,1,1.1-.4,1.534,1.534,0,0,1,1.088.4,1.3,1.3,0,0,1,.427,1,1.288,1.288,0,0,1-.427.983A1.534,1.534,0,0,1,97.38,6.76Zm1.275.87V16H96.09V7.63ZM100,11.815a4.684,4.684,0,0,1,.533-2.28,3.7,3.7,0,0,1,1.485-1.5,4.446,4.446,0,0,1,2.183-.525,4.15,4.15,0,0,1,2.632.825,3.893,3.893,0,0,1,1.387,2.325h-2.73a1.314,1.314,0,0,0-1.335-.96,1.346,1.346,0,0,0-1.125.547,2.533,2.533,0,0,0-.42,1.568,2.533,2.533,0,0,0,.42,1.568,1.346,1.346,0,0,0,1.125.548,1.314,1.314,0,0,0,1.335-.96h2.73a3.929,3.929,0,0,1-1.395,2.31,4.107,4.107,0,0,1-2.625.84,4.446,4.446,0,0,1-2.183-.525,3.7,3.7,0,0,1-1.485-1.5A4.684,4.684,0,0,1,100,11.815Zm9.075-.015a5,5,0,0,1,.488-2.265,3.636,3.636,0,0,1,1.327-1.5,3.466,3.466,0,0,1,1.875-.525,3.221,3.221,0,0,1,1.552.36,2.652,2.652,0,0,1,1.028.945V7.63h2.565V16H115.35V14.815a2.77,2.77,0,0,1-1.043.945,3.221,3.221,0,0,1-1.552.36,3.4,3.4,0,0,1-1.86-.533,3.68,3.68,0,0,1-1.327-1.515A5.05,5.05,0,0,1,109.08,11.8Zm6.27.015a2.1,2.1,0,0,0-.533-1.515,1.8,1.8,0,0,0-2.6-.008,2.07,2.07,0,0,0-.533,1.508,2.124,2.124,0,0,0,.533,1.523,1.786,1.786,0,0,0,2.6.007A2.1,2.1,0,0,0,115.35,11.815Zm9.525-4.275a3.038,3.038,0,0,1,2.348.953,3.715,3.715,0,0,1,.878,2.618V16h-2.55V11.455a1.837,1.837,0,0,0-.435-1.305,1.7,1.7,0,0,0-2.34,0,1.837,1.837,0,0,0-.435,1.305V16h-2.565V7.63h2.565V8.74a2.706,2.706,0,0,1,1.05-.878A3.338,3.338,0,0,1,124.875,7.54Zm8.82,8.58a4.62,4.62,0,0,1-2.213-.525,3.844,3.844,0,0,1-1.545-1.5,4.482,4.482,0,0,1-.562-2.28,4.446,4.446,0,0,1,.57-2.273,3.868,3.868,0,0,1,1.56-1.507,4.956,4.956,0,0,1,4.44,0,3.868,3.868,0,0,1,1.56,1.507,4.446,4.446,0,0,1,.57,2.273,4.4,4.4,0,0,1-.577,2.273,3.905,3.905,0,0,1-1.575,1.508A4.708,4.708,0,0,1,133.7,16.12Zm0-2.22a1.671,1.671,0,0,0,1.253-.54,2.145,2.145,0,0,0,.517-1.545,2.185,2.185,0,0,0-.5-1.545,1.7,1.7,0,0,0-2.483-.007,2.2,2.2,0,0,0-.495,1.552,2.228,2.228,0,0,0,.488,1.545A1.578,1.578,0,0,0,133.7,13.9Z" transform="translate(3954 -213)" fill="#fff"/>
  </g>
</svg>
