<svg width="19" height="14" viewBox="0 0 19 14" fill="none" xmlns="http://www.w3.org/2000/svg">
<path d="M4.01971 13.0787C2.98992 13.0775 1.99981 12.7251 1.25312 12.094C0.50644 11.4629 0.0599819 10.6011 0.00561725 9.68593C-0.0487474 8.77079 0.293117 7.87191 0.960866 7.17425C1.62861 6.4766 2.57145 6.03325 3.59536 5.93543C3.29387 4.88326 3.47441 3.76761 4.09725 2.8339C4.7201 1.90019 5.73423 1.22491 6.91656 0.956613C8.09889 0.688313 9.35256 0.848972 10.4018 1.40325C11.451 1.95752 12.2098 2.86001 12.5113 3.91218C13.2145 3.82505 13.9303 3.8676 14.6142 4.0372C15.298 4.20679 15.9354 4.4998 16.4866 4.89799C17.0378 5.29618 17.491 5.79104 17.8181 6.35179C18.1452 6.91254 18.3391 7.52718 18.3878 8.15747C18.4365 8.78777 18.339 9.42025 18.1012 10.0156C17.8635 10.6109 17.4907 11.1563 17.0059 11.6179C16.5212 12.0795 15.9349 12.4474 15.2835 12.6987C14.6322 12.95 13.9297 13.0794 13.2197 13.0787H4.01971Z" fill="white"/>
</svg>
