<svg width="18" height="19" viewBox="0 0 18 19" fill="none" xmlns="http://www.w3.org/2000/svg">
<path fill-rule="evenodd" clip-rule="evenodd" d="M3.75 1.83069H14.25C15.525 1.83069 16.5 2.80569 16.5 4.08069V11.5807C16.5 12.8557 15.525 13.8307 14.25 13.8307H5.55L2.775 16.6057C2.625 16.7557 2.475 16.8307 2.25 16.8307C2.175 16.8307 2.025 16.8307 1.95 16.7557C1.65 16.6807 1.5 16.3807 1.5 16.0807V4.08069C1.5 2.80569 2.475 1.83069 3.75 1.83069ZM14.25 12.3307C14.7 12.3307 15 12.0307 15 11.5807V4.08069C15 3.63069 14.7 3.33069 14.25 3.33069H3.75C3.3 3.33069 3 3.63069 3 4.08069V14.2807L4.725 12.5557C4.875 12.4057 5.025 12.3307 5.25 12.3307H14.25Z" fill="black"/>
<mask id="mask0" mask-type="alpha" maskUnits="userSpaceOnUse" x="1" y="1" width="16" height="16">
<path fill-rule="evenodd" clip-rule="evenodd" d="M3.75 1.83069H14.25C15.525 1.83069 16.5 2.80569 16.5 4.08069V11.5807C16.5 12.8557 15.525 13.8307 14.25 13.8307H5.55L2.775 16.6057C2.625 16.7557 2.475 16.8307 2.25 16.8307C2.175 16.8307 2.025 16.8307 1.95 16.7557C1.65 16.6807 1.5 16.3807 1.5 16.0807V4.08069C1.5 2.80569 2.475 1.83069 3.75 1.83069ZM14.25 12.3307C14.7 12.3307 15 12.0307 15 11.5807V4.08069C15 3.63069 14.7 3.33069 14.25 3.33069H3.75C3.3 3.33069 3 3.63069 3 4.08069V14.2807L4.725 12.5557C4.875 12.4057 5.025 12.3307 5.25 12.3307H14.25Z" fill="white"/>
</mask>
<g mask="url(#mask0)">
<rect y="0.330688" width="18" height="18" fill="#6E6B7B"/>
</g>
</svg>
