<svg width="17" height="20" viewBox="0 0 17 20" fill="none" xmlns="http://www.w3.org/2000/svg">
<path fill-rule="evenodd" clip-rule="evenodd" d="M0.0947266 2.73008C0.0947266 2.09283 0.37919 1.48168 0.885538 1.03108C1.39189 0.580478 2.07864 0.327332 2.79473 0.327332H8.98583C9.70185 0.327468 10.3885 0.580703 10.8947 1.03134L15.5036 5.13284C16.01 5.58333 16.2946 6.19439 16.2947 6.83158V17.1466C16.2947 17.7838 16.0103 18.395 15.5039 18.8456C14.9976 19.2962 14.3108 19.5494 13.5947 19.5494H2.79473C2.07864 19.5494 1.39189 19.2962 0.885538 18.8456C0.37919 18.395 0.0947266 17.7838 0.0947266 17.1466V2.73008ZM2.79473 9.93834C2.79473 9.61972 2.93696 9.31414 3.19013 9.08884C3.44331 8.86354 3.78668 8.73697 4.14473 8.73697H12.2447C12.6028 8.73697 12.9461 8.86354 13.1993 9.08884C13.4525 9.31414 13.5947 9.61972 13.5947 9.93834C13.5947 10.257 13.4525 10.5625 13.1993 10.7878C12.9461 11.0131 12.6028 11.1397 12.2447 11.1397H4.14473C3.78668 11.1397 3.44331 11.0131 3.19013 10.7878C2.93696 10.5625 2.79473 10.257 2.79473 9.93834ZM4.14473 13.5425C3.78668 13.5425 3.44331 13.669 3.19013 13.8943C2.93696 14.1196 2.79473 14.4252 2.79473 14.7438C2.79473 15.0625 2.93696 15.368 3.19013 15.5933C3.44331 15.8186 3.78668 15.9452 4.14473 15.9452H12.2447C12.6028 15.9452 12.9461 15.8186 13.1993 15.5933C13.4525 15.368 13.5947 15.0625 13.5947 14.7438C13.5947 14.4252 13.4525 14.1196 13.1993 13.8943C12.9461 13.669 12.6028 13.5425 12.2447 13.5425H4.14473Z" fill="white"/>
</svg>
