<svg width="24" height="21" viewBox="0 0 24 21" fill="none" xmlns="http://www.w3.org/2000/svg">
<path d="M12.1934 0.917419C5.84395 0.917419 0.694824 5.51757 0.694824 11.1923C0.694824 15.731 3.98957 19.5816 8.56082 20.9414C9.13582 21.0361 9.3457 20.7188 9.3457 20.4463C9.3457 20.202 9.33564 19.556 9.32989 18.6989C6.13145 19.3193 5.45582 17.3211 5.45582 17.3211C4.93401 16.134 4.17932 15.818 4.17932 15.818C3.13426 15.181 4.25695 15.1938 4.25695 15.1938C5.41126 15.2667 6.01789 16.253 6.01789 16.253C7.04426 17.8226 8.71032 17.3698 9.36582 17.1062C9.46932 16.4423 9.76689 15.9895 10.0961 15.7323C7.54307 15.4726 4.85782 14.5912 4.85782 10.655C4.85782 9.53312 5.30632 8.6159 6.04232 7.89697C5.92301 7.63728 5.52914 6.59214 6.15445 5.17858C6.15445 5.17858 7.12045 4.90226 9.31695 6.23139C10.2341 6.00369 11.2173 5.88983 12.1963 5.886C13.1723 5.89111 14.157 6.00369 15.0756 6.23267C17.2706 4.90354 18.2352 5.17985 18.2352 5.17985C18.8619 6.5947 18.4681 7.63856 18.3502 7.89824C19.0876 8.61718 19.5318 9.5344 19.5318 10.6563C19.5318 14.6028 16.8437 15.4714 14.2821 15.7259C14.6946 16.0432 15.0626 16.67 15.0626 17.6282C15.0626 19.0021 15.0483 20.1099 15.0483 20.4463C15.0483 20.7214 15.2553 21.0412 15.8389 20.9401C20.4029 19.579 23.6948 15.7298 23.6948 11.1923C23.6948 5.51757 18.5457 0.917419 12.1934 0.917419Z" fill="white"/>
</svg>
