<svg width="18" height="18" viewBox="0 0 18 18" fill="none" xmlns="http://www.w3.org/2000/svg">
<path fill-rule="evenodd" clip-rule="evenodd" d="M12.6731 1.5C13.9016 1.5 15.0578 2.0198 15.9249 2.91089C16.8643 3.80198 17.3701 5.06436 17.2256 6.32673C17.2256 7.58911 16.7198 8.85149 15.8526 9.74257L9.49363 16.2772C9.34911 16.4257 9.20459 16.5 8.9878 16.5C8.77102 16.5 8.6265 16.4257 8.48197 16.2772L2.12297 9.74257C1.25583 8.85149 0.75 7.58911 0.75 6.32673C0.75 5.06436 1.25583 3.80198 2.19523 2.91089C4.00176 1.05446 6.96448 1.05446 8.77102 2.91089L9.06007 3.20792L9.34911 2.91089C10.2162 2.0198 11.4447 1.5 12.6731 1.5ZM9.06007 14.7178L14.9132 8.70297C15.5636 8.03465 15.9249 7.21782 15.9249 6.32673C15.9249 5.43564 15.5636 4.61881 14.9855 3.9505C14.3352 3.35644 13.5403 2.98515 12.6731 2.98515C11.7337 2.98515 10.9389 3.35644 10.2885 3.9505L9.5659 4.76733C9.27685 5.06436 8.84328 5.06436 8.55424 4.76733L7.75936 3.9505C7.10901 3.28218 6.31413 2.98515 5.44699 2.98515C4.65212 2.98515 3.78498 3.28218 3.20689 3.9505C2.6288 4.61881 2.26749 5.43564 2.26749 6.32673C2.26749 7.21782 2.55654 8.03465 3.20689 8.70297L9.06007 14.7178Z" fill="black"/>
<mask id="mask0" mask-type="alpha" maskUnits="userSpaceOnUse" x="0" y="1" width="18" height="16">
<path fill-rule="evenodd" clip-rule="evenodd" d="M12.6731 1.5C13.9016 1.5 15.0578 2.0198 15.9249 2.91089C16.8643 3.80198 17.3701 5.06436 17.2256 6.32673C17.2256 7.58911 16.7198 8.85149 15.8526 9.74257L9.49363 16.2772C9.34911 16.4257 9.20459 16.5 8.9878 16.5C8.77102 16.5 8.6265 16.4257 8.48197 16.2772L2.12297 9.74257C1.25583 8.85149 0.75 7.58911 0.75 6.32673C0.75 5.06436 1.25583 3.80198 2.19523 2.91089C4.00176 1.05446 6.96448 1.05446 8.77102 2.91089L9.06007 3.20792L9.34911 2.91089C10.2162 2.0198 11.4447 1.5 12.6731 1.5ZM9.06007 14.7178L14.9132 8.70297C15.5636 8.03465 15.9249 7.21782 15.9249 6.32673C15.9249 5.43564 15.5636 4.61881 14.9855 3.9505C14.3352 3.35644 13.5403 2.98515 12.6731 2.98515C11.7337 2.98515 10.9389 3.35644 10.2885 3.9505L9.5659 4.76733C9.27685 5.06436 8.84328 5.06436 8.55424 4.76733L7.75936 3.9505C7.10901 3.28218 6.31413 2.98515 5.44699 2.98515C4.65212 2.98515 3.78498 3.28218 3.20689 3.9505C2.6288 4.61881 2.26749 5.43564 2.26749 6.32673C2.26749 7.21782 2.55654 8.03465 3.20689 8.70297L9.06007 14.7178Z" fill="white"/>
</mask>
<g mask="url(#mask0)">
<rect width="18" height="18" fill="#6E6B7B"/>
</g>
</svg>
