<svg id="svg" version="1.1" xmlns="http://www.w3.org/2000/svg" xmlns:xlink="http://www.w3.org/1999/xlink" width="400" height="386.5743207245605" viewBox="0, 0, 400,386.5743207245605"><g id="svgg"><path id="path0" d="M301.089 1.625 C 301.468 2.079,302.229 2.993,302.782 3.655 C 303.334 4.317,304.110 5.516,304.507 6.319 C 304.974 7.264,305.800 8.379,306.852 9.483 C 307.745 10.421,309.761 12.914,311.331 15.024 C 312.901 17.134,315.012 19.963,316.023 21.311 C 327.321 36.381,334.811 55.205,335.864 71.177 C 335.976 72.877,336.164 75.509,336.281 77.027 C 336.398 78.545,336.494 83.364,336.494 87.736 C 336.494 92.108,336.568 95.685,336.657 95.685 C 336.920 95.685,338.506 93.552,339.272 92.168 C 339.661 91.465,340.138 90.650,340.332 90.357 C 341.835 88.086,344.963 78.286,346.184 72.024 C 349.856 53.190,343.217 32.728,328.722 18.209 C 324.288 13.768,314.995 7.036,310.287 4.856 C 309.054 4.285,307.326 3.447,306.446 2.995 C 305.096 2.300,303.950 1.879,300.813 0.924 C 300.489 0.826,300.548 0.975,301.089 1.625 M242.763 3.815 C 242.913 4.222,248.732 9.308,251.737 11.660 C 253.469 13.015,255.722 14.992,256.745 16.053 C 257.767 17.114,260.622 20.050,263.087 22.577 C 281.105 41.041,291.175 57.353,297.473 78.276 C 299.711 85.711,300.341 89.054,301.552 99.919 C 302.135 105.150,302.710 109.957,302.829 110.602 C 302.948 111.247,303.140 114.124,303.255 116.995 C 303.369 119.867,303.558 123.319,303.673 124.667 C 303.788 126.015,303.884 127.243,303.886 127.397 C 303.898 128.421,304.371 127.319,307.203 119.659 C 312.793 104.541,313.561 85.120,309.201 69.153 C 301.324 40.304,281.138 18.741,250.186 6.114 C 245.611 4.247,242.576 3.307,242.763 3.815 M27.277 183.729 C 27.144 184.239,26.610 186.047,26.090 187.746 C 11.160 236.538,38.164 286.128,88.332 302.049 C 89.672 302.474,93.767 303.462,94.190 303.463 C 94.746 303.463,88.222 297.112,85.413 294.919 C 83.925 293.757,82.151 292.298,81.471 291.677 C 80.791 291.056,78.348 288.903,76.043 286.893 C 49.551 263.792,34.745 237.080,30.064 203.942 C 29.824 202.243,29.391 199.652,29.101 198.185 C 28.790 196.605,28.480 193.957,28.341 191.686 C 27.815 183.061,27.692 182.138,27.277 183.729 M0.208 276.521 C 0.177 280.603,2.070 288.532,4.099 292.810 C 15.642 317.155,34.262 329.729,62.335 332.136 C 71.158 332.892,84.746 331.050,90.725 328.288 C 92.763 327.346,92.702 327.241,89.877 326.807 C 88.559 326.604,86.713 326.301,85.775 326.135 C 84.838 325.968,82.968 325.636,81.620 325.396 C 80.272 325.157,77.874 324.639,76.292 324.244 C 74.710 323.849,71.689 323.124,69.579 322.632 C 60.475 320.510,46.794 314.982,37.170 309.536 C 27.988 304.341,16.365 294.362,7.411 283.987 C 6.388 282.802,4.602 280.730,3.441 279.382 C 2.281 278.034,1.080 276.699,0.772 276.415 L 0.213 275.898 0.208 276.521 " stroke="none" fill="#44ace4" fill-rule="evenodd"></path><path id="path1" d="M200.426 0.353 C 196.255 0.848,190.580 2.913,188.279 4.773 C 187.377 5.502,187.639 5.585,189.573 5.185 C 199.898 3.045,211.422 8.003,217.629 17.254 C 218.662 18.793,296.236 179.819,296.582 181.141 C 296.645 181.381,296.349 181.537,295.430 181.749 C 281.815 184.885,264.371 195.822,252.782 208.488 C 226.425 237.296,222.337 272.274,241.552 304.582 C 243.505 307.866,243.604 307.932,242.369 305.125 C 228.726 274.125,232.476 243.886,253.163 218.086 C 263.367 205.360,277.579 193.887,292.808 186.079 C 294.742 185.088,297.139 183.727,298.135 183.055 C 299.132 182.383,300.618 181.487,301.438 181.065 C 302.259 180.642,302.790 180.294,302.619 180.292 C 302.449 180.290,303.096 179.803,304.058 179.211 C 305.020 178.619,305.807 178.104,305.807 178.065 C 305.807 177.412,227.092 14.168,225.986 12.530 C 220.220 3.981,210.175 -0.805,200.426 0.353 M140.530 2.367 C 136.208 2.680,131.954 4.075,128.803 6.214 C 126.739 7.614,126.297 8.073,127.491 7.574 C 129.629 6.680,136.670 6.598,140.224 7.424 C 149.222 9.518,156.104 14.882,160.112 22.927 C 160.750 24.206,167.193 37.672,174.430 52.850 C 181.666 68.029,192.709 91.188,198.969 104.315 C 205.229 117.443,214.495 136.876,219.560 147.501 L 228.769 166.819 235.872 171.014 C 239.779 173.322,243.008 175.177,243.048 175.137 C 243.088 175.097,241.225 171.085,238.908 166.222 C 236.592 161.358,229.417 146.303,222.965 132.765 C 161.176 3.127,168.127 17.772,168.302 17.597 C 168.370 17.530,168.313 17.475,168.176 17.475 C 168.039 17.475,167.928 17.341,167.928 17.178 C 167.928 16.546,165.263 12.870,163.435 10.980 C 157.455 4.798,149.303 1.733,140.530 2.367 M95.471 44.014 C 93.272 44.362,90.390 45.186,88.377 46.043 C 85.804 47.138,82.909 49.099,84.390 48.744 C 96.720 45.790,110.606 52.140,116.433 63.399 C 116.858 64.219,130.771 93.370,147.351 128.177 L 177.497 191.464 184.593 195.658 C 188.496 197.965,191.725 199.818,191.768 199.776 C 191.852 199.695,130.956 71.708,126.373 62.334 C 123.454 56.364,122.149 54.345,119.556 51.788 C 113.207 45.527,104.231 42.629,95.471 44.014 M382.234 76.388 C 386.222 78.201,390.176 84.395,391.289 90.570 C 393.059 100.398,390.179 111.653,378.199 141.716 C 364.083 177.141,358.142 197.519,355.740 218.753 C 355.401 221.750,355.362 223.751,355.416 235.269 C 355.494 252.154,355.170 257.749,353.538 267.657 C 345.738 315.002,312.971 354.091,265.104 373.152 C 238.457 383.764,208.508 386.425,186.304 380.155 C 182.416 379.057,182.002 379.189,185.410 380.441 C 230.440 396.982,292.595 378.750,329.472 338.184 C 347.749 318.079,359.062 293.952,362.789 267.128 C 363.976 258.586,364.079 256.430,364.092 239.744 C 364.105 223.296,364.118 223.032,365.277 215.024 C 366.907 203.753,370.428 190.110,375.454 175.590 C 378.304 167.352,383.538 153.024,386.192 146.191 C 394.081 125.877,395.941 120.582,397.897 112.868 C 402.624 94.235,399.046 82.626,387.001 77.515 C 384.223 76.337,379.844 75.301,382.234 76.388 M60.764 97.945 C 57.506 98.491,53.255 100.190,50.966 101.860 C 49.887 102.647,49.921 102.834,51.087 102.520 C 57.891 100.688,67.454 103.322,73.123 108.591 C 77.033 112.224,77.316 112.732,88.712 136.601 C 100.080 160.411,117.571 197.025,124.803 212.147 L 129.592 222.163 136.751 226.375 C 140.689 228.692,143.927 230.562,143.948 230.531 C 144.120 230.268,86.792 110.788,85.652 109.032 C 80.273 100.753,70.359 96.336,60.764 97.945 " stroke="none" fill="#eca454" fill-rule="evenodd"></path><path id="path2" d="M189.877 5.243 C 188.998 5.410,188.016 5.586,187.695 5.634 C 187.054 5.731,185.828 6.518,185.828 6.834 C 185.828 6.943,185.708 7.032,185.560 7.032 C 185.346 7.032,182.444 9.919,181.060 11.508 C 180.464 12.191,179.002 14.491,179.161 14.494 C 179.253 14.496,179.221 14.568,179.089 14.654 C 178.386 15.114,176.538 19.746,176.009 22.376 C 175.879 23.021,175.720 23.788,175.657 24.081 C 175.593 24.374,175.519 26.449,175.493 28.692 L 175.445 32.771 176.881 35.831 C 177.670 37.515,183.757 50.304,190.406 64.251 C 197.056 78.199,207.752 100.639,214.176 114.118 C 220.600 127.597,229.787 146.873,234.592 156.953 C 239.396 167.032,243.294 175.313,243.255 175.354 C 243.162 175.449,229.364 167.311,228.872 166.871 C 228.670 166.690,223.849 156.761,218.159 144.806 C 212.469 132.850,201.755 110.362,194.349 94.832 C 186.943 79.302,176.084 56.528,170.218 44.224 C 164.352 31.919,159.261 21.371,158.905 20.782 C 155.504 15.163,150.070 10.769,143.780 8.550 C 137.271 6.254,128.355 6.293,125.907 8.628 C 125.475 9.040,125.043 9.379,124.948 9.382 C 124.485 9.396,119.979 14.388,119.979 14.886 C 119.979 15.021,119.883 15.131,119.766 15.131 C 119.648 15.131,119.552 15.274,119.552 15.450 C 119.552 15.626,119.479 15.770,119.390 15.770 C 119.300 15.770,119.133 15.957,119.017 16.185 C 118.901 16.413,118.410 17.348,117.925 18.263 C 117.161 19.702,115.893 23.090,115.626 24.401 C 115.578 24.635,115.432 25.292,115.302 25.861 C 114.486 29.427,114.810 38.785,115.749 38.785 C 115.862 38.785,115.907 38.863,115.848 38.958 C 115.691 39.212,116.577 41.982,116.816 41.982 C 116.928 41.982,116.961 42.078,116.889 42.195 C 116.817 42.312,116.902 42.671,117.079 42.994 C 117.255 43.316,117.994 44.827,118.720 46.351 C 119.445 47.874,120.122 49.153,120.222 49.192 C 120.323 49.231,120.405 49.428,120.405 49.629 C 120.405 49.830,120.520 50.110,120.661 50.250 C 120.801 50.391,120.848 50.506,120.764 50.506 C 120.680 50.506,121.044 51.334,121.574 52.346 C 122.103 53.357,122.534 54.340,122.531 54.530 C 122.528 54.720,122.382 54.583,122.206 54.226 C 121.155 52.097,115.940 47.929,111.866 45.964 C 110.510 45.310,109.152 44.730,108.848 44.674 C 108.544 44.619,108.092 44.465,107.843 44.332 C 107.313 44.048,103.114 43.219,102.965 43.368 C 102.909 43.424,102.749 43.375,102.609 43.259 C 102.332 43.029,95.523 43.095,94.619 43.336 C 94.111 43.471,93.808 43.535,92.402 43.802 C 92.061 43.867,91.606 44.015,91.390 44.131 C 91.173 44.246,90.996 44.278,90.996 44.201 C 90.996 44.124,90.852 44.180,90.677 44.326 C 90.501 44.472,90.357 44.535,90.357 44.467 C 90.357 44.320,86.902 45.775,86.739 45.990 C 86.678 46.071,85.991 46.462,85.214 46.859 C 84.436 47.256,83.430 47.905,82.976 48.302 C 81.226 49.834,80.988 50.017,80.879 49.908 C 80.818 49.846,80.767 49.972,80.767 50.186 C 80.767 50.401,80.702 50.512,80.622 50.432 C 80.432 50.242,79.257 51.370,79.402 51.604 C 79.464 51.704,79.364 51.785,79.181 51.785 C 78.999 51.785,78.847 51.857,78.844 51.945 C 78.842 52.032,78.494 52.488,78.071 52.957 C 77.110 54.023,75.761 55.999,75.562 56.633 C 75.479 56.897,75.332 57.112,75.235 57.112 C 74.935 57.112,72.662 62.661,72.354 64.145 C 72.294 64.438,72.088 65.397,71.897 66.276 C 71.484 68.184,71.418 74.527,71.795 76.185 C 71.928 76.771,72.071 77.443,72.113 77.677 C 72.449 79.587,73.017 81.174,74.474 84.283 C 74.859 85.104,75.400 86.279,75.676 86.894 C 75.953 87.509,76.253 88.013,76.342 88.013 C 76.432 88.013,76.505 88.118,76.505 88.247 C 76.505 88.376,76.663 88.831,76.856 89.259 C 77.432 90.534,79.846 95.604,81.205 98.391 C 81.902 99.821,82.472 101.092,82.472 101.215 C 82.472 101.338,82.568 101.438,82.685 101.438 C 82.802 101.438,82.877 101.510,82.851 101.598 C 82.826 101.686,83.249 102.669,83.792 103.783 C 84.335 104.896,84.992 106.287,85.251 106.873 C 85.511 107.459,85.831 108.009,85.962 108.095 C 86.138 108.210,86.138 108.252,85.960 108.255 C 85.828 108.256,85.447 107.902,85.115 107.466 C 82.905 104.568,76.766 99.717,75.334 99.737 C 75.216 99.738,75.839 100.130,76.718 100.606 C 81.644 103.276,85.264 107.321,88.183 113.414 C 88.952 115.020,89.653 116.289,89.741 116.235 C 89.829 116.180,89.971 116.248,90.055 116.385 C 90.159 116.553,90.117 116.577,89.927 116.460 C 89.731 116.339,89.683 116.378,89.769 116.587 C 90.583 118.566,90.869 119.098,91.056 118.983 C 91.177 118.908,91.212 118.949,91.135 119.074 C 90.956 119.364,91.197 120.012,91.430 119.867 C 91.527 119.808,91.676 119.871,91.760 120.008 C 91.857 120.164,91.822 120.201,91.669 120.106 C 91.339 119.902,91.358 120.041,91.777 120.921 C 91.972 121.330,92.227 121.607,92.343 121.535 C 92.463 121.460,92.487 121.513,92.397 121.659 C 92.224 121.938,99.534 137.461,99.772 137.320 C 99.852 137.272,99.987 137.346,100.071 137.483 C 100.168 137.639,100.133 137.675,99.980 137.580 C 99.610 137.352,99.664 137.519,100.520 139.249 C 100.953 140.123,101.399 140.781,101.512 140.711 C 101.633 140.637,101.647 140.698,101.547 140.860 C 101.333 141.205,103.562 145.794,103.855 145.613 C 103.975 145.539,103.992 145.598,103.896 145.754 C 103.684 146.096,104.626 148.139,104.914 147.961 C 105.031 147.889,105.063 147.934,104.984 148.061 C 104.791 148.374,105.503 149.829,105.769 149.665 C 105.891 149.589,105.912 149.644,105.818 149.797 C 105.626 150.107,108.028 155.177,108.290 155.015 C 108.387 154.955,108.413 155.045,108.348 155.215 C 108.282 155.385,108.528 156.085,108.894 156.771 C 109.260 157.457,109.508 157.845,109.444 157.634 C 109.372 157.397,109.414 157.303,109.553 157.389 C 109.677 157.466,109.727 157.663,109.664 157.827 C 109.525 158.191,111.657 162.845,111.895 162.698 C 111.988 162.640,112.134 162.705,112.219 162.842 C 112.322 163.010,112.280 163.034,112.090 162.918 C 111.760 162.714,111.751 162.685,112.846 165.099 C 113.284 166.063,113.719 166.805,113.812 166.747 C 113.906 166.689,114.052 166.754,114.136 166.891 C 114.240 167.059,114.198 167.083,114.008 166.967 C 113.663 166.753,113.651 166.722,115.083 169.787 C 115.720 171.150,116.294 172.121,116.418 172.045 C 116.538 171.971,116.570 172.015,116.490 172.145 C 116.291 172.467,118.916 177.967,119.188 177.799 C 119.315 177.721,119.340 177.771,119.249 177.918 C 119.043 178.251,120.614 181.594,120.895 181.420 C 121.013 181.347,121.045 181.393,120.965 181.522 C 120.766 181.844,123.391 187.344,123.664 187.175 C 123.790 187.097,123.815 187.147,123.724 187.295 C 123.518 187.628,125.089 190.971,125.370 190.797 C 125.488 190.724,125.520 190.769,125.441 190.898 C 125.219 191.257,129.604 200.384,129.841 200.056 C 129.977 199.868,129.999 199.900,129.914 200.162 C 129.775 200.595,130.188 201.636,130.437 201.482 C 130.529 201.425,130.674 201.491,130.759 201.628 C 130.855 201.784,130.821 201.820,130.667 201.725 C 130.532 201.642,130.421 201.646,130.421 201.736 C 130.421 202.203,134.147 209.657,134.326 209.547 C 134.441 209.476,134.470 209.524,134.389 209.655 C 134.212 209.942,139.144 220.386,139.385 220.236 C 139.479 220.179,139.624 220.244,139.709 220.381 C 139.806 220.537,139.771 220.573,139.617 220.479 C 139.482 220.395,139.371 220.403,139.371 220.497 C 139.371 220.833,143.699 229.713,143.825 229.636 C 143.895 229.592,143.973 229.829,143.997 230.161 C 144.040 230.765,144.037 230.763,141.226 229.101 C 139.679 228.186,136.403 226.249,133.946 224.797 L 129.480 222.158 105.664 172.294 C 76.109 110.414,78.464 115.283,77.112 113.264 C 71.550 104.954,60.420 100.385,51.168 102.612 C 49.478 103.018,49.399 102.949,50.550 102.066 C 52.439 100.615,52.150 100.708,49.723 102.333 C 48.119 103.407,44.113 107.273,44.113 107.747 C 44.113 107.899,43.977 108.100,43.810 108.194 C 43.644 108.288,43.476 108.500,43.438 108.666 C 43.399 108.832,43.208 109.135,43.015 109.338 C 42.538 109.840,40.721 113.617,40.713 114.123 C 40.713 114.181,40.579 114.492,40.416 114.813 C 40.254 115.134,40.044 115.781,39.949 116.249 C 39.745 117.262,39.797 117.044,39.417 118.487 C 39.087 119.741,38.985 125.859,39.264 127.651 C 39.346 128.178,39.460 128.928,39.518 129.318 C 39.575 129.707,39.720 130.331,39.840 130.703 C 39.960 131.075,40.224 131.979,40.428 132.712 C 40.631 133.444,40.872 134.044,40.964 134.044 C 41.055 134.044,41.129 134.251,41.129 134.505 C 41.129 134.759,41.465 135.578,41.875 136.324 C 42.286 137.071,42.621 137.822,42.621 137.993 C 42.621 138.165,42.717 138.306,42.834 138.306 C 42.952 138.306,43.034 138.378,43.017 138.466 C 42.959 138.767,43.515 140.011,43.708 140.011 C 43.813 140.011,43.900 140.121,43.900 140.256 C 43.900 140.532,44.424 141.684,46.307 145.551 C 47.021 147.017,47.610 148.267,47.617 148.330 C 47.624 148.393,48.077 149.352,48.625 150.461 C 50.156 153.560,52.429 158.323,52.432 158.440 C 52.434 158.498,52.890 159.433,53.445 160.519 C 54.001 161.605,54.735 163.141,55.077 163.932 C 55.419 164.723,55.793 165.370,55.908 165.370 C 56.024 165.370,56.060 165.428,55.989 165.499 C 55.918 165.570,56.132 166.169,56.464 166.831 C 57.316 168.532,59.312 172.700,59.998 174.214 C 60.317 174.917,60.670 175.551,60.781 175.623 C 60.893 175.695,60.973 175.839,60.958 175.943 C 60.915 176.253,61.638 177.730,61.833 177.730 C 61.933 177.730,62.014 177.912,62.014 178.135 C 62.014 178.358,62.637 179.791,63.399 181.321 C 64.161 182.851,64.784 184.192,64.784 184.300 C 64.784 184.409,64.930 184.619,65.109 184.767 C 65.288 184.915,65.391 185.079,65.339 185.131 C 65.287 185.183,65.668 186.078,66.187 187.119 C 66.705 188.159,67.128 189.110,67.128 189.231 C 67.128 189.352,67.230 189.451,67.354 189.451 C 67.478 189.451,67.520 189.547,67.448 189.664 C 67.376 189.782,67.434 189.877,67.578 189.877 C 67.721 189.877,67.775 189.941,67.698 190.019 C 67.620 190.096,67.988 190.970,68.515 191.961 C 69.041 192.951,69.473 193.895,69.473 194.057 C 69.473 194.220,69.568 194.353,69.686 194.353 C 69.803 194.353,69.885 194.425,69.868 194.513 C 69.811 194.814,70.367 196.058,70.559 196.058 C 70.665 196.058,70.751 196.168,70.751 196.303 C 70.751 196.578,71.275 197.731,73.159 201.598 C 73.872 203.063,74.461 204.314,74.468 204.377 C 74.475 204.439,74.929 205.398,75.477 206.508 C 76.981 209.554,79.276 214.361,79.313 214.543 C 79.330 214.632,79.786 215.567,80.326 216.622 C 80.865 217.677,81.586 219.188,81.928 219.979 C 82.271 220.770,82.645 221.417,82.760 221.417 C 82.875 221.417,82.911 221.475,82.840 221.546 C 82.770 221.617,82.983 222.216,83.315 222.878 C 84.168 224.579,86.163 228.747,86.850 230.261 C 87.169 230.964,87.521 231.598,87.633 231.670 C 87.745 231.742,87.824 231.886,87.810 231.990 C 87.766 232.300,88.489 233.777,88.684 233.777 C 88.784 233.777,88.865 233.959,88.865 234.182 C 88.865 234.404,89.489 235.838,90.250 237.368 C 91.012 238.898,91.636 240.238,91.636 240.347 C 91.636 240.456,91.782 240.666,91.960 240.814 C 92.139 240.962,92.243 241.126,92.191 241.178 C 92.139 241.230,92.520 242.125,93.038 243.165 C 93.556 244.206,93.980 245.157,93.980 245.278 C 93.980 245.399,94.081 245.498,94.205 245.498 C 94.330 245.498,94.372 245.594,94.299 245.711 C 94.227 245.828,94.285 245.924,94.429 245.924 C 94.573 245.924,94.627 245.988,94.549 246.065 C 94.471 246.143,94.839 247.017,95.366 248.007 C 95.893 248.998,96.324 249.941,96.324 250.104 C 96.324 250.267,96.420 250.400,96.537 250.400 C 96.654 250.400,96.736 250.471,96.720 250.559 C 96.662 250.861,97.218 252.104,97.410 252.104 C 97.516 252.104,97.603 252.215,97.603 252.350 C 97.603 252.614,98.029 253.559,99.942 257.539 C 100.618 258.945,101.187 260.166,101.205 260.252 C 101.223 260.339,101.692 261.298,102.248 262.384 C 103.480 264.791,104.656 267.460,104.668 267.874 C 104.670 267.933,104.777 268.109,104.907 268.265 C 105.037 268.421,105.158 268.709,105.176 268.904 C 105.232 269.497,105.759 271.071,105.902 271.071 C 105.976 271.071,106.051 271.265,106.069 271.503 C 106.087 271.740,106.251 272.234,106.434 272.601 C 106.616 272.967,106.766 273.352,106.766 273.455 C 106.766 273.558,106.925 273.998,107.120 274.434 C 107.314 274.870,107.494 275.298,107.519 275.386 C 107.545 275.474,107.589 275.594,107.619 275.653 C 107.648 275.711,107.692 275.831,107.717 275.919 C 107.802 276.223,108.076 276.937,108.677 278.423 C 109.009 279.243,109.634 280.826,110.067 281.939 C 110.500 283.053,110.953 284.084,111.074 284.230 C 111.195 284.377,111.228 284.497,111.149 284.497 C 111.069 284.497,111.142 284.760,111.310 285.083 C 111.478 285.405,111.732 285.956,111.874 286.308 C 112.017 286.660,112.268 287.219,112.433 287.551 C 112.598 287.882,112.733 288.229,112.733 288.320 C 112.733 288.412,113.038 289.147,113.411 289.955 C 113.783 290.762,114.107 291.520,114.131 291.640 C 114.154 291.760,114.505 292.575,114.910 293.452 C 115.316 294.328,116.164 296.172,116.794 297.549 C 117.425 298.926,118.021 300.053,118.120 300.053 C 118.218 300.053,118.246 300.139,118.181 300.244 C 118.032 300.485,125.049 314.544,125.319 314.544 C 125.429 314.544,125.519 314.691,125.519 314.870 C 125.519 315.210,127.389 318.835,127.660 319.020 C 127.746 319.078,127.965 319.462,128.147 319.872 C 128.508 320.684,129.390 322.259,129.581 322.429 C 129.646 322.488,129.825 322.848,129.979 323.229 C 130.133 323.609,130.344 323.921,130.447 323.921 C 130.550 323.921,130.634 324.058,130.634 324.226 C 130.634 324.393,130.754 324.658,130.900 324.815 C 131.047 324.972,131.404 325.555,131.695 326.109 C 131.986 326.664,132.303 327.118,132.400 327.118 C 132.498 327.118,132.518 327.214,132.445 327.331 C 132.373 327.448,132.415 327.544,132.539 327.544 C 132.663 327.544,132.765 327.664,132.765 327.811 C 132.765 327.957,133.292 328.883,133.937 329.869 C 134.582 330.854,135.109 331.695,135.109 331.738 C 135.109 331.931,136.306 333.636,136.550 333.790 C 136.700 333.886,136.777 334.038,136.721 334.129 C 136.665 334.220,136.898 334.621,137.240 335.021 C 137.582 335.421,137.866 335.829,137.871 335.926 C 137.891 336.347,144.032 345.019,144.310 345.019 C 144.407 345.019,144.487 345.139,144.489 345.285 C 144.491 345.432,144.791 345.887,145.155 346.297 C 145.520 346.708,146.047 347.403,146.327 347.842 C 146.606 348.282,146.930 348.641,147.046 348.641 C 147.162 348.641,147.256 348.764,147.256 348.914 C 147.256 349.064,147.424 349.337,147.629 349.522 C 147.834 349.707,148.194 350.134,148.428 350.470 C 148.663 350.807,149.163 351.396,149.540 351.780 C 149.917 352.163,150.157 352.479,150.073 352.481 C 149.989 352.482,150.018 352.554,150.137 352.640 C 150.256 352.727,150.627 353.133,150.962 353.543 C 153.219 356.311,162.697 365.964,163.366 366.177 C 163.445 366.202,163.861 366.558,164.292 366.969 C 164.723 367.379,165.357 367.923,165.702 368.178 C 166.047 368.434,166.545 368.845,166.809 369.092 C 167.072 369.340,167.288 369.498,167.288 369.444 C 167.288 369.389,167.504 369.528,167.768 369.753 C 168.031 369.977,168.583 370.448,168.993 370.799 C 169.403 371.150,169.884 371.439,170.061 371.440 C 170.238 371.442,170.502 371.636,170.648 371.870 C 170.795 372.104,171.058 372.296,171.232 372.296 C 171.407 372.296,171.551 372.368,171.552 372.456 C 171.553 372.599,171.857 372.807,173.362 373.692 C 173.596 373.830,174.353 374.289,175.044 374.712 C 175.734 375.135,176.397 375.420,176.515 375.347 C 176.634 375.274,176.673 375.307,176.603 375.421 C 176.484 375.614,180.201 377.517,180.554 377.444 C 180.642 377.426,180.714 377.492,180.714 377.592 C 180.714 377.692,181.361 378.035,182.152 378.356 C 182.944 378.676,183.831 379.066,184.124 379.221 C 184.417 379.376,184.729 379.511,184.817 379.520 C 184.906 379.529,185.312 379.677,185.721 379.847 C 189.968 381.622,200.436 383.094,210.336 383.309 C 257.754 384.341,307.293 358.387,333.383 318.845 C 349.186 294.894,356.321 268.218,355.253 237.080 C 354.328 210.122,359.890 187.289,379.108 139.158 C 390.083 111.673,392.794 100.734,391.149 90.588 C 390.148 84.416,385.617 77.435,381.887 76.317 C 381.428 76.180,380.887 75.902,380.685 75.700 C 380.037 75.052,374.310 75.236,371.763 75.986 C 371.177 76.159,370.650 76.301,370.591 76.302 C 370.324 76.307,368.717 76.783,368.141 77.029 C 367.789 77.178,366.847 77.567,366.048 77.892 C 365.248 78.218,364.481 78.590,364.343 78.720 C 364.205 78.850,363.468 79.281,362.706 79.680 C 361.945 80.078,361.117 80.557,360.866 80.745 C 360.616 80.933,360.195 81.231,359.931 81.406 C 358.585 82.301,356.953 83.596,356.953 83.769 C 356.953 83.876,356.831 83.964,356.681 83.964 C 356.532 83.964,356.083 84.342,355.684 84.805 C 355.284 85.267,354.895 85.607,354.818 85.560 C 354.595 85.422,351.827 88.356,352.001 88.547 C 352.087 88.642,352.048 88.658,351.915 88.582 C 351.781 88.505,351.433 88.752,351.138 89.134 C 350.843 89.513,350.377 90.062,350.102 90.352 C 349.826 90.642,349.600 90.945,349.600 91.024 C 349.600 91.103,349.340 91.409,349.022 91.704 C 348.367 92.311,345.028 96.688,344.848 97.176 C 344.783 97.352,344.670 97.544,344.596 97.603 C 344.339 97.806,342.073 101.337,341.588 102.291 C 341.319 102.818,341.031 103.298,340.948 103.356 C 340.697 103.534,336.494 111.864,336.494 112.185 C 336.494 112.350,336.418 112.516,336.324 112.555 C 336.094 112.651,333.631 118.491,332.846 120.798 C 332.502 121.812,332.121 122.838,332.000 123.078 C 331.880 123.317,331.746 123.701,331.703 123.930 C 331.661 124.160,331.606 124.371,331.583 124.401 C 331.559 124.430,331.526 124.526,331.510 124.614 C 331.493 124.702,331.420 124.869,331.346 124.987 C 331.213 125.200,330.342 127.901,330.214 128.503 C 330.176 128.679,329.837 129.771,329.459 130.930 C 329.082 132.089,328.761 133.263,328.745 133.540 C 328.729 133.817,328.644 134.043,328.556 134.044 C 328.468 134.044,328.408 134.116,328.422 134.204 C 328.435 134.291,328.428 134.411,328.405 134.470 C 328.382 134.529,328.334 134.720,328.297 134.896 C 328.261 135.072,327.976 136.031,327.666 137.027 C 326.701 140.122,326.585 140.538,326.641 140.710 C 326.671 140.801,326.555 141.148,326.383 141.480 C 326.212 141.812,326.014 142.361,325.944 142.699 C 325.739 143.688,325.728 143.729,325.576 143.972 C 325.496 144.099,325.327 144.627,325.200 145.144 C 324.926 146.266,324.884 146.405,324.683 146.867 C 324.597 147.063,324.504 147.350,324.476 147.506 C 324.383 148.016,323.654 150.332,323.381 150.986 C 323.234 151.337,322.898 152.344,322.633 153.223 C 321.978 155.403,319.982 160.517,319.203 162.014 C 318.852 162.688,318.643 163.241,318.739 163.242 C 318.835 163.244,318.815 163.316,318.695 163.402 C 318.575 163.488,318.239 164.038,317.949 164.624 C 317.659 165.210,317.349 165.722,317.262 165.761 C 317.174 165.800,317.102 165.967,317.102 166.131 C 317.102 166.296,316.963 166.600,316.793 166.806 C 316.068 167.688,314.118 170.527,314.118 170.700 C 314.118 170.805,313.990 170.967,313.834 171.060 C 313.678 171.154,312.767 172.067,311.810 173.088 C 310.852 174.110,310.069 174.879,310.069 174.798 C 310.069 174.716,309.853 174.867,309.590 175.133 C 309.326 175.399,308.535 176.049,307.832 176.578 C 307.128 177.106,306.291 177.764,305.970 178.039 C 305.650 178.314,304.758 178.907,303.989 179.357 C 303.220 179.807,302.700 180.211,302.832 180.255 C 302.965 180.299,302.322 180.717,301.404 181.184 C 300.485 181.651,299.014 182.536,298.135 183.152 C 297.256 183.767,295.099 185.000,293.340 185.891 C 264.407 200.562,242.860 225.292,236.545 251.078 C 232.279 268.496,234.926 290.425,243.286 306.923 C 244.092 308.513,243.778 308.348,242.682 306.605 C 223.177 275.595,225.435 241.465,248.890 212.800 C 260.995 198.005,279.190 185.789,295.237 181.682 C 295.929 181.505,296.523 181.332,296.557 181.298 C 296.591 181.264,295.971 179.896,295.179 178.258 C 294.386 176.620,276.877 140.153,256.268 97.220 C 230.509 43.558,218.413 18.576,217.566 17.291 C 211.624 8.270,200.176 3.289,189.877 5.243 M104.732 44.029 C 110.305 44.940,115.883 47.888,119.919 52.055 C 120.765 52.929,121.517 53.586,121.588 53.514 C 121.660 53.442,121.687 53.479,121.649 53.596 C 121.541 53.924,122.996 55.838,123.239 55.688 C 123.359 55.614,123.389 55.661,123.307 55.793 C 123.226 55.925,123.403 56.400,123.701 56.850 C 124.389 57.890,126.833 62.995,162.530 137.950 C 178.763 172.037,192.013 199.960,191.973 200.000 C 191.933 200.040,188.688 198.177,184.762 195.860 C 177.842 191.776,177.607 191.615,177.055 190.602 C 176.743 190.028,163.284 161.843,147.148 127.970 C 131.011 94.097,117.332 65.404,116.750 64.208 C 112.949 56.397,105.739 50.829,96.769 48.775 C 93.297 47.980,86.349 48.063,84.099 48.926 C 83.255 49.250,83.874 48.539,85.207 47.652 C 90.234 44.311,97.829 42.901,104.732 44.029 M381.140 75.653 C 381.777 75.926,382.310 75.926,381.886 75.653 C 381.710 75.539,381.375 75.451,381.140 75.458 L 380.714 75.469 381.140 75.653 M382.416 75.828 C 382.643 76.055,385.083 76.671,385.083 76.502 C 385.083 76.416,384.819 76.287,384.497 76.215 C 384.174 76.143,383.543 75.996,383.094 75.887 C 382.646 75.779,382.341 75.752,382.416 75.828 M385.386 76.692 C 385.450 76.796,385.719 76.935,385.985 77.002 C 386.451 77.119,386.453 77.112,386.054 76.814 C 385.596 76.472,385.206 76.401,385.386 76.692 " stroke="none" fill="#fcdb64" fill-rule="evenodd"></path><path id="path3" d="" stroke="none" fill="#fcdc6c" fill-rule="evenodd"></path><path id="path4" d="M193.560 4.845 C 194.120 4.889,194.983 4.889,195.478 4.844 C 195.973 4.799,195.514 4.763,194.459 4.764 C 193.404 4.765,193.000 4.801,193.560 4.845 M213.958 12.893 C 214.356 13.303,214.729 13.639,214.788 13.639 C 214.847 13.639,214.569 13.303,214.172 12.893 C 213.774 12.483,213.401 12.147,213.342 12.147 C 213.283 12.147,213.561 12.483,213.958 12.893 M154.608 15.344 C 155.304 16.047,155.922 16.622,155.980 16.622 C 156.039 16.622,155.517 16.047,154.822 15.344 C 154.126 14.640,153.508 14.065,153.450 14.065 C 153.391 14.065,153.913 14.640,154.608 15.344 M169.225 19.925 C 169.225 20.043,169.457 20.570,169.739 21.097 C 170.021 21.625,170.252 21.961,170.252 21.843 C 170.252 21.726,170.021 21.199,169.739 20.671 C 169.457 20.144,169.225 19.808,169.225 19.925 M171.143 23.974 C 171.143 24.092,171.374 24.619,171.657 25.147 C 171.939 25.674,172.170 26.010,172.170 25.892 C 172.170 25.775,171.939 25.248,171.657 24.720 C 171.374 24.193,171.143 23.857,171.143 23.974 M173.061 28.023 C 173.061 28.141,173.292 28.668,173.575 29.196 C 173.857 29.723,174.088 30.059,174.088 29.941 C 174.088 29.824,173.857 29.297,173.575 28.769 C 173.292 28.242,173.061 27.906,173.061 28.023 M90.091 48.103 C 90.471 48.150,91.095 48.150,91.476 48.103 C 91.857 48.056,91.545 48.017,90.783 48.017 C 90.021 48.017,89.710 48.056,90.091 48.103 M111.348 56.686 C 112.162 57.507,112.876 58.178,112.935 58.178 C 112.993 58.178,112.375 57.507,111.561 56.686 C 110.747 55.866,110.033 55.194,109.974 55.194 C 109.916 55.194,110.534 55.866,111.348 56.686 M387.445 77.647 C 387.718 77.882,389.773 78.812,389.677 78.657 C 389.561 78.469,387.762 77.571,387.500 77.571 C 387.421 77.571,387.396 77.605,387.445 77.647 M389.984 78.903 C 390.043 78.968,390.714 79.467,391.476 80.011 C 392.466 80.718,392.625 80.793,392.032 80.273 C 391.331 79.657,389.661 78.540,389.984 78.903 M391.556 95.685 C 391.556 97.032,391.591 97.584,391.633 96.910 C 391.676 96.236,391.676 95.133,391.633 94.459 C 391.591 93.785,391.556 94.337,391.556 95.685 M63.985 97.545 C 64.425 97.591,65.144 97.591,65.583 97.545 C 66.023 97.499,65.663 97.461,64.784 97.461 C 63.905 97.461,63.546 97.499,63.985 97.545 M61.428 97.749 C 61.633 97.803,61.969 97.803,62.174 97.749 C 62.379 97.696,62.211 97.652,61.801 97.652 C 61.391 97.652,61.223 97.696,61.428 97.749 M67.395 97.749 C 67.600 97.803,67.936 97.803,68.141 97.749 C 68.346 97.696,68.178 97.652,67.768 97.652 C 67.357 97.652,67.190 97.696,67.395 97.749 M53.436 100.173 C 52.762 100.521,52.211 100.854,52.211 100.912 C 52.211 101.007,54.747 99.800,54.964 99.602 C 55.243 99.346,54.501 99.624,53.436 100.173 M49.973 102.504 C 49.601 102.915,49.601 102.930,49.976 102.930 C 50.189 102.930,50.301 102.867,50.224 102.790 C 50.147 102.713,50.190 102.521,50.321 102.364 C 50.696 101.912,50.402 102.031,49.973 102.504 M257.742 203.356 L 256.899 204.262 257.805 203.420 C 258.647 202.636,258.809 202.451,258.647 202.451 C 258.613 202.451,258.205 202.858,257.742 203.356 M252.957 208.098 C 252.439 208.625,252.064 209.057,252.122 209.057 C 252.181 209.057,252.652 208.625,253.170 208.098 C 253.688 207.571,254.063 207.139,254.005 207.139 C 253.946 207.139,253.474 207.571,252.957 208.098 M261.050 209.217 L 259.243 211.082 261.108 209.275 C 262.840 207.597,263.070 207.352,262.915 207.352 C 262.883 207.352,262.044 208.191,261.050 209.217 M355.301 223.442 C 355.304 223.910,355.347 224.077,355.398 223.812 C 355.449 223.547,355.447 223.163,355.394 222.960 C 355.341 222.756,355.299 222.973,355.301 223.442 M355.122 230.474 C 355.122 232.467,355.154 233.311,355.193 232.349 C 355.232 231.388,355.233 229.758,355.193 228.726 C 355.154 227.695,355.122 228.482,355.122 230.474 M355.319 238.253 C 355.319 239.132,355.357 239.491,355.403 239.052 C 355.449 238.612,355.449 237.893,355.403 237.453 C 355.357 237.014,355.319 237.373,355.319 238.253 M355.316 249.121 C 355.316 249.883,355.355 250.194,355.402 249.814 C 355.449 249.433,355.449 248.809,355.402 248.428 C 355.355 248.047,355.316 248.359,355.316 249.121 M355.088 253.490 C 355.091 253.958,355.134 254.125,355.185 253.860 C 355.236 253.595,355.234 253.211,355.181 253.008 C 355.128 252.804,355.086 253.021,355.088 253.490 M354.871 256.367 C 354.871 256.777,354.915 256.945,354.968 256.739 C 355.022 256.534,355.022 256.199,354.968 255.994 C 354.915 255.788,354.871 255.956,354.871 256.367 M229.778 257.006 C 229.778 257.416,229.822 257.584,229.875 257.379 C 229.929 257.174,229.929 256.838,229.875 256.633 C 229.822 256.428,229.778 256.596,229.778 257.006 M229.576 260.096 C 229.578 260.682,229.619 260.896,229.668 260.572 C 229.717 260.249,229.716 259.769,229.665 259.507 C 229.615 259.245,229.575 259.510,229.576 260.096 M234.466 263.399 C 234.466 263.809,234.510 263.977,234.564 263.772 C 234.617 263.567,234.617 263.231,234.564 263.026 C 234.510 262.821,234.466 262.989,234.466 263.399 M229.579 267.235 C 229.579 267.880,229.619 268.143,229.668 267.821 C 229.717 267.499,229.717 266.971,229.668 266.649 C 229.619 266.327,229.579 266.590,229.579 267.235 M234.286 269.046 C 234.287 270.570,234.321 271.165,234.362 270.369 C 234.403 269.573,234.403 268.327,234.361 267.599 C 234.320 266.871,234.286 267.523,234.286 269.046 M229.778 270.218 C 229.778 270.629,229.822 270.796,229.875 270.591 C 229.929 270.386,229.929 270.051,229.875 269.845 C 229.822 269.640,229.778 269.808,229.778 270.218 M234.466 274.694 C 234.466 275.104,234.510 275.272,234.564 275.067 C 234.617 274.861,234.617 274.526,234.564 274.321 C 234.510 274.116,234.466 274.283,234.466 274.694 M319.542 336.335 L 318.700 337.240 319.606 336.398 C 320.448 335.614,320.609 335.429,320.448 335.429 C 320.413 335.429,320.006 335.836,319.542 336.335 M312.627 343.207 C 312.109 343.735,311.733 344.166,311.792 344.166 C 311.851 344.166,312.322 343.735,312.840 343.207 C 313.357 342.680,313.733 342.248,313.674 342.248 C 313.616 342.248,313.144 342.680,312.627 343.207 M202.717 383.098 C 202.922 383.152,203.258 383.152,203.463 383.098 C 203.668 383.045,203.500 383.001,203.090 383.001 C 202.680 383.001,202.512 383.045,202.717 383.098 M222.432 383.102 C 222.697 383.153,223.081 383.151,223.284 383.098 C 223.488 383.045,223.271 383.003,222.802 383.005 C 222.334 383.008,222.167 383.051,222.432 383.102 M205.807 383.315 C 206.071 383.366,206.502 383.366,206.766 383.315 C 207.030 383.264,206.814 383.223,206.287 383.223 C 205.759 383.223,205.543 383.264,205.807 383.315 M219.129 383.318 C 219.453 383.367,219.933 383.365,220.195 383.315 C 220.457 383.264,220.192 383.224,219.606 383.226 C 219.020 383.227,218.805 383.269,219.129 383.318 M211.569 383.536 C 212.306 383.577,213.457 383.577,214.127 383.535 C 214.796 383.493,214.193 383.459,212.786 383.459 C 211.380 383.460,210.832 383.494,211.569 383.536 " stroke="none" fill="#f4bf5c" fill-rule="evenodd"></path></g></svg>