<svg width="23" height="23" viewBox="0 0 23 23" fill="none" xmlns="http://www.w3.org/2000/svg">
<path d="M6.47095 0.548828H16.4709C18.0617 0.550681 19.5867 1.18342 20.7115 2.30823C21.8364 3.43305 22.4691 4.9581 22.4709 6.54883V16.5488C22.4691 18.1396 21.8364 19.6646 20.7115 20.7894C19.5867 21.9142 18.0617 22.547 16.4709 22.5488H6.47095C4.88022 22.547 3.35517 21.9142 2.23035 20.7894C1.10554 19.6646 0.4728 18.1396 0.470947 16.5488V6.54883C0.4728 4.9581 1.10554 3.43305 2.23035 2.30823C3.35517 1.18342 4.88022 0.550681 6.47095 0.548828ZM16.4709 20.5488C17.5318 20.5488 18.5492 20.1274 19.2994 19.3773C20.0495 18.6271 20.4709 17.6097 20.4709 16.5488V6.54883C20.4709 5.48796 20.0495 4.47055 19.2994 3.7204C18.5492 2.97026 17.5318 2.54883 16.4709 2.54883H6.47095C5.41008 2.54883 4.39267 2.97026 3.64252 3.7204C2.89237 4.47055 2.47095 5.48796 2.47095 6.54883V16.5488C2.47095 17.6097 2.89237 18.6271 3.64252 19.3773C4.39267 20.1274 5.41008 20.5488 6.47095 20.5488H16.4709Z" fill="#003579"/>
<path d="M11.514 6.50589C11.76 6.50588 12.0057 6.52392 12.249 6.55989C13.2996 6.71596 14.2732 7.20254 15.0287 7.94909C15.7842 8.69564 16.2823 9.66337 16.4509 10.712C16.6195 11.7607 16.4497 12.8358 15.9663 13.7815C15.4828 14.7272 14.7108 15.4944 13.762 15.9719C13.0644 16.3222 12.2947 16.505 11.514 16.5059C10.6606 16.5059 9.82142 16.2874 9.07633 15.8713C8.33123 15.4552 7.70504 14.8553 7.25736 14.1288C6.80968 13.4022 6.55542 12.5732 6.51877 11.7206C6.48213 10.868 6.66432 10.0202 7.04801 9.25789C7.46198 8.42854 8.0995 7.7314 8.88863 7.24513C9.67776 6.75885 10.5871 6.50281 11.514 6.50589ZM11.514 14.5059C12.208 14.5058 12.8806 14.2651 13.417 13.8248C13.9535 13.3844 14.3207 12.7717 14.456 12.091C14.5914 11.4103 14.4866 10.7037 14.1594 10.0916C13.8322 9.47957 13.3029 8.99987 12.6617 8.73427C12.0205 8.46866 11.3071 8.43359 10.6429 8.63502C9.97878 8.83646 9.40501 9.26193 9.01938 9.83897C8.63375 10.416 8.46012 11.1089 8.52806 11.7996C8.59601 12.4903 8.90133 13.1361 9.39201 13.6269C9.67005 13.9064 10.0007 14.128 10.365 14.2789C10.7292 14.4298 11.1198 14.5069 11.514 14.5059Z" fill="#003579"/>
</svg>
