<svg width="512" height="336" viewBox="0 0 512 336" fill="none" xmlns="http://www.w3.org/2000/svg">
<path d="M473.655 0.276001H38.345C17.167 0.276001 0 17.443 0 38.621V297.38C0 318.557 17.167 335.725 38.345 335.725H473.655C494.832 335.725 512 318.558 512 297.38V38.621C512 17.443 494.833 0.276001 473.655 0.276001Z" fill="#41479B"/>
<path d="M511.469 32.282C508.447 14.123 492.672 0.274994 473.655 0.274994H463.678L300.138 107.422V0.275993H211.862V107.423L48.322 0.275993H38.345C19.328 0.275993 3.553 14.123 0.531 32.283L140.309 123.863H0V212.139H140.309L0.531 303.717C3.553 321.876 19.328 335.724 38.345 335.724H48.322L211.862 228.577V335.724H300.138V228.577L463.678 335.724H473.655C492.672 335.724 508.447 321.877 511.469 303.717L371.691 212.137H512V123.861H371.691L511.469 32.282Z" fill="#F5F5F5"/>
<path d="M282.483 0.276001H229.517V141.517H0V194.483H229.517V335.724H282.483V194.483H512V141.517H282.483V0.276001Z" fill="#FF4B55"/>
<path d="M24.793 333.252L211.376 212.138H178.948L9.224 322.31C13.377 327.157 18.714 330.955 24.793 333.252Z" fill="#FF4B55"/>
<path d="M346.388 212.138H313.96L494.676 329.443C499.733 326.122 503.953 321.636 506.963 316.368L346.388 212.138Z" fill="#FF4B55"/>
<path d="M4.04901 21.475L161.779 123.862H194.207L15.475 7.84201C10.676 11.414 6.74901 16.084 4.04901 21.475Z" fill="#FF4B55"/>
<path d="M332.566 123.862L502.601 13.487C498.402 8.656 493.023 4.88 486.902 2.627L300.138 123.862H332.566Z" fill="#FF4B55"/>
</svg>
