<?xml version="1.0" encoding="utf-8"?>
<!-- Generator: Adobe Illustrator 26.0.3, SVG Export Plug-In . SVG Version: 6.00 Build 0)  -->
<svg version="1.1" id="Layer_1" xmlns="http://www.w3.org/2000/svg" xmlns:xlink="http://www.w3.org/1999/xlink" x="0px" y="0px"
	 viewBox="0 0 821.5 389.6" style="enable-background:new 0 0 821.5 389.6;" xml:space="preserve">
<style type="text/css">
	.st0{fill:#0064D2;}
	.st1{fill:#6BDF00;}
	.st2{fill:#00B1CE;}
	.st3{fill:#FF0000;}
	.st4{fill:#FFBE00;}
	.st5{fill:#FF6900;}
</style>
<g id="Layer_1_00000101821788145405275830000001765727148883011260_">
	<path d="M96.8,258c-9-5-16.5-12.4-21.4-21.4c-5.2-9.2-7.8-19.9-7.8-32c0-12.1,2.7-22.8,8-32c5.1-9.1,12.7-16.5,21.9-21.5
		c9.5-5.1,20.2-7.7,31-7.6c10.8-0.2,21.5,2.5,31,7.6c9.2,5,16.7,12.4,21.9,21.4c5.3,9.3,8,19.9,8,32c0,12.1-2.7,22.7-8.2,32
		c-5.3,9.1-13,16.5-22.3,21.5c-9.6,5.1-20.4,7.7-31.3,7.6C116.9,265.7,106.3,263.1,96.8,258z M142.8,235.6
		c4.9-2.8,8.9-6.9,11.4-11.9c2.8-5.3,4.3-11.7,4.3-19.2c0-11.2-3-19.9-8.9-25.9c-5.6-5.9-13.5-9.2-21.6-9.1
		c-8.1-0.2-15.9,3.1-21.4,9.1c-5.8,6-8.6,14.7-8.6,25.9c0,11.2,2.8,19.9,8.4,25.9c5.4,6,13.2,9.3,21.2,9.1
		C132.9,239.5,138.2,238.2,142.8,235.6z"/>
	<path d="M281.2,148.2c6.3,3.1,11.7,7.8,15.8,13.6v-18.3h30.1V260c0,11-2.2,24.8-6.6,33.5c-4.4,8.6-11.3,15.8-19.8,20.5
		c-8.8,5-19.5,7.6-32,7.6c-16.8,0-30.6-3.9-41.3-11.7s-16.8-18.5-18.3-32h29.7c1.6,5.4,5.2,10.1,10.1,12.9
		c5.2,3.2,11.5,4.8,18.9,4.8c8.7,0,15.7-2.6,21.1-7.8c5.4-5.2,8.1-17.2,8.1-27.7v-14.4c-4.1,5.8-9.6,10.6-15.9,13.9
		c-7.1,3.8-15.1,5.7-23.1,5.6c-9.7,0.1-19.1-2.6-27.3-7.7c-8.4-5.3-15.2-12.8-19.5-21.7c-4.8-9.3-7.2-20-7.2-32.1
		c0-12,2.4-22.6,7.1-31.8c4.3-8.8,11.1-16.2,19.4-21.4c8.2-5,17.7-7.6,27.4-7.5C266,142.8,274,144.6,281.2,148.2z M292.7,185.4
		c-2.6-5-6.6-9.2-11.5-12c-4.7-2.7-10.1-4.2-15.6-4.2c-11.2-0.1-21.5,6-26.8,15.9c-2.9,5.2-4.4,11.4-4.4,18.5
		c-0.1,6.5,1.4,12.9,4.4,18.7c2.7,5.1,6.6,9.3,11.5,12.3c4.6,2.8,9.9,4.3,15.3,4.3c5.5,0,10.9-1.4,15.6-4.2c4.9-2.8,8.9-7,11.5-12
		c2.8-5.1,4.3-11.3,4.3-18.6S295.6,190.5,292.7,185.4z"/>
	<path d="M394.7,169.9v57.2c0,4,1,6.9,2.9,8.6s5.2,2.7,9.7,2.7h13.9v25.2h-18.8c-25.2,0-37.8-12.2-37.8-36.7v-57h-16.3v-26h16.3
		v-29.7h30.1v29.8h26.5v25.9L394.7,169.9z"/>
	<path d="M478.4,143.9v119.7h-29.9V143.9L478.4,143.9z M478.4,128.9V99h-29.9v29.9L478.4,128.9z"/>
	<path d="M509.1,172.3c5-9,12.4-16.4,21.4-21.4c9.1-5.1,19.5-7.6,31.3-7.6c15.1,0,27.7,3.7,37.6,11c9.9,7.3,16.6,17.6,20,30.8h-33.3
		c-1.6-4.9-4.7-9.1-8.9-12.1c-4.2-2.9-9.4-4.4-15.5-4.4c-8.8,0-15.8,3.1-20.9,9.3s-7.7,15-7.7,26.4c0,11.3,2.6,20,7.7,26.1
		s12.1,9.3,20.9,9.3c12.5,0,20.6-5.4,24.5-16.2h33.3c-3.4,12.8-10,23-20,30.5c-10,7.5-22.5,11.3-37.5,11.3
		c-11.7,0-22.2-2.5-31.3-7.6c-9-4.9-16.4-12.3-21.4-21.3c-5.1-9.2-7.7-19.9-7.7-32.1C501.5,192.2,504.1,181.5,509.1,172.3z"/>
	<polygon class="st0" points="667,68.1 698,68.1 682.5,94.9 667,121.8 651.6,94.9 636.1,68.1 	"/>
	<polygon class="st1" points="753.9,166.1 667,121.8 690.8,166.1 690.8,166.1 690.8,166.1 	"/>
	<polygon class="st2" points="698,68.1 667,121.8 753.9,166.1 	"/>
	<polygon class="st3" points="667,264.1 698,264.1 682.5,237.3 667,210.4 651.6,237.3 636.1,264.1 	"/>
	<polygon class="st4" points="753.9,166.1 667,210.4 690.8,166.1 690.8,166.1 690.8,166.1 	"/>
	<polygon class="st5" points="698,264.1 667,210.4 753.9,166.1 	"/>
</g>
</svg>
