<svg width="21" height="17" viewBox="0 0 21 17" fill="none" xmlns="http://www.w3.org/2000/svg">
<path d="M20.4709 2.44285C19.7178 2.76631 18.9225 2.98113 18.1089 3.08085C18.9637 2.58353 19.6055 1.78903 19.9119 0.84885C19.1065 1.31873 18.2275 1.64905 17.3119 1.82585C16.925 1.42158 16.4601 1.09998 15.9453 0.880488C15.4305 0.660998 14.8766 0.548178 14.3169 0.54885C13.7053 0.546853 13.101 0.682338 12.5488 0.945292C11.9965 1.20825 11.5104 1.59194 11.1264 2.06803C10.7424 2.54411 10.4703 3.10041 10.3301 3.69581C10.19 4.2912 10.1855 4.91048 10.3169 5.50785C8.69136 5.43245 7.09952 5.01778 5.64374 4.29049C4.18797 3.56321 2.90045 2.5394 1.86395 1.28485C1.33548 2.17332 1.1715 3.23189 1.4064 4.23861C1.64131 5.24533 2.25684 6.12201 3.12395 6.68485C2.47526 6.66652 1.84018 6.49447 1.27095 6.18285V6.22685C1.27723 7.16554 1.60764 8.07324 2.20625 8.79632C2.80487 9.5194 3.63493 10.0134 4.55595 10.1948C4.20496 10.2859 3.84355 10.3306 3.48095 10.3279C3.22057 10.3324 2.96044 10.3092 2.70495 10.2589C2.97647 11.0649 3.4901 11.7674 4.17574 12.2707C4.86138 12.774 5.68561 13.0534 6.53595 13.0709C5.07803 14.1907 3.29031 14.7962 1.45195 14.7929C1.1241 14.7948 0.796445 14.7761 0.470947 14.7368C2.35191 15.9283 4.53438 16.5571 6.76095 16.5488C8.28438 16.5714 9.79711 16.2909 11.2112 15.7239C12.6254 15.1568 13.9127 14.3143 14.9985 13.2455C16.0843 12.1766 16.9469 10.9027 17.5361 9.49763C18.1254 8.09259 18.4295 6.58445 18.4309 5.06085C18.4309 4.88285 18.4249 4.70985 18.4159 4.53885C19.2227 3.97098 19.9191 3.26068 20.4709 2.44285Z" fill="#003579"/>
</svg>
