<svg width="50" height="39" viewBox="0 0 50 39" fill="none" xmlns="http://www.w3.org/2000/svg">
<path fill-rule="evenodd" clip-rule="evenodd" d="M44.8631 9.71946C44.8962 10.147 44.8962 10.5722 44.8962 10.9973C44.8962 24.0079 34.5843 39 15.7389 39C9.93283 39 4.53898 37.385 0 34.5801C0.824344 34.6705 1.61816 34.7022 2.47557 34.7022C7.26644 34.7022 11.6757 33.1483 15.1995 30.4973C10.6936 30.4069 6.91787 27.5727 5.6152 23.6732C6.24873 23.7636 6.8848 23.8246 7.55139 23.8246C8.46988 23.8246 9.39345 23.7025 10.2509 23.4899C5.5516 22.5761 2.03287 18.6155 2.03287 13.8315V13.7094C3.39915 14.4399 4.98423 14.8968 6.66344 14.9579C3.90291 13.1938 2.09393 10.1764 2.09393 6.76306C2.09393 4.93547 2.60024 3.25937 3.48819 1.79827C8.53348 7.76726 16.118 11.6692 24.6209 12.0968C24.4632 11.3638 24.3665 10.6039 24.3665 9.84162C24.3665 4.41749 28.936 0 34.6148 0C37.5662 0 40.23 1.18745 42.1026 3.10788C44.4179 2.6803 46.6365 1.85691 48.6057 0.730547C47.845 3.01504 46.2243 4.93547 44.0998 6.15468C46.1632 5.93967 48.163 5.39237 50 4.63006C48.6057 6.57981 46.8629 8.317 44.8631 9.71946Z" fill="white"/>
</svg>
