<svg width="23" height="17" viewBox="0 0 23 17" fill="none" xmlns="http://www.w3.org/2000/svg">
<path d="M22.509 3.04883C22.3798 2.56522 22.1258 2.12401 21.7726 1.76935C21.4193 1.41468 20.9791 1.15898 20.496 1.02782C18.723 0.548824 11.607 0.548828 11.607 0.548828C11.607 0.548828 4.49104 0.548824 2.71604 1.02782C2.23331 1.15928 1.79353 1.41512 1.44064 1.76977C1.08775 2.12441 0.8341 2.56546 0.705036 3.04883C0.0709776 6.69682 0.0709776 10.4268 0.705036 14.0748C0.83458 14.5551 1.08898 14.9925 1.44238 15.3425C1.79578 15.6926 2.23557 15.9428 2.71704 16.0678C4.49604 16.5488 11.607 16.5488 11.607 16.5488C11.607 16.5488 18.723 16.5488 20.498 16.0698C20.9795 15.9448 21.4193 15.6946 21.7727 15.3445C22.1261 14.9945 22.3805 14.5571 22.51 14.0768C23.1441 10.4288 23.1441 6.69881 22.51 3.05083L22.509 3.04883ZM9.27904 11.9488V5.18183L15.227 8.56583L9.28004 11.9488H9.27904Z" fill="#003579"/>
</svg>
